<svg xmlns="http://www.w3.org/2000/svg" xmlns:xlink="http://www.w3.org/1999/xlink" width="294" height="274" viewBox="0 0 294 274">
  <defs>
    <clipPath id="clip-path">
      <rect id="Rectángulo_36585" data-name="Rectángulo 36585" width="294" height="274" transform="translate(1069 8733)" fill="#fff" stroke="#707070" stroke-width="1"/>
    </clipPath>
    <clipPath id="clip-path-2">
      <rect id="Rectángulo_36584" data-name="Rectángulo 36584" width="286.387" height="271.323" fill="none"/>
    </clipPath>
    <clipPath id="clip-path-3">
      <rect id="Rectángulo_36586" data-name="Rectángulo 36586" width="76.543" height="64.676" fill="none"/>
    </clipPath>
  </defs>
  <g id="Grupo_86067" data-name="Grupo 86067" transform="translate(-1069 -8745)">
    <g id="Enmascarar_grupo_83188" data-name="Enmascarar grupo 83188" transform="translate(0 12)" clip-path="url(#clip-path)">
      <g id="Grupo_85752" data-name="Grupo 85752" transform="translate(1076.807 8739.915)">
        <g id="Grupo_85751" data-name="Grupo 85751" clip-path="url(#clip-path-2)">
          <path id="Trazado_119649" data-name="Trazado 119649" d="M202.1,252.171l-6.952-72.123a13.2,13.2,0,1,0-26.273,2.532l5.887,61.069-81.9,22.4a9.476,9.476,0,0,0,4.286,18.447l94.8-18.2,11.3-2.17Z" transform="translate(-13.802 -27.016)" fill="#ffa67a"/>
          <path id="Trazado_119650" data-name="Trazado 119650" d="M211.025,182.086c-.042-.437-.107-.866-.191-1.288l-26.12,2.039a13.33,13.33,0,0,0,.038,1.781l3.27,33.921,26.7,1.873Z" transform="translate(-29.682 -29.054)" fill="#ef946c"/>
          <path id="Trazado_119651" data-name="Trazado 119651" d="M220.445,207.177l-42.688,3.92-3.137-34.17a18.4,18.4,0,0,1,16.642-20.008l6.038-.555a18.4,18.4,0,0,1,20.008,16.643Z" transform="translate(-28.049 -25.115)" fill="#535383"/>
          <path id="Trazado_119652" data-name="Trazado 119652" d="M86.618,302.675c-8.7.529-23.8.374-29.827-6.25,0,0-13.263,4.98-16.95,5.205a5.534,5.534,0,0,1-5.208-2.816s21.941-16.51,26.72-18.248,26.5,2.607,26.5,2.607L91.4,296.015a5.273,5.273,0,0,1-4.781,6.66" transform="translate(-5.566 -45.021)" fill="#ffa67a"/>
          <path id="Trazado_119653" data-name="Trazado 119653" d="M246.69,140.607c-24.865,0-44.043,6.094-56.137,14.156L204.1,223.236l-2.8,65.635s48.277,11.357,96.868,0l-5.611-65.648,4.853-69.38s-19.608-9.6-50.717-13.236" transform="translate(-30.622 -22.596)" fill="#1a1a52"/>
          <path id="Trazado_119654" data-name="Trazado 119654" d="M274.9,152.621c0,10.8-12.576,19.547-28.09,19.547s-28.09-8.752-28.09-19.547,12.576-9.863,28.09-9.863,28.09-.932,28.09,9.863" transform="translate(-35.148 -22.938)" fill="#ffb692"/>
          <path id="Trazado_119655" data-name="Trazado 119655" d="M314.084,252.171l-6.952-72.123a13.2,13.2,0,1,0-26.272,2.532l5.886,61.069-81.9,22.4a9.476,9.476,0,0,0,4.286,18.447l94.8-18.2,11.3-2.17Z" transform="translate(-31.798 -27.016)" fill="#ffb692"/>
          <path id="Trazado_119656" data-name="Trazado 119656" d="M324.117,193.833l-26.342,1.807,2.287,23.732,26.807,3.01Z" transform="translate(-47.853 -31.149)" fill="#d88d87"/>
          <path id="Trazado_119657" data-name="Trazado 119657" d="M332.432,207.177l-42.688,3.92-3.137-34.17a18.4,18.4,0,0,1,16.642-20.008l6.038-.555a18.4,18.4,0,0,1,20.008,16.642Z" transform="translate(-46.045 -25.115)" fill="#535383"/>
          <path id="Trazado_119658" data-name="Trazado 119658" d="M198.605,302.675c-8.7.529-23.8.374-29.827-6.25,0,0-13.263,4.98-16.951,5.205a5.534,5.534,0,0,1-5.208-2.816s21.941-16.51,26.72-18.248,26.5,2.607,26.5,2.607l3.543,12.842a5.272,5.272,0,0,1-4.781,6.66" transform="translate(-23.562 -45.021)" fill="#ffb692"/>
          <path id="Trazado_119659" data-name="Trazado 119659" d="M191.925,80.922c.467,8.548,6.364,15.176,13.174,14.8s11.952-7.6,11.485-16.15S210.22,64.4,203.41,64.772s-11.952,7.6-11.485,16.15" transform="translate(-30.838 -10.407)" fill="#6d86aa"/>
          <path id="Trazado_119660" data-name="Trazado 119660" d="M198.28,80.576c.467,8.548,6.364,15.176,13.174,14.8s11.952-7.6,11.485-16.15-6.364-15.176-13.174-14.8-11.952,7.6-11.485,16.15" transform="translate(-31.859 -10.351)" fill="#fff"/>
          <path id="Trazado_119661" data-name="Trazado 119661" d="M204.64,44.064c-17.9,17.432,5.849,37.042,5.849,37.042l-1.118-37.563Z" transform="translate(-31.813 -6.998)" fill="#323244"/>
          <path id="Trazado_119662" data-name="Trazado 119662" d="M268.3,140.616c-2.384-43.69-9.676-20.518-20.2-19.944s-20.139-18.848-17.909,22.024c.836,15.311,9.294,13.523,19.818,12.949s19.127.283,18.291-15.029" transform="translate(-36.94 -18.324)" fill="#ffb692"/>
          <path id="Trazado_119663" data-name="Trazado 119663" d="M229.9,129.911c.519-23.486,9.017-8.738,18.208-9.239,10.19-.556,17.349-22.3,19.958,15.985-15.99,6.211-28.959.723-38.165-6.746" transform="translate(-36.945 -18.324)" fill="#d88d87"/>
          <path id="Trazado_119664" data-name="Trazado 119664" d="M247.584,25.407l-16.956.926A24.162,24.162,0,0,0,207.886,51.7L209.8,86.719a33.641,33.641,0,0,0,67.183-3.666l-1.8-32.9a26.287,26.287,0,0,0-27.6-24.743" transform="translate(-33.402 -4.077)" fill="#ffb692"/>
          <path id="Trazado_119665" data-name="Trazado 119665" d="M274.613,79.041c.452,8.276,5.959,14.887,12.843,16.053a33.473,33.473,0,0,0,.248-6.227l-1.491-27.317c-7.017,1.652-12.064,8.98-11.6,17.49" transform="translate(-44.126 -9.891)" fill="#d88d87"/>
          <path id="Trazado_119666" data-name="Trazado 119666" d="M276.605,48.711a26.294,26.294,0,0,0-27.48-23.3l-16.956.925a23.944,23.944,0,0,0-14.728,6.126c18.028,22.923,43.322,20.764,59.163,16.253" transform="translate(-34.943 -4.077)" fill="#d88d87"/>
          <path id="Trazado_119667" data-name="Trazado 119667" d="M262.535,65.777l-5.674-1.829a3.353,3.353,0,0,1,2.057-6.383l5.674,1.829a3.353,3.353,0,0,1-2.057,6.383" transform="translate(-40.904 -9.225)" fill="#323244"/>
          <path id="Trazado_119668" data-name="Trazado 119668" d="M230.328,65.844l-5.217,2.885a3.353,3.353,0,0,1-3.245-5.869l5.217-2.885a3.353,3.353,0,0,1,3.245,5.869" transform="translate(-35.376 -9.571)" fill="#323244"/>
          <path id="Trazado_119669" data-name="Trazado 119669" d="M237.825,95.984s8.853,1.126,8.982,2.768-4.094,2.656-5.306,2.016-3.676-4.784-3.676-4.784" transform="translate(-38.219 -15.425)" fill="#d88d87"/>
          <path id="Trazado_119670" data-name="Trazado 119670" d="M232.067,76.588a3.7,3.7,0,1,1-3.9-3.492,3.7,3.7,0,0,1,3.9,3.492" transform="translate(-36.105 -11.746)" fill="#34344f"/>
          <path id="Trazado_119671" data-name="Trazado 119671" d="M263.716,74.861a3.7,3.7,0,1,1-3.9-3.492,3.7,3.7,0,0,1,3.9,3.492" transform="translate(-41.191 -11.468)" fill="#34344f"/>
          <path id="Trazado_119672" data-name="Trazado 119672" d="M243.759,72.845a168.735,168.735,0,0,1-4.934,19.195c-.012.018-.026.125-.007-.05a.511.511,0,0,0-.038-.2c1.021,1.174,2.792,2.4,4.008,3.693a15.8,15.8,0,0,1-3.091-1.215,5.608,5.608,0,0,1-2.416-1.893.969.969,0,0,1-.081-.4.659.659,0,0,1,.03-.248,171.012,171.012,0,0,1,6.528-18.887" transform="translate(-38.118 -11.706)" fill="#34344f"/>
          <path id="Trazado_119673" data-name="Trazado 119673" d="M238.617,106.538a86.05,86.05,0,0,0,16.19-6.808c3.7-2.093,7.863,2.389,6.425,6.987-1.532,4.892-4.785,9.746-11.535,11.363-5.533,1.326-9.331.38-11.924-1.358-3.67-2.459-3.1-8.951.844-10.184" transform="translate(-37.815 -15.941)" fill="#34344f"/>
          <path id="Trazado_119674" data-name="Trazado 119674" d="M250.876,119.042c6.751-1.617,10-6.472,11.535-11.364a6.261,6.261,0,0,0,.277-2.034c-2.592-.735-5.9-.7-10.1.895-6.487,2.458-9.065,7.675-9.928,12.711,0,.01,0,.019,0,.029a17.485,17.485,0,0,0,8.215-.237" transform="translate(-38.996 -16.903)" fill="#ff9292"/>
          <path id="Trazado_119675" data-name="Trazado 119675" d="M247.513,114.3c.844,1.054,3.4.483,5.715-1.277s3.5-4.04,2.657-5.1-3.4-.483-5.715,1.277-3.5,4.04-2.657,5.1" transform="translate(-39.732 -17.259)" fill="#ffabab"/>
          <path id="Trazado_119676" data-name="Trazado 119676" d="M238.617,106.538a86.05,86.05,0,0,0,16.19-6.808c2.274-1.286,4.716-.086,5.932,2.092-3.041,3.648-8.017,6.975-14.1,9.033a35.6,35.6,0,0,1-11.241,1.956c-.413-2.629.729-5.5,3.216-6.273" transform="translate(-37.816 -15.942)" fill="#fff"/>
          <path id="Trazado_119677" data-name="Trazado 119677" d="M260.085,42.187c-84.26,20.736-75.837-21.668-75.837-21.668l4.561,6.51S185.18,7.2,203.763,0l2.46,12.459S235.4-2.461,264.032,15.3s13.942,60.157,13.942,60.157-12.326.556-17.89-33.266" transform="translate(-29.571)" fill="#323244"/>
          <path id="Trazado_119678" data-name="Trazado 119678" d="M272.233,25.193a35.509,35.509,0,0,0-8.11-6.9c-20.1,14.376-50.5,28.583-75.592,8.316a23.539,23.539,0,0,0,.278,3.358l-4.561-6.51a20.092,20.092,0,0,0-.089,5.6c28,25.094,65.691,13.838,88.074-3.867" transform="translate(-29.571 -2.94)" fill="#49496b"/>
          <path id="Trazado_119679" data-name="Trazado 119679" d="M282.876,75.049c-.677,6.359,2.223,11.973,6.477,12.542s8.255-4.123,8.933-10.481-2.222-11.974-6.478-12.543-8.254,4.123-8.932,10.482" transform="translate(-45.442 -10.368)" fill="#ffb692"/>
          <path id="Trazado_119680" data-name="Trazado 119680" d="M287.879,76.19a3.61,3.61,0,0,0-1.9.274c.008-.106.012-.209.023-.316.448-4.2,3.089-7.3,5.9-6.925s4.727,4.086,4.279,8.286c-.344,3.23-1.987,5.8-4,6.651.321-4.069-1.562-7.6-4.3-7.971" transform="translate(-45.958 -11.119)" fill="#d88d87"/>
          <path id="Trazado_119681" data-name="Trazado 119681" d="M304.7,77.808c.467,8.547-4.676,15.778-11.485,16.15s-12.707-6.256-13.174-14.8S284.722,63.375,291.531,63s12.707,6.257,13.174,14.8" transform="translate(-44.999 -10.122)" fill="#fff"/>
          <path id="Trazado_119682" data-name="Trazado 119682" d="M311.06,77.461c.467,8.548-4.675,15.778-11.485,16.15s-12.707-6.256-13.174-14.8,4.676-15.778,11.485-16.15,12.707,6.257,13.174,14.8" transform="translate(-46.02 -10.066)" fill="#6d86aa"/>
          <path id="Trazado_119683" data-name="Trazado 119683" d="M306.078,79.28c.233,4.274-2.337,7.889-5.742,8.075s-6.354-3.128-6.587-7.4,2.337-7.889,5.742-8.076,6.354,3.129,6.587,7.4" transform="translate(-47.203 -11.55)" fill="#ffac52"/>
          <path id="Trazado_119684" data-name="Trazado 119684" d="M288.719,58.141c3.93-27.459-12.135-44.072-31.938-45.95l6.054-.75s36.452-.135,33.684,47.228Z" transform="translate(-41.265 -1.839)" fill="#6d86aa"/>
          <path id="Trazado_119685" data-name="Trazado 119685" d="M200.975,98.609c-.684,21.667,21.479,19.868,21.479,19.868" transform="translate(-32.294 -15.846)" fill="none" stroke="#6d86aa" stroke-miterlimit="10" stroke-width="2"/>
          <path id="Trazado_119686" data-name="Trazado 119686" d="M229.367,124.251l-3.626.108a2.489,2.489,0,1,1-.148-4.975l3.626-.107a2.488,2.488,0,0,1,.148,4.975" transform="translate(-35.865 -19.168)" fill="#fff"/>
          <path id="Trazado_119687" data-name="Trazado 119687" d="M24.925,286.743l119.955-.016-25.049-84.345H0Z" transform="translate(0 -32.523)" fill="#fff"/>
          <rect id="Rectángulo_36582" data-name="Rectángulo 36582" width="175.423" height="5.992" transform="translate(24.935 254.19)" fill="#a0b8e8"/>
          <rect id="Rectángulo_36583" data-name="Rectángulo 36583" width="119.941" height="5.992" transform="translate(24.935 254.19)" fill="#eff6ff"/>
          <path id="Trazado_119688" data-name="Trazado 119688" d="M142.775,202.382h4.553l25.4,84.6-4.913-.269Z" transform="translate(-22.944 -32.523)" fill="#8ba6d1"/>
          <path id="Trazado_119689" data-name="Trazado 119689" d="M71.5,258.764c1.962,6.028,7.737,9.551,12.9,7.871s7.753-7.929,5.791-13.956-7.738-9.551-12.9-7.871-7.753,7.928-5.79,13.956" transform="translate(-11.384 -39.273)" fill="#a0b8e8"/>
        </g>
      </g>
    </g>
    <g id="Grupo_85754" data-name="Grupo 85754" transform="translate(1153.457 8830.642)">
      <g id="Grupo_85753" data-name="Grupo 85753" transform="translate(0 0)" clip-path="url(#clip-path-3)">
        <path id="Trazado_119690" data-name="Trazado 119690" d="M64.083,0H12.461A12.461,12.461,0,0,0,0,12.461V38.272A12.451,12.451,0,0,0,11.571,50.687V64.676L25.514,50.732H64.083a12.46,12.46,0,0,0,12.46-12.46V12.461A12.461,12.461,0,0,0,64.083,0" transform="translate(0 0)" fill="#eecf52"/>
        <path id="Trazado_119691" data-name="Trazado 119691" d="M26.549,29.526a5.344,5.344,0,1,0,5.344,5.344,5.344,5.344,0,0,0-5.344-5.344" transform="translate(-6.045 -8.418)" fill="#fff"/>
        <path id="Trazado_119692" data-name="Trazado 119692" d="M51.4,29.526a5.344,5.344,0,1,0,5.344,5.344A5.344,5.344,0,0,0,51.4,29.526" transform="translate(-13.131 -8.418)" fill="#fff"/>
        <path id="Trazado_119693" data-name="Trazado 119693" d="M76.256,29.526A5.344,5.344,0,1,0,81.6,34.87a5.344,5.344,0,0,0-5.344-5.344" transform="translate(-20.217 -8.418)" fill="#fff"/>
      </g>
    </g>
  </g>
</svg>
