<svg id="Grupo_85748" data-name="Grupo 85748" xmlns="http://www.w3.org/2000/svg" xmlns:xlink="http://www.w3.org/1999/xlink" width="317.921" height="274.245" viewBox="0 0 317.921 274.245">
  <defs>
    <clipPath id="clip-path">
      <rect id="Rectángulo_36579" data-name="Rectángulo 36579" width="317.921" height="274.245" fill="none"/>
    </clipPath>
    <clipPath id="clip-path-3">
      <rect id="Rectángulo_36576" data-name="Rectángulo 36576" width="51.922" height="45.025" fill="none"/>
    </clipPath>
    <clipPath id="clip-path-4">
      <rect id="Rectángulo_36577" data-name="Rectángulo 36577" width="4.112" height="44.321" fill="none"/>
    </clipPath>
  </defs>
  <g id="Grupo_85747" data-name="Grupo 85747" clip-path="url(#clip-path)">
    <g id="Grupo_85746" data-name="Grupo 85746">
      <g id="Grupo_85745" data-name="Grupo 85745" clip-path="url(#clip-path)">
        <path id="Trazado_119558" data-name="Trazado 119558" d="M253.253,173.156l-36.917-11.843-44.181-.164s-34.1,10.632-38.235,12.83l-1.9,91.891-1.48,52.4,120.416-.643V254.16Z" transform="translate(-35.662 -44.025)" fill="#13b770"/>
        <path id="Trazado_119559" data-name="Trazado 119559" d="M121.287,178.8a78.883,78.883,0,0,0-20.923,30.261c-4.91,12.982-16.074,41.785-16.074,41.785l34.979,12.4,7.911-55.856Z" transform="translate(-23.028 -48.848)" fill="#13b770"/>
        <path id="Trazado_119560" data-name="Trazado 119560" d="M289.561,175.778s9.111.774,18.041,15.091c6.3,10.1,21.641,54.3,21.641,54.3l-40.377,14.109-9.747-7.505Z" transform="translate(-76.254 -48.022)" fill="#13b770"/>
        <path id="Trazado_119561" data-name="Trazado 119561" d="M132.5,210.069c.1,0,.189,15.485.189,34.581s-.084,34.585-.189,34.585-.189-15.482-.189-34.585.084-34.581.189-34.581" transform="translate(-36.147 -57.39)" fill="#263238"/>
        <path id="Trazado_119562" data-name="Trazado 119562" d="M126.641,211.445a6.332,6.332,0,0,1-1.8-.634,15.837,15.837,0,0,1-6.8-6.11,6.342,6.342,0,0,1-.823-1.726,20.024,20.024,0,0,0,9.427,8.471" transform="translate(-32.021 -55.451)" fill="#fff"/>
        <path id="Trazado_119563" data-name="Trazado 119563" d="M250.749,218.841a1.867,1.867,0,0,1-.27.148l-.808.4-3.126,1.511-2.264,1.084c-.837.373-1.771.725-2.762,1.132-1.994.781-4.225,1.782-6.807,2.57l-4.018,1.335c-1.4.455-2.9.8-4.423,1.222l-2.337.623c-.4.1-.794.22-1.2.311l-1.233.252-5.107,1.044a140.385,140.385,0,0,1-23.088,2.084,140.4,140.4,0,0,1-23.092-2.092l-5.107-1.046-1.232-.252c-.406-.092-.8-.209-1.2-.312l-2.338-.624c-1.527-.426-3.023-.768-4.423-1.223l-4.018-1.337c-2.582-.789-4.812-1.791-6.806-2.572-.991-.407-1.924-.759-2.762-1.132l-2.263-1.085-3.125-1.511-.808-.4a1.773,1.773,0,0,1-.269-.148,1.852,1.852,0,0,1,.286.114l.825.368,3.152,1.446L142.4,221.8c.84.363,1.776.705,2.768,1.1,2,.761,4.231,1.744,6.813,2.515l4.016,1.31c1.4.447,2.893.781,4.418,1.2l2.335.613c.4.1.791.217,1.2.307l1.23.247,5.1,1.028a142.352,142.352,0,0,0,23.03,2.057,142.262,142.262,0,0,0,23.026-2.049l5.1-1.026,1.23-.247c.4-.089.8-.206,1.2-.306l2.334-.612c1.526-.418,3.02-.752,4.419-1.2l4.016-1.309c2.582-.77,4.815-1.752,6.813-2.512.993-.4,1.929-.739,2.77-1.1l2.274-1.052,3.154-1.446.825-.368a1.87,1.87,0,0,1,.287-.113" transform="translate(-37.118 -59.781)" fill="#fff"/>
        <path id="Trazado_119564" data-name="Trazado 119564" d="M312.771,201.335c.017.02-.148.2-.464.51s-.786.743-1.385,1.26a48.857,48.857,0,0,1-10.3,6.776c-.712.344-1.3.608-1.706.773a2.449,2.449,0,0,1-.651.225,22.95,22.95,0,0,1,2.234-1.236c1.385-.746,3.274-1.823,5.28-3.141s3.741-2.627,4.974-3.6a23.128,23.128,0,0,1,2.02-1.563" transform="translate(-81.484 -55.003)" fill="#fff"/>
        <path id="Trazado_119565" data-name="Trazado 119565" d="M126.653,222.144a2.371,2.371,0,0,1-.674-.119,15.551,15.551,0,0,1-1.781-.549,21.86,21.86,0,0,1-9.786-7.232,15.293,15.293,0,0,1-1.047-1.542,2.406,2.406,0,0,1-.313-.609c.056-.035.579.782,1.569,1.985a24.691,24.691,0,0,0,9.674,7.149c1.44.594,2.375.854,2.358.917" transform="translate(-30.884 -57.942)" fill="#fff"/>
        <path id="Trazado_119566" data-name="Trazado 119566" d="M248.584,234.8a1.785,1.785,0,0,1-.268.142l-.8.382-3.111,1.435-2.253,1.03c-.834.353-1.762.68-2.747,1.062-1.983.729-4.2,1.677-6.769,2.394l-3.994,1.228c-1.392.417-2.876.716-4.394,1.1l-2.321.558c-.394.091-.788.2-1.191.278l-1.222.217-5.065.9a134.188,134.188,0,0,1-22.834,1.366,134.2,134.2,0,0,1-22.7-2.885l-4.995-1.231-1.206-.3c-.4-.105-.783-.239-1.169-.356l-2.279-.712c-1.489-.483-2.949-.88-4.311-1.39l-3.9-1.491c-2.513-.887-4.664-1.981-6.594-2.84-.958-.446-1.862-.835-2.67-1.243l-2.179-1.177-3.008-1.64-.778-.435a1.741,1.741,0,0,1-.258-.159,1.821,1.821,0,0,1,.278.126l.8.4,3.039,1.576,2.191,1.146c.811.4,1.719.776,2.679,1.212,1.935.84,4.09,1.914,6.6,2.783l3.9,1.465c1.36.5,2.82.889,4.306,1.365l2.276.7c.386.116.771.246,1.167.351l1.2.292,4.985,1.213a136.08,136.08,0,0,0,22.635,2.848,136.1,136.1,0,0,0,22.769-1.332l5.054-.878,1.22-.212c.4-.077.8-.183,1.188-.272l2.318-.547c1.515-.376,3-.666,4.388-1.075l3.991-1.2c2.566-.7,4.787-1.627,6.774-2.337.988-.371,1.918-.689,2.755-1.031l2.263-1,3.138-1.37.82-.347a1.846,1.846,0,0,1,.286-.107" transform="translate(-37.035 -63.115)" fill="#fff"/>
        <path id="Trazado_119567" data-name="Trazado 119567" d="M316.891,208.011a4.382,4.382,0,0,1-.631.676c-.422.418-1.049,1.006-1.836,1.718-1.574,1.425-3.812,3.328-6.386,5.3s-5,3.631-6.786,4.777c-.894.574-1.625,1.025-2.139,1.323a4.3,4.3,0,0,1-.818.432,4.393,4.393,0,0,1,.738-.556l2.07-1.421c1.746-1.2,4.135-2.892,6.7-4.855s4.824-3.829,6.44-5.2l1.914-1.626a4.372,4.372,0,0,1,.73-.567" transform="translate(-81.493 -56.827)" fill="#fff"/>
        <path id="Trazado_119568" data-name="Trazado 119568" d="M186.61,316.38a2.843,2.843,0,0,1-.531.059l-1.528.1c-.664.044-1.476.074-2.42.092s-2.019.052-3.208.039c-2.378.019-5.208-.087-8.348-.253-3.137-.2-6.582-.5-10.183-.939-3.6-.455-7.015-1.006-10.107-1.579-3.085-.607-5.856-1.2-8.157-1.8-1.156-.278-2.192-.567-3.1-.823s-1.691-.475-2.324-.681l-1.458-.466a2.855,2.855,0,0,1-.5-.187,2.826,2.826,0,0,1,.523.114l1.477.4c.638.183,1.423.39,2.338.618s1.951.506,3.109.768c2.305.565,5.076,1.125,8.158,1.712,3.089.553,6.5,1.092,10.089,1.547,3.594.438,7.03.747,10.159.966,3.131.185,5.955.318,8.328.334,1.186.03,2.26.022,3.2.016s1.755-.006,2.419-.028l1.529-.025a2.808,2.808,0,0,1,.535.017" transform="translate(-36.811 -84.675)" fill="#fff"/>
        <path id="Trazado_119569" data-name="Trazado 119569" d="M176.837,327.766a2.056,2.056,0,0,1-.454.041l-1.3.046c-.567.022-1.26.029-2.065.015s-1.722-.011-2.734-.061c-2.026-.058-4.433-.244-7.1-.493-2.665-.276-5.588-.646-8.642-1.119-6.11-.962-11.59-2.1-15.543-2.978-1.977-.437-3.572-.807-4.673-1.073l-1.265-.315a2.052,2.052,0,0,1-.436-.135,2.063,2.063,0,0,1,.452.06l1.281.246,4.7.956c3.965.806,9.447,1.906,15.545,2.867,3.049.472,5.963.852,8.619,1.146,2.659.267,5.058.48,7.077.573,1.009.068,1.923.09,2.726.117s1.494.049,2.06.049l1.3.025a2.075,2.075,0,0,1,.455.035" transform="translate(-36.232 -87.884)" fill="#fff"/>
        <path id="Trazado_119570" data-name="Trazado 119570" d="M272.175,307.843a.541.541,0,0,1-.158.054l-.474.121-1.829.427c-1.589.369-3.9.855-6.762,1.409-5.726,1.111-13.688,2.4-22.544,3.325s-16.919,1.274-22.75,1.358c-2.917.044-5.277.041-6.908.005l-1.877-.044-.488-.021a.57.57,0,0,1-.166-.02.54.54,0,0,1,.167-.018l.488-.017,1.877-.028c1.63-.009,3.988-.047,6.9-.125,5.825-.153,13.87-.557,22.718-1.467s16.8-2.169,22.533-3.212c2.867-.52,5.184-.964,6.781-1.289l1.843-.358.481-.084a.559.559,0,0,1,.167-.016" transform="translate(-56.884 -84.1)" fill="#fff"/>
        <path id="Trazado_119571" data-name="Trazado 119571" d="M269.129,321.692a.669.669,0,0,1-.181.051l-.538.113-2.076.4c-1.8.335-4.418.8-7.658,1.318-3.237.535-7.105,1.089-11.407,1.655-4.306.535-9.049,1.054-14.043,1.44-5,.366-9.768.554-14.109.592-4.341-.024-8.254-.119-11.525-.42-.818-.068-1.6-.116-2.334-.193l-2.074-.248-1.8-.219c-.553-.077-1.055-.173-1.508-.247l-2.082-.364-.539-.1a.686.686,0,0,1-.182-.048.7.7,0,0,1,.188.01l.546.067,2.09.294c.454.063.956.148,1.51.214l1.8.188,2.073.218c.735.068,1.515.107,2.332.166,3.266.266,7.171.333,11.5.338,4.333-.057,9.095-.254,14.084-.621,4.986-.386,9.724-.893,14.028-1.409,4.3-.547,8.168-1.073,11.409-1.574,3.243-.484,5.863-.908,7.674-1.2l2.087-.326.545-.076a.679.679,0,0,1,.188-.013" transform="translate(-53.839 -87.884)" fill="#fff"/>
        <path id="Trazado_119572" data-name="Trazado 119572" d="M239.316,268.868a1.075,1.075,0,0,1-.172.163l-.526.451-2.049,1.707-7.55,6.255c-6.368,5.29-15.121,12.651-24.667,20.922s-18.076,15.9-24.216,21.451l-7.263,6.585-1.98,1.785-.522.457a1.131,1.131,0,0,1-.186.147,1.074,1.074,0,0,1,.16-.175l.5-.485,1.933-1.837c1.681-1.592,4.134-3.874,7.182-6.676,6.1-5.6,14.6-13.258,24.149-21.538s18.331-15.6,24.745-20.843c3.206-2.619,5.813-4.724,7.628-6.163l2.093-1.652.55-.422a1.054,1.054,0,0,1,.2-.134" transform="translate(-46.494 -73.453)" fill="#263238"/>
        <g id="Grupo_85741" data-name="Grupo 85741" transform="translate(131.867 202.774)" opacity="0.3">
          <g id="Grupo_85740" data-name="Grupo 85740">
            <g id="Grupo_85739" data-name="Grupo 85739" clip-path="url(#clip-path-3)">
              <path id="Trazado_119573" data-name="Trazado 119573" d="M206.453,301.949l-25.019,22.069c21.548-9.764,39.952-24.621,51.922-45.025Z" transform="translate(-181.434 -278.994)"/>
            </g>
          </g>
        </g>
        <g id="Grupo_85744" data-name="Grupo 85744" transform="translate(215.291 165.814)" opacity="0.3">
          <g id="Grupo_85743" data-name="Grupo 85743">
            <g id="Grupo_85742" data-name="Grupo 85742" clip-path="url(#clip-path-4)">
              <path id="Trazado_119574" data-name="Trazado 119574" d="M296.215,272.462c5.41-10.967,5.532-32.466.071-44.321.325,13.33.3,31.021-.071,44.321" transform="translate(-296.215 -228.141)"/>
            </g>
          </g>
        </g>
        <path id="Trazado_119575" data-name="Trazado 119575" d="M296.144,213.539c.1,0,.19,26.507.19,59.2s-.085,59.2-.19,59.2-.189-26.5-.189-59.2.084-59.2.189-59.2" transform="translate(-80.853 -58.338)" fill="#263238"/>
        <path id="Trazado_119576" data-name="Trazado 119576" d="M241.641,65.5c1.789-3.929,3.61-7.977,3.867-12.306S244.1,44.131,240.4,42.08c-3.415-1.895-7.682-1.138-11.321-2.526-4.489-1.712-7.243-6.338-9.151-10.866s.922-6.1-2.395-9.656c-4.4-4.718-7.314-5.449-13.079-2.755-4.037-3-18.165-8.584-22.273-8.8-6.093-.324-13.044.005-17.4,4.279-3.379,3.316-5.572,7.58-9.681,9.93-5.652,3.234-12.694.217-19.206.309-1.328.019-2.881.323-3.455,1.52-.5,1.036-.023,2.253.45,3.3l4.79,10.606a10,10,0,0,1-8.7-.408,29.584,29.584,0,0,0,7.309,18.781c-1.135-.845-2.892-.039-3.5,1.24a6.294,6.294,0,0,0-.036,4.16,30.449,30.449,0,0,0,40.9,20.979l35.8,3.508A9.157,9.157,0,0,0,215.5,91.56c4.083-2.882,4.762-4.536,4.762-4.536,2.43,1.894.509.924,2.43,1.894,4.4,2.22,11.03-.148,12.143-5.077a10.49,10.49,0,0,1,2.508-5.413c1.454-1.409,3.492-1.918,5.3-2.781a14.741,14.741,0,0,0,6.718-6.578,10.643,10.643,0,0,1-7.725-3.572" transform="translate(-35.237 -2.017)" fill="#263238"/>
        <path id="Trazado_119577" data-name="Trazado 119577" d="M195.564,15.5l-1.8.091a34.839,34.839,0,0,0-33.079,33.727c-.508,16.892-.854,35.567-.287,44.588,1.173,18.667,20,20.63,20,20.63.011.195-.061,3-.164,6.828a21.914,21.914,0,1,0,43.818.919l1.065-70.508c.694-19.479-10.063-36.119-29.553-36.274" transform="translate(-43.739 -4.233)" fill="#ffbe9d"/>
        <path id="Trazado_119578" data-name="Trazado 119578" d="M188.021,148.592s11.808.1,23.958-8.416c0,0-5.245,13.942-23.968,13.2Z" transform="translate(-51.364 -38.295)" fill="#eb996e"/>
        <path id="Trazado_119579" data-name="Trazado 119579" d="M204.472,72.324c.362.385,2.552-1.3,5.676-1.312,3.12-.06,5.42,1.571,5.757,1.176.166-.175-.2-.872-1.206-1.61a7.817,7.817,0,0,0-4.612-1.421,7.544,7.544,0,0,0-4.515,1.528c-.956.762-1.278,1.466-1.1,1.638" transform="translate(-55.848 -18.893)" fill="#263238"/>
        <path id="Trazado_119580" data-name="Trazado 119580" d="M208.327,80.62a2.527,2.527,0,0,0,2.562,2.423,2.417,2.417,0,0,0,2.486-2.406,2.528,2.528,0,0,0-2.559-2.425,2.419,2.419,0,0,0-2.489,2.408" transform="translate(-56.914 -21.367)" fill="#263238"/>
        <path id="Trazado_119581" data-name="Trazado 119581" d="M190.269,94.134c.006-.164-1.794-.382-4.7-.606-.736-.039-1.438-.149-1.586-.643a3.729,3.729,0,0,1,.379-2.2q.9-2.712,1.886-5.691c2.61-8.1,4.459-14.743,4.132-14.844s-2.707,6.378-5.317,14.477q-.939,2.994-1.793,5.719a4.252,4.252,0,0,0-.235,2.9,1.841,1.841,0,0,0,1.259,1.01,4.982,4.982,0,0,0,1.254.11c2.917.009,4.723-.068,4.726-.232" transform="translate(-49.953 -19.165)" fill="#263238"/>
        <path id="Trazado_119582" data-name="Trazado 119582" d="M205.477,55.812c.286.7,2.8.234,5.785.455,2.993.158,5.434.937,5.8.278.161-.315-.291-.963-1.294-1.6a9.8,9.8,0,0,0-8.823-.558c-1.068.509-1.588,1.1-1.464,1.428" transform="translate(-56.13 -14.641)" fill="#263238"/>
        <path id="Trazado_119583" data-name="Trazado 119583" d="M165.7,63.59c.315.572,2.765,0,5.719-.025,2.955-.078,5.4.408,5.721-.174.142-.278-.333-.8-1.351-1.267a10.321,10.321,0,0,0-4.35-.82,10.67,10.67,0,0,0-4.365.972c-1.027.507-1.512,1.041-1.373,1.314" transform="translate(-45.263 -16.748)" fill="#263238"/>
        <path id="Trazado_119584" data-name="Trazado 119584" d="M248.416,84.234c.312-.154,12.643-4.443,12.879,8.347S248.641,102.97,248.612,102.6s-.2-18.37-.2-18.37" transform="translate(-67.866 -22.79)" fill="#ffbe9d"/>
        <path id="Trazado_119585" data-name="Trazado 119585" d="M253.934,99.228c.056-.042.226.152.605.318a2.23,2.23,0,0,0,1.667,0c1.342-.521,2.44-2.688,2.46-4.994a7.359,7.359,0,0,0-.682-3.178,2.573,2.573,0,0,0-1.708-1.68,1.135,1.135,0,0,0-1.3.635c-.165.361-.079.615-.147.638-.035.033-.278-.209-.185-.739a1.422,1.422,0,0,1,.488-.811,1.688,1.688,0,0,1,1.226-.348,3.131,3.131,0,0,1,2.364,1.94,7.564,7.564,0,0,1,.839,3.551c-.034,2.579-1.31,5.015-3.149,5.584a2.387,2.387,0,0,1-2.044-.3c-.4-.308-.475-.593-.431-.617" transform="translate(-69.37 -24.332)" fill="#eb996e"/>
        <path id="Trazado_119586" data-name="Trazado 119586" d="M237.323,41.138c-2.561-4.567-3.061-9.959-4.4-15.02s-4.025-10.334-8.917-12.2l-.112.047c-4.388-1.88-9.845-2.029-13.55.963-.752-6.662-6.455-12.053-12.9-13.9S180.575-.041,174.3,2.322c-4.85,1.826-9.587,5.685-15.365,11.381a62.817,62.817,0,0,0-6.7,7.755L146.21,38.739a7.375,7.375,0,0,0-1.621,1.558c-2.311,3.006,1.792,6.934,4.69,4.491l.052-.044a33.012,33.012,0,0,1,1.409,3.018v.024l.094.19c.275.628.559,1.255.908,1.878l0-.042,3.922,19.335c.393-5.24.422-23.5.815-28.737a29.265,29.265,0,0,0,21.066-9.161c2.936-3.109,5.279-7.035,9.153-8.844,5-2.334,10.846-.422,16.012,1.5l-.216-.2a23.361,23.361,0,0,1,7.1,5.372,72.724,72.724,0,0,0,2.456,30.851c.456,1.5,1.72,4.593,3.167,5.191,2.845,1.173,3.683-1.731,5.445-3.244,1.3-1.115,3.186-1.22,5.248-1.167a114.213,114.213,0,0,0,3.806-13.182,11.66,11.66,0,0,0,5.357.479l-1.561-3.988a6.1,6.1,0,0,0,2.272,1.091,2.083,2.083,0,0,0,2.2-.9c.508-.97-.128-2.114-.664-3.069" transform="translate(-39.316 0)" fill="#263238"/>
        <path id="Trazado_119587" data-name="Trazado 119587" d="M227.173,23.3A16.009,16.009,0,0,1,229,25.048a13.369,13.369,0,0,1,2.722,6.253,23.5,23.5,0,0,1,.369,4.747c-.031,1.716-.21,3.551-.385,5.485a49.162,49.162,0,0,0-.278,6.109,21.547,21.547,0,0,0,.348,3.234,6.726,6.726,0,0,0,1.244,3.157,2.815,2.815,0,0,0,2.611.943,4.188,4.188,0,0,0,2.4-1.284,9.675,9.675,0,0,0,1.9-4.7l-.392.039a15.617,15.617,0,0,0,2.18,3.955,5.551,5.551,0,0,0,3.581,2.056,3.587,3.587,0,0,0,1.93-.293,3.106,3.106,0,0,0,1.334-1.257A3.194,3.194,0,0,0,249,51.851a2.317,2.317,0,0,0-.565-1.463l-.2.172a12.022,12.022,0,0,0,3.936,3.094,10.808,10.808,0,0,0,1.23.51,2.026,2.026,0,0,0,.443.12,2.264,2.264,0,0,0-.416-.188c-.275-.121-.683-.3-1.191-.568a12.418,12.418,0,0,1-3.8-3.135l-.2.172a2.39,2.39,0,0,1,.061,2.772,2.792,2.792,0,0,1-1.205,1.112,3.257,3.257,0,0,1-1.749.244,5.2,5.2,0,0,1-3.323-1.952,15.4,15.4,0,0,1-2.1-3.87l-.254-.6-.138.642a9.347,9.347,0,0,1-1.812,4.489,3.768,3.768,0,0,1-2.145,1.148,2.375,2.375,0,0,1-2.219-.8,6.35,6.35,0,0,1-1.148-2.954,21.211,21.211,0,0,1-.347-3.167,49.767,49.767,0,0,1,.251-6.058c.164-1.934.331-3.777.347-5.516a23.368,23.368,0,0,0-.429-4.811,13.187,13.187,0,0,0-2.9-6.3,7.561,7.561,0,0,0-1.959-1.641" transform="translate(-62.062 -6.364)" fill="#455a64"/>
        <path id="Trazado_119588" data-name="Trazado 119588" d="M147.283,36.109c0,.006.045.05.147.131l.458.35a6.279,6.279,0,0,0,.778.524,10.126,10.126,0,0,0,1.121.623,16.554,16.554,0,0,0,7.945,1.614,21.128,21.128,0,0,0,11.342-3.9,36.584,36.584,0,0,0,9.914-10.92c1.406-2.226,2.563-4.515,3.83-6.624a24.719,24.719,0,0,1,4.293-5.58,12.729,12.729,0,0,1,5.444-3.138,9.107,9.107,0,0,1,2.839-.262,9.99,9.99,0,0,1,2.582.555,10.793,10.793,0,0,1,5.875,5.2,12.914,12.914,0,0,1,.9,2.816.665.665,0,0,0-.011-.2c-.02-.156-.045-.343-.075-.573A9.345,9.345,0,0,0,204,14.61a10.6,10.6,0,0,0-2.023-2.877,10.919,10.919,0,0,0-3.9-2.543,10.264,10.264,0,0,0-2.663-.6,9.44,9.44,0,0,0-2.953.247,13.046,13.046,0,0,0-5.628,3.2,24.9,24.9,0,0,0-4.386,5.655c-1.281,2.124-2.438,4.407-3.832,6.612a36.6,36.6,0,0,1-9.773,10.821,21,21,0,0,1-11.126,3.923,16.789,16.789,0,0,1-7.859-1.459,26.364,26.364,0,0,1-2.577-1.475" transform="translate(-40.237 -2.34)" fill="#455a64"/>
        <path id="Trazado_119589" data-name="Trazado 119589" d="M145.2,35.139a2.918,2.918,0,0,0,.658.48,14.44,14.44,0,0,0,1.957,1.05,19.172,19.172,0,0,0,3.111,1.1,20.311,20.311,0,0,0,8.036.439,19.221,19.221,0,0,0,3.212-.755,14.411,14.411,0,0,0,2.059-.83,2.915,2.915,0,0,0,.706-.406c-.034-.074-1.076.432-2.855.942a21.926,21.926,0,0,1-3.177.651,21.72,21.72,0,0,1-7.884-.43,22.042,22.042,0,0,1-3.087-.993c-1.713-.7-2.694-1.317-2.736-1.247" transform="translate(-39.668 -9.598)" fill="#455a64"/>
        <path id="Trazado_119590" data-name="Trazado 119590" d="M165.281,73.061c.362.385,2.553-1.3,5.676-1.312,3.119-.06,5.419,1.571,5.756,1.176.166-.175-.2-.872-1.206-1.61a7.817,7.817,0,0,0-4.612-1.421,7.539,7.539,0,0,0-4.515,1.528c-.956.762-1.278,1.466-1.1,1.638" transform="translate(-45.141 -19.095)" fill="#263238"/>
        <path id="Trazado_119591" data-name="Trazado 119591" d="M171.368,81.291a2.528,2.528,0,0,0,2.562,2.423,2.418,2.418,0,0,0,2.486-2.406,2.529,2.529,0,0,0-2.56-2.425,2.418,2.418,0,0,0-2.489,2.408" transform="translate(-46.817 -21.55)" fill="#263238"/>
        <path id="Trazado_119592" data-name="Trazado 119592" d="M190.185,110.921a52.526,52.526,0,0,1,7.536-1.394l1.858-.458c.842,1.153.831,4.244.056,5.452a5.226,5.226,0,0,1-3.71,2.2,3.8,3.8,0,0,1-3-.69s-2.3-1.09-2.741-5.112" transform="translate(-51.958 -29.797)" fill="#eb996e"/>
        <path id="Trazado_119593" data-name="Trazado 119593" d="M194.743,116.507a6.084,6.084,0,0,0,2.768-.9,5.115,5.115,0,0,0,1.893-2.433,6.388,6.388,0,0,0,.23-3.774c-.019-.07-.038-.14-.054-.206l.331.21c-2.771.428-5.272.782-7.085,1.009a14.839,14.839,0,0,1-2.948.247,14.79,14.79,0,0,1,2.884-.658c1.8-.332,4.287-.753,7.057-1.185l.266-.041.065.251.06.226a6.7,6.7,0,0,1-.3,4.121,5.335,5.335,0,0,1-2.174,2.584,4.454,4.454,0,0,1-2.172.66c-.541.008-.827-.084-.821-.117" transform="translate(-51.874 -29.719)" fill="#263238"/>
        <path id="Trazado_119594" data-name="Trazado 119594" d="M195.463,116.677a1.594,1.594,0,0,1-.821-.14l-.028-.031,0-.029-.006-.031.028-.044c.041-.053.111-.058.3-.072a4.911,4.911,0,0,0,2.487-.832,4.994,4.994,0,0,0,1.856-2.389,6.265,6.265,0,0,0,.259-3.593c-2.55.391-4.931.729-6.739.955-3.017.378-3.031.287-3.05.171s-.031-.206,2.957-.761c1.875-.347,4.383-.768,7.062-1.185l.345-.054.147.557a6.777,6.777,0,0,1-.3,4.178A5.431,5.431,0,0,1,197.747,116a4.5,4.5,0,0,1-2.217.672h-.066m-.247-.189c.09.006.193.009.311.007a4.324,4.324,0,0,0,2.127-.647,5.248,5.248,0,0,0,2.137-2.539,6.584,6.584,0,0,0,.294-4.065l-.1-.4-.184.028c-2.677.417-5.183.837-7.056,1.184-1.33.247-2.038.4-2.414.493.387-.025,1.108-.094,2.45-.262,1.8-.225,4.176-.562,6.718-.952l-.1-.376.728.462-.238.037-.17.026a6.442,6.442,0,0,1-.267,3.686,5.188,5.188,0,0,1-1.927,2.475,5.046,5.046,0,0,1-2.31.839" transform="translate(-51.839 -29.68)" fill="#263238"/>
        <path id="Trazado_119595" data-name="Trazado 119595" d="M59.981,93.435s-22.167,7.988-33.022,4.849S8.476,90.75,3.035,77.89C-1.368,67.484-.49,54.7,4.784,44.707,9.4,35.961,17.639,31.03,26.314,26.283c10.773-5.9,25.4-10.747,37.669-11.218S84.129,18.2,93.2,26.482s13.9,21.5,10.7,33.354C100.509,72.4,89.2,81.325,77.353,86.709c0,0-3.339,11.656,6.063,18.1,0,0-15.325,3.8-23.435-11.375" transform="translate(-0.058 -4.105)" fill="#fafafa"/>
        <path id="Trazado_119596" data-name="Trazado 119596" d="M59.922,93.365s.087.129.255.4l.746,1.2.552.893c.213.323.494.637.771,1l.917,1.159c.337.406.765.778,1.18,1.207a19.563,19.563,0,0,0,7.37,4.609,20.8,20.8,0,0,0,5.4,1.147,21.857,21.857,0,0,0,6.22-.334l-.034.19a15.062,15.062,0,0,1-5.762-7.53,17.175,17.175,0,0,1-.927-5.175,20.2,20.2,0,0,1,.558-5.521l.014-.058.06-.027a67.842,67.842,0,0,0,10.008-5.623,48.3,48.3,0,0,0,9.316-8.187c.368-.392.693-.822,1.028-1.246s.685-.841,1-1.289c.615-.9,1.266-1.789,1.8-2.76a33,33,0,0,0,1.566-2.958c.244-.506.431-1.04.65-1.562l.318-.789c.1-.267.174-.541.262-.813A27.5,27.5,0,0,0,104.55,54.5a29.542,29.542,0,0,0-.286-7.107,35.561,35.561,0,0,0-5.248-13.716,37.835,37.835,0,0,0-4.777-5.942,57.387,57.387,0,0,0-5.9-5.1A34.815,34.815,0,0,0,74.011,15.9a48.6,48.6,0,0,0-16.388-.123,88.915,88.915,0,0,0-16.11,3.973,98.892,98.892,0,0,0-14.788,6.421,86.082,86.082,0,0,0-13.149,8.3A32.474,32.474,0,0,0,4.282,45.934,40.733,40.733,0,0,0,1.765,52.65,43,43,0,0,0,.519,59.523,38.788,38.788,0,0,0,.438,66.3C.5,67.419.664,68.513.8,69.6c.208,1.077.382,2.152.671,3.192C3.74,81.067,8.189,88.356,14.289,92.507a37.527,37.527,0,0,0,9.388,4.563c.783.27,1.558.525,2.331.751a19.371,19.371,0,0,0,2.3.577,14.807,14.807,0,0,0,2.27.315,17.75,17.75,0,0,0,2.22.1,49.078,49.078,0,0,0,8.1-.659c2.477-.366,4.716-.851,6.724-1.3,4.01-.938,7.078-1.85,9.15-2.486l3.151-1.005s-.261.108-.788.294-1.307.453-2.34.785c-2.066.66-5.129,1.6-9.139,2.556-2.009.459-4.249.956-6.73,1.333a49,49,0,0,1-8.132.693,17.757,17.757,0,0,1-2.237-.094,14.932,14.932,0,0,1-2.3-.31,19.553,19.553,0,0,1-2.32-.576c-.775-.224-1.554-.478-2.341-.746a37.729,37.729,0,0,1-9.464-4.571A28.9,28.9,0,0,1,9.83,89.033a33.56,33.56,0,0,1-3.635-4.681A43.574,43.574,0,0,1,3.3,78.905c-.456-.944-.817-1.942-1.205-2.938-.323-1.018-.685-2.037-.924-3.1C.878,71.82.7,70.737.49,69.651c-.144-1.1-.314-2.2-.375-3.322a39.135,39.135,0,0,1,.073-6.838,43.313,43.313,0,0,1,1.249-6.93,40.944,40.944,0,0,1,2.531-6.777A32.816,32.816,0,0,1,13.349,34.2a86.342,86.342,0,0,1,13.2-8.349A99.144,99.144,0,0,1,41.391,19.4,89.258,89.258,0,0,1,57.57,15.406a48.929,48.929,0,0,1,16.517.129,35.183,35.183,0,0,1,14.479,6.812A57.8,57.8,0,0,1,94.5,27.482a38.187,38.187,0,0,1,4.822,6,35.9,35.9,0,0,1,5.288,13.859,29.854,29.854,0,0,1,.282,7.186A27.8,27.8,0,0,1,103.5,61.4c-.089.274-.166.552-.266.821l-.323.8c-.222.528-.413,1.067-.66,1.578a33.269,33.269,0,0,1-1.586,2.986c-.543.98-1.2,1.875-1.823,2.783-.314.452-.674.866-1.006,1.3s-.668.861-1.039,1.255a48.579,48.579,0,0,1-9.389,8.222A67.945,67.945,0,0,1,77.35,86.762l.073-.086a20.015,20.015,0,0,0-.561,5.439,16.922,16.922,0,0,0,.9,5.1,14.844,14.844,0,0,0,5.653,7.434l.2.141-.239.049a21.968,21.968,0,0,1-6.288.317,20.9,20.9,0,0,1-5.437-1.18A19.585,19.585,0,0,1,64.264,99.3c-.414-.434-.841-.811-1.175-1.222l-.91-1.172c-.274-.367-.554-.688-.76-1.011L60.885,95l-.721-1.214c-.161-.275-.242-.422-.242-.422" transform="translate(0 -4.035)" fill="#263238"/>
        <path id="Trazado_119597" data-name="Trazado 119597" d="M79.5,40.146c.046.094-11.909,6.048-26.7,13.3S25.978,66.494,25.932,66.4s11.906-6.046,26.7-13.3S79.451,40.052,79.5,40.146" transform="translate(-7.084 -10.967)" fill="#263238"/>
        <path id="Trazado_119598" data-name="Trazado 119598" d="M86.354,54.527c.046.094-11.909,6.048-26.7,13.3S32.835,80.875,32.789,80.782s11.906-6.046,26.7-13.3S86.308,54.433,86.354,54.527" transform="translate(-8.958 -14.896)" fill="#263238"/>
        <path id="Trazado_119599" data-name="Trazado 119599" d="M93.922,68.411a3.31,3.31,0,0,1-.495.287l-1.452.756L86.617,72.2c-4.524,2.316-10.752,5.558-17.626,9.148s-13.128,6.8-17.685,9.053c-2.278,1.128-4.128,2.029-5.413,2.635l-1.483.693a3.187,3.187,0,0,1-.528.218,3.277,3.277,0,0,1,.495-.286l1.451-.757,5.358-2.742c4.525-2.316,10.753-5.558,17.63-9.15s13.124-6.8,17.681-9.051c2.278-1.128,4.128-2.029,5.413-2.636l1.484-.693a3.271,3.271,0,0,1,.528-.218" transform="translate(-11.988 -18.689)" fill="#263238"/>
        <path id="Trazado_119600" data-name="Trazado 119600" d="M97.96,178.647l3.175,68.309,5.585,6.008,7.109,8.632s-7.109,28.691-17.519,31.23S74.625,291.52,71.324,282.38s-1.616-25.133-.6-35.38,5.833-66.233,5.833-66.233l12.137-4.989Z" transform="translate(-18.954 -48.022)" fill="#ffbe9d"/>
        <path id="Trazado_119601" data-name="Trazado 119601" d="M95.091,162.62s.826-5.979,0-9.9-6.186-12.165-6.186-12.165.825-7.836,0-9.073-2.68-5.774-6.186-1.237c0,0-2.475-5.362-4.124-5.774a3.834,3.834,0,0,0-2.474,0l4.33-5.774a6.672,6.672,0,0,0,.013-2.36,2.459,2.459,0,0,0-4.276-1.113L65.6,127.566s-6.6,11.96-6.392,13.4,3.917,6.186,3.917,6.186,9.486,12.991,10.31,15.465a13.489,13.489,0,0,1,.413,5.361Z" transform="translate(-16.175 -31.245)" fill="#ffbe9d"/>
        <path id="Trazado_119602" data-name="Trazado 119602" d="M72.2,142.142a13.3,13.3,0,0,1,.364-2.353,24.951,24.951,0,0,1,1.7-5.5A12.579,12.579,0,0,1,77.75,129.7a8.173,8.173,0,0,1,1.48-.943,1.842,1.842,0,0,1,.6-.227c.033.063-.812.427-1.911,1.377a13.537,13.537,0,0,0-3.314,4.537,30.549,30.549,0,0,0-1.785,5.4,16.638,16.638,0,0,1-.625,2.294" transform="translate(-19.721 -35.114)" fill="#eb996e"/>
        <path id="Trazado_119603" data-name="Trazado 119603" d="M85.037,144.717a4.114,4.114,0,0,1,.241-1.371,15.547,15.547,0,0,1,3.146-5.889,4.086,4.086,0,0,1,1.005-.962c.089.079-1.356,1.63-2.565,3.915-1.227,2.273-1.713,4.338-1.828,4.308" transform="translate(-23.228 -37.289)" fill="#eb996e"/>
        <path id="Trazado_119604" data-name="Trazado 119604" d="M99.538,149.8a.171.171,0,1,1,.088-.238.18.18,0,0,1-.088.238" transform="translate(-27.121 -40.835)" fill="#eb996e"/>
        <path id="Trazado_119605" data-name="Trazado 119605" d="M99.463,152.589a10.3,10.3,0,0,1,.146-2.775c.085-.7.18-1.332.267-1.806l.255.1c-.376.448-.633.71-.678.677s.13-.356.45-.846l.288-.44-.033.542c-.028.481-.088,1.12-.173,1.817a10.322,10.322,0,0,1-.522,2.73" transform="translate(-27.159 -40.296)" fill="#eb996e"/>
        <path id="Trazado_119606" data-name="Trazado 119606" d="M110.007,210.6a.6.6,0,0,1,.033.172c.015.137.034.3.057.508q.068.72.184,1.959c.13,1.7.3,4.17.462,7.219.337,6.1.7,14.526,1.051,23.836s.614,17.745.783,23.849c.074,3.027.134,5.489.177,7.229q.017,1.244.028,1.966c0,.206,0,.374,0,.512a.624.624,0,0,1-.014.175.592.592,0,0,1-.025-.174c-.009-.137-.021-.305-.035-.51q-.036-.721-.1-1.964c-.071-1.74-.172-4.2-.3-7.225-.23-6.131-.546-14.546-.894-23.844-.367-9.294-.7-17.707-.94-23.837-.143-3.024-.259-5.483-.342-7.222-.048-.827-.085-1.483-.113-1.962-.009-.206-.015-.374-.02-.512a.6.6,0,0,1,.006-.175" transform="translate(-30.052 -57.534)" fill="#eb996e"/>
        <path id="Trazado_119607" data-name="Trazado 119607" d="M361.752,205.571s-16.279,62.523-19,69.759c-5.386,14.309-9.063,21.115-15.159,24.686-6.665,3.9-18.581,1.68-21.395-4.691-2.575-5.831-9.4-30.114-9.4-30.114l20.905-7.539,24.935-52.249Z" transform="translate(-81.082 -56.121)" fill="#ffbe9d"/>
        <path id="Trazado_119608" data-name="Trazado 119608" d="M414.978,164.8c1.022.74-20.943,19.966-20.943,19.966l-16.274,9.4-5.363,19.97-17.005-10.5s6.157-19.916,9.017-21.287c4.99-2.393,5.949-10.411,7.734-10.113s2.563.264,1.968,3.239-.832,4.29-.832,4.29l18.794-5.447s10.411-10.114,13.684-9.519c1.888.343,2.111.6,2.111.6a5.315,5.315,0,0,1,7.11-.6" transform="translate(-97.092 -44.712)" fill="#ffbe9d"/>
        <path id="Trazado_119609" data-name="Trazado 119609" d="M397.234,178.317a4.609,4.609,0,0,1-.885.342l-2.452.8L385.781,182l-8.123,2.517-2.46.768a4.568,4.568,0,0,1-.914.248,4.652,4.652,0,0,1,.866-.387c.568-.222,1.4-.528,2.425-.882,2.058-.714,4.92-1.642,8.094-2.624s6.058-1.834,8.152-2.43c1.047-.3,1.9-.532,2.486-.685a4.487,4.487,0,0,1,.927-.2" transform="translate(-102.252 -48.714)" fill="#eb996e"/>
        <path id="Trazado_119610" data-name="Trazado 119610" d="M410.264,180.081a3,3,0,0,1,.477-.6c.325-.371.8-.9,1.4-1.547,1.2-1.3,2.868-3.066,4.731-5l4.79-4.936a3.489,3.489,0,0,0,.943-1.761,3.447,3.447,0,0,0-.036-.744c.012-.005.045.055.1.178a1.5,1.5,0,0,1,.085.578,3.414,3.414,0,0,1-.884,1.921c-1.177,1.338-2.863,3.077-4.723,5.027s-3.565,3.681-4.811,4.928c-.623.624-1.132,1.124-1.489,1.464a3.035,3.035,0,0,1-.584.5" transform="translate(-112.082 -45.21)" fill="#eb996e"/>
        <path id="Trazado_119611" data-name="Trazado 119611" d="M326.582,265.277c.1.042-2.635,6.471-6.1,14.357s-6.351,14.248-6.447,14.206,2.635-6.469,6.1-14.358,6.35-14.247,6.446-14.2" transform="translate(-85.792 -72.472)" fill="#eb996e"/>
      </g>
    </g>
  </g>
</svg>
