<svg xmlns="http://www.w3.org/2000/svg" width="139" height="139" viewBox="0 0 139 139">
  <g id="proceso-de-seleccion" transform="translate(-1 -1)">
    <g id="Grupo_86030" data-name="Grupo 86030" transform="translate(3.242 3.242)">
      <g id="Grupo_86016" data-name="Grupo 86016" transform="translate(80.71 40.355)">
        <path id="Trazado_120820" data-name="Trazado 120820" d="M64.9,22.242a2.249,2.249,0,0,0,2.242,2.242H81.359l3.766,9.1-5.067,2.085A4.625,4.625,0,0,0,77.3,40.85c0,.022.022.045.022.067a4.611,4.611,0,0,0,4.529,3.744h5.47V58.113h-5.47a4.611,4.611,0,0,0-4.529,3.744c0,.022-.022.045-.022.067A4.625,4.625,0,0,0,80.059,67.1l5.067,2.085L79.969,81.631,74.9,79.523a4.636,4.636,0,0,0-5.6,1.726c0,.022-.022.022-.045.045a4.648,4.648,0,0,0,.56,5.851l3.879,3.879-9.506,9.506-3.879-3.879a4.648,4.648,0,0,0-5.851-.56c-.022.022-.022.045-.045.045a4.636,4.636,0,0,0-1.726,5.6l2.107,5.067-12.824,5.313L38,96.226A4.384,4.384,0,0,0,41.161,94.9a4.315,4.315,0,0,0,1.255-2.376,44.86,44.86,0,0,0,26.97-41.14A44.556,44.556,0,0,0,63.76,29.618h-.022A40.066,40.066,0,0,0,64.9,20Z" transform="translate(-38 -20)" fill="#fcd770"/>
      </g>
      <g id="Grupo_86017" data-name="Grupo 86017" transform="translate(4.484 40.355)">
        <path id="Trazado_120821" data-name="Trazado 120821" d="M26.419,20a41.223,41.223,0,0,0,1.143,9.618A44.868,44.868,0,0,0,47.785,92.011l1.054,4.215L45.3,110.44l-8.766-3.632,2.107-5.067a4.636,4.636,0,0,0-1.726-5.6c-.022,0-.022-.022-.045-.045a4.648,4.648,0,0,0-5.851.56l-3.879,3.879-9.506-9.506,3.879-3.879a4.648,4.648,0,0,0,.56-5.851c-.022-.022-.045-.022-.045-.045a4.636,4.636,0,0,0-5.6-1.726l-5.067,2.107L6.2,69.188,11.264,67.1a4.625,4.625,0,0,0,2.758-5.179c0-.022-.022-.045-.022-.067A4.611,4.611,0,0,0,9.47,58.113H4V44.661H9.47A4.611,4.611,0,0,0,14,40.917c0-.022.022-.045.022-.067a4.625,4.625,0,0,0-2.758-5.179L6.2,33.586l3.766-9.1H24.177a2.249,2.249,0,0,0,2.242-2.242Z" transform="translate(-4 -20)" fill="#fcd770"/>
      </g>
      <g id="Grupo_86018" data-name="Grupo 86018" transform="translate(44.839 116.581)">
        <path id="Trazado_120822" data-name="Trazado 120822" d="M57.871,54l3.968,15.9.516,2.04H22l.942-3.722L26.484,54h8.968a4.5,4.5,0,0,0,4.484,4.484H48.9A4.5,4.5,0,0,0,53.387,54Z" transform="translate(-22 -54)" fill="#13b770"/>
      </g>
      <g id="Grupo_86019" data-name="Grupo 86019" transform="translate(58.29 79.701)">
        <path id="Trazado_120823" data-name="Trazado 120823" d="M45.935,38.559v8.968a4.517,4.517,0,0,0-4.484,4.484,4.5,4.5,0,0,0,4.484,4.484,4.517,4.517,0,0,0-4.484,4.484,4.5,4.5,0,0,0,4.484,4.484,4.517,4.517,0,0,0-4.484,4.484,4.5,4.5,0,0,0,4.484,4.484,4.5,4.5,0,0,1-4.484,4.484H32.484A4.5,4.5,0,0,1,28,74.43v-20a4.482,4.482,0,0,1,1.749-3.542l2.242-1.749a12.841,12.841,0,0,0,4.977-10.156,2.713,2.713,0,0,0-.022-.426h.022a39.559,39.559,0,0,0,8.968-1.009Z" transform="translate(-28 -37.55)" fill="#fff"/>
      </g>
      <g id="Grupo_86020" data-name="Grupo 86020" transform="translate(71.742 107.613)">
        <path id="Trazado_120824" data-name="Trazado 120824" d="M42.968,50a4.5,4.5,0,0,1,4.484,4.484,4.444,4.444,0,0,1-.067.785,4.315,4.315,0,0,1-1.255,2.376,4.384,4.384,0,0,1-3.161,1.323H38.484A4.5,4.5,0,0,1,34,54.484,4.517,4.517,0,0,1,38.484,50Z" transform="translate(-34 -50)" fill="#f0d0b4"/>
      </g>
      <g id="Grupo_86021" data-name="Grupo 86021" transform="translate(71.742 98.645)">
        <path id="Trazado_120825" data-name="Trazado 120825" d="M42.968,46a4.5,4.5,0,0,1,4.484,4.484,4.517,4.517,0,0,1-4.484,4.484H38.484A4.5,4.5,0,0,1,34,50.484,4.517,4.517,0,0,1,38.484,46Z" transform="translate(-34 -46)" fill="#f0d0b4"/>
      </g>
      <g id="Grupo_86022" data-name="Grupo 86022" transform="translate(71.742 89.677)">
        <path id="Trazado_120826" data-name="Trazado 120826" d="M42.968,42a4.5,4.5,0,0,1,4.484,4.484,4.517,4.517,0,0,1-4.484,4.484H38.484A4.5,4.5,0,0,1,34,46.484,4.517,4.517,0,0,1,38.484,42Z" transform="translate(-34 -42)" fill="#f0d0b4"/>
      </g>
      <g id="Grupo_86023" data-name="Grupo 86023" transform="translate(76.226 80.71)">
        <path id="Trazado_120827" data-name="Trazado 120827" d="M57.1,39.323a4.384,4.384,0,0,1,1.323,3.161,4.5,4.5,0,0,1-4.484,4.484H36V38H53.935A4.384,4.384,0,0,1,57.1,39.323Z" transform="translate(-36 -38)" fill="#f0d0b4"/>
      </g>
      <g id="Grupo_86024" data-name="Grupo 86024" transform="translate(44.839 76.226)">
        <path id="Trazado_120828" data-name="Trazado 120828" d="M44.4,40.484a2.713,2.713,0,0,1,.022.426,12.841,12.841,0,0,1-4.977,10.156L37.2,52.814a4.482,4.482,0,0,0-1.749,3.542v20H26.484L25.43,72.14,22.448,60.258A15.948,15.948,0,0,1,22,56.536a15.363,15.363,0,0,1,5.381-11.68l6.659-5.717,2.264-1.95A4.973,4.973,0,0,1,39.51,36a3.969,3.969,0,0,1,.516.022,4.849,4.849,0,0,1,2.959,1.412A4.792,4.792,0,0,1,44.4,40.484Z" transform="translate(-22 -36)" fill="#f0d0b4"/>
      </g>
      <g id="Grupo_86025" data-name="Grupo 86025" transform="translate(26.903)">
        <circle id="Elipse_4857" data-name="Elipse 4857" cx="40.5" cy="40.5" r="40.5" transform="translate(-0.145 -0.242)" fill="#ccd1d9"/>
      </g>
      <g id="Grupo_86026" data-name="Grupo 86026" transform="translate(35.871 8.968)">
        <circle id="Elipse_4858" data-name="Elipse 4858" cx="31.5" cy="31.5" r="31.5" transform="translate(-0.113 -0.209)" fill="#79dfef"/>
      </g>
      <g id="Grupo_86027" data-name="Grupo 86027" transform="translate(107.613 8.968)">
        <path id="Trazado_120829" data-name="Trazado 120829" d="M76.9,8.242V39.629a2.249,2.249,0,0,1-2.242,2.242H52.242A2.249,2.249,0,0,1,50,39.629V8.242A2.249,2.249,0,0,1,52.242,6H74.661A2.249,2.249,0,0,1,76.9,8.242Z" transform="translate(-50 -6)" fill="#f0d0b4"/>
      </g>
      <g id="Grupo_86028" data-name="Grupo 86028" transform="translate(53.806 8.968)">
        <path id="Trazado_120830" data-name="Trazado 120830" d="M52.9,23.935V39.629a2.249,2.249,0,0,1-2.242,2.242H28.242A2.249,2.249,0,0,1,26,39.629V8.242A2.249,2.249,0,0,1,28.242,6H50.661A2.249,2.249,0,0,1,52.9,8.242V23.935Z" transform="translate(-26 -6)" fill="#f0d0b4"/>
      </g>
      <g id="Grupo_86029" data-name="Grupo 86029" transform="translate(0 8.968)">
        <path id="Trazado_120831" data-name="Trazado 120831" d="M28.9,23.935V39.629a2.249,2.249,0,0,1-2.242,2.242H4.242A2.249,2.249,0,0,1,2,39.629V8.242A2.249,2.249,0,0,1,4.242,6H26.661A2.249,2.249,0,0,1,28.9,8.242Z" transform="translate(-2 -6)" fill="#f0d0b4"/>
      </g>
    </g>
    <g id="Grupo_86031" data-name="Grupo 86031" transform="translate(1 1)">
      <path id="Trazado_120832" data-name="Trazado 120832" d="M5,9H18.452v4.484H5Z" transform="translate(3.968 8.935)"/>
      <path id="Trazado_120833" data-name="Trazado 120833" d="M5,13H18.452v4.484H5Z" transform="translate(3.968 13.903)"/>
      <path id="Trazado_120834" data-name="Trazado 120834" d="M5,17H18.452v4.484H5Z" transform="translate(3.968 18.871)"/>
      <path id="Trazado_120835" data-name="Trazado 120835" d="M29,9H42.452v4.484H29Z" transform="translate(33.774 8.935)"/>
      <path id="Trazado_120836" data-name="Trazado 120836" d="M29,13H42.452v4.484H29Z" transform="translate(33.774 13.903)"/>
      <path id="Trazado_120837" data-name="Trazado 120837" d="M29,17H42.452v4.484H29Z" transform="translate(33.774 18.871)"/>
      <path id="Trazado_120838" data-name="Trazado 120838" d="M135.516,9.968H113.1a4.488,4.488,0,0,0-4.484,4.484V24.688a42.5,42.5,0,0,0-76.226,0V14.452A4.488,4.488,0,0,0,27.9,9.968H5.484A4.488,4.488,0,0,0,1,14.452V45.839a4.488,4.488,0,0,0,4.484,4.484h4.858L7,58.389l7.125,2.95a2.443,2.443,0,0,1-.933,4.677H5.484V83.952h7.71a2.415,2.415,0,0,1,2.35,2.009,2.387,2.387,0,0,1-1.419,2.666L7,91.576l6.865,16.57,7.129-2.95a2.42,2.42,0,0,1,2.935.955,2.387,2.387,0,0,1-.285,3.009l-5.457,5.457,12.68,12.68,5.457-5.457a2.443,2.443,0,0,1,3.964,2.65l-2.95,7.129,9.033,3.742L45.209,140h46.1l-.74-2.955,13.1-5.425-2.95-7.129a2.443,2.443,0,0,1,3.964-2.65l5.457,5.457,12.68-12.68-5.459-5.457a2.443,2.443,0,0,1,2.65-3.964l7.129,2.95L134,91.576l-7.125-2.95a2.362,2.362,0,0,1-1.453-2.513l.052-.233a2.385,2.385,0,0,1,2.332-1.928h7.71V66.016h-7.71a2.415,2.415,0,0,1-2.35-2.011,2.387,2.387,0,0,1,1.419-2.666L134,58.389l-3.343-8.066h4.858A4.488,4.488,0,0,0,140,45.839V14.452a4.488,4.488,0,0,0-4.484-4.484ZM90.164,112.776a6.718,6.718,0,0,0-1.238-1.921,6.623,6.623,0,0,0,0-8.968,6.519,6.519,0,0,0,1.336-6.726H97.4a6.726,6.726,0,1,0,0-13.452H89.408a42.791,42.791,0,0,0,20.675-22.475,42.621,42.621,0,0,1-19.92,53.542Zm-3.97,2.563a2.243,2.243,0,0,1-2.242,2.242H79.468a2.242,2.242,0,1,1,0-4.484h4.484A2.243,2.243,0,0,1,86.194,115.339ZM54.806,27.9H45.975a29.279,29.279,0,0,1,8.831-8.853Zm0,4.484V45.839a4.488,4.488,0,0,0,4.484,4.484H81.71a4.488,4.488,0,0,0,4.484-4.484V32.387H97.363a29.145,29.145,0,1,1-53.726,0ZM59.29,45.839V14.452H81.71l0,31.387ZM95.025,27.9H86.194V19.05A29.278,29.278,0,0,1,95.025,27.9ZM70.5,77.226a33.547,33.547,0,0,0,31.672-44.839h4.753A38.061,38.061,0,0,1,72.188,81.622a7.148,7.148,0,0,0-11.25-2.675L59.6,80.1A38.08,38.08,0,0,1,34.075,32.387h4.753A33.547,33.547,0,0,0,70.5,77.226Zm6.726,29.145a2.243,2.243,0,0,1,2.242-2.242h4.484a2.242,2.242,0,1,1,0,4.484H79.468A2.243,2.243,0,0,1,77.226,106.371ZM86.194,97.4a2.243,2.243,0,0,1-2.242,2.242H79.468a2.242,2.242,0,0,1,0-4.484h4.484A2.243,2.243,0,0,1,86.194,97.4ZM81.71,90.677V86.194H97.4a2.242,2.242,0,0,1,0,4.484ZM55.62,83.5l-3.63,3.11a17.619,17.619,0,0,0-5.625,17.653l1.729,6.923A42.584,42.584,0,0,1,30.916,59.234,42.6,42.6,0,0,0,55.62,83.5Zm-1.3,34.077-3.6-14.4A13.133,13.133,0,0,1,54.91,90.018l8.945-7.667a2.668,2.668,0,0,1,4.4,2.024,10.68,10.68,0,0,1-4.112,8.387L61.9,94.5a6.781,6.781,0,0,0-2.607,5.32v17.758Zm9.459-17.758a2.258,2.258,0,0,1,.87-1.773l2.249-1.74a15.2,15.2,0,0,0,5.751-10.223,42.843,42.843,0,0,0,4.585-.475v5.482a6.664,6.664,0,0,0-2.735,10.8,6.623,6.623,0,0,0,0,8.968,6.661,6.661,0,0,0,2.092,10.533,2.242,2.242,0,0,1-1.6.675H66.016a2.243,2.243,0,0,1-2.242-2.242ZM70.5,5.484A38.135,38.135,0,0,1,105.192,27.9H100.2A33.745,33.745,0,0,0,86.133,13.84,4.478,4.478,0,0,0,81.71,9.968H59.29a4.474,4.474,0,0,0-4.421,3.872A33.732,33.732,0,0,0,40.8,27.9H35.811A38.13,38.13,0,0,1,70.5,5.484ZM5.484,14.452H27.9l0,29.1c0,.013,0,.027,0,.04s0,.031,0,.049v2.193H5.484ZM43.193,129.194l1.235-2.986a6.925,6.925,0,0,0-11.275-7.535l-2.287,2.287-6.34-6.34,2.287-2.287a6.926,6.926,0,0,0-7.537-11.275l-2.986,1.233-3.43-8.284,2.982-1.235a6.927,6.927,0,0,0-2.648-13.3H9.968V70.5h3.226a6.926,6.926,0,0,0,2.648-13.3L12.86,55.963l2.334-5.641H27.9a4.741,4.741,0,0,0,.54-.054c.139.874.321,1.733.511,2.589a47.032,47.032,0,0,0,20.628,64.285l.67,2.684-2.784,11.138Zm7.759,6.322,3.361-13.452h5.36a6.739,6.739,0,0,0,6.342,4.484h8.968a6.717,6.717,0,0,0,6.313-4.484H82.2l3.361,13.452ZM128.14,55.963,125.158,57.2a6.925,6.925,0,0,0,2.648,13.3h3.226v8.968h-3.226a6.926,6.926,0,0,0-2.648,13.3l2.982,1.235-3.43,8.284-2.986-1.235a6.925,6.925,0,0,0-7.535,11.275l2.287,2.287-6.34,6.34-2.287-2.287a6.926,6.926,0,0,0-11.275,7.537l1.235,2.986-8.338,3.453-2.793-11.169a6.743,6.743,0,0,0,3.547-3.76,47.036,47.036,0,0,0,21.825-64.85c.191-.856.332-1.729.471-2.6a4.438,4.438,0,0,0,.576.058h12.71ZM113.1,45.839V14.452h22.419l0,31.387Z" transform="translate(-1 -1)"/>
      <path id="Trazado_120839" data-name="Trazado 120839" d="M53,9H66.452v4.484H53Z" transform="translate(63.581 8.935)"/>
      <path id="Trazado_120840" data-name="Trazado 120840" d="M53,13H66.452v4.484H53Z" transform="translate(63.581 13.903)"/>
      <path id="Trazado_120841" data-name="Trazado 120841" d="M53,17H66.452v4.484H53Z" transform="translate(63.581 18.871)"/>
    </g>
  </g>
</svg>
