<svg xmlns="http://www.w3.org/2000/svg" width="151.304" height="151.304" viewBox="0 0 151.304 151.304">
  <g id="AdobeStock_509762950" transform="translate(0)">
    <g id="Grupo_86005" data-name="Grupo 86005" transform="translate(2.364 2.364)">
      <path id="Trazado_120792" data-name="Trazado 120792" d="M97.039,14.058h0A67.237,67.237,0,0,0,30.148,74.505L47.9,73.674A49.818,49.818,0,0,1,97.039,31.567l-.079.028v6.8l17.16-13.865L96.959,8v6.086" transform="translate(-23.603 -8)" fill="#ffe27a"/>
      <path id="Trazado_120793" data-name="Trazado 120793" d="M137.829,81.891l12.924-10.443A49.75,49.75,0,0,0,88.161,117.2l.605-.028a49.817,49.817,0,0,1,49.142-42.107l-.079.028Z" transform="translate(-64.472 -51.5)" fill="#f9cf58"/>
      <path id="Trazado_120794" data-name="Trazado 120794" d="M208.5,172.667l-5.622-.845a26.233,26.233,0,0,0-4.135-9.978l3.379-4.575a2.012,2.012,0,0,0-.2-2.618l-2.91-2.91a2.012,2.012,0,0,0-2.618-.2l-4.575,3.379a26.232,26.232,0,0,0-9.977-4.135L181,145.169a2.012,2.012,0,0,0-1.989-1.713h-4.116a2.011,2.011,0,0,0-1.989,1.713l-.845,5.622a26.23,26.23,0,0,0-9.977,4.135l-4.575-3.379a2.011,2.011,0,0,0-2.617.2l-2.91,2.91a2.012,2.012,0,0,0-.2,2.618l3.379,4.575a26.231,26.231,0,0,0-4.135,9.978l-5.622.845a2.012,2.012,0,0,0-1.713,1.989v4.115a2.012,2.012,0,0,0,1.713,1.989l5.622.845a26.233,26.233,0,0,0,4.135,9.978l-3.379,4.575a2.012,2.012,0,0,0,.2,2.618l2.91,2.91a2.011,2.011,0,0,0,2.617.2l4.575-3.379a26.232,26.232,0,0,0,9.977,4.135l.845,5.622a2.012,2.012,0,0,0,1.989,1.713h4.116A2.011,2.011,0,0,0,181,208.26l.845-5.622a26.23,26.23,0,0,0,9.977-4.135l4.575,3.379a2.012,2.012,0,0,0,2.618-.2l2.91-2.91a2.012,2.012,0,0,0,.2-2.618l-3.379-4.575a26.233,26.233,0,0,0,4.135-9.978l5.622-.845a2.012,2.012,0,0,0,1.713-1.989v-4.115a2.012,2.012,0,0,0-1.713-1.989Zm-31.546,17.359a13.312,13.312,0,1,1,13.312-13.312A13.312,13.312,0,0,1,176.949,190.027Z" transform="translate(-103.593 -103.427)" fill="#ff4755"/>
      <path id="Trazado_120795" data-name="Trazado 120795" d="M14.128,214.86c0,.023,0,.046,0,.069a67.237,67.237,0,0,0,60.45,66.891l-1.042-17.784a49.732,49.732,0,0,1-41.9-49.107c0-.023,0-.045,0-.069H38.39L24.526,197.7,8,214.86h6.086" transform="translate(-8 -141.641)" fill="#8bcaff"/>
      <path id="Trazado_120796" data-name="Trazado 120796" d="M214.86,321.515l.137,0a49.732,49.732,0,0,0,49.1-41.886l17.8-1.21a67.236,67.236,0,0,1-66.9,60.6l-.137,0v6.06L197.7,328.558l17.16-13.865v6.8Z" transform="translate(-141.641 -198.507)" fill="#98db7c"/>
      <path id="Trazado_120797" data-name="Trazado 120797" d="M237.809,267.66a13.366,13.366,0,0,0-.266-2.66,13.315,13.315,0,0,1-26.092,0,13.313,13.313,0,1,0,26.358,2.66Z" transform="translate(-151.141 -189.052)" fill="#fc2b3a"/>
      <path id="Trazado_120798" data-name="Trazado 120798" d="M224.465,333.706a67.539,67.539,0,0,1-13.325-1.323l13.188,12.7v-6.06l.137,0a67.236,67.236,0,0,0,66.9-60.6l-.915.951a67.249,67.249,0,0,1-65.989,54.333Z" transform="translate(-151.109 -198.508)" fill="#82d361"/>
      <path id="Trazado_120799" data-name="Trazado 120799" d="M82.637,316.424a67.263,67.263,0,0,1-53.7-60.656h-.205c0,.023,0,.046,0,.069a67.237,67.237,0,0,0,60.45,66.891Z" transform="translate(-22.606 -182.549)" fill="#6cc4ff"/>
      <path id="Trazado_120800" data-name="Trazado 120800" d="M339.264,96.575c0-.023,0-.046,0-.069a67.236,67.236,0,0,0-60.6-66.9l10.531,10.142-9.452,7.637a49.732,49.732,0,0,1,42.013,49.126c0,.023,0,.046,0,.069h-6.891l13.865,17.16,16.526-17.16Z" transform="translate(-198.679 -23.218)" fill="#ffba57"/>
      <g id="Grupo_86004" data-name="Grupo 86004" transform="translate(81.065 19.948)">
        <path id="Trazado_120801" data-name="Trazado 120801" d="M287.532,75.5l-5.216,4.215a49.736,49.736,0,0,1,41.941,46.479q.07-1.328.072-2.673a49.74,49.74,0,0,0-36.8-48.021Z" transform="translate(-282.316 -75.501)" fill="#ffac3e"/>
      </g>
    </g>
    <g id="Grupo_86006" data-name="Grupo 86006" transform="translate(0 0)">
      <path id="Trazado_120802" data-name="Trazado 120802" d="M219.13,203.347a15.568,15.568,0,0,0-14.617,20.9,2.221,2.221,0,1,0,4.172-1.526,11.118,11.118,0,1,1,4.717,5.712,2.221,2.221,0,0,0-2.292,3.8,15.56,15.56,0,1,0,8.021-28.895Z" transform="translate(-143.413 -143.255)"/>
      <path id="Trazado_120803" data-name="Trazado 120803" d="M203.426,165.008l-4.118-.619a28.29,28.29,0,0,0-3.292-7.943l2.476-3.351a4.212,4.212,0,0,0-.412-5.513l-2.916-2.916a4.212,4.212,0,0,0-5.513-.412L186.3,146.73a28.277,28.277,0,0,0-7.943-3.292l-.619-4.118a4.211,4.211,0,0,0-4.19-3.606h-4.124a4.211,4.211,0,0,0-4.19,3.606l-.619,4.118a28.279,28.279,0,0,0-7.943,3.292l-3.351-2.476a4.211,4.211,0,0,0-5.512.412l-2.915,2.916a4.21,4.21,0,0,0-.412,5.513l2.475,3.351a28.26,28.26,0,0,0-3.291,7.943l-4.117.619a4.211,4.211,0,0,0-3.607,4.19v4.124a4.211,4.211,0,0,0,3.606,4.19l4.118.619a28.282,28.282,0,0,0,3.291,7.943l-2.475,3.351a4.211,4.211,0,0,0,.412,5.513l2.916,2.916a4.211,4.211,0,0,0,5.513.412l3.351-2.475a28.277,28.277,0,0,0,7.943,3.292l.619,4.118a4.211,4.211,0,0,0,4.189,3.606h4.123a4.211,4.211,0,0,0,4.19-3.607l.619-4.118a28.277,28.277,0,0,0,7.943-3.292l3.351,2.476a4.211,4.211,0,0,0,5.512-.412l2.916-2.916a4.212,4.212,0,0,0,.412-5.513l-2.475-3.351a28.271,28.271,0,0,0,3.292-7.943l4.117-.619a4.21,4.21,0,0,0,3.607-4.189V169.2a4.21,4.21,0,0,0-3.606-4.19Zm-.835,8.136-5.459.821a2.22,2.22,0,0,0-1.852,1.787,23.944,23.944,0,0,1-3.794,9.154,2.22,2.22,0,0,0,.047,2.573l3.281,4.442-2.666,2.666-4.442-3.281a2.222,2.222,0,0,0-2.573-.047,23.942,23.942,0,0,1-9.154,3.794,2.221,2.221,0,0,0-1.787,1.853l-.82,5.459H169.6l-.821-5.459A2.22,2.22,0,0,0,167,195.052a23.944,23.944,0,0,1-9.154-3.794,2.219,2.219,0,0,0-2.573.047l-4.441,3.281-2.666-2.666,3.281-4.442a2.22,2.22,0,0,0,.047-2.573,23.939,23.939,0,0,1-3.793-9.154,2.22,2.22,0,0,0-1.852-1.787l-5.459-.821v-3.77l5.459-.821a2.22,2.22,0,0,0,1.852-1.787,23.941,23.941,0,0,1,3.793-9.154,2.22,2.22,0,0,0-.047-2.573l-3.281-4.442,2.666-2.666,4.441,3.281a2.221,2.221,0,0,0,2.573.047A23.949,23.949,0,0,1,167,147.467a2.22,2.22,0,0,0,1.787-1.853l.821-5.459h3.77l.82,5.459a2.222,2.222,0,0,0,1.787,1.853,23.939,23.939,0,0,1,9.154,3.794,2.22,2.22,0,0,0,2.573-.047l4.442-3.281,2.666,2.666-3.281,4.442a2.221,2.221,0,0,0-.047,2.573,23.943,23.943,0,0,1,3.794,9.154,2.22,2.22,0,0,0,1.852,1.787l5.459.821Z" transform="translate(-95.77 -95.608)"/>
      <path id="Trazado_120804" data-name="Trazado 120804" d="M151.127,74.851a2.221,2.221,0,0,0-2.044-1.352h-3.814A69.585,69.585,0,0,0,83.355,6.487L77.258.616a2.235,2.235,0,0,0-3.761,1.6V6.1A69.09,69.09,0,0,0,35.665,18.742a2.221,2.221,0,0,0,2.56,3.63A64.72,64.72,0,0,1,75.718,10.507a2.221,2.221,0,0,0,2.221-2.221V7.437l11.62,11.191L77.938,28.018V25.83a2.221,2.221,0,0,0-2.221-2.221A52.058,52.058,0,0,0,25.26,62.883L20.5,56.993a2.235,2.235,0,0,0-3.327-.145l-5.216,5.416A65.062,65.062,0,0,1,31.543,27.774a2.221,2.221,0,0,0-3.012-3.264A69.445,69.445,0,0,0,6.571,67.859L.615,74.043a2.236,2.236,0,0,0,1.6,3.761H6.166a69.588,69.588,0,0,0,61.762,67l6.112,5.887a2.235,2.235,0,0,0,3.761-1.6v-3.88a69.048,69.048,0,0,0,38.441-12.983,2.221,2.221,0,0,0-2.59-3.609A64.692,64.692,0,0,1,75.691,140.8H75.58a2.221,2.221,0,0,0-2.221,2.221v.85l-11.62-11.191,11.62-9.389v2.186a2.221,2.221,0,0,0,2.207,2.221l.151,0a52.058,52.058,0,0,0,50.424-39.146l4.656,5.763a2.235,2.235,0,0,0,3.327.145l5.388-5.6A65.1,65.1,0,0,1,120.3,123.152a2.221,2.221,0,0,0,3.04,3.238,69.487,69.487,0,0,0,21.545-43.105l5.8-6.025a2.219,2.219,0,0,0,.444-2.409ZM56.99,130.8a2.235,2.235,0,0,0-.145,3.327l5.489,5.286A65.163,65.163,0,0,1,10.575,75.66v-.076a2.221,2.221,0,0,0-2.221-2.221H7.437L18.627,61.742l9.389,11.621H25.9a2.214,2.214,0,0,0-2.221,2.213v.076a52.058,52.058,0,0,0,39.157,50.429Zm49.783-19.076A47.576,47.576,0,0,1,77.8,123.207v-4.571a2.236,2.236,0,0,0-3.617-1.728L67.264,122.5a47.614,47.614,0,0,1-39.1-44.7h4.5a2.236,2.236,0,0,0,1.728-3.617l-5.547-6.865A47.612,47.612,0,0,1,73.5,28.1v4.565a2.236,2.236,0,0,0,3.617,1.728l6.947-5.613A47.614,47.614,0,0,1,123.269,73.5h-4.637a2.236,2.236,0,0,0-1.728,3.617l5.658,7a47.625,47.625,0,0,1-15.79,27.606Zm25.9-22.163-9.389-11.621h2.255a2.214,2.214,0,0,0,2.221-2.213v-.076A52.059,52.059,0,0,0,88.5,25.2L94.308,20.5a2.235,2.235,0,0,0,.145-3.327l-5.524-5.32A65.16,65.16,0,0,1,140.86,75.644v.076a2.221,2.221,0,0,0,2.221,2.221h.781Z" transform="translate(0 0)"/>
    </g>
  </g>
</svg>
