<svg xmlns="http://www.w3.org/2000/svg" width="155.576" height="158.738" viewBox="0 0 155.576 158.738">
  <g id="implementacion" transform="translate(-5.099)">
    <g id="Grupo_86013" data-name="Grupo 86013" transform="translate(20.817 17.738)">
      <g id="Grupo_86009" data-name="Grupo 86009">
        <path id="Trazado_120805" data-name="Trazado 120805" d="M118.09,300.541h14.033v7.137a4.268,4.268,0,0,1-4.255,4.255h-5.523a4.268,4.268,0,0,1-4.255-4.255v-7.137Z" transform="translate(-98.777 -225.1)" fill="#eecf52" fill-rule="evenodd"/>
        <path id="Trazado_120806" data-name="Trazado 120806" d="M104.013,267.394h22.762v8.9a4.267,4.267,0,0,1-4.255,4.255H108.269a4.267,4.267,0,0,1-4.256-4.255v-8.9Z" transform="translate(-89.064 -202.23)" fill="#eecf52" fill-rule="evenodd"/>
        <path id="Trazado_120807" data-name="Trazado 120807" d="M151.972,282.377v4.256a4.224,4.224,0,0,1-.229,1.374,4.271,4.271,0,0,1-4.026,2.881h4.957a4.267,4.267,0,0,0,4.255-4.255v-4.258l-.142,0h-4.815Z" transform="translate(-119.219 -212.566)" fill="#eecf52" fill-rule="evenodd"/>
        <path id="Trazado_120808" data-name="Trazado 120808" d="M89.827,241.222H121.1v8.506a4.268,4.268,0,0,1-4.255,4.255H94.082a4.268,4.268,0,0,1-4.255-4.255v-8.506Z" transform="translate(-79.276 -184.172)" fill="#eecf52" fill-rule="evenodd"/>
        <path id="Trazado_120809" data-name="Trazado 120809" d="M165.239,254.93v4.256a4.268,4.268,0,0,1-4.255,4.255h4.957l.142,0a4.268,4.268,0,0,0,4.113-4.253V254.93Z" transform="translate(-128.372 -193.63)" fill="#eecf52" fill-rule="evenodd"/>
        <path id="Trazado_120810" data-name="Trazado 120810" d="M81.984,57.212A26.187,26.187,0,0,1,108.171,83.4c0,14.544-9.291,13.675-10.551,35.112H66.348C65.088,97.074,55.8,97.943,55.8,83.4A26.187,26.187,0,0,1,81.984,57.212Z" transform="translate(-55.797 -57.212)" fill="#eecf52" fill-rule="evenodd"/>
        <path id="Trazado_120811" data-name="Trazado 120811" d="M132.268,57.329A26.19,26.19,0,0,1,155.977,83.4c0,13.509-8.016,13.72-10.166,30.863-.165,1.313-.295,2.725-.384,4.25h4.957c1.26-21.438,10.551-20.569,10.551-35.112a26.187,26.187,0,0,0-26.187-26.187q-1.254,0-2.479.116Z" transform="translate(-108.559 -57.213)" fill="#eecf52" fill-rule="evenodd"/>
      </g>
      <g id="Grupo_86010" data-name="Grupo 86010" transform="translate(64.992 66.5)">
        <path id="Trazado_120812" data-name="Trazado 120812" d="M308.12,282.224a26.264,26.264,0,0,1,6.9,2.859l8.631-6.249,6.906,6.906-6.249,8.631a26.289,26.289,0,0,1,2.859,6.9l10.519,1.684v9.767L327.163,314.4a26.266,26.266,0,0,1-2.859,6.9l6.249,8.631-6.906,6.906-8.631-6.249a26.283,26.283,0,0,1-6.9,2.859l-1.684,10.519h-9.767l-1.684-10.518a26.263,26.263,0,0,1-6.9-2.859l-8.631,6.249-6.906-6.906L278.8,321.3a26.266,26.266,0,0,1-2.859-6.9l-10.519-1.684V302.95l10.519-1.684a26.27,26.27,0,0,1,2.859-6.9l-6.249-8.631,6.906-6.906,8.631,6.249a26.268,26.268,0,0,1,6.9-2.859l1.684-10.518h9.767Z" transform="translate(-265.424 -271.705)" fill="#79dfef" fill-rule="evenodd"/>
        <path id="Trazado_120813" data-name="Trazado 120813" d="M448,330.265a26.267,26.267,0,0,1-2.859,6.9l6.249,8.631-5.578,5.578,1.834,1.328,6.906-6.906-6.249-8.631a26.268,26.268,0,0,0,2.859-6.9l10.518-1.684v-9.767l-10.519-1.684a26.3,26.3,0,0,0-2.859-6.9l6.249-8.631-6.906-6.906-1.834,1.328,5.578,5.578-6.249,8.631a26.291,26.291,0,0,1,2.859,6.9l10.519,1.684v9.767Z" transform="translate(-389.42 -287.569)" fill="#79dfef" fill-rule="evenodd"/>
        <circle id="Elipse_4850" data-name="Elipse 4850" cx="14.431" cy="14.431" r="14.431" transform="translate(18.148 45.791) rotate(-73.142)" fill="#79dfef"/>
        <path id="Trazado_120814" data-name="Trazado 120814" d="M338.569,356.12a14.433,14.433,0,0,0,12.851,14.346,14.637,14.637,0,0,1-1.581.086,14.431,14.431,0,1,1,1.581-28.777,14.416,14.416,0,0,0-12.851,14.346Z" transform="translate(-313.71 -319.991)" fill="#79dfef" fill-rule="evenodd"/>
      </g>
      <g id="Grupo_86011" data-name="Grupo 86011" transform="translate(3.35 92.743)">
        <path id="Trazado_120815" data-name="Trazado 120815" d="M101.1,376.521v-8.236L122.8,384.2l-21.7,18.16v-7.918c-30.283,0-40.216-22.264-31.417-38.1C74.55,375.3,90.441,376.521,101.1,376.521Z" transform="translate(-66.604 -356.349)" fill="#13b770" fill-rule="evenodd"/>
        <path id="Trazado_120816" data-name="Trazado 120816" d="M120.406,395.283l-16.5,13.806v-4.85c-25.42,0-37.317-14.795-36.543-29.289-3.885,14.964,6.987,32.329,33.732,32.329V415.2l21.7-18.16Z" transform="translate(-66.603 -369.183)" fill="#13b770" fill-rule="evenodd"/>
      </g>
      <g id="Grupo_86012" data-name="Grupo 86012" transform="translate(63.342 9.95)">
        <path id="Trazado_120817" data-name="Trazado 120817" d="M283.356,117v8.828L260.1,108.768,283.356,89.3V97.79c32.458,0,43.1,23.862,33.674,40.832C311.813,118.31,294.781,117,283.356,117Z" transform="translate(-260.101 -89.304)" fill="#eecf52" fill-rule="evenodd"/>
        <path id="Trazado_120818" data-name="Trazado 120818" d="M280.566,152.982v6.738L262.25,146.282l-2.149,1.8,23.255,17.061v-8.827c10.215,0,24.914,1.046,31.64,15.788C308.047,154.632,292.033,152.982,280.566,152.982Z" transform="translate(-260.101 -128.617)" fill="#eecf52" fill-rule="evenodd"/>
      </g>
    </g>
    <path id="Trazado_120819" data-name="Trazado 120819" d="M105.061,32.761v3.176a2.481,2.481,0,0,0,2.48,2.48c14.572,0,26.006,5.224,31.364,14.332a22.558,22.558,0,0,1,2.451,16.987,26.934,26.934,0,0,0-13.629-13.655c-6.65-3.008-13.936-3.413-20.186-3.413a2.48,2.48,0,0,0-2.48,2.48v3.931L88.305,46.786ZM81.807,46.994a2.48,2.48,0,0,0,1.012,1.92l23.256,17.061a2.478,2.478,0,0,0,3.946-2V57.658c12.7.317,24.6,3.422,28.793,19.727a2.48,2.48,0,0,0,2.084,1.844,2.6,2.6,0,0,0,.319.02,2.486,2.486,0,0,0,2.167-1.277,27.687,27.687,0,0,0-.2-27.739,31.56,31.56,0,0,0-13.274-12.054A48.2,48.2,0,0,0,110.021,33.5V27.451a2.479,2.479,0,0,0-4.07-1.9L82.695,45.012a2.484,2.484,0,0,0-.887,1.982ZM61.273,150.948v-2.606a2.482,2.482,0,0,0-2.48-2.482c-13.535,0-24.15-4.844-29.118-13.289a20.861,20.861,0,0,1-2.38-15.265A25.222,25.222,0,0,0,39.888,129.7c6.236,2.821,13.055,3.2,18.9,3.2a2.481,2.481,0,0,0,2.48-2.48v-3.34l15.2,11.151ZM81.957,136.1l-21.7-15.919a2.48,2.48,0,0,0-3.947,2V127.9c-11.722-.32-22.674-3.244-26.535-18.278a2.48,2.48,0,0,0-4.57-.588,25.994,25.994,0,0,0,.192,26.045A29.608,29.608,0,0,0,37.852,146.4a45.027,45.027,0,0,0,18.461,4.377v5.486a2.48,2.48,0,0,0,4.071,1.9L82.081,140a2.48,2.48,0,0,0-.125-3.9ZM79.194,29.64a2.48,2.48,0,0,1,.908-3.387l5.343-3.084a2.48,2.48,0,1,1,2.481,4.3l-5.343,3.085a2.478,2.478,0,0,1-3.389-.908ZM64.736,12.7,67.82,7.359a2.48,2.48,0,1,1,4.3,2.48l-3.085,5.343a2.48,2.48,0,0,1-4.3-2.48ZM15.07,29.64a2.481,2.481,0,0,1-3.389.908L6.341,27.464a2.48,2.48,0,1,1,2.481-4.3l5.341,3.084A2.479,2.479,0,0,1,15.07,29.64Zm7.078-19.8a2.481,2.481,0,0,1,4.3-2.48L29.528,12.7a2.48,2.48,0,1,1-4.3,2.481Zm22.5-1.191V2.48a2.48,2.48,0,1,1,4.961,0V8.649a2.48,2.48,0,1,1-4.961,0Zm9.482,38.838V43.882a3.6,3.6,0,1,1,3.606,3.605Zm-7-27.5A23.734,23.734,0,0,0,23.426,43.688c0,6.088,1.74,9.061,3.943,12.826A42.109,42.109,0,0,1,33.8,76.321H40.13V52.447H36.525a8.566,8.566,0,1,1,8.566-8.566v3.605h4.083V43.882a8.566,8.566,0,1,1,8.567,8.566H54.135V76.321h6.334A42.11,42.11,0,0,1,66.9,56.514c2.2-3.764,3.943-6.738,3.943-12.826A23.735,23.735,0,0,0,47.132,19.982Zm2.9,81.874H44.513a1.778,1.778,0,0,1-1.776-1.776V98.3H51.81v1.776A1.777,1.777,0,0,1,50.037,101.855ZM54.4,93.344H40.15a1.779,1.779,0,0,1-1.777-1.776V89.793h17.8v1.776A1.777,1.777,0,0,1,54.4,93.344Zm5.888-12.062v1.776a1.776,1.776,0,0,1-1.774,1.776H35.751a1.777,1.777,0,0,1-1.776-1.776V81.281ZM49.174,76.321H45.091V52.447h4.083ZM40.13,47.487H36.525a3.605,3.605,0,1,1,3.605-3.605Zm-11.114,31.4v4.172a6.749,6.749,0,0,0,4.4,6.318v2.194a6.745,6.745,0,0,0,4.364,6.3v2.208a6.743,6.743,0,0,0,6.735,6.735h5.524a6.743,6.743,0,0,0,6.735-6.735V97.872a6.746,6.746,0,0,0,4.366-6.3V89.262a6.748,6.748,0,0,0,4.112-6.205V78.881c.646-10.833,3.332-15.423,5.929-19.862,2.376-4.061,4.621-7.9,4.621-15.331a28.667,28.667,0,1,0-57.335,0c0,7.432,2.245,11.27,4.621,15.331,2.6,4.438,5.284,9.031,5.931,19.865Zm93.05,53.2a11.951,11.951,0,1,1,11.948-11.951A11.964,11.964,0,0,1,122.066,132.082Zm0-28.863a16.912,16.912,0,1,0,16.909,16.912A16.931,16.931,0,0,0,122.066,103.218Zm33.649,19.68v-5.537l-8.433-1.35a2.481,2.481,0,0,1-2.009-1.834,23.9,23.9,0,0,0-2.588-6.245,2.479,2.479,0,0,1,.123-2.72l5.007-6.918L143.9,94.38l-6.918,5.009a2.479,2.479,0,0,1-2.719.123,23.868,23.868,0,0,0-6.245-2.588,2.479,2.479,0,0,1-1.835-2.011l-1.348-8.43H119.3l-1.348,8.43a2.483,2.483,0,0,1-1.835,2.011,23.791,23.791,0,0,0-6.245,2.588,2.485,2.485,0,0,1-2.722-.123l-6.916-5.009L96.315,98.3l5.01,6.918a2.479,2.479,0,0,1,.123,2.72,23.907,23.907,0,0,0-2.588,6.245,2.481,2.481,0,0,1-2.011,1.834l-8.43,1.35V122.9l8.43,1.35a2.479,2.479,0,0,1,2.011,1.834,23.9,23.9,0,0,0,2.588,6.245,2.479,2.479,0,0,1-.123,2.72l-5.01,6.918,3.917,3.915,6.919-5.009a2.48,2.48,0,0,1,2.719-.124,23.787,23.787,0,0,0,6.245,2.59,2.485,2.485,0,0,1,1.835,2.011l1.348,8.43h5.537l1.348-8.43a2.476,2.476,0,0,1,1.835-2.011,23.829,23.829,0,0,0,6.245-2.59,2.479,2.479,0,0,1,2.719.124l6.918,5.009,3.915-3.915-5.007-6.918a2.479,2.479,0,0,1-.123-2.72,23.929,23.929,0,0,0,2.588-6.245,2.48,2.48,0,0,1,2.012-1.834Zm2.871-10.1-8.963-1.433a28.41,28.41,0,0,0-1.872-4.519l5.323-7.353a2.48,2.48,0,0,0-.255-3.209l-6.9-6.906a2.48,2.48,0,0,0-3.209-.256l-7.355,5.325a28.85,28.85,0,0,0-4.518-1.875L129.4,83.611a2.481,2.481,0,0,0-2.45-2.088h-9.766a2.481,2.481,0,0,0-2.45,2.088L113.3,92.572a28.728,28.728,0,0,0-4.518,1.875l-7.353-5.325a2.481,2.481,0,0,0-3.21.256l-6.906,6.906a2.481,2.481,0,0,0-.255,3.209l5.326,7.353a28.651,28.651,0,0,0-1.876,4.518L85.546,112.8a2.481,2.481,0,0,0-2.088,2.45v9.766a2.482,2.482,0,0,0,2.088,2.45l8.962,1.435a28.713,28.713,0,0,0,1.876,4.518l-5.326,7.353a2.481,2.481,0,0,0,.255,3.209l6.906,6.906a2.484,2.484,0,0,0,3.21.256l7.353-5.325a28.583,28.583,0,0,0,4.518,1.875l1.435,8.961a2.481,2.481,0,0,0,2.45,2.088h9.766a2.481,2.481,0,0,0,2.45-2.088l1.435-8.962a28.668,28.668,0,0,0,4.518-1.874l7.355,5.325a2.482,2.482,0,0,0,3.209-.256l6.9-6.906a2.48,2.48,0,0,0,.255-3.209l-5.323-7.353a28.851,28.851,0,0,0,1.875-4.518l8.961-1.435a2.484,2.484,0,0,0,2.09-2.45v-9.766a2.484,2.484,0,0,0-2.09-2.449Z" fill-rule="evenodd"/>
  </g>
</svg>
