<svg xmlns="http://www.w3.org/2000/svg" width="132.323" height="132.323" viewBox="0 0 132.323 132.323">
  <g id="el-pensamiento-de-diseno" transform="translate(-1 -1)">
    <g id="Grupo_86048" data-name="Grupo 86048" transform="translate(3.134 3.134)">
      <g id="Grupo_86034" data-name="Grupo 86034" transform="translate(89.681 25.611)">
        <path id="Trazado_120842" data-name="Trazado 120842" d="M67.454,24.671,52.365,39.76A36.191,36.191,0,0,0,44.255,27l-.235-.235L56.783,14Z" transform="translate(-44.02 -14)" fill="#5cd6b3"/>
      </g>
      <g id="Grupo_86035" data-name="Grupo 86035" transform="translate(21.342 88.016)">
        <path id="Trazado_120843" data-name="Trazado 120843" d="M40.172,55.106l-17.5,17.5L12,61.936l18.7-18.7C34.3,46.761,37.888,50.283,40.172,55.106Z" transform="translate(-12 -43.24)" fill="#5cd6b3"/>
      </g>
      <g id="Grupo_86036" data-name="Grupo 86036" transform="translate(10.671 76.256)">
        <path id="Trazado_120844" data-name="Trazado 120844" d="M36.367,49.49l-18.7,18.7L7,57.514,26.784,37.73a36.165,36.165,0,0,0,7,9.22c.854.854,1.707,1.707,2.582,2.54Z" transform="translate(-7 -37.73)" fill="#ff826e"/>
      </g>
      <g id="Grupo_86037" data-name="Grupo 86037" transform="translate(76.683 14.94)">
        <path id="Trazado_120845" data-name="Trazado 120845" d="M63.69,19.671,50.928,32.434a35.978,35.978,0,0,0-13-8.345L53.019,9Z" transform="translate(-37.93 -9)" fill="#ff826e"/>
      </g>
      <g id="Grupo_86038" data-name="Grupo 86038" transform="translate(98.175 0)">
        <path id="Trazado_120846" data-name="Trazado 120846" d="M77.879,17.089A15.051,15.051,0,0,1,73.461,27.76l-4.119,4.119L48,10.537l4.119-4.119a15.089,15.089,0,0,1,25.76,10.671Z" transform="translate(-48 -2)" fill="#aab2bd"/>
      </g>
      <g id="Grupo_86039" data-name="Grupo 86039" transform="translate(0 96.041)">
        <path id="Trazado_120847" data-name="Trazado 120847" d="M34.014,68.342,6.887,78.779a3.775,3.775,0,0,1-1.281.235A3.616,3.616,0,0,1,2,75.407a3.775,3.775,0,0,1,.235-1.281L12.671,47,23.342,57.671Z" transform="translate(-2 -47)" fill="#ccd1d9"/>
      </g>
      <g id="Grupo_86040" data-name="Grupo 86040" transform="translate(91.772 8.537)">
        <path id="Trazado_120848" data-name="Trazado 120848" d="M72.745,27.342l-6.4,6.4L55.671,23.074,45,12.4,51.4,6Z" transform="translate(-45 -6)" fill="#e6e9ed"/>
      </g>
      <g id="Grupo_86041" data-name="Grupo 86041" transform="translate(77.195 64.027)">
        <path id="Trazado_120849" data-name="Trazado 120849" d="M65.552,34.241A6.213,6.213,0,0,0,69.394,40c.021,0,.064.021.085.021A6.2,6.2,0,0,0,76.288,38.7l1.6-1.6,6.04,6.04-1.6,1.6A6.2,6.2,0,0,0,81,51.55c0,.021.021.064.021.085a6.213,6.213,0,0,0,5.762,3.842h2.241v8.537H86.788a6.213,6.213,0,0,0-5.762,3.842c0,.021-.021.064-.021.085a6.2,6.2,0,0,0,1.323,6.808l1.6,1.6-6.04,6.04-1.6-1.6a6.2,6.2,0,0,0-6.808-1.323c-.021,0-.064.021-.085.021a6.213,6.213,0,0,0-3.842,5.762V87.49H57.015V85.249a6.213,6.213,0,0,0-3.842-5.762c-.021,0-.064-.021-.085-.021a6.2,6.2,0,0,0-6.808,1.323l-1.6,1.6-5.4-5.4a4.223,4.223,0,0,0,.662-2.3,4.283,4.283,0,0,0-1.771-3.457c2.07-6.659,6.467-10.991,10.885-15.281a13.2,13.2,0,0,0-.576,3.8A12.805,12.805,0,1,0,61.284,46.94a13.021,13.021,0,0,0-4.93.982A26.093,26.093,0,0,0,61.284,32h4.268Z" transform="translate(-38.17 -32)" fill="#13b770"/>
      </g>
      <g id="Grupo_86042" data-name="Grupo 86042" transform="translate(87.504 78.967)">
        <path id="Trazado_120850" data-name="Trazado 120850" d="M55.805,39A12.805,12.805,0,1,1,43,51.805a13.2,13.2,0,0,1,.576-3.8v-.021a59.208,59.208,0,0,0,7.3-8A13.021,13.021,0,0,1,55.805,39Zm4.268,12.805a4.268,4.268,0,1,0-4.268,4.268A4.281,4.281,0,0,0,60.074,51.805Z" transform="translate(-43 -39)" fill="#fcd770"/>
      </g>
      <g id="Grupo_86043" data-name="Grupo 86043" transform="translate(53.356 119.517)">
        <path id="Trazado_120851" data-name="Trazado 120851" d="M37.671,66.537a10.935,10.935,0,0,1-10.607-8.281L27,58H48.342l-.064.256a11.017,11.017,0,0,1-3.884,5.976A10.9,10.9,0,0,1,37.671,66.537Z" transform="translate(-27 -58)" fill="#aab2bd"/>
      </g>
      <g id="Grupo_86044" data-name="Grupo 86044" transform="translate(49.088 110.98)">
        <path id="Trazado_120852" data-name="Trazado 120852" d="M50.611,54a4.281,4.281,0,0,1,4.268,4.268,4.3,4.3,0,0,1-4.268,4.268H29.268A4.281,4.281,0,0,1,25,58.268,4.3,4.3,0,0,1,29.268,54Z" transform="translate(-25 -54)" fill="#ccd1d9"/>
      </g>
      <g id="Grupo_86045" data-name="Grupo 86045" transform="translate(49.088 102.444)">
        <path id="Trazado_120853" data-name="Trazado 120853" d="M54.879,54.268a4.223,4.223,0,0,1-.662,2.3,4.739,4.739,0,0,1-.6.7,4.173,4.173,0,0,1-3.009,1.259H29.268A4.281,4.281,0,0,1,25,54.268a4.173,4.173,0,0,1,1.259-3.009,2.574,2.574,0,0,1,.512-.448,4.209,4.209,0,0,1,2.5-.811H50.611a4.209,4.209,0,0,1,2.5.811,4.283,4.283,0,0,1,1.771,3.457Z" transform="translate(-25 -50)" fill="#ccd1d9"/>
      </g>
      <g id="Grupo_86046" data-name="Grupo 86046" transform="translate(27.745 27.745)">
        <path id="Trazado_120854" data-name="Trazado 120854" d="M85.281,38.626a36.191,36.191,0,0,0-8.11-12.763l-.235-.235A36.378,36.378,0,0,0,51.986,15h-.021a14.607,14.607,0,0,1,1.451,6.4,14.776,14.776,0,0,1-.79,4.781V26.2a8.358,8.358,0,0,1,2.924-.534,8.537,8.537,0,1,1,0,17.074H16a36.235,36.235,0,0,0-1,8.537,26.5,26.5,0,0,0,2.71,12.229,36.165,36.165,0,0,0,7,9.22c.854.854,1.707,1.707,2.582,2.54,3.607,3.521,7.192,7.043,9.476,11.866a20.569,20.569,0,0,1,1.345,3.372,4.209,4.209,0,0,1,2.5-.811H61.953a4.209,4.209,0,0,1,2.5.811c2.07-6.659,6.467-10.991,10.885-15.281v-.021a59.208,59.208,0,0,0,7.3-8,26.093,26.093,0,0,0,4.93-15.921,35.988,35.988,0,0,0-2.284-12.656Z" transform="translate(-15 -15)" fill="#eecf52"/>
      </g>
      <g id="Grupo_86047" data-name="Grupo 86047" transform="translate(0 8.537)">
        <path id="Trazado_120855" data-name="Trazado 120855" d="M47.459,17.824A14.938,14.938,0,0,1,66.71,25.208a14.607,14.607,0,0,1,1.451,6.4,14.775,14.775,0,0,1-.79,4.781v.021a8.358,8.358,0,0,1,2.924-.534,8.537,8.537,0,1,1,0,17.074H12.671a10.663,10.663,0,0,1-1.024-21.278v-.021a18.934,18.934,0,0,1-1.11-6.445,19.206,19.206,0,0,1,36.9-7.47Z" transform="translate(-2 -6)" fill="#e6e9ed"/>
      </g>
    </g>
    <g id="Grupo_86049" data-name="Grupo 86049" transform="translate(1 1)">
      <path id="Trazado_120856" data-name="Trazado 120856" d="M52.4,54.805A6.4,6.4,0,1,0,46,48.4,6.411,6.411,0,0,0,52.4,54.805Zm0-8.537A2.134,2.134,0,1,1,50.268,48.4,2.136,2.136,0,0,1,52.4,46.268Z" transform="translate(50.041 45.504)"/>
      <path id="Trazado_120857" data-name="Trazado 120857" d="M125.127,85.9A4.1,4.1,0,0,1,126,81.408l3.105-3.107-9.058-9.058-3.11,3.107a4.119,4.119,0,0,1-4.569.837,4.067,4.067,0,0,1-2.523-3.773V65.027h-4.377a37.81,37.81,0,0,0-1.891-9.922l24.7-24.7A17.225,17.225,0,1,0,103.917,6.045L79.246,30.719a37.913,37.913,0,0,0-10.067-1.88,16.984,16.984,0,0,0-19.5-7.963A21.3,21.3,0,0,0,10.1,35.7a12.8,12.8,0,0,0,3.7,25.06H29.287a38.7,38.7,0,0,0-.542,6.4,29.3,29.3,0,0,0,2.271,11.785L11.976,97.988,1.382,125.533A5.68,5.68,0,0,0,1,127.588a5.734,5.734,0,0,0,7.792,5.353l27.544-10.594,13.922-13.924a6.238,6.238,0,0,0,1.494,5.692,6.348,6.348,0,0,0,3.116,10.436,13,13,0,0,0,24.586,0,6.393,6.393,0,0,0,4.781-6.168c0-.16-.036-.309-.047-.465l2.651,2.651,3.11-3.107a4.18,4.18,0,0,1,7.092,2.939v4.386h12.805V120.4a4.183,4.183,0,0,1,7.094-2.939l3.107,3.107,9.058-9.058L126,108.4a4.127,4.127,0,0,1-.839-4.569,4.074,4.074,0,0,1,3.775-2.525h4.386V88.5h-4.386a4.106,4.106,0,0,1-3.81-2.608ZM93.148,92.188a63.692,63.692,0,0,0,6.674-7.28,10.545,10.545,0,0,1,3.622-.672,10.775,10.775,0,1,1-10.3,7.952Zm2.563-50.556,9.867-9.869,7.653,7.653-11.4,11.4A38.732,38.732,0,0,0,95.711,41.632Zm2.213-23.558,3.385-3.385,18.325,18.325L116.249,36.4ZM116.1,5.268a12.957,12.957,0,0,1,9.162,22.119L122.652,30,104.327,11.671l2.608-2.608A12.878,12.878,0,0,1,116.1,5.268ZM94.907,21.092l7.653,7.653L92.7,38.607a38.688,38.688,0,0,0-9.179-6.127Zm6.4,46.07c0,11.1-5.592,16.56-11.512,22.333-4.076,3.976-8.264,8.087-10.7,14.077a6.31,6.31,0,0,0-1.263-.128H69.3V92.772a6.411,6.411,0,0,0-6.4-6.4H58.624a2.134,2.134,0,1,1,0-4.268H79.967a6.4,6.4,0,1,0,0-12.805H62.893a2.136,2.136,0,0,1-2.134-2.134v-6.4H71.43a10.671,10.671,0,1,0,0-21.342c-.06,0-.115.017-.175.017a16.8,16.8,0,0,0,.175-2.151,17.1,17.1,0,0,0-.5-4.047,34.33,34.33,0,0,1,30.383,33.926ZM54.356,109.846a2.136,2.136,0,0,1,2.134-2.134H77.833a2.134,2.134,0,1,1,0,4.268H56.49A2.136,2.136,0,0,1,54.356,109.846Zm-26.862,0L43.183,94.157a38.74,38.74,0,0,1,6.859,8.445L35.148,117.5ZM5.268,47.953a8.537,8.537,0,1,1,17.074,0h4.268A12.81,12.81,0,0,0,14.352,35.176a17.057,17.057,0,0,1,31.4-12.618,17.088,17.088,0,0,0-8.364,12.859,8.536,8.536,0,0,0-6.509,8.268h4.268a4.268,4.268,0,1,1,8.537,0h4.268a8.523,8.523,0,0,0-6.264-8.191,12.79,12.79,0,1,1,25,5.082,10.649,10.649,0,0,0-5.933,9.512h4.268a6.4,6.4,0,1,1,6.4,6.4H13.805A8.546,8.546,0,0,1,5.268,47.953ZM56.49,60.759v6.4a6.411,6.411,0,0,0,6.4,6.4H79.967a2.134,2.134,0,1,1,0,4.268H58.624a6.4,6.4,0,1,0,0,12.805h4.268a2.136,2.136,0,0,1,2.134,2.134v10.671H56.49a6.31,6.31,0,0,0-1.263.128c-2.437-5.991-6.625-10.1-10.7-14.077-5.92-5.773-11.512-11.228-11.512-22.333a34.4,34.4,0,0,1,.657-6.4ZM40.136,91.17,24.477,106.828l-7.653-7.653L33.107,82.891a48.01,48.01,0,0,0,7.028,8.279ZM14.619,103.006l16.7,16.7L17.18,125.142l-8-8Zm-7.357,25.95a1.468,1.468,0,0,1-1.9-1.893L7.5,121.5l5.316,5.316Zm59.9.1a8.769,8.769,0,0,1-7.521-4.268H74.682A8.769,8.769,0,0,1,67.161,129.054Zm10.671-8.537H56.49a2.134,2.134,0,1,1,0-4.268H77.833a2.134,2.134,0,1,1,0,4.268Zm51.222-23.477h-.117a8.451,8.451,0,0,0-5.957,14.381l.09.09-3.022,3.022-.09-.09a8.45,8.45,0,0,0-14.381,5.957v.117h-4.268V120.4a8.451,8.451,0,0,0-14.383-5.957l-.09.09-2.892-2.892a6.256,6.256,0,0,0,.29-1.795,6.341,6.341,0,0,0-1.434-3.989,27.525,27.525,0,0,1,5.831-9.1,14.934,14.934,0,1,0,14.812-16.794c-.209,0-.412.021-.619.03a28,28,0,0,0,2.687-10.7h.066v.117a8.451,8.451,0,0,0,14.381,5.957l.09-.09L123.07,78.3l-.09.09a8.451,8.451,0,0,0,5.957,14.381h.117Z" transform="translate(-1 -1)"/>
    </g>
  </g>
</svg>
