<svg xmlns="http://www.w3.org/2000/svg" width="117" height="117" viewBox="0 0 117 117">
  <g id="informacion" transform="translate(-1 -1)">
    <g id="Grupo_85999" data-name="Grupo 85999" transform="translate(2.887 2.887)">
      <g id="Grupo_85986" data-name="Grupo 85986">
        <path id="Trazado_120767" data-name="Trazado 120767" d="M2,103.9V17.1H17.1V2H81.258a3.785,3.785,0,0,1,3.774,3.774V17.1A30.191,30.191,0,0,0,73.71,75.276v5.982a3.785,3.785,0,0,0,3.774,3.774v22.645H5.774A3.785,3.785,0,0,1,2,103.9Z" transform="translate(-2 -2)" fill="#eecf52"/>
      </g>
      <g id="Grupo_85987" data-name="Grupo 85987" transform="translate(52.839 75.484)">
        <path id="Trazado_120768" data-name="Trazado 120768" d="M30,42h7.548V64.645H30Z" transform="translate(-30 -42)" fill="#b4dd7f"/>
      </g>
      <g id="Grupo_85988" data-name="Grupo 85988" transform="translate(37.742 64.161)">
        <path id="Trazado_120769" data-name="Trazado 120769" d="M22,36h7.548V69.968H22Z" transform="translate(-22 -36)" fill="#b4dd7f"/>
      </g>
      <g id="Grupo_85989" data-name="Grupo 85989" transform="translate(22.645 56.613)">
        <path id="Trazado_120770" data-name="Trazado 120770" d="M14,32h7.548V73.516H14Z" transform="translate(-14 -32)" fill="#b4dd7f"/>
      </g>
      <g id="Grupo_85990" data-name="Grupo 85990" transform="translate(7.548 79.258)">
        <path id="Trazado_120771" data-name="Trazado 120771" d="M6,44h7.548V62.871H6Z" transform="translate(-6 -44)" fill="#b4dd7f"/>
      </g>
      <g id="Grupo_85991" data-name="Grupo 85991" transform="translate(52.839 7.548)">
        <path id="Trazado_120772" data-name="Trazado 120772" d="M30,6h7.548v7.548H30Z" transform="translate(-30 -6)" fill="#e6e9ed"/>
      </g>
      <g id="Grupo_85992" data-name="Grupo 85992" transform="translate(37.742 7.548)">
        <path id="Trazado_120773" data-name="Trazado 120773" d="M22,6h7.548v7.548H22Z" transform="translate(-22 -6)" fill="#e6e9ed"/>
      </g>
      <g id="Grupo_85993" data-name="Grupo 85993" transform="translate(22.645 7.548)">
        <path id="Trazado_120774" data-name="Trazado 120774" d="M14,6h7.548v7.548H14Z" transform="translate(-14 -6)" fill="#e6e9ed"/>
      </g>
      <g id="Grupo_85994" data-name="Grupo 85994">
        <path id="Trazado_120775" data-name="Trazado 120775" d="M17.1,2V17.1H2Z" transform="translate(-2 -2)" fill="#b4dd7f"/>
      </g>
      <g id="Grupo_85995" data-name="Grupo 85995" transform="translate(75.484 83.032)">
        <path id="Trazado_120776" data-name="Trazado 120776" d="M57.1,46V68.645a7.548,7.548,0,1,1-15.1,0V46Z" transform="translate(-42 -46)" fill="#fff"/>
      </g>
      <g id="Grupo_85996" data-name="Grupo 85996" transform="translate(71.71 73.276)">
        <path id="Trazado_120777" data-name="Trazado 120777" d="M62.645,40.83v5.982a3.785,3.785,0,0,1-3.774,3.774h-15.1A3.785,3.785,0,0,1,40,46.812V40.83a30.136,30.136,0,0,0,22.645,0Z" transform="translate(-40 -40.83)" fill="#ccd1d9"/>
      </g>
      <g id="Grupo_85997" data-name="Grupo 85997" transform="translate(52.839 15.097)">
        <path id="Trazado_120778" data-name="Trazado 120778" d="M60.194,10A30.191,30.191,0,0,1,71.516,68.179a30.136,30.136,0,0,1-22.645,0A30.191,30.191,0,0,1,60.194,10Z" transform="translate(-30 -10)" fill="#fcd770"/>
      </g>
      <g id="Grupo_85998" data-name="Grupo 85998" transform="translate(60.387 22.645)">
        <path id="Trazado_120779" data-name="Trazado 120779" d="M56.645,14A22.645,22.645,0,1,1,34,36.645,22.639,22.639,0,0,1,56.645,14Z" transform="translate(-34 -14)" fill="#13b770"/>
      </g>
    </g>
    <g id="Grupo_86000" data-name="Grupo 86000" transform="translate(1 1)">
      <path id="Trazado_120780" data-name="Trazado 120780" d="M57.532,13A24.532,24.532,0,1,0,82.065,37.532,24.561,24.561,0,0,0,57.532,13Zm0,45.29A20.758,20.758,0,1,1,78.29,37.532,20.783,20.783,0,0,1,57.532,58.29Z" transform="translate(27.387 9.645)"/>
      <path id="Trazado_120781" data-name="Trazado 120781" d="M118,48.177A32.093,32.093,0,0,0,87.806,16.193V6.661A5.668,5.668,0,0,0,82.145,1H17.2L1,17.2V104.79a5.668,5.668,0,0,0,5.661,5.661H76.674a9.436,9.436,0,0,0,18.68-1.887V87.459a5.654,5.654,0,0,0,3.774-5.314V77.378A32.1,32.1,0,0,0,118,48.177ZM16.1,7.443V16.1H7.443ZM4.774,104.79V19.871h15.1V4.774H82.145a1.889,1.889,0,0,1,1.887,1.887v9.532A32.034,32.034,0,0,0,72.71,77.378v4.767a5.654,5.654,0,0,0,3.774,5.314v19.218H6.661A1.889,1.889,0,0,1,4.774,104.79Zm81.145,9.435a5.668,5.668,0,0,1-5.661-5.661V87.806H91.581v20.758A5.668,5.668,0,0,1,85.919,114.226Zm9.435-32.081a1.889,1.889,0,0,1-1.887,1.887h-15.1a1.889,1.889,0,0,1-1.887-1.887V78.837a32.037,32.037,0,0,0,18.871,0Zm-9.435-5.661a28.306,28.306,0,1,1,28.306-28.306A28.339,28.339,0,0,1,85.919,76.484Z" transform="translate(-1 -1)"/>
      <path id="Trazado_120782" data-name="Trazado 120782" d="M43,24.774h3.774V43.645H43v3.774H54.323V43.645H50.548V24.774h3.774V21H43Z" transform="translate(36.258 16.742)"/>
      <circle id="Elipse_4837" data-name="Elipse 4837" cx="2" cy="2" r="2" transform="translate(83 30)"/>
      <path id="Trazado_120783" data-name="Trazado 120783" d="M24.323,5H13V16.323H24.323Zm-3.774,7.548H16.774V8.774h3.774Z" transform="translate(9.645 2.548)"/>
      <path id="Trazado_120784" data-name="Trazado 120784" d="M32.323,5H21V16.323H32.323Zm-3.774,7.548H24.774V8.774h3.774Z" transform="translate(16.742 2.548)"/>
      <path id="Trazado_120785" data-name="Trazado 120785" d="M40.323,5H29V16.323H40.323Zm-3.774,7.548H32.774V8.774h3.774Z" transform="translate(23.839 2.548)"/>
      <path id="Trazado_120786" data-name="Trazado 120786" d="M50.29,72.516H46.516V38.548H35.194V72.516H31.419V31H20.1V72.516H16.323V53.645H5V76.29H61.613V49.871H50.29Zm-37.742,0H8.774v-15.1h3.774ZM38.968,42.323h3.774V72.516H38.968Zm-15.1-7.548h3.774V72.516H23.871ZM54.065,53.645h3.774V72.516H54.065Z" transform="translate(2.548 25.613)"/>
      <path id="Trazado_120787" data-name="Trazado 120787" d="M5,13H46.516v3.774H5Z" transform="translate(2.548 9.645)"/>
      <path id="Trazado_120788" data-name="Trazado 120788" d="M25,17h3.774v3.774H25Z" transform="translate(20.29 13.194)"/>
      <path id="Trazado_120789" data-name="Trazado 120789" d="M5,17H38.968v3.774H5Z" transform="translate(2.548 13.194)"/>
      <path id="Trazado_120790" data-name="Trazado 120790" d="M5,21H46.516v3.774H5Z" transform="translate(2.548 16.742)"/>
      <path id="Trazado_120791" data-name="Trazado 120791" d="M5,25H46.516v3.774H5Z" transform="translate(2.548 20.29)"/>
    </g>
  </g>
</svg>
