<svg xmlns="http://www.w3.org/2000/svg" xmlns:xlink="http://www.w3.org/1999/xlink" width="404.5" height="287" viewBox="0 0 404.5 287">
  <defs>
    <clipPath id="clip-path">
      <rect id="Rectángulo_36645" data-name="Rectángulo 36645" width="13.68" height="137.333" fill="none"/>
    </clipPath>
    <clipPath id="clip-path-2">
      <rect id="Rectángulo_36648" data-name="Rectángulo 36648" width="37.327" height="19.027" fill="#13b770"/>
    </clipPath>
    <clipPath id="clip-path-3">
      <rect id="Rectángulo_36649" data-name="Rectángulo 36649" width="48.072" height="24.504" fill="#13b770"/>
    </clipPath>
    <clipPath id="clip-path-4">
      <rect id="Rectángulo_36650" data-name="Rectángulo 36650" width="39.057" height="14.03" fill="#8df5c8"/>
    </clipPath>
    <clipPath id="clip-path-5">
      <rect id="Rectángulo_36653" data-name="Rectángulo 36653" width="1.536" height="1.532" fill="none"/>
    </clipPath>
  </defs>
  <g id="Grupo_86067" data-name="Grupo 86067" transform="translate(-285 -1961)">
    <rect id="BG" width="404.5" height="287" transform="translate(285 1961)" fill="#79dfef" opacity="0.949"/>
    <g id="Grupo_85909" data-name="Grupo 85909" transform="translate(1.46 -13.029)">
      <path id="Trazado_120350" data-name="Trazado 120350" d="M618.754,277.941l-3.184.97a9.675,9.675,0,0,0,2.574,3,13.981,13.981,0,0,0,4.755,2.227,9.293,9.293,0,0,1-4.145-6.2" transform="translate(-88.021 1863.572)" fill="#ebebeb"/>
      <path id="Trazado_120351" data-name="Trazado 120351" d="M647.672,259.5c-.011.041-4.167-1.022-9.283-2.372s-9.255-2.478-9.245-2.519,4.166,1.022,9.283,2.372,9.254,2.478,9.244,2.519" transform="translate(-94.538 1874.773)" fill="#e0e0e0"/>
      <path id="Trazado_120352" data-name="Trazado 120352" d="M645.818,265.885c-.011.041-4.167-1.022-9.283-2.373s-9.255-2.478-9.245-2.519,4.166,1.022,9.283,2.373,9.254,2.478,9.244,2.519" transform="translate(-93.648 1871.709)" fill="#e0e0e0"/>
      <path id="Trazado_120353" data-name="Trazado 120353" d="M644.514,271.634c-.011.041-4.168-1.022-9.283-2.372s-9.255-2.479-9.244-2.519,4.166,1.022,9.283,2.372,9.255,2.478,9.244,2.519" transform="translate(-93.022 1868.948)" fill="#e0e0e0"/>
      <path id="Trazado_120354" data-name="Trazado 120354" d="M643.028,277.109c-.011.041-4.167-1.022-9.282-2.372s-9.255-2.479-9.245-2.519,4.166,1.022,9.283,2.373,9.254,2.478,9.244,2.519" transform="translate(-92.309 1866.32)" fill="#e0e0e0"/>
      <path id="Trazado_120359" data-name="Trazado 120359" d="M361.091,359.15a13.893,13.893,0,1,1-18.006-7.8,13.877,13.877,0,0,1,18.006,7.8" transform="translate(47.018 1828.801)" fill="#f5f5f5"/>
      <path id="Trazado_120360" data-name="Trazado 120360" d="M361.067,363.409a10.587,10.587,0,1,1-13.722-5.947,10.576,10.576,0,0,1,13.722,5.947" transform="translate(43.966 1825.753)" fill="#ebebeb"/>
      <path id="Trazado_120361" data-name="Trazado 120361" d="M360.693,362.74c-.059.025-.271-.39-.727-1.082a11.243,11.243,0,0,0-2.326-2.572,10.861,10.861,0,0,0-2.01-1.276,10.6,10.6,0,0,0-2.579-.862,10.364,10.364,0,0,0-2.992-.148,10.249,10.249,0,0,0-1.562.272,10.318,10.318,0,0,0-2.992,1.288,10.315,10.315,0,0,0-1.272.948,10.362,10.362,0,0,0-1.948,2.275,10.591,10.591,0,0,0-1.145,2.467,10.84,10.84,0,0,0-.453,2.337,11.247,11.247,0,0,0,.271,3.456,6.2,6.2,0,0,1,.287,1.271,3.106,3.106,0,0,1-.59-1.183,9.79,9.79,0,0,1-.541-3.575,10.61,10.61,0,0,1,1.534-5.164,10.8,10.8,0,0,1,2.059-2.479,10.815,10.815,0,0,1,1.365-1.034,10.868,10.868,0,0,1,3.228-1.39,10.79,10.79,0,0,1,1.689-.281,10.773,10.773,0,0,1,3.215.207,10.6,10.6,0,0,1,4.807,2.433,9.8,9.8,0,0,1,2.226,2.849,3.108,3.108,0,0,1,.454,1.242" transform="translate(44.216 1826.114)" fill="#e0e0e0"/>
      <path id="Trazado_120362" data-name="Trazado 120362" d="M359.741,375.858l.7,1.706-1.523.626-.682-1.66a7.807,7.807,0,0,1-4.293.34l.074-2.2a6.655,6.655,0,0,0,3.4-.132l-1.045-2.544c-1.86.284-3.98.5-4.874-1.683-.663-1.614-.059-3.482,2.235-4.745l-.695-1.691,1.523-.625.682,1.66a7.457,7.457,0,0,1,3.474-.341l.008,2.187a6.75,6.75,0,0,0-2.657.164l1.064,2.59c1.853-.3,3.943-.5,4.825,1.649.65,1.584.056,3.431-2.217,4.7m-4.288-6.107-.889-2.162c-.732.514-.87,1.087-.663,1.59.218.533.795.635,1.553.572m4.127,2.6c-.219-.533-.779-.641-1.529-.6l.863,2.1c.694-.48.866-1.014.666-1.5" transform="translate(38.87 1822.621)" fill="#e0e0e0"/>
      <path id="Trazado_120364" data-name="Trazado 120364" d="M258.154,20.65H231.781a2.235,2.235,0,0,1-2.232-2.342l.535-11.174a2.236,2.236,0,0,1,2.233-2.128h26.373a2.235,2.235,0,0,1,2.233,2.342l-.536,11.174a2.234,2.234,0,0,1-2.232,2.128" transform="translate(97.293 1994.597)" fill="#fafafa"/>
      <path id="Trazado_120365" data-name="Trazado 120365" d="M258.037,20.526a2.757,2.757,0,0,0,.87-.207,2.224,2.224,0,0,0,1.315-2.024c.1-2.267.24-5.525.414-9.545-.008-.988.325-2.141-.413-2.976a2.1,2.1,0,0,0-1.367-.761c-.541-.041-1.146-.009-1.732-.018l-7.572.012-17.35.011a2.112,2.112,0,0,0-1.8,1.012,2.142,2.142,0,0,0-.3,1.013q-.027.565-.054,1.127-.109,2.246-.214,4.422t-.207,4.268q-.026.523-.051,1.04a2.6,2.6,0,0,0,.067.98,2.116,2.116,0,0,0,1.237,1.369,2.309,2.309,0,0,0,.927.155h.981l1.923,0,3.675.007,6.6.017,9.553.043,2.6.025.675.013a1.45,1.45,0,0,1,.23.014,1.45,1.45,0,0,1-.23.014l-.675.013-2.6.025-9.553.043-6.6.017-3.675.007-1.923,0H231.8a2.558,2.558,0,0,1-1.02-.17A2.365,2.365,0,0,1,229.4,18.95a2.849,2.849,0,0,1-.08-1.063q.024-.517.049-1.04.1-2.092.2-4.268t.21-4.422q.027-.561.054-1.127a2.372,2.372,0,0,1,2.37-2.283l17.35.01,7.572.012c.6.012,1.163-.02,1.761.027a2.316,2.316,0,0,1,1.5.844,2.35,2.35,0,0,1,.519,1.571q-.04.791-.077,1.547c-.211,4.018-.381,7.275-.5,9.541a2.3,2.3,0,0,1-.514,1.409,2.244,2.244,0,0,1-.884.66,2.27,2.27,0,0,1-.66.159c-.153,0-.231,0-.231,0" transform="translate(97.41 1994.722)" fill="#263238"/>
      <path id="Trazado_120366" data-name="Trazado 120366" d="M442.371,26.168l1.129-7.061,4.811-2.795,3.949,4.234-1.19,7.242Z" transform="translate(-4.876 1989.169)" fill="#eecf52"/>
      <path id="Trazado_120367" data-name="Trazado 120367" d="M387.668,41.11l-5.837,128.124L287.7,166.559l-5.6-9.783L292.218,37.7l87.607-5.8Z" transform="translate(72.067 1981.687)" fill="#e0e0e0"/>
      <g id="Grupo_85890" data-name="Grupo 85890" transform="translate(446.055 2013.587)" opacity="0.3">
        <g id="Grupo_85889" data-name="Grupo 85889" transform="translate(0 0)">
          <g id="Grupo_85888" data-name="Grupo 85888" clip-path="url(#clip-path)">
            <path id="Trazado_120368" data-name="Trazado 120368" d="M466.675,169.234l-7.843-9.21L464.67,31.9l7.843,9.209Z" transform="translate(-458.833 -31.901)"/>
          </g>
        </g>
      </g>
      <path id="Trazado_120369" data-name="Trazado 120369" d="M379.825,30.7l-5.837,128.124-91.893-3.249,6.951-126.17Z" transform="translate(72.066 1982.882)" fill="#fafafa"/>
      <path id="Trazado_120370" data-name="Trazado 120370" d="M379.694,30.6l-90.781-1.186.111-.1c-1.935,35.258-4.333,78.931-6.926,126.172l-.13-.143,1.517.054,90.376,3.208-.128.117c3.521-75.665,5.91-127.024,5.961-128.118-.049,1.093-2.339,52.458-5.714,128.129l-.005.122-.122,0-90.377-3.183-1.517-.054-.138-.005.008-.138C284.44,108.23,286.855,64.558,288.8,29.3l.006-.106.1,0L379.694,30.6" transform="translate(72.198 1982.984)" fill="#263238"/>
      <path id="Trazado_120371" data-name="Trazado 120371" d="M314.711,85.464,346.8,86.4a1.22,1.22,0,0,0,1.255-1.184l.035-1.2a1.22,1.22,0,0,0-1.184-1.256l-32.091-.941a1.22,1.22,0,0,0-1.256,1.184l-.035,1.2a1.22,1.22,0,0,0,1.184,1.256" transform="translate(56.977 1957.721)" fill="#e0e0e0"/>
      <path id="Trazado_120372" data-name="Trazado 120372" d="M314.116,99.01l32.091.941a1.221,1.221,0,0,0,1.256-1.184l.035-1.2a1.22,1.22,0,0,0-1.184-1.256l-32.091-.941a1.22,1.22,0,0,0-1.255,1.184l-.035,1.2a1.22,1.22,0,0,0,1.184,1.256" transform="translate(57.263 1951.219)" fill="#e0e0e0"/>
      <path id="Trazado_120373" data-name="Trazado 120373" d="M313.521,112.556l32.091.941a1.22,1.22,0,0,0,1.255-1.184l.035-1.2a1.22,1.22,0,0,0-1.184-1.256l-32.091-.941a1.22,1.22,0,0,0-1.256,1.184l-.035,1.2a1.22,1.22,0,0,0,1.184,1.256" transform="translate(57.548 1944.715)" fill="#e0e0e0"/>
      <path id="Trazado_120374" data-name="Trazado 120374" d="M312.926,126.1l32.091.941a1.221,1.221,0,0,0,1.256-1.184l.035-1.2a1.22,1.22,0,0,0-1.184-1.256l-32.091-.941a1.22,1.22,0,0,0-1.255,1.184l-.035,1.2a1.22,1.22,0,0,0,1.184,1.256" transform="translate(57.834 1938.213)" fill="#e0e0e0"/>
      <path id="Trazado_120375" data-name="Trazado 120375" d="M312.331,139.647l32.091.941a1.22,1.22,0,0,0,1.255-1.184l.035-1.2a1.22,1.22,0,0,0-1.184-1.256L312.439,136a1.22,1.22,0,0,0-1.256,1.184l-.035,1.2a1.22,1.22,0,0,0,1.184,1.256" transform="translate(58.12 1931.711)" fill="#e0e0e0"/>
      <path id="Trazado_120376" data-name="Trazado 120376" d="M311.736,153.193l32.091.941a1.22,1.22,0,0,0,1.255-1.184l.035-1.2a1.22,1.22,0,0,0-1.184-1.256l-32.091-.941a1.22,1.22,0,0,0-1.255,1.184l-.035,1.2a1.22,1.22,0,0,0,1.184,1.256" transform="translate(58.405 1925.207)" fill="#e0e0e0"/>
      <path id="Trazado_120377" data-name="Trazado 120377" d="M311.141,166.739l32.091.941a1.221,1.221,0,0,0,1.255-1.184l.035-1.2a1.22,1.22,0,0,0-1.184-1.256l-32.091-.941a1.22,1.22,0,0,0-1.256,1.184l-.035,1.2a1.22,1.22,0,0,0,1.184,1.256" transform="translate(58.691 1918.705)" fill="#e0e0e0"/>
      <path id="Trazado_120378" data-name="Trazado 120378" d="M384.939,155.219l32.091.941a1.22,1.22,0,0,0,1.255-1.184l.035-1.2a1.22,1.22,0,0,0-1.184-1.256l-32.091-.941a1.22,1.22,0,0,0-1.255,1.184l-.035,1.2a1.22,1.22,0,0,0,1.184,1.256" transform="translate(23.264 1924.234)" fill="#e0e0e0"/>
      <path id="Trazado_120379" data-name="Trazado 120379" d="M384.344,168.765l32.091.941a1.22,1.22,0,0,0,1.256-1.184l.035-1.2a1.22,1.22,0,0,0-1.184-1.256l-32.091-.941a1.22,1.22,0,0,0-1.255,1.184l-.035,1.2a1.22,1.22,0,0,0,1.184,1.256" transform="translate(23.549 1917.732)" fill="#e0e0e0"/>
      <path id="Trazado_120380" data-name="Trazado 120380" d="M383.626,183.049l32.091.941a1.22,1.22,0,0,0,1.255-1.184l.035-1.2a1.22,1.22,0,0,0-1.184-1.256l-32.092-.941a1.221,1.221,0,0,0-1.255,1.184l-.035,1.2a1.22,1.22,0,0,0,1.184,1.256" transform="translate(23.894 1910.875)" fill="#e0e0e0"/>
      <path id="Trazado_120381" data-name="Trazado 120381" d="M382.907,197.334l32.091.941a1.22,1.22,0,0,0,1.255-1.184l.035-1.2a1.22,1.22,0,0,0-1.184-1.256l-32.091-.941a1.22,1.22,0,0,0-1.255,1.184l-.035,1.2a1.22,1.22,0,0,0,1.184,1.256" transform="translate(24.239 1904.018)" fill="#e0e0e0"/>
      <path id="Trazado_120382" data-name="Trazado 120382" d="M382.189,211.618l32.091.941a1.22,1.22,0,0,0,1.255-1.184l.035-1.2a1.22,1.22,0,0,0-1.184-1.256l-32.091-.941a1.22,1.22,0,0,0-1.256,1.184l-.035,1.2a1.22,1.22,0,0,0,1.184,1.256" transform="translate(24.583 1897.16)" fill="#e0e0e0"/>
      <path id="Trazado_120383" data-name="Trazado 120383" d="M381.471,225.9l32.091.941a1.22,1.22,0,0,0,1.255-1.184l.035-1.2a1.22,1.22,0,0,0-1.184-1.256l-32.091-.941a1.22,1.22,0,0,0-1.256,1.184l-.035,1.2a1.22,1.22,0,0,0,1.184,1.256" transform="translate(24.928 1890.303)" fill="#e0e0e0"/>
      <path id="Trazado_120384" data-name="Trazado 120384" d="M380.753,240.186l32.091.941a1.22,1.22,0,0,0,1.255-1.184l.035-1.2a1.22,1.22,0,0,0-1.184-1.256l-32.091-.941a1.22,1.22,0,0,0-1.255,1.184l-.035,1.2a1.22,1.22,0,0,0,1.184,1.256" transform="translate(25.273 1883.445)" fill="#e0e0e0"/>
      <path id="Trazado_120385" data-name="Trazado 120385" d="M305.082,250.835l70.825,2.077a1.221,1.221,0,0,0,1.256-1.184l.035-1.2a1.221,1.221,0,0,0-1.184-1.256l-70.825-2.076a1.22,1.22,0,0,0-1.256,1.184l-.035,1.2a1.22,1.22,0,0,0,1.184,1.256" transform="translate(61.6 1878.333)" fill="#e0e0e0"/>
      <path id="Trazado_120386" data-name="Trazado 120386" d="M315.778,67.826l21.641.634a1.22,1.22,0,0,0,1.255-1.184l.035-1.2a1.22,1.22,0,0,0-1.184-1.256l-21.642-.634a1.22,1.22,0,0,0-1.255,1.184l-.035,1.2a1.22,1.22,0,0,0,1.184,1.256" transform="translate(56.465 1966.188)" fill="#e0e0e0"/>
      <path id="Trazado_120387" data-name="Trazado 120387" d="M291.86,168.633s.151.014.447.028l1.317.056,5.084.192,18.872.666,63.748,2.153.136,0,.007-.136c.241-5.067.493-10.38.749-15.787,1.361-29.058,2.592-55.361,3.484-74.406.432-9.517.782-17.219,1.024-22.549.114-2.658.2-4.723.264-6.132q.041-1.044.062-1.595c.012-.359.011-.544.011-.544s-.019.184-.04.542-.05.9-.089,1.594c-.073,1.408-.179,3.472-.317,6.129-.263,5.329-.643,13.03-1.113,22.545-.913,19.044-2.173,45.346-3.566,74.4-.256,5.408-.507,10.72-.747,15.788l.143-.132-63.752-2.06-18.874-.581-5.086-.144-1.318-.031c-.3-.005-.448,0-.448,0" transform="translate(67.378 1972.718)" fill="#263238"/>
      <path id="Trazado_120388" data-name="Trazado 120388" d="M306.22,174.447s.142.014.422.028l1.243.057,4.8.2,17.856.682,60.576,2.222.135.005.007-.136c.322-6.113.658-12.471,1-18.969,1.494-28.672,2.847-54.625,3.826-73.418.476-9.39.861-16.99,1.128-22.25.126-2.623.225-4.66.292-6.05q.045-1.031.069-1.574c.014-.355.014-.537.014-.537s-.019.181-.042.535-.055.886-.1,1.572c-.08,1.389-.2,3.426-.345,6.047-.288,5.259-.7,12.857-1.216,22.245-1,18.792-2.382,44.744-3.908,73.414-.342,6.5-.675,12.856-1,18.969l.142-.13-60.58-2.127-17.859-.6-4.8-.149-1.244-.032c-.28-.006-.423,0-.423,0" transform="translate(60.485 1970.739)" fill="#263238"/>
      <path id="Trazado_120389" data-name="Trazado 120389" d="M364.743,27.5l1.387-1.358,16.549.081.8,1.513Z" transform="translate(32.39 1984.451)" fill="#263238"/>
      <rect id="Rectángulo_36646" data-name="Rectángulo 36646" width="7.885" height="18.739" transform="translate(397.035 2019.834) rotate(-89.278)" fill="#263238"/>
      <path id="Trazado_120390" data-name="Trazado 120390" d="M383.3,43.8l0-.272a.651.651,0,0,0-.643-.659l-18.737-.236a.651.651,0,0,0-.659.643l0,.272a.651.651,0,0,0,.643.659l18.737.236a.651.651,0,0,0,.659-.643" transform="translate(33.1 1976.535)" fill="#263238"/>
      <path id="Trazado_120391" data-name="Trazado 120391" d="M382.279,26.359h-.009l-8.242-.1a.727.727,0,0,1-.673-.98l2.428-6.528a4.3,4.3,0,1,1,5.019.083l2.167,6.575a.726.726,0,0,1-.69.954m-3.928-14.849c-.034,0-.067,0-.1,0a3.843,3.843,0,0,0-3.684,3.839,3.787,3.787,0,0,0,1.675,3.084l.17.114-2.569,6.907a.206.206,0,0,0,.023.189.2.2,0,0,0,.168.089l8.242.1a.2.2,0,0,0,.17-.084.207.207,0,0,0,.03-.187l-2.293-6.957.173-.108a3.783,3.783,0,0,0-2-6.992" transform="translate(28.278 1991.724)" fill="#455a64"/>
      <path id="Trazado_120392" data-name="Trazado 120392" d="M383.266,42.851a.915.915,0,0,0-.189-.011l-.538-.014-1.981-.041-6.537-.107-6.538-.073L365.5,42.6l-.539.006a.887.887,0,0,0-.188.012.875.875,0,0,0,.188.018l.539.023,1.981.055c1.673.04,3.984.083,6.538.119s4.864.058,6.537.062c.837,0,1.514,0,1.982-.008.234-.005.415-.007.54-.015a.849.849,0,0,0,.187-.02" transform="translate(32.375 1976.55)" fill="#455a64"/>
      <path id="Trazado_120393" data-name="Trazado 120393" d="M383.781,28.664a.916.916,0,0,0-.189-.011l-.538-.014-1.981-.041-6.537-.107L368,28.418l-1.982-.006-.539.006a.886.886,0,0,0-.188.012.877.877,0,0,0,.188.018l.539.023,1.98.055c1.673.039,3.984.082,6.538.118s4.864.058,6.537.062c.837,0,1.514,0,1.982-.008.234-.005.415-.007.54-.015a.852.852,0,0,0,.187-.02" transform="translate(32.128 1983.361)" fill="#455a64"/>
      <path id="Trazado_120394" data-name="Trazado 120394" d="M335.935,210.127l-22.638-.663a4.641,4.641,0,0,1-4.5-4.775l.58-19.768a4.64,4.64,0,0,1,4.774-4.5l22.638.663a4.64,4.64,0,0,1,4.5,4.775l-.579,19.767a4.641,4.641,0,0,1-4.775,4.5" transform="translate(59.25 1910.39)" fill="#ebebeb"/>
      <path id="Trazado_120395" data-name="Trazado 120395" d="M308.833,211.216a.78.78,0,0,1,.345-.619l10.449-7.011a2.162,2.162,0,0,1,2.762.05.7.7,0,0,0,.138.1l4.735,2.431a.78.78,0,0,0,.9-.136l7.175-7.016a2.227,2.227,0,0,1,3.224.275l2.3,2.89a.779.779,0,0,1,.169.493l-.109,11.673a4.408,4.408,0,0,1-4.547,4.365l-23.358-.738a4.409,4.409,0,0,1-4.266-4.568Z" transform="translate(59.27 1901.734)" fill="#e0e0e0"/>
      <path id="Trazado_120396" data-name="Trazado 120396" d="M332.7,192.637a3.191,3.191,0,1,1-3.334-3.042,3.192,3.192,0,0,1,3.334,3.042" transform="translate(50.837 1905.985)" fill="#e0e0e0"/>
      <path id="Trazado_120397" data-name="Trazado 120397" d="M415.256,115.545l-22.638-.663a4.641,4.641,0,0,1-4.5-4.775l.58-19.768a4.64,4.64,0,0,1,4.774-4.5l22.638.663a4.64,4.64,0,0,1,4.5,4.775l-.579,19.767a4.641,4.641,0,0,1-4.775,4.5" transform="translate(21.171 1955.794)" fill="#ebebeb"/>
      <path id="Trazado_120398" data-name="Trazado 120398" d="M388.195,116.237,398.974,109a2.162,2.162,0,0,1,2.825.107l5.31,2.727,7.577-7.408a2.227,2.227,0,0,1,3.224.275l2.474,3.107-.1,11.175a5.166,5.166,0,0,1-5.329,5.116l-21.822-.69a5.167,5.167,0,0,1-5-5.353Z" transform="translate(21.166 1947.14)" fill="#e0e0e0"/>
      <path id="Trazado_120399" data-name="Trazado 120399" d="M412.019,98.056a3.191,3.191,0,1,1-3.334-3.042,3.192,3.192,0,0,1,3.334,3.042" transform="translate(12.758 1951.39)" fill="#e0e0e0"/>
      <path id="Trazado_120400" data-name="Trazado 120400" d="M316.514,111.988a1.368,1.368,0,0,1-.419-.117,2.311,2.311,0,0,1-.952-.8,2.706,2.706,0,0,1-.464-1.908,3.8,3.8,0,0,1,1.262-2.278,6.626,6.626,0,0,1,2.843-1.4,15.629,15.629,0,0,1,3.6-.466,15.882,15.882,0,0,1,8,2.03,5.847,5.847,0,0,1,1.7,1.423,3.534,3.534,0,0,1,.761,2.023,2.7,2.7,0,0,1-.76,1.943,4.462,4.462,0,0,1-1.69,1.061,11.452,11.452,0,0,1-3.591.58,20.455,20.455,0,0,1-3.16-.136,19.787,19.787,0,0,1-4.44-1.071c-.506-.187-.892-.351-1.149-.473a2.468,2.468,0,0,1-.386-.2,2.666,2.666,0,0,1,.408.146c.263.105.654.252,1.163.423a21.137,21.137,0,0,0,4.427.98,20.751,20.751,0,0,0,3.128.1,11.356,11.356,0,0,0,3.511-.59,4.226,4.226,0,0,0,1.59-1,2.442,2.442,0,0,0,.683-1.758,3.272,3.272,0,0,0-.71-1.866,5.6,5.6,0,0,0-1.62-1.354,15.778,15.778,0,0,0-7.863-2.014,15.6,15.6,0,0,0-3.552.434,6.478,6.478,0,0,0-2.77,1.323,3.656,3.656,0,0,0-1.24,2.156,2.616,2.616,0,0,0,.4,1.828,2.363,2.363,0,0,0,.888.814c.252.124.4.152.4.166" transform="translate(56.437 1946.586)" fill="#263238"/>
      <path id="Trazado_120401" data-name="Trazado 120401" d="M342.36,251.684a1.367,1.367,0,0,1-.419-.117,2.311,2.311,0,0,1-.952-.8,2.706,2.706,0,0,1-.464-1.908,3.8,3.8,0,0,1,1.262-2.278,6.625,6.625,0,0,1,2.843-1.4,15.626,15.626,0,0,1,3.6-.466,15.88,15.88,0,0,1,8,2.03,5.856,5.856,0,0,1,1.7,1.423,3.53,3.53,0,0,1,.761,2.023,2.7,2.7,0,0,1-.76,1.943,4.462,4.462,0,0,1-1.69,1.061,11.451,11.451,0,0,1-3.591.58,20.382,20.382,0,0,1-3.159-.136,19.784,19.784,0,0,1-4.44-1.071c-.506-.187-.892-.351-1.149-.473a2.47,2.47,0,0,1-.386-.2,2.666,2.666,0,0,1,.408.146c.263.105.654.252,1.163.423a21.121,21.121,0,0,0,4.427.98,20.747,20.747,0,0,0,3.128.1,11.372,11.372,0,0,0,3.511-.589,4.228,4.228,0,0,0,1.59-1,2.44,2.44,0,0,0,.683-1.758,3.272,3.272,0,0,0-.71-1.866,5.6,5.6,0,0,0-1.62-1.354,15.778,15.778,0,0,0-7.863-2.014,15.592,15.592,0,0,0-3.552.434,6.476,6.476,0,0,0-2.77,1.323,3.658,3.658,0,0,0-1.24,2.156,2.615,2.615,0,0,0,.4,1.828,2.363,2.363,0,0,0,.888.814c.251.124.4.152.4.166" transform="translate(44.029 1879.523)" fill="#263238"/>
      <path id="Trazado_120402" data-name="Trazado 120402" d="M312.358,66.239a1.368,1.368,0,0,1-.419-.117,2.311,2.311,0,0,1-.952-.8,2.706,2.706,0,0,1-.464-1.908,3.8,3.8,0,0,1,1.262-2.278,6.625,6.625,0,0,1,2.843-1.4,15.621,15.621,0,0,1,3.6-.466,15.88,15.88,0,0,1,8,2.03,5.855,5.855,0,0,1,1.7,1.423,3.53,3.53,0,0,1,.761,2.023,2.7,2.7,0,0,1-.76,1.943,4.462,4.462,0,0,1-1.69,1.061,11.45,11.45,0,0,1-3.591.58,20.445,20.445,0,0,1-3.159-.136,19.785,19.785,0,0,1-4.44-1.071c-.506-.187-.892-.351-1.149-.473a2.526,2.526,0,0,1-.386-.2,2.67,2.67,0,0,1,.408.146c.263.105.654.252,1.163.423a21.137,21.137,0,0,0,4.427.98,20.749,20.749,0,0,0,3.128.1,11.356,11.356,0,0,0,3.511-.59,4.227,4.227,0,0,0,1.59-1,2.442,2.442,0,0,0,.683-1.758,3.272,3.272,0,0,0-.71-1.866,5.589,5.589,0,0,0-1.62-1.354,15.778,15.778,0,0,0-7.863-2.014,15.6,15.6,0,0,0-3.552.434,6.477,6.477,0,0,0-2.77,1.323,3.659,3.659,0,0,0-1.24,2.156,2.616,2.616,0,0,0,.4,1.828,2.363,2.363,0,0,0,.888.814c.251.124.4.152.4.166" transform="translate(58.432 1968.549)" fill="#263238"/>
      <path id="Trazado_120403" data-name="Trazado 120403" d="M467.107,212.985l7.149.178,3.411,4.4L474,222.038l-7.336-.215Z" transform="translate(-16.536 1894.755)" fill="#eecf52"/>
      <path id="Trazado_120404" data-name="Trazado 120404" d="M468.41,188.868l7.149.178,3.411,4.4L475.3,197.92l-7.336-.215Z" transform="translate(-17.161 1906.333)" fill="#455a64"/>
      <path id="Trazado_120405" data-name="Trazado 120405" d="M260.341,15.463H237.727a.268.268,0,0,0-.268.269v.112a.268.268,0,0,0,.268.269h22.613a.269.269,0,0,0,.269-.269v-.112a.269.269,0,0,0-.269-.269" transform="translate(93.494 1989.577)" fill="#e0e0e0"/>
      <path id="Trazado_120406" data-name="Trazado 120406" d="M260.341,19.426H237.727a.268.268,0,0,0-.268.269v.112a.269.269,0,0,0,.268.269h22.613a.269.269,0,0,0,.269-.269v-.112a.269.269,0,0,0-.269-.269" transform="translate(93.494 1987.675)" fill="#e0e0e0"/>
      <path id="Trazado_120407" data-name="Trazado 120407" d="M260.341,23.39H237.727a.268.268,0,0,0-.268.268v.112a.268.268,0,0,0,.268.269h22.613a.269.269,0,0,0,.269-.269v-.112a.269.269,0,0,0-.269-.268" transform="translate(93.494 1985.771)" fill="#e0e0e0"/>
      <path id="Trazado_120408" data-name="Trazado 120408" d="M290.009,19.161c.06-.045,3.658,4.614,8.036,10.405s7.88,10.525,7.82,10.57-3.657-4.613-8.037-10.406-7.879-10.524-7.819-10.569" transform="translate(68.267 1987.802)" fill="#263238"/>
      <path id="Trazado_120409" data-name="Trazado 120409" d="M289.822,17.544a.881.881,0,1,1-.881-.881.881.881,0,0,1,.881.881" transform="translate(69.202 1989.001)" fill="#263238"/>
      <path id="Trazado_120410" data-name="Trazado 120410" d="M310.451,347.137H284.078a2.234,2.234,0,0,1-2.232-2.342l.535-11.174a2.236,2.236,0,0,1,2.233-2.128h26.372a2.235,2.235,0,0,1,2.233,2.342l-.536,11.174a2.235,2.235,0,0,1-2.232,2.128" transform="translate(72.187 1837.864)" fill="#fafafa"/>
      <path id="Trazado_120411" data-name="Trazado 120411" d="M310.334,347.013a2.758,2.758,0,0,0,.87-.207,2.221,2.221,0,0,0,1.314-2.024c.1-2.267.24-5.525.414-9.545-.008-.988.325-2.141-.412-2.976a2.107,2.107,0,0,0-1.367-.762c-.542-.041-1.146-.009-1.732-.017l-7.572.012-17.35.011a2.112,2.112,0,0,0-1.8,1.012,2.136,2.136,0,0,0-.3,1.013q-.027.565-.054,1.127-.11,2.246-.215,4.422t-.207,4.267q-.027.523-.051,1.04a2.582,2.582,0,0,0,.067.98,2.116,2.116,0,0,0,1.237,1.369,2.317,2.317,0,0,0,.926.155h.981l1.923,0,3.676.007,6.6.017,9.553.043,2.6.025.676.013a.116.116,0,1,1,0,.028l-.676.013-2.6.025-9.553.043-6.6.017-3.676.007-1.923,0H284.1a2.555,2.555,0,0,1-1.019-.17,2.364,2.364,0,0,1-1.388-1.529,2.825,2.825,0,0,1-.08-1.063q.024-.518.048-1.04.1-2.092.2-4.268t.21-4.422q.027-.561.054-1.127a2.413,2.413,0,0,1,.342-1.14,2.384,2.384,0,0,1,2.028-1.142l17.35.01,7.572.013c.6.011,1.162-.02,1.761.027a2.313,2.313,0,0,1,1.5.844,2.348,2.348,0,0,1,.52,1.571q-.041.791-.078,1.547c-.21,4.018-.382,7.275-.5,9.541a2.3,2.3,0,0,1-.514,1.409,2.217,2.217,0,0,1-1.544.818c-.154,0-.231,0-.231,0" transform="translate(72.304 1837.988)" fill="#263238"/>
      <path id="Trazado_120412" data-name="Trazado 120412" d="M312.636,341.95H290.023a.269.269,0,0,0-.269.269v.112a.269.269,0,0,0,.269.269h22.613a.268.268,0,0,0,.268-.269v-.112a.268.268,0,0,0-.268-.269" transform="translate(68.39 1832.845)" fill="#e0e0e0"/>
      <path id="Trazado_120413" data-name="Trazado 120413" d="M312.636,345.914H290.023a.269.269,0,0,0-.269.269v.112a.269.269,0,0,0,.269.269h22.613a.268.268,0,0,0,.268-.269v-.112a.268.268,0,0,0-.268-.269" transform="translate(68.39 1830.94)" fill="#e0e0e0"/>
      <path id="Trazado_120414" data-name="Trazado 120414" d="M312.636,349.878H290.023a.269.269,0,0,0-.269.269v.112a.269.269,0,0,0,.269.269h22.613a.268.268,0,0,0,.268-.269v-.112a.268.268,0,0,0-.268-.269" transform="translate(68.39 1829.038)" fill="#e0e0e0"/>
      <path id="Trazado_120415" data-name="Trazado 120415" d="M338.45,261.074c.067.034-4.151,8.26-9.418,18.369s-9.592,18.281-9.658,18.246,4.15-8.258,9.418-18.371,9.591-18.279,9.658-18.244" transform="translate(54.17 1871.669)" fill="#263238"/>
      <path id="Trazado_120416" data-name="Trazado 120416" d="M319.442,330.682a.881.881,0,1,1-.881-.881.88.88,0,0,1,.881.881" transform="translate(54.983 1838.677)" fill="#263238"/>
      <path id="Trazado_120417" data-name="Trazado 120417" d="M564.034,345.6H487.618v-3.159h76.416a1.307,1.307,0,0,1,1.307,1.307v.545a1.307,1.307,0,0,1-1.307,1.307" transform="translate(-26.597 1832.606)" fill="#13b770"/>
      <path id="Trazado_120418" data-name="Trazado 120418" d="M459.191,345.85c0,.063-6.411.114-14.319.114s-14.32-.051-14.32-.114,6.41-.114,14.32-.114,14.319.051,14.319.114" transform="translate(0.798 1831.026)" fill="#263238"/>
      <path id="Trazado_120419" data-name="Trazado 120419" d="M465.443,330.951H429.548a7.87,7.87,0,0,1-7.87-7.87v-3.288a7.87,7.87,0,0,1,7.87-7.87h35.894Z" transform="translate(5.058 1847.258)" fill="#13b770"/>
      <path id="Trazado_120420" data-name="Trazado 120420" d="M564.034,315.083H488.213a.6.6,0,0,1-.595-.6v-1.969a.6.6,0,0,1,.595-.595h75.821a1.307,1.307,0,0,1,1.307,1.307v.545a1.307,1.307,0,0,1-1.307,1.307" transform="translate(-26.597 1847.258)" fill="#13b770"/>
      <path id="Trazado_120421" data-name="Trazado 120421" d="M565.163,330.709H498.432a6.355,6.355,0,0,1,0-12.71h66.731a15.715,15.715,0,0,0,0,12.71" transform="translate(-28.737 1844.342)" fill="#f5f5f5"/>
      <g id="Grupo_85895" data-name="Grupo 85895" transform="translate(426.736 2159.182)">
        <g id="Grupo_85894" data-name="Grupo 85894" transform="translate(0 0)">
          <g id="Grupo_85893" data-name="Grupo 85893" clip-path="url(#clip-path-2)">
            <path id="Trazado_120422" data-name="Trazado 120422" d="M458.281,330.951H428.889a7.21,7.21,0,0,1-7.211-7.21v-4.665a7.152,7.152,0,0,1,7.152-7.152h30.175c-6.889,4.173-6.375,14.167-.724,19.027" transform="translate(-421.678 -311.924)" fill="#13b770"/>
          </g>
        </g>
      </g>
      <path id="Trazado_120423" data-name="Trazado 120423" d="M560.562,331.251c0,.063-13.7.114-30.589.114s-30.592-.051-30.592-.114,13.694-.114,30.592-.114,30.589.051,30.589.114" transform="translate(-32.244 1838.035)" fill="#263238"/>
      <path id="Trazado_120424" data-name="Trazado 120424" d="M572.67,336.684c0,.063-13.7.114-30.589.114s-30.592-.051-30.592-.114,13.694-.114,30.592-.114,30.589.051,30.589.114" transform="translate(-38.056 1835.427)" fill="#263238"/>
      <path id="Trazado_120425" data-name="Trazado 120425" d="M569.1,323.546c0,.063-13.7.114-30.589.114s-30.592-.051-30.592-.114,13.694-.114,30.592-.114,30.589.051,30.589.114" transform="translate(-36.343 1841.733)" fill="#263238"/>
      <path id="Trazado_120426" data-name="Trazado 120426" d="M459.191,314.856c0,.063-6.411.114-14.319.114s-14.32-.051-14.32-.114,6.41-.114,14.32-.114,14.319.051,14.319.114" transform="translate(0.798 1845.905)" fill="#263238"/>
      <path id="Trazado_120427" data-name="Trazado 120427" d="M443.322,398.712h-42.3a10.135,10.135,0,0,1-10.135-10.135v-4.234a10.135,10.135,0,0,1,10.135-10.135h42.3a3.929,3.929,0,0,1,3.929,3.929v16.646a3.929,3.929,0,0,1-3.929,3.929" transform="translate(19.838 1817.358)" fill="#13b770"/>
      <path id="Trazado_120428" data-name="Trazado 120428" d="M574.222,378.276H476.781a.971.971,0,0,1-.971-.971v-2.126a.971.971,0,0,1,.971-.971h97.441a1.683,1.683,0,0,1,1.683,1.683v.7a1.683,1.683,0,0,1-1.683,1.683" transform="translate(-20.928 1817.358)" fill="#13b770"/>
      <path id="Trazado_120429" data-name="Trazado 120429" d="M574.222,417.581H476.781a.971.971,0,0,1-.971-.971v-2.126a.971.971,0,0,1,.971-.971h97.441a1.683,1.683,0,0,1,1.683,1.683v.7a1.683,1.683,0,0,1-1.683,1.683" transform="translate(-20.928 1798.489)" fill="#13b770"/>
      <path id="Trazado_120430" data-name="Trazado 120430" d="M575.676,398.4h-85.94a8.184,8.184,0,0,1,0-16.369h85.94a20.239,20.239,0,0,0,0,16.369" transform="translate(-23.685 1813.603)" fill="#f5f5f5"/>
      <g id="Grupo_85898" data-name="Grupo 85898" transform="translate(410.728 2191.566)">
        <g id="Grupo_85897" data-name="Grupo 85897" transform="translate(0 0)">
          <g id="Grupo_85896" data-name="Grupo 85896" clip-path="url(#clip-path-3)">
            <path id="Trazado_120431" data-name="Trazado 120431" d="M438.03,398.712H403.011a12.121,12.121,0,0,1-12.12-12.121,12.383,12.383,0,0,1,12.383-12.383h35.689c-8.872,5.375-8.209,18.246-.933,24.5" transform="translate(-390.891 -374.208)" fill="#13b770"/>
          </g>
        </g>
      </g>
      <path id="Trazado_120432" data-name="Trazado 120432" d="M569.751,399.129c0,.063-17.64.114-39.394.114s-39.4-.051-39.4-.114,17.636-.114,39.4-.114,39.394.051,39.394.114" transform="translate(-28.201 1805.449)" fill="#263238"/>
      <path id="Trazado_120433" data-name="Trazado 120433" d="M585.344,406.126c0,.063-17.639.114-39.394.114s-39.4-.051-39.4-.114,17.636-.114,39.4-.114,39.394.051,39.394.114" transform="translate(-35.686 1802.091)" fill="#263238"/>
      <path id="Trazado_120434" data-name="Trazado 120434" d="M580.746,392.635c0,.063-17.64.114-39.394.114s-39.4-.051-39.4-.114,17.636-.114,39.4-.114,39.394.051,39.394.114" transform="translate(-33.479 1808.567)" fill="#263238"/>
      <path id="Trazado_120436" data-name="Trazado 120436" d="M439.2,378.015c0,.063-8.257.114-18.44.114s-18.442-.051-18.442-.114,8.256-.114,18.442-.114,18.44.051,18.44.114" transform="translate(14.352 1815.586)" fill="#263238"/>
      <path id="Trazado_120437" data-name="Trazado 120437" d="M484.891,361.426H445.172a5.8,5.8,0,0,1-5.8-5.8V353.2a5.8,5.8,0,0,1,5.8-5.8h39.719a.27.27,0,0,1,.27.27v13.49a.27.27,0,0,1-.27.27" transform="translate(-3.434 1830.23)" fill="#455a64"/>
      <path id="Trazado_120438" data-name="Trazado 120438" d="M588.321,350.7H508.986a.622.622,0,0,1-.622-.622v-2.06a.623.623,0,0,1,.622-.623h79.335a1.367,1.367,0,0,1,1.367,1.367v.571a1.367,1.367,0,0,1-1.367,1.367" transform="translate(-36.556 1830.23)" fill="#455a64"/>
      <path id="Trazado_120439" data-name="Trazado 120439" d="M588.321,371.328H508.986a.622.622,0,0,1-.622-.622v-2.06a.623.623,0,0,1,.622-.623h79.335a1.367,1.367,0,0,1,1.367,1.367v.571a1.367,1.367,0,0,1-1.367,1.367" transform="translate(-36.556 1820.327)" fill="#455a64"/>
      <path id="Trazado_120440" data-name="Trazado 120440" d="M589.5,361.172H516.739a3.71,3.71,0,1,1,0-7.42H589.5a5.6,5.6,0,0,0,0,7.42" transform="translate(-38.795 1827.179)" fill="#f5f5f5"/>
      <g id="Grupo_85901" data-name="Grupo 85901" transform="translate(435.935 2177.626)">
        <g id="Grupo_85900" data-name="Grupo 85900" transform="translate(0 0)">
          <g id="Grupo_85899" data-name="Grupo 85899" clip-path="url(#clip-path-4)">
            <path id="Trazado_120441" data-name="Trazado 120441" d="M477.668,361.426H446.327a6.959,6.959,0,0,1-6.958-6.959,7.071,7.071,0,0,1,7.071-7.071h31.986c-7.209,3.077-6.67,10.447-.758,14.03" transform="translate(-439.369 -347.396)" fill="#8df5c8"/>
          </g>
        </g>
      </g>
      <path id="Trazado_120442" data-name="Trazado 120442" d="M584.687,359.659c0,.063-14.332.114-32.007.114s-32.01-.051-32.01-.114,14.329-.114,32.01-.114,32.007.051,32.007.114" transform="translate(-42.464 1824.397)" fill="#263238"/>
      <path id="Trazado_120443" data-name="Trazado 120443" d="M597.357,363.5c0,.063-14.332.114-32.007.114s-32.01-.051-32.01-.114,14.329-.114,32.01-.114,32.007.051,32.007.114" transform="translate(-48.546 1822.554)" fill="#263238"/>
      <path id="Trazado_120444" data-name="Trazado 120444" d="M478.62,371.591c0,.063-6.708.114-14.982.114s-14.983-.051-14.983-.114,6.707-.114,14.983-.114,14.982.051,14.982.114" transform="translate(-7.893 1818.67)" fill="#263238"/>
      <path id="Trazado_120445" data-name="Trazado 120445" d="M478.62,350.469c0,.063-6.708.114-14.982.114s-14.983-.051-14.983-.114,6.707-.114,14.983-.114,14.982.051,14.982.114" transform="translate(-7.893 1828.81)" fill="#263238"/>
      <path id="Trazado_120446" data-name="Trazado 120446" d="M561.447,347.29c0,.063-24.609.114-54.958.114s-54.964-.051-54.964-.114,24.6-.114,54.964-.114,54.958.051,54.958.114" transform="translate(-9.27 1830.335)" fill="#263238"/>
      <path id="Trazado_120448" data-name="Trazado 120448" d="M615.177,72.6H591.6a9.034,9.034,0,0,0-.523,18.053l2.135,3.694,2.667-3.667h19.3a9.04,9.04,0,0,0,0-18.079" transform="translate(-72.174 1962.146)" fill="#fff"/>
      <path id="Trazado_120449" data-name="Trazado 120449" d="M615.067,72.5s.081,0,.24,0l.707.025a9.527,9.527,0,0,1,2.642.665,9.332,9.332,0,0,1,3.46,2.579,9.762,9.762,0,0,1,1.4,2.338,8.9,8.9,0,0,1,.66,2.989,9.07,9.07,0,0,1-2.289,6.525,9.293,9.293,0,0,1-3.19,2.322,9.727,9.727,0,0,1-4.126.757l-18.8.015.109-.055-2.666,3.668-.122.168-.1-.18-.869-1.5-1.266-2.189.109.067a10.06,10.06,0,0,1-2.643-.552,9.6,9.6,0,0,1-2.335-1.276,9.139,9.139,0,0,1-1.4-13.325,9.044,9.044,0,0,1,3.711-2.566c.175-.061.345-.131.52-.185l.531-.136a8.652,8.652,0,0,1,1.064-.192c.355-.048.711-.044,1.062-.067H592.5l7.6.017,10.964.042,2.971.025.772.013c.174,0,.263.014.263.014s-.089.009-.263.014l-.772.013-2.971.025L600.1,72.6l-7.6.017-1.033,0c-.343.025-.69.021-1.036.069a8.389,8.389,0,0,0-1.037.191l-.517.134c-.17.054-.336.121-.505.181a8.816,8.816,0,0,0-3.608,2.508,8.894,8.894,0,0,0,1.377,12.949,9.316,9.316,0,0,0,2.267,1.238,9.812,9.812,0,0,0,2.565.535l.074.006.036.062,1.266,2.189.869,1.5-.227-.011,2.668-3.667.04-.056h.069l18.8.015a9.488,9.488,0,0,0,4.035-.726,9.088,9.088,0,0,0,3.122-2.254,8.9,8.9,0,0,0,2.268-6.374,8.754,8.754,0,0,0-.631-2.937,9.623,9.623,0,0,0-1.358-2.309,9.3,9.3,0,0,0-3.388-2.579,9.95,9.95,0,0,0-3.55-.78" transform="translate(-72.064 1962.248)" fill="#263238"/>
      <path id="Trazado_120450" data-name="Trazado 120450" d="M600.167,84.555l.845,1.713,1.891.275-1.368,1.333.323,1.883-1.691-.889-1.691.889.323-1.883-1.368-1.333,1.891-.275Z" transform="translate(-79.313 1956.408)" fill="#13b770"/>
      <path id="Trazado_120451" data-name="Trazado 120451" d="M613.962,84.555l.845,1.713,1.891.275-1.368,1.333.323,1.883-1.691-.889-1.691.889.323-1.883-1.368-1.333,1.891-.275Z" transform="translate(-85.936 1956.408)" fill="#13b770"/>
      <path id="Trazado_120452" data-name="Trazado 120452" d="M627.756,84.555l.845,1.713,1.891.275-1.368,1.333.323,1.883-1.691-.889-1.691.889.323-1.883-1.368-1.333,1.891-.275Z" transform="translate(-92.558 1956.408)" fill="#13b770"/>
      <path id="Trazado_120453" data-name="Trazado 120453" d="M641.551,84.555l.845,1.713,1.891.275-1.368,1.333.323,1.883-1.691-.889-1.691.889.323-1.883-1.368-1.333,1.891-.275Z" transform="translate(-99.18 1956.408)" fill="#13b770"/>
      <path id="Trazado_120454" data-name="Trazado 120454" d="M521.555,85.619s-2.362,8.831-2.565,15.079l-.068,2.082s5.211,4.327,9.583,4.594l3.664-9.01Z" transform="translate(-41.625 1955.897)" fill="#263238"/>
      <path id="Trazado_120455" data-name="Trazado 120455" d="M546.18,82.49c-1-4.307-1.379-9.32-4.961-12.129a13.064,13.064,0,0,0-9.061-2.524,11.959,11.959,0,0,0-4.985,1.655c-1.984,1.124-2.825,3.4-3.783,5.471-1.918,4.147-1.675,9.761-.376,11.321l17.326,9.149c3.46-1.8,5.627-2.518,6.18-7.129a16.9,16.9,0,0,0-.341-5.815" transform="translate(-43.1 1964.444)" fill="#263238"/>
      <path id="Trazado_120456" data-name="Trazado 120456" d="M542.151,76.283l-10.9-3.217c-3.513-.512-6.029,3.739-6.391,7.27a63.062,63.062,0,0,0-.388,11.681c.7,5.937,5.2,6.866,5.2,6.866,0-.02.01.089-.025,1.843l-.013,3.613a3,3,0,0,0,.858,2.446c1.608,2.083,4.539,2.362,8,1.083a4.982,4.982,0,0,0,3.549-4.262l1.9-25.143a2.077,2.077,0,0,0-1.774-2.178" transform="translate(-44.216 1961.945)" fill="#ae7461"/>
      <path id="Trazado_120457" data-name="Trazado 120457" d="M527.343,96.815a.757.757,0,0,0,.7.792.724.724,0,0,0,.806-.651.757.757,0,0,0-.7-.792.725.725,0,0,0-.807.652" transform="translate(-45.667 1950.838)" fill="#263238"/>
      <path id="Trazado_120458" data-name="Trazado 120458" d="M526.729,93.247c.09.1.68-.3,1.494-.265s1.395.465,1.487.369c.045-.042-.044-.224-.3-.424a2.081,2.081,0,0,0-1.185-.418,2,2,0,0,0-1.194.334c-.258.183-.35.358-.305.4" transform="translate(-45.367 1952.591)" fill="#263238"/>
      <path id="Trazado_120459" data-name="Trazado 120459" d="M541.112,97.04a.757.757,0,0,0,.7.792.725.725,0,0,0,.807-.651.758.758,0,0,0-.7-.792.725.725,0,0,0-.807.652" transform="translate(-52.276 1950.73)" fill="#263238"/>
      <path id="Trazado_120460" data-name="Trazado 120460" d="M542.134,93.432c.09.1.681-.3,1.494-.265s1.395.464,1.488.368c.045-.042-.043-.224-.3-.424a2.079,2.079,0,0,0-1.185-.418,2,2,0,0,0-1.194.334c-.257.183-.35.358-.306.4" transform="translate(-52.763 1952.502)" fill="#263238"/>
      <path id="Trazado_120461" data-name="Trazado 120461" d="M534.149,98.017a5.372,5.372,0,0,0-1.313-.291c-.207-.03-.4-.079-.432-.222a1.056,1.056,0,0,1,.163-.611l.677-1.559a27.16,27.16,0,0,0,1.544-4.087,27.331,27.331,0,0,0-1.869,3.953q-.341.822-.651,1.57a1.2,1.2,0,0,0-.14.812.522.522,0,0,0,.33.318,1.427,1.427,0,0,0,.352.063,5.292,5.292,0,0,0,1.34.055" transform="translate(-47.95 1953.196)" fill="#263238"/>
      <path id="Trazado_120462" data-name="Trazado 120462" d="M534.541,121.1a15.021,15.021,0,0,0,7.985-1.8s-2.116,4.052-8,3.267Z" transform="translate(-49.115 1939.729)" fill="#6f4439"/>
      <path id="Trazado_120463" data-name="Trazado 120463" d="M538.812,107.212a1.182,1.182,0,0,0-.961-.574,1.538,1.538,0,0,0-1.426.638.955.955,0,0,0-.089.687c.047.119.009.06.1.144a2.687,2.687,0,0,0,1.072.724,1.154,1.154,0,0,0,1.234-.4,1.177,1.177,0,0,0,.073-1.219" transform="translate(-49.971 1945.81)" fill="#6f4439"/>
      <path id="Trazado_120464" data-name="Trazado 120464" d="M538.406,105.6c-.132-.014-.174.87-.958,1.463s-1.72.453-1.733.577c-.015.055.2.181.6.21a2.2,2.2,0,0,0,1.444-.431,1.918,1.918,0,0,0,.747-1.23c.05-.368-.038-.591-.1-.589" transform="translate(-49.686 1946.306)" fill="#263238"/>
      <path id="Trazado_120465" data-name="Trazado 120465" d="M541.55,87.945c.059.228.879.2,1.819.41.945.188,1.685.541,1.831.356.065-.089-.048-.31-.338-.554a3.246,3.246,0,0,0-2.78-.583c-.363.107-.556.263-.531.371" transform="translate(-52.486 1955.008)" fill="#263238"/>
      <path id="Trazado_120466" data-name="Trazado 120466" d="M526.836,88.708c.185.16.778-.12,1.523-.237.741-.14,1.4-.076,1.514-.289.05-.1-.076-.271-.377-.405a2.321,2.321,0,0,0-1.284-.121,2.291,2.291,0,0,0-1.163.544c-.237.227-.3.427-.213.507" transform="translate(-45.407 1954.938)" fill="#263238"/>
      <path id="Trazado_120467" data-name="Trazado 120467" d="M537.545,71.881c-.01.043-.018.085-.028.128l.02.009c0-.046,0-.091.007-.137" transform="translate(-50.551 1962.492)" fill="#263238"/>
      <path id="Trazado_120468" data-name="Trazado 120468" d="M537.874,100.082c.167-1.547-.455-3.1-.275-4.647.191-1.638,1.253-3.043,1.688-4.634.7-2.549-.259-5.259-.61-7.892a6.254,6.254,0,0,1-3.838-2.215,17.346,17.346,0,0,1-2.6-4.768,7.989,7.989,0,0,0,1.606,4.586,2.153,2.153,0,0,1-1.839-.6,4.818,4.818,0,0,1-1.079-1.676,13.1,13.1,0,0,1-1.045-4.721,16.964,16.964,0,0,0,.771,6.893,2.942,2.942,0,0,0-1.283.049,1.408,1.408,0,0,1-1.221-.259,1.536,1.536,0,0,1-.334-.787,17.7,17.7,0,0,1-.2-6.006,18.306,18.306,0,0,0-1.353,3.328,6.449,6.449,0,0,0-.025,3.552.521.521,0,0,1-.733,0,1.243,1.243,0,0,1-.321-.741,9.138,9.138,0,0,1,.194-2.99,15.139,15.139,0,0,0-1.112,3.415,5.094,5.094,0,0,1-1.85,3,15.721,15.721,0,0,1,.148-4.529,13.66,13.66,0,0,1,1.327-3.594,10.677,10.677,0,0,1,2.393-3.33c1.739-1.523,2.466-.867,3.576-.287l.132.055c0-.027.005-.055.009-.082l.05-.237a16.658,16.658,0,0,1,8.772.41c2.093.682,2.285,5.189,2.8,3.047.309-1.3,1.989-.113,2.01-.075,2.468,4.453,5.085,11.516,5.205,22.678Z" transform="translate(-43.257 1963.127)" fill="#263238"/>
      <path id="Trazado_120469" data-name="Trazado 120469" d="M558.578,60.2a5.56,5.56,0,0,0-3.838-1.868,4.19,4.19,0,0,0-3.706,1.93,3.377,3.377,0,0,0,.457,4.038l1.824,1.459a4.994,4.994,0,0,0,4.142.4,3.6,3.6,0,0,0,2.339-3.286,4.236,4.236,0,0,0-1.217-2.676" transform="translate(-56.817 1969)" fill="#263238"/>
      <path id="Trazado_120470" data-name="Trazado 120470" d="M557.132,73.018c-.353.165-1.351-1.364-3.134-2.566-1.756-1.243-3.539-1.635-3.51-2.024.015-.177.517-.319,1.331-.236a6.816,6.816,0,0,1,5.062,3.5c.367.732.411,1.251.251,1.328" transform="translate(-56.778 1964.275)" fill="#455a64"/>
      <path id="Trazado_120471" data-name="Trazado 120471" d="M505.807,164.881l6.832-6.4,4.628,7.353c-.092.659-5.992,13.372-8.546,16.006-2.914,3.006-6.887,2.773-8.64-1.377-1.382-3.272-3.675-13.346-3.675-13.346Z" transform="translate(-30.816 1920.92)" fill="#eecf52"/>
      <path id="Trazado_120472" data-name="Trazado 120472" d="M519.269,132.81c-1.632.588-5.386,2.64-6.479,3.986a10.3,10.3,0,0,0-1.38,2.133c-.855,1.881-2.479,15.824-2.479,15.824l7.276,5.27,6.335-24.388-.4-3.867Z" transform="translate(-36.828 1933.744)" fill="#eecf52"/>
      <path id="Trazado_120473" data-name="Trazado 120473" d="M522.663,171.48l.458-3.6a117.068,117.068,0,0,1-1.917-12.006,33.559,33.559,0,0,1,1.81-15.317c.179-.53,4.931-10.372,4.931-10.372s1,3.032,5.008,2.315c5.591-1,7.629-4.031,7.629-4.031l7.225,1.562s2.815,11.305,3.229,15.051c.222,2.008-2.424,13.358-2.424,13.358l4.261,6.374c.127.314-1.851,9.024-2.238,9.384s-7.318,1.97-7.4,2.266-13.213,5.792-13.2,5.568-6.316-7.736-6.316-7.736Z" transform="translate(-42.636 1935.328)" fill="#eecf52"/>
      <path id="Trazado_120474" data-name="Trazado 120474" d="M520.269,154.318a1.025,1.025,0,0,1-.017.264c-.024.2-.053.449-.089.748-.077.649-.187,1.588-.283,2.753a39.482,39.482,0,0,0,.17,9.091c.467,3.534,1.149,6.695,1.588,8.992.224,1.149.394,2.08.5,2.726l.115.745a.959.959,0,0,1,.022.263,1,1,0,0,1-.075-.253l-.165-.735c-.148-.68-.346-1.595-.587-2.707-.487-2.286-1.2-5.446-1.67-9a36.637,36.637,0,0,1-.091-9.145c.121-1.166.26-2.1.369-2.749.056-.323.1-.573.14-.741a.937.937,0,0,1,.071-.255" transform="translate(-41.875 1922.918)" fill="#263238"/>
      <path id="Trazado_120475" data-name="Trazado 120475" d="M552.607,206c1.3,2.2,4.253,10.613,5.4,14.91,5.247,19.61,9.686,45.981,11.16,51.355,1.965,7.161,6.364,23.363,8.6,34.153L567.02,311.1s-14.083-37.948-17.924-47.273c-3.982-9.662-10.623-27.888-10.623-27.888l-3.837,72.29-10.3.318s-3.523-20.37-4.923-32.545-1.557-37.236-1.568-43.6c-.014-7.745,3.343-25.17,3.343-25.17s4.018,3.015,11.551,1.861c6-.919,18.439-5.534,18.439-5.534Z" transform="translate(-41.106 1899.277)" fill="#263238"/>
      <path id="Trazado_120476" data-name="Trazado 120476" d="M544.425,219.034a4.976,4.976,0,0,0,.06.83c.055.532.149,1.3.275,2.249.252,1.9.647,4.512,1.16,7.386s1.051,5.465,1.472,7.332c.211.933.389,1.687.522,2.205a4.938,4.938,0,0,0,.231.8,4.954,4.954,0,0,0-.129-.822c-.113-.57-.26-1.319-.438-2.222-.373-1.875-.88-4.467-1.394-7.339s-.936-5.478-1.236-7.366c-.146-.908-.267-1.662-.359-2.236a4.991,4.991,0,0,0-.163-.816" transform="translate(-53.865 1891.852)" fill="#455a64"/>
      <path id="Trazado_120477" data-name="Trazado 120477" d="M549.774,218.483c.015,0-.016-.129-.2-.21a1.315,1.315,0,0,0-.785-.025,1.574,1.574,0,0,0-.514.21.863.863,0,0,0-.352.571,1.319,1.319,0,0,0,.59,1.309,1.357,1.357,0,0,0,1.435.064.935.935,0,0,0,.4-.534,1.332,1.332,0,0,0,.039-.557,1.122,1.122,0,0,0-.347-.707c-.148-.123-.26-.132-.263-.12s.082.064.188.193a1.134,1.134,0,0,1,.232.652.907.907,0,0,1-.375.863,1.134,1.134,0,0,1-1.159-.079,1.092,1.092,0,0,1-.493-1.043.645.645,0,0,1,.237-.431,1.486,1.486,0,0,1,.433-.208,1.416,1.416,0,0,1,.7-.059c.162.037.215.125.235.112" transform="translate(-55.538 1892.25)" fill="#455a64"/>
      <path id="Trazado_120478" data-name="Trazado 120478" d="M538.828,254.093a10.033,10.033,0,0,0,1.246.854c.779.51,1.845,1.227,2.988,2.068s2.142,1.65,2.859,2.244a10.083,10.083,0,0,0,1.184.938,7.274,7.274,0,0,0-1.06-1.081,35.514,35.514,0,0,0-5.871-4.33,7.266,7.266,0,0,0-1.346-.693" transform="translate(-51.18 1875.022)" fill="#455a64"/>
      <path id="Trazado_120479" data-name="Trazado 120479" d="M588.989,326.219a1.426,1.426,0,0,0,.446.015c.286-.006.7-.037,1.207-.095a21.572,21.572,0,0,0,7.593-2.38c.45-.242.807-.453,1.045-.611s.367-.25.357-.266a15.875,15.875,0,0,0-1.488.709,27.116,27.116,0,0,1-7.534,2.361,16.07,16.07,0,0,0-1.626.267" transform="translate(-75.261 1841.999)" fill="#455a64"/>
      <path id="Trazado_120480" data-name="Trazado 120480" d="M592.348,324.377a4.042,4.042,0,0,0,1.055-.281c.638-.213,1.508-.544,2.445-.966s1.762-.854,2.345-1.19a4.047,4.047,0,0,0,.91-.6c-.039-.068-1.5.713-3.365,1.549s-3.416,1.417-3.39,1.491" transform="translate(-76.873 1842.741)" fill="#455a64"/>
      <path id="Trazado_120481" data-name="Trazado 120481" d="M519.877,391.064l-.054,10.732s-10.926,3.549-11.129,5.532l20.8.852.771-16.718Z" transform="translate(-36.714 1809.267)" fill="#263238"/>
      <path id="Trazado_120482" data-name="Trazado 120482" d="M541.578,410.437a.85.85,0,0,1,.548.994.818.818,0,0,1-.981.552.9.9,0,0,1-.574-1.056.848.848,0,0,1,1.083-.461" transform="translate(-51.999 1799.987)" fill="#e0e0e0"/>
      <path id="Trazado_120484" data-name="Trazado 120484" d="M529.459,411.4c0,.1.505.168.992.516s.735.785.831.749c.094-.016-.032-.63-.629-1.039s-1.212-.319-1.194-.225" transform="translate(-46.683 1799.544)" fill="#fff"/>
      <path id="Trazado_120485" data-name="Trazado 120485" d="M525.191,413c-.027.1.406.288.733.732s.409.9.51.9c.095.02.189-.572-.228-1.116s-1.009-.615-1.015-.518" transform="translate(-44.633 1798.752)" fill="#fff"/>
      <path id="Trazado_120486" data-name="Trazado 120486" d="M521.916,416.315c.091.025.254-.476.016-1.044s-.7-.808-.751-.725.236.392.424.86.211.894.311.908" transform="translate(-42.705 1798.001)" fill="#fff"/>
      <path id="Trazado_120487" data-name="Trazado 120487" d="M530,406.471c.039.095.511-.027,1.083.036s1.013.262,1.07.177-.359-.465-1.035-.529-1.165.234-1.118.317" transform="translate(-46.942 1802.027)" fill="#fff"/>
      <path id="Trazado_120488" data-name="Trazado 120488" d="M616.7,388.9l3.985,12.357,5.971,8.865a1.33,1.33,0,0,1-1.653,1.954c-2.5-1.144-11.657-5.4-11.9-6.317-.279-1.066-5.069-12.756-5.069-12.756Z" transform="translate(-84.406 1810.307)" fill="#263238"/>
      <g id="Grupo_85908" data-name="Grupo 85908" transform="translate(528.589 2210.371)" opacity="0.6">
        <g id="Grupo_85907" data-name="Grupo 85907" transform="translate(0 0)">
          <g id="Grupo_85906" data-name="Grupo 85906" clip-path="url(#clip-path-5)">
            <path id="Trazado_120490" data-name="Trazado 120490" d="M618.537,410.41a.805.805,0,0,1,.554.92.774.774,0,0,1-.908.557.849.849,0,0,1-.58-.978.8.8,0,0,1,1.008-.474" transform="translate(-617.572 -410.376)" fill="#fff"/>
          </g>
        </g>
      </g>
      <path id="Trazado_120494" data-name="Trazado 120494" d="M626.561,413.717c.058.062.637-.456,1.508-.795s1.643-.37,1.642-.455a3.3,3.3,0,0,0-3.15,1.25" transform="translate(-93.295 1799.027)" fill="#fff"/>
      <path id="Trazado_120495" data-name="Trazado 120495" d="M624.134,406.844a4.222,4.222,0,0,1,3.316-1.027c.011-.033-.176-.14-.516-.2a2.9,2.9,0,0,0-2.49.771c-.243.245-.337.44-.31.461" transform="translate(-92.13 1802.303)" fill="#fff"/>
      <path id="Trazado_120496" data-name="Trazado 120496" d="M624.422,402.714a1.123,1.123,0,0,0-.145-.47,3.413,3.413,0,0,0-.791-1.087,1.512,1.512,0,0,0-.85-.469.535.535,0,0,0-.53.31.869.869,0,0,0,0,.621,1.88,1.88,0,0,0,2.128,1.1,2.18,2.18,0,0,0,1.648-1.781.756.756,0,0,0-.173-.606.524.524,0,0,0-.609-.082,1.864,1.864,0,0,0-.662.7,3.82,3.82,0,0,0-.505,1.244,1.161,1.161,0,0,0-.041.489,6.071,6.071,0,0,1,.715-1.622,1.735,1.735,0,0,1,.592-.6.279.279,0,0,1,.332.043.518.518,0,0,1,.09.405,1.947,1.947,0,0,1-1.446,1.528,1.633,1.633,0,0,1-1.82-.909.632.632,0,0,1-.018-.434.29.29,0,0,1,.29-.176,1.369,1.369,0,0,1,.727.384,5.036,5.036,0,0,1,1.07,1.405" transform="translate(-91.131 1804.886)" fill="#fff"/>
      <path id="Trazado_120497" data-name="Trazado 120497" d="M494.854,154.318l4.962,5.125.2,4.463-5.759,1.324h-.293l-.372-2.88-3.319-4.413Z" transform="translate(-27.872 1922.918)" fill="#ae7461"/>
      <path id="Trazado_120498" data-name="Trazado 120498" d="M440.633,100.223A30.24,30.24,0,1,1,448.2,73.662a30.015,30.015,0,0,1-7.567,26.561m-41.319-.08a28.213,28.213,0,1,0-8.364-15.061,28,28,0,0,0,8.364,15.061" transform="translate(21.041 1973.306)" fill="#455a64"/>
      <path id="Trazado_120499" data-name="Trazado 120499" d="M440.633,100.223A30.24,30.24,0,1,1,448.2,73.662a30.015,30.015,0,0,1-7.567,26.561m-41.319-.08a28.213,28.213,0,1,0-8.364-15.061,28,28,0,0,0,8.364,15.061" transform="translate(21.041 1973.306)" fill="#263238"/>
      <path id="Trazado_120500" data-name="Trazado 120500" d="M442.061,97.427a30.24,30.24,0,1,1,7.567-26.561,30.012,30.012,0,0,1-7.567,26.561m-41.319-.08a28.213,28.213,0,1,0-8.364-15.061,28,28,0,0,0,8.364,15.061" transform="translate(20.355 1974.648)" fill="#455a64"/>
      <path id="Trazado_120501" data-name="Trazado 120501" d="M519.882,181.3l.961-.93c.857-.83.376-2.727-.523-3.647l-33.751-34.886-4.513,4.366,33.7,34.834a3.021,3.021,0,0,0,4.125.264" transform="translate(-23.927 1928.908)" fill="#455a64"/>
      <path id="Trazado_120502" data-name="Trazado 120502" d="M492.249,149.741a.794.794,0,0,0-.683-.182,1.334,1.334,0,0,0-.535.373,6.123,6.123,0,0,0-1.739,4.232,1.875,1.875,0,0,0,.774,1.745l.677-.392c.211-.271.838-.725.921-1.058.35-1.4-.152-1.343.726-3.774a.838.838,0,0,0-.142-.945" transform="translate(-27.4 1925.213)" fill="#ae7461"/>
      <path id="Trazado_120503" data-name="Trazado 120503" d="M493.52,152.66a3.343,3.343,0,0,1,.671-.884.975.975,0,0,1,.893-.267c.468.147.7.82.642,1.447a5.448,5.448,0,0,1-.582,1.782q-.833,1.807-1.667,3.615l-.323-.238a.457.457,0,0,1-.72-.159,1.917,1.917,0,0,1-.159-.984,9.434,9.434,0,0,1,1.245-4.312" transform="translate(-28.832 1924.281)" fill="#ae7461"/>
      <path id="Trazado_120504" data-name="Trazado 120504" d="M495.5,158.033a8.463,8.463,0,0,1,1.669-2.237,2.055,2.055,0,0,1,.775-.589.729.729,0,0,1,.871.256,1.007,1.007,0,0,1-.118.887,41.43,41.43,0,0,1-2.87,5.04l-1-1c-.452-.815.286-1.5.67-2.353" transform="translate(-29.989 1922.514)" fill="#ae7461"/>
      <path id="Trazado_120505" data-name="Trazado 120505" d="M531.744,175.412l-.915-.194-4.789-4.082-2.621-2.2a1.6,1.6,0,0,0-.767-.354l-2.594-.433a1.474,1.474,0,0,0,.776,1.779l1.422.736,1.3,1.537-.166.333s-8.524,1.323-9.057,1.973a.886.886,0,0,0,.237,1.36,1.38,1.38,0,0,0,.65.059,1.548,1.548,0,0,0,.828,1.833s-.946,1.242.709,1.833a2.671,2.671,0,0,0,1.419,1.242,61.392,61.392,0,0,0,6.563.887l6.111.009,1.227.2Z" transform="translate(-39.313 1916.279)" fill="#ae7461"/>
      <path id="Trazado_120506" data-name="Trazado 120506" d="M515.873,182.9a6.8,6.8,0,0,0,2.357.127,9.435,9.435,0,0,0,2.333-.346,11.639,11.639,0,0,0-2.35.079,22.5,22.5,0,0,0-2.34.14" transform="translate(-40.161 1909.322)" fill="#6f4439"/>
      <path id="Trazado_120507" data-name="Trazado 120507" d="M517.842,186.563c0,.038.221.068.577.115s.847.114,1.4.148a12.132,12.132,0,0,0,1.414-.031,2.275,2.275,0,0,0,.582-.052c.01-.038-.216-.113-.58-.137s-.862-.012-1.4-.048-1.041-.073-1.405-.07-.589.038-.589.074" transform="translate(-41.106 1907.475)" fill="#6f4439"/>
      <path id="Trazado_120508" data-name="Trazado 120508" d="M518.88,190.042a10.1,10.1,0,0,0,2.3.308,5.475,5.475,0,0,1,1.573.244c.376.141.547.343.581.313.026-.012-.1-.278-.5-.485a4.159,4.159,0,0,0-1.631-.339,10.1,10.1,0,0,0-2.319-.041" transform="translate(-41.604 1905.791)" fill="#6f4439"/>
      <path id="Trazado_120509" data-name="Trazado 120509" d="M560.737,131.472s3.6.622,6.335,5.99c1.51,2.968,8.567,20.814,8.986,22.379,1.79,6.7-1.675,11.011-5.011,11.3-3.672.323-22.662-5.8-22.662-5.8l-.42-8.114,17.323,2.63L556.965,143.7s-.319-10.759,3.772-12.23" transform="translate(-55.567 1933.886)" fill="#eecf52"/>
      <path id="Trazado_120510" data-name="Trazado 120510" d="M586.778,190.5a2.954,2.954,0,0,0-.466-1.081,7.306,7.306,0,0,0-4.541-3.24,2.954,2.954,0,0,0-1.174-.089c0,.047.444.079,1.128.272a8.24,8.24,0,0,1,4.428,3.16c.406.584.581,1,.624.978" transform="translate(-71.232 1907.679)" fill="#263238"/>
      <path id="Trazado_120511" data-name="Trazado 120511" d="M566.154,182.289a.285.285,0,0,1-.089-.012l-.26-.056c-.23-.047-.562-.147-1-.265-.866-.251-2.126-.636-3.712-1.142-3.173-1.012-7.655-2.493-12.925-4.275l-.08-.027,0-.085c-.122-2.335-.256-4.88-.4-7.534l-.009-.166.164.027,4.261.689,13.064,2.132-.128.177-5.754-11.264-1.612-3.2-.419-.853a2.112,2.112,0,0,1-.132-.3,1.962,1.962,0,0,1,.167.281l.452.836,1.674,3.171,5.84,11.218.112.215-.24-.039-13.068-2.106-4.261-.692.156-.139c.133,2.655.26,5.2.377,7.536l-.084-.112,12.891,4.368,3.689,1.209c.43.13.759.242.984.3l.254.075a.311.311,0,0,1,.085.032" transform="translate(-55.431 1922.047)" fill="#263238"/>
      <path id="Trazado_120512" data-name="Trazado 120512" d="M569.507,132.1c.026.043-.49.34-1.208.958a10.278,10.278,0,0,0-3.449,6.35c-.128.939-.1,1.533-.147,1.535a1.272,1.272,0,0,1-.06-.415,6.572,6.572,0,0,1,.017-1.142,8.955,8.955,0,0,1,.312-1.67,9.559,9.559,0,0,1,1.976-3.636,8.93,8.93,0,0,1,1.23-1.17,6.6,6.6,0,0,1,.949-.636,1.248,1.248,0,0,1,.381-.175" transform="translate(-63.565 1933.586)" fill="#263238"/>
    </g>
  </g>
</svg>
