<svg xmlns="http://www.w3.org/2000/svg" width="86" height="86" viewBox="0 0 86 86">
  <g id="Grupo_86063" data-name="Grupo 86063" transform="translate(-580 -1973)">
    <g id="adjunto-archivo" transform="translate(570.817 1984.393)">
      <g id="Grupo_85823" data-name="Grupo 85823" transform="translate(24.399 0.926)">
        <path id="Trazado_119901" data-name="Trazado 119901" d="M171.081,50.593H139.992a1.654,1.654,0,0,1-1.654-1.654V9.154A1.654,1.654,0,0,1,139.992,7.5h31.089a1.654,1.654,0,0,1,1.654,1.654V48.938A1.654,1.654,0,0,1,171.081,50.593Z" transform="translate(-125.081 -7.5)" fill="#c8effe"/>
        <path id="Trazado_119902" data-name="Trazado 119902" d="M384.051,9.154V48.938a1.655,1.655,0,0,1-1.654,1.654H379.42a1.655,1.655,0,0,0,1.654-1.654V9.154A1.655,1.655,0,0,0,379.42,7.5H382.4A1.655,1.655,0,0,1,384.051,9.154Z" transform="translate(-336.397 -7.5)" fill="#99e6fc"/>
        <path id="Trazado_119903" data-name="Trazado 119903" d="M96.276,94.272H65.187a1.654,1.654,0,0,1-1.654-1.654V52.833a1.654,1.654,0,0,1,1.654-1.654H96.276a1.654,1.654,0,0,1,1.654,1.654V92.617A1.654,1.654,0,0,1,96.276,94.272Z" transform="translate(-59.512 -45.786)" fill="#eaf6ff"/>
        <path id="Trazado_119904" data-name="Trazado 119904" d="M309.681,52.833V92.618a1.655,1.655,0,0,1-1.655,1.654H305.11a1.655,1.655,0,0,0,1.654-1.654V52.833a1.654,1.654,0,0,0-1.654-1.653h2.916A1.654,1.654,0,0,1,309.681,52.833Z" transform="translate(-271.262 -45.787)" fill="#c8effe"/>
        <path id="Trazado_119905" data-name="Trazado 119905" d="M82.644,167.524v31.64a4.217,4.217,0,0,1-4.216,4.216H35.188a4.217,4.217,0,0,1-4.218-4.216V174.9a4.217,4.217,0,0,1,4.218-4.216H54.565a4.056,4.056,0,0,0,3.679-2.351l.777-1.675A4.056,4.056,0,0,1,62.7,164.31H79.43A3.213,3.213,0,0,1,82.644,167.524Z" transform="translate(-30.97 -144.949)" fill="#eecf52"/>
        <path id="Trazado_119906" data-name="Trazado 119906" d="M397.836,167.524v31.64a4.217,4.217,0,0,1-4.216,4.216h-3.06a4.217,4.217,0,0,0,4.216-4.216v-31.64a3.213,3.213,0,0,0-3.213-3.214h3.058A3.213,3.213,0,0,1,397.836,167.524Z" transform="translate(-346.162 -144.949)" fill="#feb137"/>
        <path id="Trazado_119907" data-name="Trazado 119907" d="M265.225,289.756v17.239a4.216,4.216,0,0,1-4.216,4.216H239.835a5.3,5.3,0,0,1-.565-2.389V292.651a5.322,5.322,0,0,1,5.321-5.322h16.169A5.313,5.313,0,0,1,265.225,289.756Z" transform="translate(-213.551 -252.78)" fill="#feb137"/>
        <path id="Trazado_119908" data-name="Trazado 119908" d="M285.352,314.146h-16.17a5.322,5.322,0,0,1-5.322-5.322v-16.17a5.322,5.322,0,0,1,5.322-5.322h16.17a5.322,5.322,0,0,1,5.322,5.322v16.17A5.322,5.322,0,0,1,285.352,314.146Z" transform="translate(-235.105 -252.782)" fill="#13b770"/>
        <path id="Trazado_119909" data-name="Trazado 119909" d="M416.37,287.333h-3.036a5.322,5.322,0,0,1,5.322,5.322v16.17a5.322,5.322,0,0,1-5.322,5.322h3.036a5.322,5.322,0,0,0,5.322-5.322v-16.17A5.322,5.322,0,0,0,416.37,287.333Z" transform="translate(-366.124 -252.782)" fill="#0181fa"/>
        <path id="Trazado_119910" data-name="Trazado 119910" d="M328.053,334.95l-4.8,5.984a2.435,2.435,0,0,1-3.8,0l-4.8-5.984a2.274,2.274,0,0,1,1.763-3.675h1.862v-5.945a1.215,1.215,0,0,1,1.215-1.215h3.721a1.215,1.215,0,0,1,1.215,1.215v5.945h1.862A2.274,2.274,0,0,1,328.053,334.95Z" transform="translate(-279.191 -285.022)" fill="#c8effe"/>
        <path id="Trazado_119911" data-name="Trazado 119911" d="M363.771,334.95l-4.8,5.984a2.435,2.435,0,0,1-3.8,0l-.266-.332a2.421,2.421,0,0,0,1.955-.908l3.876-4.744a2.274,2.274,0,0,0-1.763-3.675h-.813a1.049,1.049,0,0,1-1.049-1.049v-4.9a1.215,1.215,0,0,0-1.215-1.215h3.036a1.215,1.215,0,0,1,1.215,1.215v5.945h1.862A2.274,2.274,0,0,1,363.771,334.95Z" transform="translate(-314.908 -285.022)" fill="#99e6fc"/>
        <path id="Trazado_119912" data-name="Trazado 119912" d="M89.98,292.382h-13.4a1.527,1.527,0,0,1-1.527-1.527V288.86a1.527,1.527,0,0,1,1.527-1.527h13.4a1.527,1.527,0,0,1,1.527,1.527v1.995A1.527,1.527,0,0,1,89.98,292.382Z" transform="translate(-69.613 -252.782)" fill="#eaf6ff"/>
        <path id="Trazado_119913" data-name="Trazado 119913" d="M180.014,288.857v2a1.528,1.528,0,0,1-1.527,1.527H176.03a1.527,1.527,0,0,0,1.527-1.527v-2a1.527,1.527,0,0,0-1.527-1.527h2.457A1.528,1.528,0,0,1,180.014,288.857Z" transform="translate(-158.12 -252.78)" fill="#c8effe"/>
        <path id="Trazado_119914" data-name="Trazado 119914" d="M111.727,95.751h-5.9a1.684,1.684,0,1,1,0-3.368h5.9a1.684,1.684,0,1,1,0,3.368Z" transform="translate(-95.108 -81.903)" fill="#0593fc"/>
        <path id="Trazado_119915" data-name="Trazado 119915" d="M149.487,94.064a1.684,1.684,0,0,1-1.683,1.684h-2.5a1.684,1.684,0,1,0,0-3.368h2.5A1.684,1.684,0,0,1,149.487,94.064Z" transform="translate(-131.184 -81.9)" fill="#0181fa"/>
      </g>
      <g id="Grupo_85824" data-name="Grupo 85824" transform="translate(23.473 0)">
        <path id="Trazado_119916" data-name="Trazado 119916" d="M77,35.012V23.5a4.144,4.144,0,0,0-4.14-4.139H63.743V7.973a2.583,2.583,0,0,0-2.58-2.58H38.581V2.58a.729.729,0,0,1,.728-.728H70.4a.729.729,0,0,1,.728.728V15.922a.926.926,0,0,0,1.852,0V2.58A2.583,2.583,0,0,0,70.4,0H39.309a2.583,2.583,0,0,0-2.58,2.58V5.393H30.073a2.583,2.583,0,0,0-2.58,2.58v17.89a5.151,5.151,0,0,0-4.02,5.018V55.141a5.149,5.149,0,0,0,5.143,5.143H49.05a.926.926,0,0,0,0-1.852H28.616a3.3,3.3,0,0,1-3.291-3.291V30.88a3.3,3.3,0,0,1,3.291-3.291H47.993a5,5,0,0,0,4.52-2.887l.777-1.676a3.139,3.139,0,0,1,2.839-1.814h16.73A2.29,2.29,0,0,1,75.146,23.5V34.573c-.166-.013-.333-.022-.5-.022H58.475A6.255,6.255,0,0,0,52.227,40.8v16.17a6.255,6.255,0,0,0,6.248,6.248h16.17a6.255,6.255,0,0,0,6.248-6.248V40.8A6.257,6.257,0,0,0,77,35.012ZM51.609,22.248l-.777,1.676a3.139,3.139,0,0,1-2.839,1.814H29.345V7.973a.729.729,0,0,1,.728-.728H61.162a.729.729,0,0,1,.728.728V19.361H56.129a5,5,0,0,0-4.52,2.887ZM79.04,56.968a4.4,4.4,0,0,1-4.4,4.4H58.475a4.4,4.4,0,0,1-4.4-4.4V40.8a4.4,4.4,0,0,1,4.4-4.4h16.17a4.463,4.463,0,0,1,4.4,4.4v16.17Z" transform="translate(-23.473 0)"/>
        <path id="Trazado_119917" data-name="Trazado 119917" d="M319.684,323.774h-.924v-5.019a2.144,2.144,0,0,0-2.141-2.141H312.9a2.144,2.144,0,0,0-2.141,2.141v5.019h-.924a3.2,3.2,0,0,0-2.491,5.19l4.8,5.975a3.345,3.345,0,0,0,2.621,1.257h0a3.345,3.345,0,0,0,2.621-1.257l4.795-5.975a3.2,3.2,0,0,0-2.49-5.19Zm1.069,4-.016.019-4.8,5.984a1.509,1.509,0,0,1-2.354,0l-4.8-5.984-.016-.019a1.353,1.353,0,0,1,.992-2.152h1.926a.926.926,0,0,0,.926-.926v-5.945a.29.29,0,0,1,.289-.289h3.721a.29.29,0,0,1,.289.289V324.7a.926.926,0,0,0,.926.926h1.889a1.265,1.265,0,0,1,1.159.76A1.28,1.28,0,0,1,320.753,327.777Z" transform="translate(-271.671 -277.522)"/>
        <path id="Trazado_119918" data-name="Trazado 119918" d="M70.01,279.833a2.456,2.456,0,0,0-2.453,2.453v1.995a2.456,2.456,0,0,0,2.453,2.453h13.4a2.456,2.456,0,0,0,2.453-2.453v-1.995a2.456,2.456,0,0,0-2.453-2.453Zm14,2.453v1.995a.6.6,0,0,1-.6.6H70.01a.6.6,0,0,1-.6-.6v-1.995a.6.6,0,0,1,.6-.6h13.4A.6.6,0,0,1,84.008,282.286Z" transform="translate(-62.114 -245.282)"/>
        <path id="Trazado_119919" data-name="Trazado 119919" d="M99.252,90.1h5.9a2.61,2.61,0,1,0,0-5.22h-5.9a2.61,2.61,0,0,0,0,5.22Zm0-3.368h5.9a.758.758,0,0,1,0,1.516h-5.9a.758.758,0,0,1,0-1.516Z" transform="translate(-87.608 -74.403)"/>
        <path id="Trazado_119920" data-name="Trazado 119920" d="M213.57,98.521H201.843a.926.926,0,0,0,0,1.852H213.57a.926.926,0,1,0,0-1.852Z" transform="translate(-179.008 -86.357)"/>
        <path id="Trazado_119921" data-name="Trazado 119921" d="M161.942,141.1h-7.683a.926.926,0,0,0,0,1.852h7.683a.926.926,0,0,0,0-1.852Z" transform="translate(-137.299 -123.68)"/>
        <path id="Trazado_119922" data-name="Trazado 119922" d="M97.569,142.954h2.618a.926.926,0,1,0,0-1.852H97.569a.926.926,0,1,0,0,1.852Z" transform="translate(-87.609 -123.68)"/>
        <path id="Trazado_119923" data-name="Trazado 119923" d="M112.251,171.682H97.569a.926.926,0,1,0,0,1.852h14.682a.926.926,0,1,0,0-1.852Z" transform="translate(-87.609 -150.485)"/>
      </g>
    </g>
    <rect id="Rectángulo_36799" data-name="Rectángulo 36799" width="86" height="86" transform="translate(580 1973)" fill="none"/>
  </g>
</svg>
