<svg xmlns="http://www.w3.org/2000/svg" width="50" height="50" viewBox="0 0 50 50">
  <g id="Grupo_82571" data-name="Grupo 82571" transform="translate(-15 -27)">
    <g id="Grupo_20664" data-name="Grupo 20664" transform="translate(15 27)">
      <path id="Trazado_99075" data-name="Trazado 99075" d="M25,0A25,25,0,1,1,0,25,25,25,0,0,1,25,0Z" fill="#13b770"/>
      <path id="Trazado_120882" data-name="Trazado 120882" d="M4.652,14.816H6.516A1.937,1.937,0,0,0,8.73,12.648,1.875,1.875,0,0,0,8.2,11.271a2,2,0,0,0-1.488-.533A2.141,2.141,0,0,0,5.35,11.2a1.394,1.394,0,0,0-.58,1.137H.82a4.043,4.043,0,0,1,.75-2.4A4.953,4.953,0,0,1,3.65,8.283a7.112,7.112,0,0,1,2.924-.592,6.988,6.988,0,0,1,4.477,1.3,4.324,4.324,0,0,1,1.629,3.574,3.6,3.6,0,0,1-.674,2.08,4.8,4.8,0,0,1-1.963,1.588,4.587,4.587,0,0,1,2.133,1.494,3.935,3.935,0,0,1,.773,2.479,4.4,4.4,0,0,1-1.758,3.656,7.3,7.3,0,0,1-4.617,1.371A7.567,7.567,0,0,1,3.463,24.6a4.875,4.875,0,0,1-2.174-1.77,4.6,4.6,0,0,1-.738-2.572H4.523a1.778,1.778,0,0,0,.633,1.359,2.234,2.234,0,0,0,1.559.574,2.34,2.34,0,0,0,1.664-.58A1.939,1.939,0,0,0,9,20.125,2.267,2.267,0,0,0,8.355,18.3a2.694,2.694,0,0,0-1.781-.539H4.652Z" transform="translate(17.657 10.58)" fill="#fff"/>
    </g>
  </g>
</svg>
