<svg xmlns="http://www.w3.org/2000/svg" width="86" height="86" viewBox="0 0 86 86">
  <g id="Grupo_86060" data-name="Grupo 86060" transform="translate(-915 -2361)">
    <g id="obediente" transform="translate(914.552 2370.979)">
      <g id="Grupo_85702" data-name="Grupo 85702" transform="translate(18.464 11.321)">
        <path id="Trazado_119504" data-name="Trazado 119504" d="M76.482,303.051a4.439,4.439,0,0,0-4.435,4.434v5.2h8.869v-5.2A4.439,4.439,0,0,0,76.482,303.051Z" transform="translate(-71.219 -275.148)" fill="#79dfef"/>
        <path id="Trazado_119505" data-name="Trazado 119505" d="M107.79,111.2a1.3,1.3,0,0,1-1.356,0c-7.917-4.845-13.181-9.907-13.181-19.813V87.465H66.3a.647.647,0,0,0-.647.647v25.6a8.052,8.052,0,0,1,13.32,6.1V125h1.954a1.166,1.166,0,0,1,1.165,1.165v10.226h26.822a.647.647,0,0,0,.647-.647V110.081Q108.7,110.645,107.79,111.2Z" transform="translate(-65.653 -87.465)" fill="#79dfef"/>
      </g>
      <g id="Grupo_85703" data-name="Grupo 85703" transform="translate(18.464 11.321)">
        <path id="Trazado_119506" data-name="Trazado 119506" d="M73.047,308.355v5.069h4.492v-9.369c-.062,0-.124,0-.187,0a4.31,4.31,0,0,0-4.3,4.3Z" transform="translate(-72.09 -276.017)" fill="#c8effe"/>
        <path id="Trazado_119507" data-name="Trazado 119507" d="M70.915,111.615c.063,0,.125,0,.187,0V88.112a.647.647,0,0,1,.647-.647H66.3a.647.647,0,0,0-.647.647v25.419A8.154,8.154,0,0,1,70.915,111.615Z" transform="translate(-65.653 -87.465)" fill="#c8effe"/>
      </g>
      <g id="Grupo_85709" data-name="Grupo 85709" transform="translate(46.063 0.97)">
        <g id="Grupo_85704" data-name="Grupo 85704" transform="translate(0)">
          <path id="Trazado_119508" data-name="Trazado 119508" d="M279.61,13.906a1.294,1.294,0,0,0-.716,1.158v6.7c0,9.906,5.264,14.968,13.181,19.813a1.3,1.3,0,0,0,1.356,0c7.917-4.845,13.181-9.907,13.181-19.813v-6.7a1.294,1.294,0,0,0-.716-1.158l-12.565-6.28a1.294,1.294,0,0,0-1.157,0Z" transform="translate(-278.894 -7.49)" fill="#eecf52"/>
        </g>
        <g id="Grupo_85705" data-name="Grupo 85705" transform="translate(0 4.449)">
          <path id="Trazado_119509" data-name="Trazado 119509" d="M283.546,49.55V41.86l-3.937,1.968a1.294,1.294,0,0,0-.716,1.158v6.7c0,9.906,5.264,14.968,13.181,19.813a1.3,1.3,0,0,0,1.356,0c1.153-.706,2.249-1.416,3.282-2.145-7.909-4.842-13.166-9.9-13.166-19.8Z" transform="translate(-278.893 -41.86)" fill="#e8b800"/>
        </g>
        <g id="Grupo_85708" data-name="Grupo 85708" transform="translate(4.948 6.748)">
          <g id="Grupo_85706" data-name="Grupo 85706" transform="translate(0)">
            <circle id="Elipse_4817" data-name="Elipse 4817" cx="8.853" cy="8.853" r="8.853" fill="#13b770"/>
          </g>
        </g>
      </g>
      <g id="Grupo_85712" data-name="Grupo 85712" transform="translate(12.419 35.471)">
        <path id="Trazado_119511" data-name="Trazado 119511" d="M46.932,287.308V282.24a4.3,4.3,0,1,1,8.61,0v5.069h3.883V282.24a8.188,8.188,0,1,0-16.375,0v5.069Z" transform="translate(-39.93 -274.052)" fill="#3675bb"/>
        <path id="Trazado_119512" data-name="Trazado 119512" d="M45.242,287.307v-5.069a8.188,8.188,0,0,1,7.091-8.113,8.177,8.177,0,0,0-9.285,8.112v5.069h2.194Z" transform="translate(-39.929 -274.051)" fill="#2b68b6"/>
        <g id="Grupo_85710" data-name="Grupo 85710" transform="translate(0 13.256)">
          <path id="Trazado_119513" data-name="Trazado 119513" d="M40.268,393.044H20.242a1.294,1.294,0,0,1-1.294-1.294V377.767a1.294,1.294,0,0,1,1.294-1.294H40.268a1.294,1.294,0,0,1,1.294,1.294v13.982A1.294,1.294,0,0,1,40.268,393.044Z" transform="translate(-18.948 -376.473)" fill="#eecf52"/>
        </g>
        <g id="Grupo_85711" data-name="Grupo 85711" transform="translate(0 13.256)">
          <path id="Trazado_119514" data-name="Trazado 119514" d="M24.391,391.749V377.767a1.294,1.294,0,0,1,1.294-1.294H20.242a1.294,1.294,0,0,0-1.294,1.294v13.982a1.294,1.294,0,0,0,1.294,1.294h5.443A1.294,1.294,0,0,1,24.391,391.749Z" transform="translate(-18.948 -376.473)" fill="#e8b800"/>
        </g>
      </g>
      <g id="Grupo_85713" data-name="Grupo 85713" transform="translate(11.448 0)">
        <path id="Trazado_119515" data-name="Trazado 119515" d="M141.513,223.663h5.56a.971.971,0,1,0,0-1.941h-5.56a.971.971,0,1,0,0,1.941Z" transform="translate(-123.833 -193.025)"/>
        <path id="Trazado_119516" data-name="Trazado 119516" d="M141.513,260.011h22.582a.971.971,0,1,0,0-1.941H141.513a.971.971,0,0,0,0,1.941Z" transform="translate(-123.833 -224.668)"/>
        <path id="Trazado_119517" data-name="Trazado 119517" d="M275.491,294.417h-6.02a.971.971,0,1,0,0,1.941h6.02a.971.971,0,0,0,0-1.941Z" transform="translate(-235.23 -256.311)"/>
        <path id="Trazado_119518" data-name="Trazado 119518" d="M73.5,6.518,60.935.238a2.275,2.275,0,0,0-2.025,0L46.345,6.518h0a2.253,2.253,0,0,0-1.252,2.026V10.35H31.452a.971.971,0,0,0,0,1.941H45.093v2.952a24.729,24.729,0,0,0,.319,4.045H29.127a.971.971,0,1,0,0,1.941h16.7a18.99,18.99,0,0,0,.965,2.763H29.127a.971.971,0,1,0,0,1.941H47.784a19.1,19.1,0,0,0,1.121,1.692q.4.542.851,1.071H38.57a.971.971,0,0,0,0,1.941H51.608a43.3,43.3,0,0,0,7.13,5.246,2.26,2.26,0,0,0,2.369,0L61.4,35.7V59.277H36v-1.81a.971.971,0,0,0-1.941,0V64a.324.324,0,0,1-.324.324H13.713A.324.324,0,0,1,13.389,64V50.021a.324.324,0,0,1,.324-.324H33.738a.324.324,0,0,1,.324.324v2.916a.971.971,0,1,0,1.941,0V50.021a2.254,2.254,0,0,0-.074-.564h15.78a.971.971,0,1,0,0-1.941H32.884V44.753H51.709a.971.971,0,1,0,0-1.941H32.843a9.086,9.086,0,0,0-.7-2.763H42.194a.971.971,0,1,0,0-1.941H31a9.141,9.141,0,0,0-11.568-2.536V12.292h7.487a.971.971,0,0,0,0-1.941H19.111a1.62,1.62,0,0,0-1.618,1.618V36.956a9.133,9.133,0,0,0-2.926,6.7v4.1h-.854a2.268,2.268,0,0,0-2.265,2.265V64a2.268,2.268,0,0,0,2.265,2.265H33.738A2.268,2.268,0,0,0,36,64V61.218H61.725A1.62,1.62,0,0,0,63.343,59.6V34.456a29.575,29.575,0,0,0,7.6-6.83,20.029,20.029,0,0,0,3.813-12.383v-6.7A2.253,2.253,0,0,0,73.5,6.518ZM27.06,47.756H20.392v-4.1a3.334,3.334,0,0,1,6.668,0v4.1Zm-10.551-4.1a7.217,7.217,0,1,1,14.434,0v4.1H29v-4.1a5.276,5.276,0,0,0-10.551,0v4.1H16.509Zm56.3-28.415c0,9.329-4.866,14.181-12.717,18.985a.331.331,0,0,1-.342,0c-7.851-4.8-12.717-9.656-12.717-18.985v-6.7a.322.322,0,0,1,.179-.29l12.565-6.28a.325.325,0,0,1,.289,0l12.565,6.28a.322.322,0,0,1,.179.29v6.7Z" transform="translate(-11.448 0)"/>
        <path id="Trazado_119519" data-name="Trazado 119519" d="M319.449,52.13A9.823,9.823,0,1,0,328.7,65.251a.971.971,0,1,0-1.829-.652,7.886,7.886,0,1,1,.332-4.034.971.971,0,0,0,1.912-.34A9.8,9.8,0,0,0,319.449,52.13Z" transform="translate(-271.033 -45.383)"/>
        <path id="Trazado_119520" data-name="Trazado 119520" d="M359.705,105.59l-3.825,3.825-2.224-2.224a.971.971,0,1,0-1.373,1.373l2.91,2.91a.971.971,0,0,0,1.373,0l4.511-4.511a.971.971,0,1,0-1.373-1.373Z" transform="translate(-307.922 -91.676)"/>
      </g>
    </g>
    <rect id="Rectángulo_36802" data-name="Rectángulo 36802" width="86" height="86" transform="translate(915 2361)" fill="none"/>
  </g>
</svg>
