<svg xmlns="http://www.w3.org/2000/svg" xmlns:xlink="http://www.w3.org/1999/xlink" width="295" height="258" viewBox="0 0 295 258">
  <defs>
    <clipPath id="clip-path">
      <rect id="Rectángulo_36602" data-name="Rectángulo 36602" width="266.514" height="246.275" fill="none"/>
    </clipPath>
    <clipPath id="clip-path-5">
      <rect id="Rectángulo_36594" data-name="Rectángulo 36594" width="33.062" height="7.03" fill="none"/>
    </clipPath>
    <clipPath id="clip-path-6">
      <rect id="Rectángulo_36595" data-name="Rectángulo 36595" width="36.393" height="30.169" fill="none"/>
    </clipPath>
    <clipPath id="clip-path-7">
      <rect id="Rectángulo_36596" data-name="Rectángulo 36596" width="58.563" height="102.602" fill="none"/>
    </clipPath>
    <clipPath id="clip-path-8">
      <rect id="Rectángulo_36597" data-name="Rectángulo 36597" width="5.532" height="56.517" fill="none"/>
    </clipPath>
    <clipPath id="clip-path-9">
      <rect id="Rectángulo_36598" data-name="Rectángulo 36598" width="21.89" height="11.01" fill="none"/>
    </clipPath>
    <clipPath id="clip-path-10">
      <rect id="Rectángulo_36599" data-name="Rectángulo 36599" width="3.459" height="3.503" fill="none"/>
    </clipPath>
    <clipPath id="clip-path-11">
      <rect id="Rectángulo_36600" data-name="Rectángulo 36600" width="15.897" height="31.241" fill="none"/>
    </clipPath>
  </defs>
  <g id="Grupo_85793" data-name="Grupo 85793" transform="translate(-915 -1018)">
    <g id="Grupo_85792" data-name="Grupo 85792" transform="translate(943.486 1029.092)">
      <g id="Grupo_85791" data-name="Grupo 85791" clip-path="url(#clip-path)">
        <g id="Grupo_85765" data-name="Grupo 85765">
          <g id="Grupo_85764" data-name="Grupo 85764" clip-path="url(#clip-path)">
            <path id="Trazado_119716" data-name="Trazado 119716" d="M72.481,117.435,114.4,107.44a7.3,7.3,0,0,1,8.813,5.14L138.7,173.151l10.382,4A7.111,7.111,0,0,1,153.449,182L163,219.35a7.018,7.018,0,0,1-5.323,8.51L86.431,244.847Z" transform="translate(-29.947 -44.305)" fill="#e0e0e0"/>
            <path id="Trazado_119717" data-name="Trazado 119717" d="M108.519,204.707,34.076,222.456,7.5,118.508l74.443-17.749Z" transform="translate(-3.1 -41.63)" fill="#f5f5f5"/>
            <path id="Trazado_119718" data-name="Trazado 119718" d="M126.016,226.507,48.042,245.1,20.208,136.22l77.974-18.591Z" transform="translate(-8.349 -48.6)" fill="#fff"/>
            <path id="Trazado_119719" data-name="Trazado 119719" d="M0,130.153,31.5,253.38l83.647-19.944a7.821,7.821,0,0,0,5.931-9.483l-13.835-54.116a9.506,9.506,0,0,0-6.376-6.651l-10.263-3.275L80.557,120.6a9.729,9.729,0,0,0-11.746-6.851Z" transform="translate(0 -46.882)" fill="#ebebeb"/>
            <path id="Trazado_119720" data-name="Trazado 119720" d="M210.814,275.029l-5.561,1.326-9.181-35.912,5.562-1.326Z" transform="translate(-81.01 -98.795)" fill="#ebebeb"/>
            <path id="Trazado_119721" data-name="Trazado 119721" d="M60.4,236.006l-1.015.31A29.287,29.287,0,0,1,70.54,203.26a31.849,31.849,0,0,1,35.809-.594l-.6.848a30.753,30.753,0,0,0-34.575.575A28.279,28.279,0,0,0,60.4,236.006" transform="translate(-23.939 -81.579)" fill="#e0e0e0"/>
            <path id="Trazado_119722" data-name="Trazado 119722" d="M116.842,266.737a31.833,31.833,0,0,1-35.888.542l.6-.847a30.737,30.737,0,0,0,34.653-.523A28.745,28.745,0,0,0,126.768,252a27.849,27.849,0,0,0,.576-16.822l1.029-.268a28.844,28.844,0,0,1-.6,17.421,29.766,29.766,0,0,1-10.934,14.4" transform="translate(-33.447 -97.059)" fill="#e0e0e0"/>
            <path id="Trazado_119723" data-name="Trazado 119723" d="M104.908,216.684a21.465,21.465,0,0,0-20.589,2.292,19.844,19.844,0,0,0-8.382,18.305Z" transform="translate(-31.329 -88.853)" fill="#e0e0e0"/>
            <path id="Trazado_119724" data-name="Trazado 119724" d="M94.892,264.687a21.477,21.477,0,0,0,22.036-1.63,19.813,19.813,0,0,0,8.157-19.836Z" transform="translate(-39.206 -100.49)" fill="#e0e0e0"/>
            <path id="Trazado_119725" data-name="Trazado 119725" d="M66.965,265.638l-1.03-1.351-4.854,3.451,1.03,1.352Z" transform="translate(-25.237 -109.194)" fill="#e0e0e0"/>
            <path id="Trazado_119726" data-name="Trazado 119726" d="M66.368,270.656l6.388,8.379,1.57-1.116-6.388-8.379Z" transform="translate(-27.421 -111.364)" fill="#e0e0e0"/>
            <path id="Trazado_119727" data-name="Trazado 119727" d="M144.474,210.533l-1.03-1.351-4.854,3.451,1.03,1.351Z" transform="translate(-57.26 -86.426)" fill="#e0e0e0"/>
            <path id="Trazado_119728" data-name="Trazado 119728" d="M143.877,215.551l6.388,8.379,1.57-1.116-6.388-8.38Z" transform="translate(-59.445 -88.597)" fill="#e0e0e0"/>
            <path id="Trazado_119729" data-name="Trazado 119729" d="M80.031,269.82c-.408.144-.836,0-1.284-.593l-4.238-5.559c-.449-.589-.469-1.026-.2-1.36l-1.134-1.487c-1.278,1.078-1.33,2.523-.154,4.067L77.1,270.24c1.177,1.545,2.621,1.925,4.067,1.068Z" transform="translate(-29.819 -107.762)" fill="#e0e0e0"/>
            <path id="Trazado_119730" data-name="Trazado 119730" d="M74.808,259.84l1.134,1.488c.409-.144.836,0,1.284.592l4.238,5.56c.449.589.469,1.026.2,1.36l1.134,1.488c1.278-1.078,1.33-2.523.153-4.067l-4.081-5.354c-1.177-1.544-2.621-1.925-4.067-1.066" transform="translate(-30.908 -107.171)" fill="#e0e0e0"/>
            <path id="Trazado_119731" data-name="Trazado 119731" d="M81.582,254.875l-1.433,1.019L88,266.189l1.433-1.019Z" transform="translate(-33.115 -105.305)" fill="#e0e0e0"/>
            <path id="Trazado_119732" data-name="Trazado 119732" d="M83.857,253.353l-.332.236,1.121,1.471.332-.235c.5-.356.95-.313,1.511.423l1.177,1.544c.56.735.468,1.163-.031,1.519l-.332.235,1.121,1.471.332-.236c1.57-1.116,1.657-2.562.4-4.209l-1.02-1.338c-1.256-1.647-2.711-2-4.281-.88" transform="translate(-34.51 -104.409)" fill="#e0e0e0"/>
            <path id="Trazado_119733" data-name="Trazado 119733" d="M113.075,243.738l-1.726,1.228,1.121,1.47,1.726-1.227Z" transform="translate(-46.005 -100.704)" fill="#e0e0e0"/>
            <path id="Trazado_119734" data-name="Trazado 119734" d="M103.757,239.1l-1.452,1.032,7.848,10.295L111.6,249.4Z" transform="translate(-42.269 -98.788)" fill="#e0e0e0"/>
            <path id="Trazado_119735" data-name="Trazado 119735" d="M105.712,237.294l1.121,1.471,2.283-1.624L108,235.671Z" transform="translate(-43.676 -97.371)" fill="#e0e0e0"/>
            <path id="Trazado_119736" data-name="Trazado 119736" d="M118.3,253.8l2.283-1.623-1.121-1.471-2.283,1.623Z" transform="translate(-48.412 -103.583)" fill="#e0e0e0"/>
            <path id="Trazado_119737" data-name="Trazado 119737" d="M120.657,240.9c-.411.158-.836.023-1.29-.573l-4.239-5.56c-.454-.6-.468-1.038-.194-1.373l-1.134-1.488c-1.326,1.08-1.356,2.516-.164,4.081l4.081,5.353c1.193,1.566,2.623,1.964,4.084,1.062Z" transform="translate(-46.594 -95.816)" fill="#e0e0e0"/>
            <path id="Trazado_119738" data-name="Trazado 119738" d="M115.469,230.976l1.133,1.486c.4-.135.825.018,1.268.6l.841,1.1,1.485-1.056-.763-1c-1.16-1.522-2.544-1.939-3.964-1.132" transform="translate(-47.708 -95.264)" fill="#e0e0e0"/>
            <path id="Trazado_119739" data-name="Trazado 119739" d="M125.993,242.508c.443.581.461,1.006.205,1.334l1.143,1.5c1.221-1.069,1.218-2.47.057-3.992l-1.042-1.367-1.485,1.055Z" transform="translate(-51.593 -99.152)" fill="#e0e0e0"/>
            <path id="Trazado_119740" data-name="Trazado 119740" d="M121.975,226.207l-1.333.948,7.848,10.3,1.333-.948Z" transform="translate(-49.845 -93.461)" fill="#e0e0e0"/>
            <path id="Trazado_119741" data-name="Trazado 119741" d="M133.572,231.835l-1.211-1.589c-.819-1.073-1.669-1.67-2.712-1.45.442-.836.244-1.76-.564-2.82l-.617-.809c-1.211-1.588-2.5-1.87-4.132-.713l-.489.348,1.121,1.471.447-.317c.556-.4,1.046-.245,1.606.491l.773,1.015c.628.824.473,1.342-.112,1.758l-.3.216,1.121,1.471.232-.165c.714-.508,1.3-.377,2.026.578l1.234,1.618A4.228,4.228,0,0,0,133.1,234.1l1.6-1.137a4.05,4.05,0,0,1-1.124-1.128" transform="translate(-51.169 -92.444)" fill="#e0e0e0"/>
            <path id="Trazado_119742" data-name="Trazado 119742" d="M131.874,219.108l-1.454,1.034,7.848,10.3,1.454-1.034Z" transform="translate(-53.885 -90.528)" fill="#e0e0e0"/>
            <path id="Trazado_119743" data-name="Trazado 119743" d="M141.191,223.751l-1.724,1.225,1.121,1.471,1.724-1.225Z" transform="translate(-57.623 -92.446)" fill="#e0e0e0"/>
            <path id="Trazado_119744" data-name="Trazado 119744" d="M146.415,233.812l2.28-1.621-1.121-1.471-2.28,1.621Z" transform="translate(-60.03 -95.325)" fill="#e0e0e0"/>
            <path id="Trazado_119745" data-name="Trazado 119745" d="M133.831,217.3l1.121,1.471,2.28-1.621-1.121-1.471Z" transform="translate(-55.294 -89.112)" fill="#e0e0e0"/>
            <path id="Trazado_119746" data-name="Trazado 119746" d="M105.543,259.359c-.432.2-.88.084-1.36-.546l-.56-.735-1.484,1.055.482.632c1.185,1.555,2.6,1.958,4.055,1.079Z" transform="translate(-42.2 -106.628)" fill="#e0e0e0"/>
            <path id="Trazado_119747" data-name="Trazado 119747" d="M98.306,245.44c.411-.158.829,0,1.288.6l.325.427,1.485-1.056-.247-.323c-1.171-1.537-2.558-1.956-3.979-1.126Z" transform="translate(-40.151 -100.623)" fill="#e0e0e0"/>
            <path id="Trazado_119748" data-name="Trazado 119748" d="M96.956,247.723c-.434-.57-.485-.987-.254-1.312l-1.141-1.5c-1.27,1.066-1.276,2.479-.1,4.027,2.242,2.942,5.614,1.157,7.229,3.275.417.546.461.956.251,1.276l1.157,1.518c1.245-1.072,1.252-2.481.083-4.013-2.242-2.941-5.614-1.157-7.229-3.275" transform="translate(-39.083 -101.19)" fill="#e0e0e0"/>
            <path id="Trazado_119749" data-name="Trazado 119749" d="M66.864,250.226l.755-.052c.91-.062,1.461.342,1.524,1.188s-.425,1.322-1.334,1.384l-2.956.2c-.91.062-1.462-.342-1.524-1.188s.425-1.322,1.334-1.384l.552-.038.06.816-.609.042c-.405.028-.548.211-.527.485s.187.437.593.408l3.07-.211c.406-.028.539-.21.519-.485s-.179-.437-.585-.409l-.812.056Z" transform="translate(-26.163 -103.36)" fill="#e0e0e0"/>
            <path id="Trazado_119750" data-name="Trazado 119750" d="M64.851,244.244c-.9-.113-1.359-.637-1.246-1.479a1.257,1.257,0,0,1,1.6-1.124l2.938.367c.9.113,1.359.638,1.246,1.48a1.259,1.259,0,0,1-1.6,1.124Zm3.11-.483c.4.05.58-.1.617-.375s-.094-.463-.5-.514l-3.051-.381c-.4-.05-.58.1-.617.374s.094.464.5.514Z" transform="translate(-26.272 -99.83)" fill="#e0e0e0"/>
            <path id="Trazado_119751" data-name="Trazado 119751" d="M66.978,234.344l3.9,1.315-.266.735-5.379-1.815.37-1.024,3.523.248-3.22-1.086.263-.727,5.379,1.815-.3.839Z" transform="translate(-26.951 -95.849)" fill="#e0e0e0"/>
            <path id="Trazado_119752" data-name="Trazado 119752" d="M71.771,226.446l.59-.959.7.4-.59.96,2.022,1.16-.457.744-4.9-2.809,1.209-1.967.7.4-.752,1.223Z" transform="translate(-28.565 -92.539)" fill="#e0e0e0"/>
            <path id="Trazado_119753" data-name="Trazado 119753" d="M74,219.875l.574-.664,4.374,3.526-.574.664Z" transform="translate(-30.574 -90.57)" fill="#e0e0e0"/>
            <path id="Trazado_119754" data-name="Trazado 119754" d="M78.488,214.732l1.073-.892a1.247,1.247,0,0,1,1.93.191l1.88,2.11a1.156,1.156,0,0,1-.1,1.871L82.2,218.9Zm1.209.032,2.654,2.981.383-.318c.215-.18.249-.394-.015-.692l-1.932-2.17c-.266-.3-.491-.3-.707-.119Z" transform="translate(-32.428 -88.197)" fill="#e0e0e0"/>
            <path id="Trazado_119755" data-name="Trazado 119755" d="M88.316,210.62l1.074-.577.4.687-1.074.577.812,1.408,1.351-.727.4.687-2.134,1.147-2.772-4.808,2.134-1.147.4.687-1.351.726Z" transform="translate(-35.683 -85.883)" fill="#e0e0e0"/>
            <path id="Trazado_119756" data-name="Trazado 119756" d="M96.023,206.492l1.234,3.8-.769.233-1.7-5.252,1.072-.325,1.9,2.878-1.021-3.143.762-.231,1.7,5.252-.878.265Z" transform="translate(-39.161 -84.474)" fill="#e0e0e0"/>
            <path id="Trazado_119757" data-name="Trazado 119757" d="M104.226,203.315l2.753-.272.083.782-.931.092.5,4.692-.891.088-.5-4.692-.931.092Z" transform="translate(-43.063 -83.89)" fill="#e0e0e0"/>
            <path id="Trazado_119758" data-name="Trazado 119758" d="M113.306,203.068l.894.05-.33,5.494-.893-.05Z" transform="translate(-46.678 -83.901)" fill="#e0e0e0"/>
            <path id="Trazado_119759" data-name="Trazado 119759" d="M120.639,209.828l-.88-.2.082-1.007-1.071-.238-.383.94-.8-.178,2.169-5.165,1.276.284Zm-1.585-2.144.841.187.227-2.806Z" transform="translate(-48.582 -84.279)" fill="#e0e0e0"/>
            <path id="Trazado_119760" data-name="Trazado 119760" d="M127.97,206.395l.817.353-2,4.305,1.344.582-.333.718-2.162-.935Z" transform="translate(-51.91 -85.275)" fill="#e0e0e0"/>
            <path id="Trazado_119761" data-name="Trazado 119761" d="M151.115,245.705l-.755.052c-.91.062-1.461-.342-1.524-1.188s.425-1.322,1.334-1.384l2.956-.2c.91-.062,1.462.342,1.524,1.188s-.425,1.322-1.334,1.384l-.552.038-.06-.816.609-.042c.406-.028.548-.211.528-.485s-.187-.437-.593-.408l-3.069.211c-.406.028-.539.21-.519.485s.179.437.585.409l.812-.056Z" transform="translate(-61.491 -100.389)" fill="#e0e0e0"/>
            <path id="Trazado_119762" data-name="Trazado 119762" d="M153.136,251.531c.9.113,1.359.637,1.246,1.479a1.258,1.258,0,0,1-1.6,1.124l-2.938-.368c-.9-.113-1.359-.637-1.246-1.479a1.258,1.258,0,0,1,1.6-1.124Zm-3.11.483c-.4-.051-.58.1-.617.375s.094.463.5.513l3.051.381c.4.05.58-.1.617-.374s-.094-.464-.5-.514Z" transform="translate(-61.39 -103.764)" fill="#e0e0e0"/>
            <path id="Trazado_119763" data-name="Trazado 119763" d="M150.655,260.449l-3.9-1.314.266-.735,5.379,1.815-.37,1.024-3.523-.248,3.22,1.086-.264.727-5.379-1.815.3-.839Z" transform="translate(-60.358 -106.762)" fill="#e0e0e0"/>
            <path id="Trazado_119764" data-name="Trazado 119764" d="M146.538,268.086l-.59.959-.7-.4.59-.96-2.023-1.16.457-.744,4.9,2.809-1.209,1.967-.7-.4.752-1.224Z" transform="translate(-59.419 -109.811)" fill="#e0e0e0"/>
            <path id="Trazado_119765" data-name="Trazado 119765" d="M144.6,275.069l-.574.664-4.374-3.526.574-.664Z" transform="translate(-57.698 -112.192)" fill="#e0e0e0"/>
            <path id="Trazado_119766" data-name="Trazado 119766" d="M139.85,279.334l-1.074.892a1.248,1.248,0,0,1-1.93-.191l-1.879-2.11a1.155,1.155,0,0,1,.094-1.871l1.074-.892Zm-1.209-.032-2.654-2.98-.383.317c-.216.18-.25.394.015.692l1.932,2.17c.265.3.491.3.707.119Z" transform="translate(-55.586 -113.687)" fill="#e0e0e0"/>
            <path id="Trazado_119767" data-name="Trazado 119767" d="M130.311,283.081l-1.074.577-.4-.687,1.074-.577-.812-1.408-1.351.727-.4-.687,2.134-1.147,2.772,4.808-2.134,1.147-.4-.687,1.351-.727Z" transform="translate(-52.619 -115.636)" fill="#e0e0e0"/>
            <path id="Trazado_119768" data-name="Trazado 119768" d="M122.949,287.127l-1.234-3.8.769-.233,1.7,5.252-1.072.325-1.9-2.878,1.02,3.143-.761.231-1.7-5.252.878-.265Z" transform="translate(-49.486 -116.963)" fill="#e0e0e0"/>
            <path id="Trazado_119769" data-name="Trazado 119769" d="M115.857,290.6l-2.753.272-.083-.782.931-.093-.5-4.692.891-.088.5,4.692.931-.092Z" transform="translate(-46.696 -117.841)" fill="#e0e0e0"/>
            <path id="Trazado_119770" data-name="Trazado 119770" d="M107.912,290.923l-.894-.05.33-5.494.893.05Z" transform="translate(-44.216 -117.909)" fill="#e0e0e0"/>
            <path id="Trazado_119771" data-name="Trazado 119771" d="M99.015,283.951l.88.2-.082,1.006,1.071.238.383-.94.8.178L99.9,289.8l-1.277-.284Zm1.585,2.144-.841-.187-.227,2.806Z" transform="translate(-40.748 -117.319)" fill="#e0e0e0"/>
            <path id="Trazado_119772" data-name="Trazado 119772" d="M91.893,287.305l-.817-.353,2-4.3-1.344-.582.333-.718,2.162.935Z" transform="translate(-37.629 -116.243)" fill="#e0e0e0"/>
            <path id="Trazado_119773" data-name="Trazado 119773" d="M19.534,150.6l1.938,7.58-1.532.365-2.676-10.466,2.137-.509,3.351,5.847-1.6-6.264,1.517-.362,2.675,10.466-1.749.417Z" transform="translate(-7.133 -60.65)" fill="#e0e0e0"/>
            <path id="Trazado_119774" data-name="Trazado 119774" d="M29.034,147.543a1.512,1.512,0,0,1,1.217-2.051,1.568,1.568,0,0,1,2.066,1.268l.593,2.317a1.512,1.512,0,0,1-1.217,2.051,1.568,1.568,0,0,1-2.065-1.269Zm1.692,2.118c.122.478.365.594.721.51.341-.082.516-.3.393-.775l-.623-2.438c-.121-.478-.381-.591-.722-.509s-.515.3-.393.775Zm2.764,1.688.263,1.032-3.282.783-.264-1.033Z" transform="translate(-11.963 -60.084)" fill="#e0e0e0"/>
            <path id="Trazado_119775" data-name="Trazado 119775" d="M94.88,114.09,107.571,137.8l-30.706,15.33L64.175,129.42Z" transform="translate(-26.515 -47.138)" fill="#fafafa"/>
            <path id="Trazado_119776" data-name="Trazado 119776" d="M94.8,114.09s-.05.029-.147.079l-.428.219-1.663.842-6.275,3.159L64.131,129.5l.039-.117,12.7,23.7,0,0-.135-.041,30.713-15.316-.036.109-9.166-17.213-2.554-4.815-.67-1.272c-.151-.289-.227-.444-.227-.444s.082.139.235.42l.68,1.251,2.583,4.78,9.267,17.22.039.072-.075.037-30.7,15.345-.089.044-.046-.086v0L64.01,129.46l-.041-.077.08-.04,22.243-11.057,6.279-3.109,1.658-.816.424-.207c.1-.045.142-.065.142-.065" transform="translate(-26.43 -47.138)" fill="#e0e0e0"/>
            <path id="Trazado_119777" data-name="Trazado 119777" d="M78.433,152.543l28.548-14.253L95.889,117.568,67.34,131.82Z" transform="translate(-27.823 -48.575)" fill="#f5f5f5"/>
            <path id="Trazado_119778" data-name="Trazado 119778" d="M86.243,163.59l3.076-17.859,10.491,4.975,1.883-6.4,13.1,5.03Z" transform="translate(-35.633 -59.623)" fill="#ebebeb"/>
            <path id="Trazado_119779" data-name="Trazado 119779" d="M101.674,135.629a2.4,2.4,0,0,1-1.086,3.293,2.575,2.575,0,0,1-3.41-1.049,2.4,2.4,0,0,1,1.086-3.293,2.575,2.575,0,0,1,3.41,1.049" transform="translate(-40.034 -55.491)" fill="#ebebeb"/>
            <path id="Trazado_119780" data-name="Trazado 119780" d="M96.34,126.012a3.663,3.663,0,0,1-3.564-2.71l-1.9-7.443a.821.821,0,0,1,1.591-.407l1.9,7.443a2.036,2.036,0,0,0,2.463,1.417A2,2,0,0,0,98.1,123.4a1.84,1.84,0,0,0,.212-1.417l-2.344-9.17a3.444,3.444,0,0,0-4.161-2.407,3.392,3.392,0,0,0-2.142,1.544,3.15,3.15,0,0,0-.363,2.425l.058.224a.821.821,0,0,1-1.591.408l-.057-.224a4.78,4.78,0,0,1,.548-3.681,5.022,5.022,0,0,1,3.167-2.293,5.093,5.093,0,0,1,6.134,3.6l2.344,9.169a3.47,3.47,0,0,1-.4,2.674,3.631,3.631,0,0,1-2.291,1.66,3.77,3.77,0,0,1-.871.1" transform="translate(-36.175 -44.897)" fill="#e0e0e0"/>
            <path id="Trazado_119781" data-name="Trazado 119781" d="M319,346.735v24.074H314.98v2.613H319v16.112h75.132V374.873h-5.565V371.68h5.565v-4.79H396.6v-2.177h-2.937V346.735Z" transform="translate(-130.139 -143.259)" fill="#f5f5f5"/>
            <path id="Trazado_119782" data-name="Trazado 119782" d="M415.859,346.806v42.46h19.952v-14.66h-5.565V371.68l5.565.1v-4.79l2.522,0-.048-2.475-2.937-.072V346.736Z" transform="translate(-171.818 -143.259)" fill="#e0e0e0"/>
            <path id="Trazado_119783" data-name="Trazado 119783" d="M375.526,391.433c0,.147-13.6.267-30.362.267s-30.365-.12-30.365-.267,13.593-.267,30.365-.267,30.362.12,30.362.267" transform="translate(-130.064 -161.616)" fill="#e0e0e0"/>
            <path id="Trazado_119784" data-name="Trazado 119784" d="M375.526,387.266c0,.147-13.6.267-30.362.267s-30.365-.12-30.365-.267S328.392,387,345.164,387s30.362.119,30.362.266" transform="translate(-130.064 -159.895)" fill="#e0e0e0"/>
            <path id="Trazado_119785" data-name="Trazado 119785" d="M382.172,376.051c0,.147-13.6.267-30.362.267s-30.365-.12-30.365-.267,13.592-.266,30.365-.266,30.362.119,30.362.266" transform="translate(-132.81 -155.261)" fill="#e0e0e0"/>
            <path id="Trazado_119786" data-name="Trazado 119786" d="M382.811,406.612c0,.147-13.6.267-30.362.267s-30.365-.12-30.365-.267,13.592-.266,30.365-.266,30.362.119,30.362.266" transform="translate(-133.074 -167.888)" fill="#e0e0e0"/>
            <path id="Trazado_119787" data-name="Trazado 119787" d="M38.173,379.208v12.741h-5.1v1.383h5.1v8.527H133.5V394.1h-7.061v-1.69H133.5v-2.535h3.138v-1.153h-3.726v-9.514Z" transform="translate(-13.664 -156.675)" fill="#f5f5f5"/>
            <path id="Trazado_119788" data-name="Trazado 119788" d="M161.072,379.245v22.472h25.315v-7.759h-7.062V392.41l7.062.052v-2.535l3.2,0-.061-1.31-3.727-.038v-9.372Z" transform="translate(-66.549 -156.675)" fill="#e0e0e0"/>
            <path id="Trazado_119789" data-name="Trazado 119789" d="M109.9,402.863c0,.078-17.25.141-38.524.141s-38.528-.063-38.528-.141,17.247-.141,38.528-.141,38.524.063,38.524.141" transform="translate(-13.57 -166.391)" fill="#e0e0e0"/>
            <path id="Trazado_119790" data-name="Trazado 119790" d="M109.9,400.658c0,.078-17.25.141-38.524.141s-38.528-.063-38.528-.141,17.247-.141,38.528-.141,38.524.063,38.524.141" transform="translate(-13.57 -165.479)" fill="#e0e0e0"/>
            <path id="Trazado_119791" data-name="Trazado 119791" d="M118.329,394.723c0,.078-17.25.141-38.524.141s-38.528-.063-38.528-.141,17.246-.141,38.528-.141,38.524.063,38.524.141" transform="translate(-17.054 -163.027)" fill="#e0e0e0"/>
            <path id="Trazado_119792" data-name="Trazado 119792" d="M119.14,410.9c0,.078-17.25.141-38.524.141s-38.529-.063-38.529-.141,17.246-.141,38.529-.141,38.524.063,38.524.141" transform="translate(-17.389 -169.71)" fill="#e0e0e0"/>
          </g>
        </g>
        <g id="Grupo_85767" data-name="Grupo 85767">
          <g id="Grupo_85766" data-name="Grupo 85766" clip-path="url(#clip-path)">
            <path id="Trazado_119793" data-name="Trazado 119793" d="M271.2,418.467c0,.084-56.681.153-126.585.153-69.928,0-126.6-.068-126.6-.153s56.67-.153,126.6-.153c69.9,0,126.585.068,126.585.153" transform="translate(-7.442 -172.833)" fill="#263238"/>
          </g>
        </g>
        <g id="Grupo_85790" data-name="Grupo 85790">
          <g id="Grupo_85789" data-name="Grupo 85789" clip-path="url(#clip-path)">
            <path id="Trazado_119794" data-name="Trazado 119794" d="M148.093.015c-8.333-.306-16.661,3.992-20.449,10.552a17.932,17.932,0,0,0,2.345,20.807c-4.1,1.729-5.659,6.948-3.054,10.237s8.692,3.79,11.94.981c-1.952,3.667.2,8.388,4.134,10.47s9.1,1.778,13.184-.075a23.548,23.548,0,0,0,9.544-8.54l1.742-32.418C164.321,5.215,156.426.322,148.093.015" transform="translate(-51.787 0)" fill="#263238"/>
            <path id="Trazado_119795" data-name="Trazado 119795" d="M157.837,54.709a9.853,9.853,0,0,1,.44-12.74c-1.918-2.217-1.384-5.759.4-8.082s4.515-3.714,7.149-5.03c1.233-6.726,8.648-11.684,15.424-10.314,3.319-5.207,10.748-6.264,16.784-4.751a16.091,16.091,0,0,0,4.472.8,26.172,26.172,0,0,0,3.294-.568c6.05-1.019,12.233,3,14.8,8.508a11.062,11.062,0,0,0,1.383,2.557,15.248,15.248,0,0,0,3.089,2.268,9.574,9.574,0,0,1,3.971,6.964c.183,2.329-.481,4.831.589,6.915.536,1.045,1.466,1.871,1.894,2.963,1.239,3.166-2.24,6.567-1.455,9.872.16.674.492,1.3.707,1.955a5.859,5.859,0,0,1-.218,4.151c-.445,1-1.186,1.928-1.212,3.021a9.5,9.5,0,0,0,.577,2.41c.482,1.972-3.583,9.783-5.281,10.923L172.763,78.8a9.642,9.642,0,0,1-7.8-7.992,3.482,3.482,0,0,0-.551-1.87,4.164,4.164,0,0,0-1.449-.861c-3.4-1.657-3.969-6.178-3.75-9.922a4.5,4.5,0,0,0-.085-1.565,5.731,5.731,0,0,0-1.293-1.88" transform="translate(-64.335 -5.437)" fill="#263238"/>
            <path id="Trazado_119796" data-name="Trazado 119796" d="M187.776,63.42c-.476-9.072,3.074-19.833,12.041-24.59,5.652-3,10.138-3.172,13.15-3.626A21.242,21.242,0,0,1,225.3,37.316c2.884.565,13.7,9.687,14.616,19.962,1.012,11.415,1.792,25.391.632,33.954-2.332,17.219-17.1,19.78-17.1,19.78,0-.026-.09,11.169-.09,11.169-8.256,12.541-22.952,13.14-32.674,1.73Z" transform="translate(-77.565 -14.461)" fill="#ffc09d"/>
            <path id="Trazado_119797" data-name="Trazado 119797" d="M235.627,125.67a3.346,3.346,0,0,1,1.007-2.161,3.511,3.511,0,0,1,4.188-.567c1.345.769,1.626,2.233,1.519,3.91-.638,1.028-1.087,2.032-2.291,2.231a5.222,5.222,0,0,1-.566.063,3.834,3.834,0,0,1-2.636-.8,3.335,3.335,0,0,1-1.221-2.676" transform="translate(-97.351 -50.609)" fill="#ff9b6c"/>
            <path id="Trazado_119798" data-name="Trazado 119798" d="M261.932,95.74a2.21,2.21,0,0,1-2.091,2.272,2.123,2.123,0,0,1-2.344-1.928,2.212,2.212,0,0,1,2.089-2.273,2.124,2.124,0,0,1,2.346,1.929" transform="translate(-106.387 -38.756)" fill="#263238"/>
            <path id="Trazado_119799" data-name="Trazado 119799" d="M263.943,82.788c-.269.294-1.986-.9-4.381-.835-2.393.03-4.121,1.29-4.388,1.007-.131-.126.138-.65.889-1.219a6.159,6.159,0,0,1,3.5-1.161,5.921,5.921,0,0,1,3.5,1.023c.751.541,1.013,1.054.88,1.185" transform="translate(-105.415 -33.292)" fill="#263238"/>
            <path id="Trazado_119800" data-name="Trazado 119800" d="M245.914,102.907a16.057,16.057,0,0,1,3.873-.788c.61-.077,1.186-.211,1.279-.626a3.044,3.044,0,0,0-.453-1.782q-.916-2.173-1.922-4.56c-2.674-6.492-4.625-11.837-4.36-11.941s2.648,5.074,5.322,11.567q.967,2.4,1.847,4.588a3.469,3.469,0,0,1,.376,2.365,1.529,1.529,0,0,1-.984.908,4.209,4.209,0,0,1-1.036.168,15.749,15.749,0,0,1-3.942.1" transform="translate(-100.939 -34.379)" fill="#263238"/>
            <path id="Trazado_119801" data-name="Trazado 119801" d="M232.16,160.516a44.783,44.783,0,0,1-23.473-5.56s5.924,12.172,23.255,10.147Z" transform="translate(-86.222 -64.022)" fill="#ff9b6c"/>
            <path id="Trazado_119802" data-name="Trazado 119802" d="M260.837,66.9c-.388.587-2.232.245-4.371.474-2.145.16-3.9.828-4.384.319-.217-.249,0-.819.732-1.418a6.879,6.879,0,0,1,7.054-.639c.822.459,1.137.979.968,1.264" transform="translate(-104.119 -26.836)" fill="#263238"/>
            <path id="Trazado_119803" data-name="Trazado 119803" d="M219.251,95.932a2.215,2.215,0,0,0,2.282,2.084A2.117,2.117,0,0,0,223.7,95.9a2.217,2.217,0,0,0-2.279-2.086,2.119,2.119,0,0,0-2.17,2.121" transform="translate(-90.587 -38.759)" fill="#263238"/>
            <path id="Trazado_119804" data-name="Trazado 119804" d="M214.3,85.456c.293.27,1.9-1.065,4.292-1.2,2.387-.174,4.218.935,4.459.629.12-.136-.194-.636-.992-1.139a6.174,6.174,0,0,0-3.593-.858,5.9,5.9,0,0,0-3.394,1.317c-.7.6-.917,1.136-.773,1.256" transform="translate(-88.525 -34.239)" fill="#263238"/>
            <path id="Trazado_119805" data-name="Trazado 119805" d="M213.708,69.534c.5.508,2.315-.162,4.532-.324,2.211-.231,4.12.109,4.517-.478.173-.285-.157-.8-1.009-1.262A6.929,6.929,0,0,0,218,66.816a6.826,6.826,0,0,0-3.549,1.3c-.749.6-.972,1.168-.748,1.418" transform="translate(-88.262 -27.594)" fill="#263238"/>
            <path id="Trazado_119806" data-name="Trazado 119806" d="M181.468,107.6c-.035-1.278-1.6-4.253-2.884-4.419-3.422-.442-9.559-.024-9.4,8.533.211,11.7,12.3,9,12.315,8.665.012-.262.094-8.369-.026-12.779" transform="translate(-69.898 -42.582)" fill="#ffc09d"/>
            <path id="Trazado_119807" data-name="Trazado 119807" d="M180.269,119.022c-.052-.036-.2.146-.549.31a2.084,2.084,0,0,1-1.541.059c-1.259-.431-2.347-2.375-2.442-4.482a6.661,6.661,0,0,1,.523-2.928,2.366,2.366,0,0,1,1.523-1.59,1.054,1.054,0,0,1,1.226.536c.165.325.093.56.157.578.033.029.251-.2.147-.681a1.3,1.3,0,0,0-.479-.725,1.571,1.571,0,0,0-1.146-.278,2.887,2.887,0,0,0-2.121,1.851,6.849,6.849,0,0,0-.656,3.273c.118,2.356,1.378,4.539,3.1,5a2.228,2.228,0,0,0,1.88-.343c.362-.295.418-.557.377-.578" transform="translate(-72.265 -45.368)" fill="#ff9b6c"/>
            <path id="Trazado_119808" data-name="Trazado 119808" d="M237.015,53.516c-2.428-1.418-4-3.389-3.927-6.175-1.574.505-3.234-1.472-4.194-2.8s-2.109-1.989-2.08-3.624a1.835,1.835,0,0,0-.143-.946,2.011,2.011,0,0,0-1.312-.714A7.884,7.884,0,0,1,220,33.938a16.941,16.941,0,0,1-8.075,1.524,6.451,6.451,0,0,1-10.858-.2,5.737,5.737,0,0,1-3.775,2.9,17.211,17.211,0,0,1-4.9.386,6.7,6.7,0,0,1-4.274,7.706c-.418.138-.9.277-1.085.672-.192.412.042.88.216,1.3a5.268,5.268,0,0,1-3.407,6.81,3.909,3.909,0,0,1-.2,6.176c-.424.268-.978.591-.9,1.082a1.106,1.106,0,0,0,.272.492,7.632,7.632,0,0,1,1.965,3.819c.143,1.441-.8,3.087-2.265,3.186a3.742,3.742,0,0,1,1.569,2.525c.043,1.016-.971,2.077-1.939,1.734-.412-.146-6.333-1.144-6.6-1.485-3.462-4.409.623-9.477.812-15.054a35.967,35.967,0,0,1,4.713-15.926,26.528,26.528,0,0,1,4.059-5.74,35.7,35.7,0,0,1,6.385-4.9c2.944-1.912,5.972-3.824,9.379-4.708,6.347-1.648,13.041.48,19.066,3.052a27.882,27.882,0,0,1,6.523,3.586,24.966,24.966,0,0,1,5.594,6.855A30.79,30.79,0,0,1,236.861,51.6" transform="translate(-72.037 -10.601)" fill="#263238"/>
            <path id="Trazado_119809" data-name="Trazado 119809" d="M231.442,44.084a4.446,4.446,0,0,0-.671-1.238c-.261-.383-.627-.826-.977-1.4a5.4,5.4,0,0,1-.721-2.167,16.8,16.8,0,0,1-.025-2.894,12.7,12.7,0,0,0-.185-3.469,9.7,9.7,0,0,0-3.153-5.261,14.446,14.446,0,0,0-1.906-1.326,7.339,7.339,0,0,1-1.839-1.486,9.422,9.422,0,0,1-1.18-2.172,15.256,15.256,0,0,0-2.995-4.446,15.417,15.417,0,0,0-4.678-3.367,14.224,14.224,0,0,0-2.877-.984,12.884,12.884,0,0,0-3.119-.267,14.8,14.8,0,0,0-1.591.167c-.527.1-1.046.219-1.567.325a7.71,7.71,0,0,1-3.162.086c-1.065-.178-2.114-.529-3.214-.769a21.025,21.025,0,0,0-6.839-.438,18.193,18.193,0,0,0-3.454.723,11.674,11.674,0,0,0-5.853,4.042l-.423.587.187-.079a13.387,13.387,0,0,0-10.133,2.3,13.01,13.01,0,0,0-5.493,8.155l.09-.12a37.524,37.524,0,0,0-4.09,2.273,12.421,12.421,0,0,0-3.306,3.083,7.968,7.968,0,0,0-1.431,4.077,5.484,5.484,0,0,0,1.238,3.924l.005-.2a9.626,9.626,0,0,0-2.562,6.076,9.826,9.826,0,0,0,1.388,5.778,9.589,9.589,0,0,0,.817,1.137,12.6,12.6,0,0,1,.843,1.022,2.478,2.478,0,0,1,.452,1.136,6.988,6.988,0,0,1,0,1.214,18.962,18.962,0,0,0,.246,4.436,9.227,9.227,0,0,0,1.256,3.347,5.776,5.776,0,0,0,1.891,1.849c.621.382,1.166.522,1.472.731a2.68,2.68,0,0,1,.44.341,1.366,1.366,0,0,0-.415-.379c-.3-.225-.85-.381-1.45-.768a5.744,5.744,0,0,1-1.827-1.843,9.154,9.154,0,0,1-1.2-3.308,18.967,18.967,0,0,1-.207-4.394,7.177,7.177,0,0,0,.008-1.252,2.7,2.7,0,0,0-.48-1.233,12.713,12.713,0,0,0-.852-1.046,9.287,9.287,0,0,1-.789-1.112,9.59,9.59,0,0,1-1.324-5.638,9.363,9.363,0,0,1,2.507-5.891l.092-.1-.087-.1a5.185,5.185,0,0,1-1.154-3.716,7.657,7.657,0,0,1,1.386-3.912,12.118,12.118,0,0,1,3.227-2.993,37.524,37.524,0,0,1,4.057-2.245l.076-.038.015-.082a12.683,12.683,0,0,1,5.361-7.93,13.044,13.044,0,0,1,9.859-2.242l.114.023.073-.1.409-.567a11.321,11.321,0,0,1,5.676-3.917,17.851,17.851,0,0,1,3.38-.709,20.672,20.672,0,0,1,6.722.424c1.081.234,2.138.586,3.235.768a8.286,8.286,0,0,0,1.66.126,9.947,9.947,0,0,0,1.627-.219c.528-.108,1.045-.233,1.559-.326a14.427,14.427,0,0,1,1.545-.165,12.516,12.516,0,0,1,3.036.252,13.929,13.929,0,0,1,2.813.954,15.524,15.524,0,0,1,7.554,7.642,9.646,9.646,0,0,0,1.226,2.226,7.563,7.563,0,0,0,1.909,1.533,14.256,14.256,0,0,1,1.884,1.295,9.422,9.422,0,0,1,1.473,1.57,9.519,9.519,0,0,1,1.642,3.554,12.6,12.6,0,0,1,.21,3.421,16.738,16.738,0,0,0,.058,2.919,5.472,5.472,0,0,0,.768,2.2c.366.576.741,1.011,1.009,1.385a6.876,6.876,0,0,1,.566.879c.111.208.154.322.163.318" transform="translate(-64.247 -5.318)" fill="#455a64"/>
            <path id="Trazado_119810" data-name="Trazado 119810" d="M208.58,16.538c.019.026.308-.185.875-.479a8.014,8.014,0,0,1,2.559-.813,7.564,7.564,0,0,1,3.9.455,7.7,7.7,0,0,1,3.627,3.073,6.462,6.462,0,0,1,.625,1.307,1.448,1.448,0,0,1-.052,1.234l-.278.4.474-.146a4.95,4.95,0,0,1,3.671.332,4.694,4.694,0,0,1,2.066,2.11,5.057,5.057,0,0,1,.515,1.914c.029.468,0,.726.026.729.011,0,.027-.062.049-.185a3.2,3.2,0,0,0,.045-.548,4.759,4.759,0,0,0-.434-2,4.834,4.834,0,0,0-2.127-2.279,5.206,5.206,0,0,0-3.915-.4l.2.259a1.771,1.771,0,0,0,.1-1.528,6.663,6.663,0,0,0-.658-1.387,7.9,7.9,0,0,0-3.809-3.192,7.637,7.637,0,0,0-4.067-.4,7.452,7.452,0,0,0-2.587.94,5.1,5.1,0,0,0-.616.422c-.133.107-.2.168-.191.177" transform="translate(-86.178 -6.151)" fill="#455a64"/>
            <path id="Trazado_119811" data-name="Trazado 119811" d="M176.494,41.457c-.014.016.131.167.425.407a7.676,7.676,0,0,0,1.364.883,5.7,5.7,0,0,0,2.38.636,4.262,4.262,0,0,0,2.914-.957l-.263-.032.36.471c.131.153.276.3.417.45a7.181,7.181,0,0,0,3.006,1.739,7.417,7.417,0,0,0,2.829.273,6.56,6.56,0,0,0,1.853-.47,2.328,2.328,0,0,0,.608-.343,10.312,10.312,0,0,1-2.482.565,7.579,7.579,0,0,1-2.712-.336,7.087,7.087,0,0,1-2.851-1.678c-.132-.144-.271-.281-.394-.424l-.342-.443-.121-.157-.142.124a4.017,4.017,0,0,1-2.674.908,5.743,5.743,0,0,1-2.283-.536c-1.224-.57-1.854-1.131-1.891-1.08" transform="translate(-72.921 -17.127)" fill="#455a64"/>
            <path id="Trazado_119812" data-name="Trazado 119812" d="M166.346,59.314c-.012,0,0,.076.035.215a1.992,1.992,0,0,0,.279.559,3.16,3.16,0,0,0,1.941,1.2,6.087,6.087,0,0,0,3.37-.454,19.3,19.3,0,0,0,1.847-.778,3.222,3.222,0,0,0,1.594-1.516l.069-.19-.277.092a13.614,13.614,0,0,0,3.567,1.988,6.172,6.172,0,0,0,3.333.249,4.42,4.42,0,0,0,2.022-.975,2.693,2.693,0,0,0,.416-.444c.082-.113.119-.174.11-.182-.025-.021-.2.209-.613.522a4.624,4.624,0,0,1-1.984.837,6.086,6.086,0,0,1-3.175-.312,13.908,13.908,0,0,1-3.463-1.967l-.193-.141-.084.232-.057.158a2.915,2.915,0,0,1-1.427,1.343c-.594.306-1.221.548-1.8.78a6.013,6.013,0,0,1-3.2.513A3.151,3.151,0,0,1,166.771,60a5.113,5.113,0,0,1-.425-.691" transform="translate(-68.726 -23.971)" fill="#455a64"/>
            <path id="Trazado_119813" data-name="Trazado 119813" d="M234.836,124.169c.283-.19,1.455,1.744,3.962,2.13s4.463-1.056,4.641-.795c.1.106-.238.65-1.1,1.194a5.74,5.74,0,0,1-3.809.773,4.954,4.954,0,0,1-3.2-1.86c-.563-.766-.634-1.374-.494-1.442" transform="translate(-97 -51.297)" fill="#263238"/>
            <path id="Trazado_119814" data-name="Trazado 119814" d="M180.881,138.561a4.554,4.554,0,0,1-4.522-4.576,4.609,4.609,0,0,1,1.1-2.99l.447.381a4.018,4.018,0,0,0-.958,2.608A3.936,3.936,0,1,0,180.881,130v-.587a4.576,4.576,0,0,1,0,9.152" transform="translate(-72.865 -53.467)" fill="#455a64"/>
            <path id="Trazado_119815" data-name="Trazado 119815" d="M285.284,263.684c1.054,0,38.728-7.563,38.728-7.563s-10.267-58.2-29.954-61.379L282.65,242.072l1.317,21.612Z" transform="translate(-116.781 -80.461)" fill="#61c79b"/>
            <path id="Trazado_119816" data-name="Trazado 119816" d="M240.862,256.312c4.475-23-2.285-37.038-2.285-37.038l-4.753-32.595-25.911-5.3s-4.252,7.82-20.049,7.6c-8.24-.113-18.811-13.758-18.811-13.758l-23.317,6.154,5.351,89.819s-6.611,25.154-14.225,46.832L244,318.32c-1.86-11.022-9.534-45.087-9.534-45.087,2.1-5.169,5.859-12.23,6.4-16.921" transform="translate(-56.547 -72.398)" fill="#13b770"/>
            <g id="Grupo_85770" data-name="Grupo 85770" transform="translate(147.996 207.951)" opacity="0.3">
              <g id="Grupo_85769" data-name="Grupo 85769">
                <g id="Grupo_85768" data-name="Grupo 85768" clip-path="url(#clip-path-5)">
                  <path id="Trazado_119817" data-name="Trazado 119817" d="M252.193,355.97l1.113,5.42h31.949l-1.55-7.03Z" transform="translate(-252.193 -354.36)"/>
                </g>
              </g>
            </g>
            <path id="Trazado_119818" data-name="Trazado 119818" d="M295.287,219.1a.9.9,0,0,1,.088.168l.231.506.871,1.953c.759,1.694,1.895,4.13,3.3,7.138s3.075,6.6,4.676,10.7c.791,2.051,1.557,4.232,2.2,6.541a40.063,40.063,0,0,1,1.263,7.3,72.393,72.393,0,0,1-.292,14.291,89.837,89.837,0,0,1-2.028,11.5,54.659,54.659,0,0,1-2.353,7.51c-.323.872-.655,1.516-.862,1.959l-.244.5a.1.1,0,1,1-.028-.014l.216-.512c.189-.451.5-1.1.807-1.976a58.778,58.778,0,0,0,2.254-7.518,92.769,92.769,0,0,0,1.957-11.476,73.332,73.332,0,0,0,.268-14.234,40.079,40.079,0,0,0-1.248-7.25c-.632-2.3-1.388-4.472-2.171-6.52-1.582-4.091-3.237-7.683-4.61-10.706s-2.488-5.471-3.214-7.181c-.367-.853-.638-1.522-.819-1.976l-.2-.518a.9.9,0,0,1-.059-.181" transform="translate(-122.002 -90.523)" fill="#263238"/>
            <path id="Trazado_119819" data-name="Trazado 119819" d="M117.048,288.684s-2.325,6.649,14.61,5.253,21.675-12.02,21.675-12.02l-3.361-12.909-21.661-5.049-9.058,7.442Z" transform="translate(-48.316 -109.059)" fill="#455a64"/>
            <g id="Grupo_85773" data-name="Grupo 85773" transform="translate(68.625 154.902)" opacity="0.3">
              <g id="Grupo_85772" data-name="Grupo 85772">
                <g id="Grupo_85771" data-name="Grupo 85771" clip-path="url(#clip-path-6)">
                  <path id="Trazado_119820" data-name="Trazado 119820" d="M117.048,288.684s-2.325,6.649,14.61,5.253,21.675-12.02,21.675-12.02l-3.361-12.909-21.661-5.049-9.058,7.442Z" transform="translate(-116.94 -263.961)"/>
                </g>
              </g>
            </g>
            <g id="Grupo_85776" data-name="Grupo 85776" transform="translate(90.932 115.43)" opacity="0.3">
              <g id="Grupo_85775" data-name="Grupo 85775">
                <g id="Grupo_85774" data-name="Grupo 85774" clip-path="url(#clip-path-7)">
                  <path id="Trazado_119821" data-name="Trazado 119821" d="M212.245,197.739c-1.6-1.88-5.614-1.086-5.367,1.386L154.952,292.14c7.985,4.734,17.5,9.412,26.108,5.982,8.364-3.332,12.248-12.893,15.042-21.545a437.359,437.359,0,0,0,17.154-71.7c.354-2.458.592-5.259-1.011-7.139" transform="translate(-154.953 -196.699)"/>
                </g>
              </g>
            </g>
            <path id="Trazado_119822" data-name="Trazado 119822" d="M117.331,232.392c0,1.156,14.752,44.118,18.046,53.425,4.359,12.319,23.566,19.535,33.569,5.456C179.8,276,196.354,210.7,196.354,210.7l-15.065-6.191-26.727,54.033-14.4-55.215Z" transform="translate(-48.477 -84.008)" fill="#ffc09d"/>
            <path id="Trazado_119823" data-name="Trazado 119823" d="M239.436,180.211s3.816-7.639,4.037-8c.055-.091-.174-.248-.067-.168a2.027,2.027,0,0,0,2.375-.087c1.778-1.282,4.793-3.223,5.358-4.647a5.516,5.516,0,0,0,2.311-4.114c.249-2.854.6-9.385.6-9.385s2.888-1.054,2.683-3.536-4.046-1.867-4.046-1.867-.69-2.938-2.819-3.571-9.73-.474-9.73-.474-.241-10.045-.389-14.208a14.73,14.73,0,0,0-1.572-6.595,1.961,1.961,0,0,0-3.685.718,24.669,24.669,0,0,0,.069,5.018c.592,5.893-2.9,16.8-3.243,17.168s-4.081,3.7-3.942,7.611-1.705,15.622-4.429,21.292" transform="translate(-92.115 -50.617)" fill="#ffc09d"/>
            <path id="Trazado_119824" data-name="Trazado 119824" d="M222.949,175.259s.039-.114.129-.33.233-.532.4-.956c.322-.852.778-2.115,1.242-3.782s.956-3.726,1.412-6.139a71.7,71.7,0,0,0,1.1-8.264c.014-.384.039-.775.04-1.168s-.005-.79.008-1.207a7.657,7.657,0,0,1,.572-2.442,13.753,13.753,0,0,1,3.013-4.337l.242-.242.117-.119.062-.124c.082-.192.17-.413.242-.628.155-.433.295-.877.436-1.324q.414-1.345.783-2.749c.491-1.871.936-3.816,1.268-5.829a27.294,27.294,0,0,0,.417-6.22c-.093-1.065-.183-2.154-.179-3.253,0-.55.018-1.1.064-1.658a2.4,2.4,0,0,1,.621-1.609,2.151,2.151,0,0,1,1.639-.615,2.082,2.082,0,0,1,1.553.833,10.852,10.852,0,0,1,1.288,3.221,18.251,18.251,0,0,1,.475,3.465q.05,1.749.1,3.52c.1,3.729.2,7.388.3,10.946l-.154-.147c2.53-.034,5.01-.028,7.435.146.606.05,1.208.107,1.806.216a3.367,3.367,0,0,1,1.672.749,6.122,6.122,0,0,1,1.778,3.053l-.161-.107a6.235,6.235,0,0,1,2.574.143,2.535,2.535,0,0,1,1.123.656,2.119,2.119,0,0,1,.506,1.193,3.19,3.19,0,0,1-.163,1.252,3.526,3.526,0,0,1-.636,1.066,5.354,5.354,0,0,1-1.975,1.356l.086-.116q-.261,3.969-.5,7.544l-.116,1.758a6.269,6.269,0,0,1-.375,1.691,5.542,5.542,0,0,1-2,2.588l.043-.05a5.384,5.384,0,0,1-1.387,1.685c-.526.468-1.068.884-1.6,1.278s-1.06.761-1.57,1.117l-.75.528a2.538,2.538,0,0,1-.809.417,1.983,1.983,0,0,1-1.681-.214l-.087-.06-.017-.013c-.056.119.131-.141.1-.119l.005.005.011.009.039.042a.287.287,0,0,1,.066.117.147.147,0,0,1-.011.1l-.025.049-.178.35-.346.678-1.234,2.417-1.711,3.331c-.195.371-.344.657-.451.86s-.163.288-.163.288.042-.1.136-.3l.424-.874,1.664-3.359,1.212-2.432.34-.682.176-.352c.012-.01,0-.041.032-.033.008,0-.023,0-.015,0a.173.173,0,0,0-.035-.053l-.029-.031-.008-.008,0,0c-.039.02.142-.246.092-.122l.023.018.08.054a1.826,1.826,0,0,0,1.548.184,2.385,2.385,0,0,0,.757-.4l.748-.533c.507-.359,1.03-.73,1.559-1.124s1.065-.81,1.58-1.274a5.238,5.238,0,0,0,1.324-1.615l.014-.031.029-.021a5.338,5.338,0,0,0,1.9-2.488,11.5,11.5,0,0,0,.464-3.389q.224-3.567.472-7.539l.005-.083.08-.033a5.108,5.108,0,0,0,1.863-1.286,3.257,3.257,0,0,0,.583-.981,2.916,2.916,0,0,0,.145-1.138,1.843,1.843,0,0,0-.436-1.028,2.259,2.259,0,0,0-1-.577,5.977,5.977,0,0,0-2.447-.13l-.126.016-.035-.124a5.856,5.856,0,0,0-1.687-2.9c-.864-.77-2.136-.763-3.316-.893-2.4-.169-4.885-.174-7.405-.139l-.15,0,0-.149c-.1-3.557-.2-7.216-.3-10.944a33.03,33.03,0,0,0-.567-6.924,10.663,10.663,0,0,0-1.234-3.111,1.78,1.78,0,0,0-1.329-.715,1.855,1.855,0,0,0-1.409.526,2.093,2.093,0,0,0-.537,1.422c-.046.545-.065,1.09-.065,1.633-.005,1.088.083,2.16.174,3.228a27.451,27.451,0,0,1-.43,6.291c-.338,2.024-.788,3.974-1.286,5.851q-.372,1.408-.793,2.758c-.143.45-.285.895-.443,1.333-.076.222-.157.431-.258.66-.032.06-.065.123-.1.178l-.124.126-.242.241a13.535,13.535,0,0,0-2.975,4.248,7.414,7.414,0,0,0-.564,2.364c-.014.394-.016.8-.013,1.2s-.031.79-.046,1.179a70.732,70.732,0,0,1-1.148,8.283c-.474,2.415-.984,4.475-1.466,6.139a38.583,38.583,0,0,1-1.3,3.772c-.174.422-.33.734-.426.947s-.157.316-.157.316" transform="translate(-92.115 -50.514)" fill="#ff9b6c"/>
            <path id="Trazado_119825" data-name="Trazado 119825" d="M256.53,189.754a1.372,1.372,0,0,1,.134-.306l.43-.85a14.623,14.623,0,0,0,1.259-3.239,6.868,6.868,0,0,0,.137-2.364,4.713,4.713,0,0,0-1-2.469,6.8,6.8,0,0,0-2.458-1.688c-.958-.452-1.978-.861-3.036-1.246s-2.1-.732-3.115-1.07a26.36,26.36,0,0,0-2.935-.842,7.206,7.206,0,0,0-4.987.441,4.779,4.779,0,0,0-2.295,2.469,5.671,5.671,0,0,0-.257,1.243,1.345,1.345,0,0,1-.021-.335,3.45,3.45,0,0,1,.165-.948,4.8,4.8,0,0,1,2.3-2.62,5.744,5.744,0,0,1,2.344-.713,9.694,9.694,0,0,1,2.8.185,25.972,25.972,0,0,1,2.972.833c1.012.335,2.061.68,3.125,1.067s2.093.8,3.06,1.263a7.023,7.023,0,0,1,2.548,1.779,4.945,4.945,0,0,1,1.038,2.618,7,7,0,0,1-.178,2.444,13.472,13.472,0,0,1-1.365,3.245c-.2.362-.367.638-.481.825a1.351,1.351,0,0,1-.188.276" transform="translate(-98.492 -72.38)" fill="#ff9b6c"/>
            <path id="Trazado_119826" data-name="Trazado 119826" d="M251.989,205.8a1.413,1.413,0,0,1,.13-.31l.421-.867c.183-.376.41-.835.653-1.376a9.618,9.618,0,0,0,.664-1.887,11.091,11.091,0,0,0,.17-2.424,12.068,12.068,0,0,0-.367-2.769c-.43-1.937-1.245-4-1.585-6.326l-.019-.131.133-.035a3.146,3.146,0,0,0,.637-.248,3.292,3.292,0,0,0,1.619-1.943l.1-.353.173.325a3.121,3.121,0,0,0,2.718,1.623l.226,0-.095.206a5.838,5.838,0,0,0-.26,4.145l.039.124-.126.031a3.346,3.346,0,0,0-2.1,1.623,3.387,3.387,0,0,0-.4,2.022,2.748,2.748,0,0,0,.5,1.229c.182.252.3.371.288.382s-.037-.021-.1-.076a2.526,2.526,0,0,1-.248-.263,2.664,2.664,0,0,1-.582-1.252,3.473,3.473,0,0,1,.366-2.136,3.532,3.532,0,0,1,2.216-1.766l-.086.155a6.046,6.046,0,0,1,.231-4.338l.132.2a3.4,3.4,0,0,1-2.989-1.766l.278-.028a3.584,3.584,0,0,1-1.767,2.128,3.478,3.478,0,0,1-.7.272l.113-.167c.328,2.268,1.133,4.342,1.553,6.3a12.114,12.114,0,0,1,.344,2.831,11.018,11.018,0,0,1-.212,2.469,9.414,9.414,0,0,1-.719,1.911c-.26.539-.5.991-.7,1.359s-.36.651-.471.841a1.458,1.458,0,0,1-.182.283" transform="translate(-104.113 -77.316)" fill="#ff9b6c"/>
            <path id="Trazado_119827" data-name="Trazado 119827" d="M259.087,173.255a9.6,9.6,0,0,0-.268-1.03,5.2,5.2,0,0,0-1.712-2.268,7.967,7.967,0,0,0-3.949-1.493c-1.6-.227-3.4-.141-5.3-.276a12.554,12.554,0,0,1-2.738-.478c-.86-.261-1.656-.579-2.435-.785a4.647,4.647,0,0,0-2.228-.137,3.2,3.2,0,0,0-1.655.971,7.722,7.722,0,0,0-1.408,2.5,9.826,9.826,0,0,1-.382,1,.963.963,0,0,1,.051-.274c.043-.177.115-.437.219-.768a7.331,7.331,0,0,1,1.361-2.609,3.4,3.4,0,0,1,1.756-1.072,4.85,4.85,0,0,1,2.357.111c.8.2,1.606.52,2.449.771a12.513,12.513,0,0,0,2.675.461c1.866.134,3.677.056,5.312.3a8.028,8.028,0,0,1,4.046,1.6,5.113,5.113,0,0,1,1.69,2.4,3.687,3.687,0,0,1,.157.788.945.945,0,0,1,0,.28" transform="translate(-97.926 -68.767)" fill="#ff9b6c"/>
            <path id="Trazado_119828" data-name="Trazado 119828" d="M243.472,159.7c.021-.092,1.282.214,2.85.093a28.49,28.49,0,0,0,2.807-.5,6.971,6.971,0,0,1-5.658.407" transform="translate(-100.594 -65.812)" fill="#ff9b6c"/>
            <path id="Trazado_119829" data-name="Trazado 119829" d="M274.88,171.959c-.1.01-.185-1.288-.57-2.809-.406-1.516-1.032-2.655-.941-2.7a6.648,6.648,0,0,1,1.236,2.624,7.527,7.527,0,0,1,.275,2.887" transform="translate(-112.943 -68.77)" fill="#ff9b6c"/>
            <path id="Trazado_119830" data-name="Trazado 119830" d="M115.243,256.355c0-.727-5.672-39.206-.485-52.892,5.28-13.93,20.942-17.75,20.942-17.75l14.052,54.174a34.6,34.6,0,0,0-20.434,2.265c-9.01,3.976-14.076,14.2-14.076,14.2" transform="translate(-46.511 -76.73)" fill="#13b770"/>
            <path id="Trazado_119831" data-name="Trazado 119831" d="M161.1,218.055c.082-.021,2.1,7.842,4.5,17.56s4.284,17.615,4.2,17.636-2.1-7.841-4.5-17.562-4.283-17.613-4.2-17.633" transform="translate(-66.561 -90.093)" fill="#263238"/>
            <path id="Trazado_119832" data-name="Trazado 119832" d="M173.077,316.24a4.162,4.162,0,0,1-.268-.77,7.9,7.9,0,0,1-.241-.926c-.076-.365-.183-.779-.237-1.246a14.6,14.6,0,0,1-.169-1.529c-.056-.552-.045-1.144-.049-1.767a20.17,20.17,0,0,1,1.775-7.855c.267-.563.515-1.1.8-1.576.26-.489.545-.919.8-1.311s.522-.728.744-1.028a8.223,8.223,0,0,1,.61-.736,4.118,4.118,0,0,1,.567-.585c.049.042-.741.9-1.741,2.466-.246.4-.517.827-.763,1.316-.271.475-.507,1.01-.763,1.568a21.127,21.127,0,0,0-1.751,7.749c0,.614-.024,1.2.021,1.743.016.547.073,1.053.13,1.515.236,1.847.594,2.955.532,2.972" transform="translate(-71.111 -122.673)" fill="#ff9b6c"/>
            <path id="Trazado_119833" data-name="Trazado 119833" d="M335.694,251.911l-52.408.342h0l-8.29-8.27a7.743,7.743,0,0,0-5.469-2.269h-20.15a2.311,2.311,0,0,0-2.29,2.466l1.33,61.684a3.727,3.727,0,0,0,3.7,3.669l75.823.069a8.929,8.929,0,0,0,8.881-8.759L338,254.294a2.31,2.31,0,0,0-2.308-2.383" transform="translate(-102.086 -99.867)" fill="#ff725e"/>
            <g id="Grupo_85779" data-name="Grupo 85779" transform="translate(147.057 147.715)" opacity="0.3">
              <g id="Grupo_85778" data-name="Grupo 85778">
                <g id="Grupo_85777" data-name="Grupo 85777" clip-path="url(#clip-path-8)">
                  <path id="Trazado_119834" data-name="Trazado 119834" d="M255.267,252.6l-.31-.883s-1.273-.133-1.971,4.3-2.393,52.218-2.393,52.218l5.532-54.193Z" transform="translate(-250.593 -251.715)"/>
                </g>
              </g>
            </g>
            <path id="Trazado_119835" data-name="Trazado 119835" d="M252.561,308.674l83.813-5.36a1.874,1.874,0,0,0,1.742-1.783l2.664-51.681a1.874,1.874,0,0,0-1.859-1.984H256.98a1.87,1.87,0,0,0-1.854,1.734l-4.536,57.041a1.873,1.873,0,0,0,1.972,2.033" transform="translate(-103.532 -102.41)" fill="#fafafa"/>
            <path id="Trazado_119836" data-name="Trazado 119836" d="M343.605,254.272H261.856a3.793,3.793,0,0,0-3.737,3.269l-7.83,53.956,2.816,3.3h81.684a3.792,3.792,0,0,0,3.725-3.189l8.817-52.874a3.812,3.812,0,0,0-3.725-4.463" transform="translate(-103.411 -105.056)" fill="#ff725e"/>
            <path id="Trazado_119837" data-name="Trazado 119837" d="M289.757,303.456l-.137-1.682-5.76.48.137,1.682Z" transform="translate(-117.281 -124.682)" fill="#263238"/>
            <path id="Trazado_119838" data-name="Trazado 119838" d="M287.512,306.269l.847,10.429,1.863-.155-.847-10.428Z" transform="translate(-118.79 -126.475)" fill="#263238"/>
            <path id="Trazado_119839" data-name="Trazado 119839" d="M381.74,295.794l-.137-1.682-5.76.48.137,1.682Z" transform="translate(-155.285 -121.517)" fill="#263238"/>
            <path id="Trazado_119840" data-name="Trazado 119840" d="M379.494,298.607l.847,10.429,1.863-.155-.847-10.429Z" transform="translate(-156.794 -123.31)" fill="#263238"/>
            <path id="Trazado_119841" data-name="Trazado 119841" d="M298.49,312.312c-.409-.085-.68-.43-.739-1.162l-.562-6.919c-.059-.732.152-1.117.542-1.268l-.15-1.851c-1.6.271-2.4,1.481-2.245,3.4l.541,6.662c.156,1.922,1.136,2.985,2.763,2.986Z" transform="translate(-122.014 -124.409)" fill="#263238"/>
            <path id="Trazado_119842" data-name="Trazado 119842" d="M300.282,301.019l.15,1.851c.409.085.68.43.739,1.162l.562,6.919c.06.733-.152,1.117-.542,1.269l.15,1.851c1.6-.272,2.4-1.482,2.245-3.4L303.045,304c-.156-1.921-1.136-2.983-2.763-2.986" transform="translate(-124.066 -124.37)" fill="#263238"/>
            <path id="Trazado_119843" data-name="Trazado 119843" d="M308.19,300.466l-1.7.141,1.04,12.813,1.7-.142Z" transform="translate(-126.631 -124.142)" fill="#263238"/>
            <path id="Trazado_119844" data-name="Trazado 119844" d="M310.889,300.307l-.394.033.149,1.83.393-.033c.593-.049.938.217,1.013,1.132l.156,1.922c.075.915-.224,1.234-.816,1.284l-.394.032.148,1.831.394-.033c1.863-.155,2.688-1.348,2.521-3.4l-.135-1.665c-.167-2.05-1.172-3.09-3.036-2.935" transform="translate(-128.286 -124.07)" fill="#263238"/>
            <path id="Trazado_119845" data-name="Trazado 119845" d="M339.622,307.091l-2.049.171.149,1.83,2.049-.171Z" transform="translate(-139.473 -126.879)" fill="#263238"/>
            <path id="Trazado_119846" data-name="Trazado 119846" d="M334.505,298.272l-1.723.144,1.04,12.812,1.723-.143Z" transform="translate(-137.494 -123.236)" fill="#263238"/>
            <path id="Trazado_119847" data-name="Trazado 119847" d="M336.826,298.021l.148,1.83,2.71-.225-.148-1.831Z" transform="translate(-139.165 -123.038)" fill="#263238"/>
            <path id="Trazado_119848" data-name="Trazado 119848" d="M338.495,318.566l2.71-.226-.149-1.83-2.709.226Z" transform="translate(-139.793 -130.771)" fill="#263238"/>
            <path id="Trazado_119849" data-name="Trazado 119849" d="M346.725,308.277c-.417-.075-.694-.406-.754-1.148l-.562-6.919c-.06-.742.158-1.127.557-1.274l-.15-1.852c-1.645.249-2.418,1.462-2.26,3.41l.541,6.663c.158,1.948,1.117,3.018,2.78,2.991Z" transform="translate(-141.937 -122.744)" fill="#263238"/>
            <path id="Trazado_119850" data-name="Trazado 119850" d="M348.53,297.01l.15,1.85c.4.091.664.436.723,1.158l.112,1.373,1.762-.147-.1-1.245c-.154-1.894-1.066-2.958-2.645-2.99" transform="translate(-144 -122.714)" fill="#263238"/>
            <path id="Trazado_119851" data-name="Trazado 119851" d="M350.6,312.535c.059.723-.147,1.1-.528,1.247l.151,1.866c1.553-.293,2.282-1.493,2.128-3.388l-.139-1.7-1.762.147Z" transform="translate(-144.639 -128.312)" fill="#263238"/>
            <path id="Trazado_119852" data-name="Trazado 119852" d="M356.126,296.48l-1.582.132,1.04,12.812,1.582-.132Z" transform="translate(-146.485 -122.495)" fill="#263238"/>
            <path id="Trazado_119853" data-name="Trazado 119853" d="M362.62,307.319l-.161-1.978c-.109-1.336-.492-2.28-1.458-2.624a2.624,2.624,0,0,0,1.009-2.7l-.082-1.006c-.161-1.977-1.07-2.878-3-2.716l-.581.048.148,1.83.531-.044c.66-.055.981.324,1.055,1.239l.1,1.262c.083,1.026-.313,1.39-1.008,1.448l-.36.03.148,1.831.276-.023c.847-.07,1.256.338,1.352,1.527l.164,2.014a4.235,4.235,0,0,0,.3,1.56l1.9-.158a4.066,4.066,0,0,1-.33-1.539" transform="translate(-148.056 -122.41)" fill="#263238"/>
            <path id="Trazado_119854" data-name="Trazado 119854" d="M367.874,295.493l-1.726.144,1.04,12.813,1.726-.144Z" transform="translate(-151.279 -122.087)" fill="#263238"/>
            <path id="Trazado_119855" data-name="Trazado 119855" d="M372.989,304.312l-2.045.17.148,1.83,2.045-.17Z" transform="translate(-153.261 -125.731)" fill="#263238"/>
            <path id="Trazado_119856" data-name="Trazado 119856" d="M371.865,315.787l2.706-.225-.148-1.831-2.706.225Z" transform="translate(-153.58 -129.622)" fill="#263238"/>
            <path id="Trazado_119857" data-name="Trazado 119857" d="M370.2,295.242l.148,1.831,2.706-.226-.148-1.83Z" transform="translate(-152.952 -121.89)" fill="#263238"/>
            <path id="Trazado_119858" data-name="Trazado 119858" d="M325.4,316.535c-.458-.048-.762-.377-.825-1.161l-.074-.915-1.762.147.064.787c.157,1.935,1.1,3,2.748,2.991Z" transform="translate(-133.343 -129.923)" fill="#263238"/>
            <path id="Trazado_119859" data-name="Trazado 119859" d="M326.978,300.652c.418.075.678.42.739,1.17l.043.531,1.762-.147-.033-.4c-.155-1.913-1.069-2.979-2.661-2.992Z" transform="translate(-135.034 -123.458)" fill="#263238"/>
            <path id="Trazado_119860" data-name="Trazado 119860" d="M323.848,302.013c-.057-.709.119-1.092.476-1.252l-.151-1.863c-1.593.265-2.333,1.472-2.177,3.4.3,3.661,3.98,3.851,4.194,6.487.056.68-.122,1.053-.46,1.221l.153,1.889c1.575-.283,2.314-1.485,2.159-3.393-.3-3.661-3.979-3.851-4.194-6.487" transform="translate(-133.029 -123.494)" fill="#263238"/>
            <path id="Trazado_119861" data-name="Trazado 119861" d="M278.047,313.568a2.257,2.257,0,0,1-1.464-.54,2.3,2.3,0,0,1-.808-1.58l-1.511-18.6a2.3,2.3,0,0,1,2.088-2.489l65.109-5.423a2.236,2.236,0,0,1,1.654.531,2.3,2.3,0,0,1,.809,1.58l1.511,18.6a2.3,2.3,0,0,1-2.087,2.489h0l-65.109,5.423c-.064.005-.127.008-.191.008m63.6-28.057c-.047,0-.094,0-.141.006L276.4,290.94a1.716,1.716,0,0,0-1.552,1.857l1.51,18.6a1.72,1.72,0,0,0,.6,1.18,1.673,1.673,0,0,0,1.227.395l65.109-5.423a1.715,1.715,0,0,0,1.551-1.857l-1.511-18.6a1.719,1.719,0,0,0-.6-1.18,1.666,1.666,0,0,0-1.085-.4" transform="translate(-113.313 -117.72)" fill="#263238"/>
            <path id="Trazado_119862" data-name="Trazado 119862" d="M381.084,255.674l1.589,19.062-23.543,2.013-1.589-19.062Z" transform="translate(-147.723 -105.635)" fill="#fafafa"/>
            <path id="Trazado_119863" data-name="Trazado 119863" d="M381.038,255.674s-.039.006-.114.014l-.33.032-1.279.117-4.819.428-17,1.484.056-.067c.475,5.674,1.02,12.177,1.6,19.059v0l-.074-.063,23.544-2-.052.062c-.466-5.741-.853-10.5-1.123-13.828-.132-1.665-.236-2.971-.307-3.865-.034-.444-.06-.785-.078-1.02s-.023-.354-.023-.354.013.113.035.341.051.569.09,1.008c.078.891.191,2.192.336,3.85.285,3.336.693,8.105,1.185,13.859l.005.057-.057.005-23.543,2.024-.068.006-.006-.069v0c-.571-6.882-1.111-13.387-1.582-19.06l-.005-.062.061-.005,17.042-1.425,4.807-.394,1.268-.1.324-.025c.072,0,.107-.005.107-.005" transform="translate(-147.677 -105.635)" fill="#263238"/>
            <path id="Trazado_119864" data-name="Trazado 119864" d="M360.484,276.375l21.889-1.871-1.388-16.662-21.89,1.871Z" transform="translate(-148.365 -106.531)" fill="#455a64"/>
            <g id="Grupo_85782" data-name="Grupo 85782" transform="translate(212.118 158.833)" opacity="0.3">
              <g id="Grupo_85781" data-name="Grupo 85781">
                <g id="Grupo_85780" data-name="Grupo 85780" clip-path="url(#clip-path-9)">
                  <path id="Trazado_119865" data-name="Trazado 119865" d="M361.461,281.671l6.782-11.011,5.276,6.075L376.443,273l6.908,6.8Z" transform="translate(-361.461 -270.661)"/>
                </g>
              </g>
            </g>
            <g id="Grupo_85785" data-name="Grupo 85785" transform="translate(222.088 155.383)" opacity="0.3">
              <g id="Grupo_85784" data-name="Grupo 85784">
                <g id="Grupo_85783" data-name="Grupo 85783" clip-path="url(#clip-path-10)">
                  <path id="Trazado_119866" data-name="Trazado 119866" d="M381.9,266.386a1.73,1.73,0,1,1-1.869-1.6,1.746,1.746,0,0,1,1.869,1.6" transform="translate(-378.45 -264.782)"/>
                </g>
              </g>
            </g>
            <path id="Trazado_119867" data-name="Trazado 119867" d="M378.293,258.255a1.849,1.849,0,0,1-1.836-1.859v-3.944h.708V256.4a1.128,1.128,0,1,0,2.255,0v-5.35a2.24,2.24,0,1,0-4.479,0v.71h-.708v-.71a2.947,2.947,0,1,1,5.894,0v5.35a1.848,1.848,0,0,1-1.835,1.859" transform="translate(-154.62 -102.49)" fill="#e0e0e0"/>
            <path id="Trazado_119868" data-name="Trazado 119868" d="M378.251,258.22c0-.009.123,0,.351-.046a1.821,1.821,0,0,0,.886-.472,1.876,1.876,0,0,0,.568-1.46c0-.646-.005-1.378-.008-2.188s0-1.714-.008-2.679a3.511,3.511,0,0,0-.215-1.46,2.929,2.929,0,0,0-.944-1.241,2.861,2.861,0,0,0-3.209-.182,2.932,2.932,0,0,0-1.181,1.353,3.121,3.121,0,0,0-.227.907c-.023.312-.008.643-.012.969l-.06-.059h.708l-.06.06a7.788,7.788,0,0,1,.039-1.134,2.375,2.375,0,0,1,.485-1.056,2.291,2.291,0,0,1,2.141-.817,2.315,2.315,0,0,1,1.762,1.415,2.724,2.724,0,0,1,.172,1.128v1.11c-.013,1.472.026,2.875-.031,4.251a1.2,1.2,0,0,1-.62.81,1.178,1.178,0,0,1-.994.038,1.2,1.2,0,0,1-.658-.712,3.191,3.191,0,0,1-.065-.935c0-1.213,0-2.351.006-3.4l.045.045-.707,0,.043-.043c0,1.055-.006,2.01-.009,2.856q0,.627,0,1.17a1.839,1.839,0,0,0,1.337,1.7,2.828,2.828,0,0,0,.465.075,1.464,1.464,0,0,1-.471-.052,1.83,1.83,0,0,1-1.089-.785,1.883,1.883,0,0,1-.3-.938q0-.543-.009-1.172c0-.845-.006-1.8-.009-2.856v-.043h.043l.707,0h.045v.045c0,1.049,0,2.187.006,3.4a3.183,3.183,0,0,0,.062.9,1.1,1.1,0,0,0,.6.646,1.066,1.066,0,0,0,.9-.036,1.089,1.089,0,0,0,.56-.735c.049-1.327.011-2.766.022-4.227q0-.55,0-1.11a2.6,2.6,0,0,0-.164-1.082,2.193,2.193,0,0,0-1.668-1.34,2.168,2.168,0,0,0-2.027.773,2.243,2.243,0,0,0-.46,1,7.77,7.77,0,0,0-.039,1.112v.06h-.827v-.059c0-.329-.011-.648.014-.979a3.238,3.238,0,0,1,.237-.942,3.047,3.047,0,0,1,1.23-1.4,2.968,2.968,0,0,1,3.331.2,3.028,3.028,0,0,1,.971,1.286,3.6,3.6,0,0,1,.216,1.5c0,.965-.005,1.861-.008,2.679s-.006,1.542-.008,2.188a1.915,1.915,0,0,1-.6,1.49,1.811,1.811,0,0,1-.91.463,1.352,1.352,0,0,1-.355.025" transform="translate(-154.578 -102.455)" fill="#263238"/>
            <g id="Grupo_85788" data-name="Grupo 85788" transform="translate(226.48 165.694)" opacity="0.3">
              <g id="Grupo_85787" data-name="Grupo 85787">
                <g id="Grupo_85786" data-name="Grupo 85786" clip-path="url(#clip-path-11)">
                  <path id="Trazado_119869" data-name="Trazado 119869" d="M390.978,282.352a4.445,4.445,0,0,0,1.7,3.82c1.454,1.105,3.533,1.232,4.787,2.564a4.373,4.373,0,0,1,.868,4.026,8.024,8.024,0,0,1-2.235,3.6c-1.008,1.008-2.161,1.853-3.234,2.789a17.422,17.422,0,0,0-3.909,4.676,26.749,26.749,0,0,0-1.315,2.935l-1.292,3.224c-.364.911-.694,2.061-.04,2.788a2.609,2.609,0,0,0,1.822.618,29.674,29.674,0,0,0,8.439-.2q.019-.726.039-1.453s4.7-16.565,4.7-16.4.528-10.474.528-10.474Z" transform="translate(-385.935 -282.352)"/>
                </g>
              </g>
            </g>
            <path id="Trazado_119870" data-name="Trazado 119870" d="M404.07,283.008s1.4-4.053-3.3-5.4c-3.067-.882-12.542-2.742-11.078,1.782a4.371,4.371,0,0,0,3.758,2.84,8.279,8.279,0,0,1,4.082,2.043s1.489,1.171,1.288,2.57-.032,4.6-4.158,6.054-6.092,3.063-7.4,5.736c-1.157,2.356.3,3.374.3,3.374s-2.536,1.957-2.111,3.818a3.1,3.1,0,0,1-.445,2.072l-.013.023a2.035,2.035,0,0,0,1.474,2.888l.208.04s12.538-.461,15.353-3.7a13.364,13.364,0,0,0,3.238-6.189s2.306-3.93-.3-6.225c.956-4.5,0-6.784-1.771-8.117Z" transform="translate(-158.972 -114.226)" fill="#ffc09d"/>
            <path id="Trazado_119871" data-name="Trazado 119871" d="M389.518,314.89a8.467,8.467,0,0,0,2.593-.342c1.579-.315,3.737-.945,6.068-1.64a13.494,13.494,0,0,0,3.292-1.269,12.677,12.677,0,0,0,2.283-1.771c1.207-1.14,1.576-2.18,1.472-2.206a15.781,15.781,0,0,1-1.789,1.847,15,15,0,0,1-2.27,1.583A14.7,14.7,0,0,1,398,312.251l-6,1.829a12.229,12.229,0,0,0-2.479.81" transform="translate(-160.935 -127.115)" fill="#ff9b6c"/>
            <path id="Trazado_119872" data-name="Trazado 119872" d="M386.472,323.126a7.72,7.72,0,0,0,3.252.452,27.771,27.771,0,0,0,7.775-1.472l2.141-.674a8.436,8.436,0,0,0,1.993-.84,9.564,9.564,0,0,0,2.485-2.67,6.574,6.574,0,0,0,1.411-3c-.082-.028-.548,1.134-1.793,2.715a10.016,10.016,0,0,1-2.423,2.418,25.343,25.343,0,0,1-4.009,1.4,34.149,34.149,0,0,1-7.6,1.642c-1.984.137-3.216-.083-3.234.029" transform="translate(-159.676 -130.115)" fill="#ff9b6c"/>
            <path id="Trazado_119873" data-name="Trazado 119873" d="M399.624,286.2c-.063.177,1.687.984,3.909,1.8a14.564,14.564,0,0,0,2.944.866c.805.1,1.3-.037,1.294-.124s-.48-.136-1.2-.349-1.691-.624-2.809-1.034c-2.222-.819-4.076-1.339-4.14-1.163" transform="translate(-165.11 -118.233)" fill="#ff9b6c"/>
            <path id="Trazado_119874" data-name="Trazado 119874" d="M363.452,345.285v3.673h-.708v-5.071h.988l.808,3.035v-3.035h.7v5.071h-.809Z" transform="translate(-149.873 -142.082)" fill="#fff"/>
            <path id="Trazado_119875" data-name="Trazado 119875" d="M367.889,344.629a.76.76,0,1,1,1.517,0v1.123a.76.76,0,1,1-1.517,0Zm1.517,2.724h-1.517v-.5h1.517Zm-1.016-1.572c0,.232.093.312.258.312s.258-.079.258-.312V344.6c0-.232-.1-.312-.258-.312s-.258.08-.258.312Z" transform="translate(-151.999 -142.056)" fill="#fff"/>
            <path id="Trazado_119876" data-name="Trazado 119876" d="M384.887,352.421c0,.085-2.949.153-6.585.153s-6.586-.068-6.586-.153,2.948-.153,6.586-.153,6.585.068,6.585.153" transform="translate(-153.58 -145.545)" fill="#fff"/>
          </g>
        </g>
      </g>
    </g>
    <rect id="Rectángulo_36603" data-name="Rectángulo 36603" width="295" height="258" transform="translate(915 1018)" fill="none"/>
  </g>
</svg>
