<svg xmlns="http://www.w3.org/2000/svg" xmlns:xlink="http://www.w3.org/1999/xlink" width="295" height="244" viewBox="0 0 295 244">
  <defs>
    <clipPath id="clip-path">
      <rect id="Rectángulo_36613" data-name="Rectángulo 36613" width="171.63" height="234.876" fill="none"/>
    </clipPath>
    <clipPath id="clip-path-3">
      <rect id="Rectángulo_36604" data-name="Rectángulo 36604" width="157.115" height="90.711" fill="none"/>
    </clipPath>
    <clipPath id="clip-path-4">
      <rect id="Rectángulo_36605" data-name="Rectángulo 36605" width="89.472" height="50.479" fill="#fff9de"/>
    </clipPath>
    <clipPath id="clip-path-5">
      <rect id="Rectángulo_36606" data-name="Rectángulo 36606" width="51.561" height="29.66" fill="#fff9e2"/>
    </clipPath>
    <clipPath id="clip-path-6">
      <rect id="Rectángulo_36607" data-name="Rectángulo 36607" width="8.173" height="18.34" fill="#fff6d3"/>
    </clipPath>
    <clipPath id="clip-path-7">
      <rect id="Rectángulo_36608" data-name="Rectángulo 36608" width="8.827" height="129.156" fill="#faeaa8"/>
    </clipPath>
    <clipPath id="clip-path-8">
      <rect id="Rectángulo_36609" data-name="Rectángulo 36609" width="149.871" height="88.085" fill="#f2e19e"/>
    </clipPath>
    <clipPath id="clip-path-9">
      <rect id="Rectángulo_36610" data-name="Rectángulo 36610" width="150.988" height="214.25" fill="#eecf52"/>
    </clipPath>
    <clipPath id="clip-path-10">
      <rect id="Rectángulo_36611" data-name="Rectángulo 36611" width="17.605" height="148.595" fill="none"/>
    </clipPath>
  </defs>
  <g id="Grupo_85822" data-name="Grupo 85822" transform="translate(-285 -1298)">
    <g id="Grupo_85821" data-name="Grupo 85821" transform="translate(390 1307)">
      <g id="Grupo_85820" data-name="Grupo 85820" clip-path="url(#clip-path)">
        <path id="Trazado_119877" data-name="Trazado 119877" d="M27.016,293.631,17.775,288.3,165.648,202.92l9.242,5.336Z" transform="translate(-5.449 -62.212)" fill="#ba68c8"/>
        <g id="Grupo_85819" data-name="Grupo 85819">
          <g id="Grupo_85818" data-name="Grupo 85818" clip-path="url(#clip-path)">
            <g id="Grupo_85796" data-name="Grupo 85796" transform="translate(12.325 140.709)" opacity="0.35">
              <g id="Grupo_85795" data-name="Grupo 85795">
                <g id="Grupo_85794" data-name="Grupo 85794" clip-path="url(#clip-path-3)">
                  <path id="Trazado_119878" data-name="Trazado 119878" d="M27.016,293.631,17.775,288.3,165.648,202.92l9.242,5.336Z" transform="translate(-17.774 -202.92)" fill="#eecf52"/>
                </g>
              </g>
            </g>
            <path id="Trazado_119879" data-name="Trazado 119879" d="M161.305,137.712a6.647,6.647,0,0,1-3.026,5.68L26.944,219.216l-3.315,1.911-9.04,5.218a7.407,7.407,0,0,1-1.16-3.254L4.465,90.278a9.822,9.822,0,0,1-.008-1.16c.008-.106.015-.213.023-.311s.015-.189.022-.28.023-.175.038-.25c.015-.107.031-.213.053-.311.037-.212.083-.409.137-.6.015-.06.03-.114.045-.174.023-.076.046-.144.068-.213.015-.053.1-.266.122-.318a2.175,2.175,0,0,1,.781-1.054c.857-.493,1.774-2.571,2.063-4.649L8.916,73a8.74,8.74,0,0,1,3.807-5.65L55.445,42.688a2.982,2.982,0,0,1,4.5,1.691L61.527,49.1a2.985,2.985,0,0,0,4.5,1.7L148.8,3.019c1.813-1.054,3.4-.205,3.542,1.881Z" transform="translate(-1.362 -0.787)" fill="#eecf52"/>
            <path id="Trazado_119880" data-name="Trazado 119880" d="M176.467,1.974a2.275,2.275,0,0,0-1.934.046,1.7,1.7,0,0,0-.212.1c-.069.03-.144.076-.213.114L91.334,50.016a3.722,3.722,0,0,1-.691.311c-.1.031-.2.06-.3.083a.383.383,0,0,1-.091.015A2.914,2.914,0,0,1,87,48.666a3.446,3.446,0,0,0,1.259-.425L171.029.45a2.394,2.394,0,0,1,2.435-.205c.326.182,2.564,1.479,3,1.729" transform="translate(-26.671 0)" fill="#ffeeac"/>
            <path id="Trazado_119882" data-name="Trazado 119882" d="M56.558,57.567a3,3,0,0,0-3.072.083L10.757,82.314A8.19,8.19,0,0,0,8.1,85.066l3.081,1.779A8.185,8.185,0,0,1,13.844,84.1L56.565,59.433a.278.278,0,0,1,.068-.031,3,3,0,0,1,3.025-.062c-.175-.1-2.605-1.491-3.1-1.774" transform="translate(-2.483 -17.532)" fill="#ba68c8"/>
            <g id="Grupo_85802" data-name="Grupo 85802" transform="translate(5.615 39.652)">
              <g id="Grupo_85801" data-name="Grupo 85801">
                <g id="Grupo_85800" data-name="Grupo 85800" clip-path="url(#clip-path-5)">
                  <path id="Trazado_119883" data-name="Trazado 119883" d="M56.558,57.567a3,3,0,0,0-3.072.083L10.757,82.314A8.19,8.19,0,0,0,8.1,85.066l3.081,1.779A8.185,8.185,0,0,1,13.844,84.1L56.565,59.433a.278.278,0,0,1,.068-.031,3,3,0,0,1,3.025-.062c-.175-.1-2.605-1.491-3.1-1.774" transform="translate(-8.098 -57.184)" fill="#fff9e2"/>
                </g>
              </g>
            </g>
            <path id="Trazado_119884" data-name="Trazado 119884" d="M4.706,100.3,3.6,108.254c-.288,2.071-1.213,4.156-2.063,4.642a2.166,2.166,0,0,0-.781,1.054l3.079,1.782c.008-.022.106-.227.144-.3l.091-.159a1.607,1.607,0,0,1,.546-.591c.857-.493,1.774-2.571,2.063-4.649l1.107-7.956a7.763,7.763,0,0,1,1.142-2.9L5.847,97.393A7.782,7.782,0,0,0,4.706,100.3" transform="translate(-0.231 -29.859)" fill="#ba68c8"/>
            <g id="Grupo_85805" data-name="Grupo 85805" transform="translate(0.523 67.534)">
              <g id="Grupo_85804" data-name="Grupo 85804">
                <g id="Grupo_85803" data-name="Grupo 85803" clip-path="url(#clip-path-6)">
                  <path id="Trazado_119885" data-name="Trazado 119885" d="M4.706,100.3,3.6,108.254c-.288,2.071-1.213,4.156-2.063,4.642a2.166,2.166,0,0,0-.781,1.054l3.079,1.782c.008-.022.106-.227.144-.3l.091-.159a1.607,1.607,0,0,1,.546-.591c.857-.493,1.774-2.571,2.063-4.649l1.107-7.956a7.763,7.763,0,0,1,1.142-2.9L5.847,97.393A7.782,7.782,0,0,0,4.706,100.3" transform="translate(-0.755 -97.393)" fill="#fff6d3"/>
                </g>
              </g>
            </g>
            <path id="Trazado_119886" data-name="Trazado 119886" d="M165.02,16.53a2.467,2.467,0,0,0-1.1-2.093c-.546-.311-2.532-1.462-3.078-1.777a2.416,2.416,0,0,0-2.445.2L17.094,94.446a6.651,6.651,0,0,0-3.029,5.679l8.271,122.541a2.474,2.474,0,0,0,1.082,2.084c.548.319,2.544,1.469,3.089,1.784a2.417,2.417,0,0,0,2.448-.2L170.262,144.75a6.65,6.65,0,0,0,3.029-5.679Z" transform="translate(-4.309 -3.806)" fill="#fff"/>
            <path id="Trazado_119887" data-name="Trazado 119887" d="M26.507,264.091c-.546-.318-2.541-1.471-3.086-1.79a2.466,2.466,0,0,1-1.085-2.086L14.062,137.679a5.95,5.95,0,0,1,.576-2.776l3.072,1.774a5.924,5.924,0,0,0-.562,2.776L25.415,262a2.457,2.457,0,0,0,1.092,2.093" transform="translate(-4.308 -41.359)" fill="#e0e0e0"/>
            <path id="Trazado_119888" data-name="Trazado 119888" d="M21.537,97.011,162.843,15.428c1.813-1.047,3.4-.2,3.539,1.887l8.271,122.541a6.65,6.65,0,0,1-3.029,5.679L30.319,227.119c-1.814,1.047-3.4.2-3.539-1.887l-8.271-122.54a6.649,6.649,0,0,1,3.029-5.68" transform="translate(-5.671 -4.592)" fill="#f0f0f0"/>
            <path id="Trazado_119889" data-name="Trazado 119889" d="M27.33,152.045a5.174,5.174,0,0,0-.2,1.367V273.956c0,2.014-1.582,2.461-3.533,1.494l-1.779-.883v3.307l5.093,2.927c1.951.967,3.533.119,3.533-1.894V155.056a5.177,5.177,0,0,1,.2-1.374Z" transform="translate(-6.689 -46.614)" fill="#ba68c8"/>
            <g id="Grupo_85808" data-name="Grupo 85808" transform="translate(15.13 105.431)">
              <g id="Grupo_85807" data-name="Grupo 85807">
                <g id="Grupo_85806" data-name="Grupo 85806" clip-path="url(#clip-path-7)">
                  <path id="Trazado_119890" data-name="Trazado 119890" d="M27.33,152.045a5.174,5.174,0,0,0-.2,1.367V273.956c0,2.014-1.582,2.461-3.533,1.494l-1.779-.883v3.307l5.093,2.927c1.951.967,3.533.119,3.533-1.894V155.056a5.177,5.177,0,0,1,.2-1.374Z" transform="translate(-21.819 -152.045)" fill="#faeaa8"/>
                </g>
              </g>
            </g>
            <path id="Trazado_119891" data-name="Trazado 119891" d="M179.635,29.136a2.514,2.514,0,0,0-2.16.345l-.038.023L36.165,111.286a7.317,7.317,0,0,0-3.081,4.179l-3.32-1.64a7.347,7.347,0,0,1,3.081-4.179l141.31-81.8a2.431,2.431,0,0,1,2.289-.3c.253.126,2.6,1.3,3.19,1.584" transform="translate(-9.125 -8.394)" fill="#ba68c8"/>
            <g id="Grupo_85811" data-name="Grupo 85811" transform="translate(20.639 18.986)">
              <g id="Grupo_85810" data-name="Grupo 85810">
                <g id="Grupo_85809" data-name="Grupo 85809" clip-path="url(#clip-path-8)">
                  <path id="Trazado_119892" data-name="Trazado 119892" d="M179.635,29.136a2.514,2.514,0,0,0-2.16.345l-.038.023L36.165,111.286a7.317,7.317,0,0,0-3.081,4.179l-3.32-1.64a7.347,7.347,0,0,1,3.081-4.179l141.31-81.8a2.431,2.431,0,0,1,2.289-.3c.253.126,2.6,1.3,3.19,1.584" transform="translate(-29.764 -27.38)" fill="#f2e19e"/>
                </g>
              </g>
            </g>
            <path id="Trazado_119893" data-name="Trazado 119893" d="M36.167,112.011a7.161,7.161,0,0,0-3.287,5.55v123.9c-.025,1.835-1.379,2.675-3.11,2.024a7.944,7.944,0,0,0,3.109.5,7.129,7.129,0,0,0,3.272-.807l141.323-81.608a7.123,7.123,0,0,0,3.284-5.543V31.964c0-2.017-1.469-2.8-3.281-1.756Z" transform="translate(-9.127 -9.119)" fill="#ba68c8"/>
            <path id="Trazado_119894" data-name="Trazado 119894" d="M36.167,112.011a7.161,7.161,0,0,0-3.287,5.55v123.9c-.025,1.835-1.379,2.675-3.11,2.024a7.944,7.944,0,0,0,3.109.5,7.129,7.129,0,0,0,3.272-.807l141.323-81.608a7.123,7.123,0,0,0,3.284-5.543V31.964c0-2.017-1.469-2.8-3.281-1.756Z" transform="translate(-9.127 -9.119)" fill="#ba68c8"/>
            <g id="Grupo_85814" data-name="Grupo 85814" transform="translate(20.643 20.626)">
              <g id="Grupo_85813" data-name="Grupo 85813">
                <g id="Grupo_85812" data-name="Grupo 85812" clip-path="url(#clip-path-9)">
                  <path id="Trazado_119895" data-name="Trazado 119895" d="M36.167,112.011a7.161,7.161,0,0,0-3.287,5.55v123.9c-.025,1.835-1.379,2.675-3.11,2.024a7.944,7.944,0,0,0,3.109.5,7.129,7.129,0,0,0,3.272-.807l141.323-81.608a7.123,7.123,0,0,0,3.284-5.543V31.964c0-2.017-1.469-2.8-3.281-1.756Z" transform="translate(-29.77 -29.745)" fill="#eecf52"/>
                </g>
              </g>
            </g>
            <path id="Trazado_119896" data-name="Trazado 119896" d="M17.605,266.313l-2-1.152a7.946,7.946,0,0,1-3.539-5.68L3.1,126.671a8.387,8.387,0,0,1,.5-3.618L.525,121.275a8.4,8.4,0,0,0-.5,3.618L9.238,261.4a7.944,7.944,0,0,0,3.539,5.68l4.828,2.788Z" transform="translate(0 -37.181)" fill="#ba68c8"/>
            <g id="Grupo_85817" data-name="Grupo 85817" transform="translate(0 84.094)">
              <g id="Grupo_85816" data-name="Grupo 85816">
                <g id="Grupo_85815" data-name="Grupo 85815" clip-path="url(#clip-path-10)">
                  <path id="Trazado_119897" data-name="Trazado 119897" d="M17.605,266.313l-2-1.152a7.946,7.946,0,0,1-3.539-5.68L3.1,126.671a8.387,8.387,0,0,1,.5-3.618L.525,121.275a8.4,8.4,0,0,0-.5,3.618L9.238,261.4a7.944,7.944,0,0,0,3.539,5.68l4.828,2.788Z" transform="translate(0 -121.275)" fill="#fff6d1"/>
                </g>
              </g>
            </g>
            <path id="Trazado_119898" data-name="Trazado 119898" d="M208.707,35.317H208.7a1.72,1.72,0,0,0-.711,1.36v1.051l1.43-.827V35.85c0-.525-.317-.765-.711-.533m9.666-11.45c-.008-2.457-1.082-3.778-2.751-3.523-2.688.417-5.2,4.427-5.208,8.391-.023,7.047-.008,14.07-.008,21.1a9.458,9.458,0,0,0,.046,1.066c.193,1.7,1.345,2.365,2.712,1.592a6.09,6.09,0,0,0,2.72-4.675c.085-5.138.069-10.369.069-15.739,0-.526-.317-.765-.711-.541a1.706,1.706,0,0,0-.711,1.36c0,4.991,0,9.8-.008,14.5,0,1.584-.51,2.72-1.383,3.19-.834.441-1.3-.092-1.3-1.614q-.011-10.466,0-20.963c.008-2.317,1.066-4.458,2.573-5.316s2.527.108,2.527,2.426q0,3.709.008,7.417l1.429-.827q0-3.929-.008-7.843" transform="translate(-63.765 -6.227)" fill="#37474f"/>
            <path id="Trazado_119899" data-name="Trazado 119899" d="M162.919,149.639,75.531,217.954c-1.919,1.5-3.719.777-4.014-1.612L68.2,189.432a8.61,8.61,0,0,1,2.946-7.053l87.387-68.316c1.919-1.5,3.719-.777,4.014,1.612l3.315,26.91a8.614,8.614,0,0,1-2.947,7.053M71.4,184.445a4.506,4.506,0,0,0-1.541,3.69l3.314,26.91c.154,1.25,1.1,1.628,2.1.843l87.387-68.316a4.506,4.506,0,0,0,1.541-3.69l-3.314-26.91c-.154-1.25-1.1-1.628-2.1-.843Z" transform="translate(-20.897 -34.73)" fill="#455a64"/>
            <path id="Trazado_119900" data-name="Trazado 119900" d="M159.013,124.338l-83,64.889a3.637,3.637,0,0,0-1.246,2.982l2.632,21.366c.124,1.012.884,1.317,1.7.682l83-64.889a3.639,3.639,0,0,0,1.246-2.983L160.71,125.02c-.125-1.012-.885-1.317-1.7-.682m-10.729,20.749,2.342-1.831.34,2.768-2.342,1.831Zm-18.769,6.947q1.585-1.079,2.465-.64t1.166,2.377q.08.5.15,1.141t.117,1.179l-2.527,1.976q-.055-.6-.128-1.263t-.16-1.226q-.145-1.094-.758-.9Zm-7.523,13.606,2.342-1.831.341,2.768-2.342,1.831Zm-9.5-.3q1.6-1.1,2.446-.688t1.168,2.438q.072.438.14,1.1t.11,1.235l-2.426,1.9q-.063-.744-.144-1.474t-.195-1.434q-.108-.721-.776-.451Zm-27.9,40.412-2.528,1.976-1.607-13.045,2.528-1.976Zm.6-15.828-7.194,5.624-.341-2.769,7.194-5.624Zm4.223-3.658a2.4,2.4,0,0,0-.471,1.874q.385,4.7,1.123,9.124.15,1.147.812.894l.324,2.632q-1.69,1.2-2.553.789T87.483,199.1q-.219-1.553-.4-2.957t-.347-2.821q-.165-1.417-.334-3.009a6.957,6.957,0,0,1,2.687-6.676Zm5.2,4q.156,1.418.3,3.02a8.014,8.014,0,0,1-.413,3.692,7.751,7.751,0,0,1-2.2,2.953l-.323-2.621a2.445,2.445,0,0,0,.467-1.906q-.385-4.7-1.124-9.124-.149-1.136-.811-.883l-.322-2.622q1.626-1.122,2.479-.714t1.168,2.438q.245,1.545.437,2.946t.347,2.822m5.332,3.476-2.528,1.976-2.066-16.779,2.528-1.976Zm3.591-13.131a7.561,7.561,0,0,1-.511,3.837,8.41,8.41,0,0,1-2.608,3.085l-.017.013-.34-2.769.017-.012a2.231,2.231,0,0,0,.953-2.01q-.054-.808-.181-1.842t-.263-1.765q-.193-1.114-1.238-.3l-.017.012-.341-2.769.017-.012q1.888-1.476,2.842-1.182t1.284,2.439q.134.862.227,1.616t.176,1.656m9.952,2.751q-1.609,1.109-2.459.692t-1.175-2.451q-.071-.5-.141-1.143a11.838,11.838,0,0,1-.074-1.2l2.376-1.858q.06.793.144,1.543a12.912,12.912,0,0,0,.21,1.331q.141.705.794.449Zm3.747-7.528a8.121,8.121,0,0,1-.426,3.707A7.685,7.685,0,0,1,114.6,182.5l-.325-2.643a2.256,2.256,0,0,0,.5-1.453,10.348,10.348,0,0,0-.261-2.118.771.771,0,0,0-.4-.571.788.788,0,0,0-.732.055l-1.6.771q-1.37.656-2.007.051a3.7,3.7,0,0,1-.874-2.145q-.13-.83-.193-1.573a8.015,8.015,0,0,1,.435-3.7,7.821,7.821,0,0,1,2.234-2.966l.325,2.632a2.273,2.273,0,0,0-.54,1.468,10.808,10.808,0,0,0,.266,2.161,1.073,1.073,0,0,0,.331.586c.157.133.384.127.68-.021l1.409-.71q1.478-.742,2.222-.18a3.238,3.238,0,0,1,.994,2.149q.061.343.1.754t.07.79m4.848.6-2.527,1.976-2.066-16.779,2.527-1.976Zm3.64-2.845-2.511,1.963-.34-2.768,2.51-1.963ZM124,159.588l-2.511,1.963-.341-2.769,2.511-1.963Zm4.728-4.052a2.4,2.4,0,0,0-.471,1.874q.461,4.651,1.123,9.123.15,1.147.812.894l.324,2.632q-1.666,1.165-2.525.756t-1.159-2.474q-.217-1.542-.4-2.946t-.349-2.832q-.166-1.427-.336-3.031a7.477,7.477,0,0,1,.417-3.625,7.954,7.954,0,0,1,2.239-3Zm5.568,6.97a7,7,0,0,1-2.668,6.685l-.323-2.622a2.572,2.572,0,0,0,.484-1.919q-.058-.7-.124-1.236t-.178-1.218l2.528-1.976q.079.491.158,1.13t.123,1.156m4.814.628-2.527,1.976-2.066-16.779,2.527-1.976Zm2.376-1.858-1.961-4.675-.017.014-.341-2.769.017-.014a2.228,2.228,0,0,0,.953-2.01,29.85,29.85,0,0,0-.4-3.272q-.192-1.114-1.237-.3l-.017.014-.34-2.769.017-.013q1.887-1.476,2.842-1.182t1.284,2.439q.088.575.148,1.012t.108.881q.05.443.105,1.044a7.213,7.213,0,0,1-.883,4.529l2.353,5.012Zm6.891-5.386-2.528,1.976-2.066-16.779,2.528-1.976Zm3.64-2.846-2.511,1.963-.341-2.768,2.511-1.963Zm-1.726-14.01L147.78,141l-.341-2.769,2.511-1.963Zm7.571,9.44-2.528,1.976-1.606-13.045,2.527-1.976Zm.6-15.828-7.194,5.624-.341-2.769,7.194-5.624Z" transform="translate(-22.916 -38.018)" fill="#455a64"/>
          </g>
        </g>
      </g>
    </g>
    <rect id="Rectángulo_36614" data-name="Rectángulo 36614" width="295" height="244" transform="translate(285 1298)" fill="none"/>
  </g>
</svg>
