<svg xmlns="http://www.w3.org/2000/svg" width="86" height="86" viewBox="0 0 86 86">
  <g id="Grupo_86061" data-name="Grupo 86061" transform="translate(-580 -2361)">
    <g id="codigo-de-barras" transform="translate(589 2346.726)">
      <path id="Trazado_119949" data-name="Trazado 119949" d="M53.968,81.242h53.665v46.42H53.968Z" transform="translate(-46.8 -46.8)" fill="#13b770"/>
      <path id="Trazado_119951" data-name="Trazado 119951" d="M0,0H37.136V45.078H0Z" transform="translate(56.539 39.084) rotate(90)" fill="#ecf4ff"/>
      <path id="Trazado_119952" data-name="Trazado 119952" d="M0,0H37.136V2.952H0Z" transform="translate(56.539 39.084) rotate(90)" fill="#cbe2ff"/>
      <path id="Trazado_119953" data-name="Trazado 119953" d="M7.5,239.837H73.508v4.293H7.5Z" transform="translate(-6.504 -184.332)" fill="#eecf52"/>
      <g id="Grupo_85826" data-name="Grupo 85826" transform="translate(0 27.274)">
        <path id="Trazado_119955" data-name="Trazado 119955" d="M443.684,27.274h-8.318a1,1,0,0,0,0,1.992h7.322v7.322a1,1,0,0,0,1.992,0V28.27A1,1,0,0,0,443.684,27.274Z" transform="translate(-376.68 -27.274)"/>
        <path id="Trazado_119956" data-name="Trazado 119956" d="M1,37.584a1,1,0,0,0,1-1V29.266H9.314a1,1,0,1,0,0-1.992H1a1,1,0,0,0-1,1v8.318a1,1,0,0,0,1,1Z" transform="translate(0 -27.274)"/>
        <path id="Trazado_119957" data-name="Trazado 119957" d="M443.684,407.1a1,1,0,0,0-1,1v7.322h-7.322a1,1,0,0,0,0,1.992h8.318a1,1,0,0,0,1-1v-8.318A1,1,0,0,0,443.684,407.1Z" transform="translate(-376.68 -356.651)"/>
        <path id="Trazado_119958" data-name="Trazado 119958" d="M9.314,415.414H1.992v-7.322a1,1,0,0,0-1.992,0v8.318a1,1,0,0,0,1,1H9.314a1,1,0,1,0,0-1.992Z" transform="translate(0 -356.651)"/>
        <path id="Trazado_119959" data-name="Trazado 119959" d="M345.461,337.395a1,1,0,0,0-1,1V340a1,1,0,1,0,1.992,0v-1.61A1,1,0,0,0,345.461,337.395Z" transform="translate(-298.716 -296.207)"/>
        <path id="Trazado_119960" data-name="Trazado 119960" d="M307.075,337.395a1,1,0,0,0-1,1V340a1,1,0,1,0,1.992,0v-1.61A1,1,0,0,0,307.075,337.395Z" transform="translate(-265.428 -296.207)"/>
        <path id="Trazado_119961" data-name="Trazado 119961" d="M268.689,337.395a1,1,0,0,0-1,1V340a1,1,0,1,0,1.992,0v-1.61A1,1,0,0,0,268.689,337.395Z" transform="translate(-232.14 -296.207)"/>
        <path id="Trazado_119962" data-name="Trazado 119962" d="M230.3,337.395a1,1,0,0,0-1,1V340a1,1,0,0,0,1.992,0v-1.61A1,1,0,0,0,230.3,337.395Z" transform="translate(-198.852 -296.207)"/>
        <path id="Trazado_119963" data-name="Trazado 119963" d="M191.917,337.395a1,1,0,0,0-1,1V340a1,1,0,0,0,1.992,0v-1.61A1,1,0,0,0,191.917,337.395Z" transform="translate(-165.564 -296.207)"/>
        <path id="Trazado_119964" data-name="Trazado 119964" d="M153.531,337.395a1,1,0,0,0-1,1V340a1,1,0,0,0,1.992,0v-1.61A1,1,0,0,0,153.531,337.395Z" transform="translate(-132.276 -296.207)"/>
        <path id="Trazado_119965" data-name="Trazado 119965" d="M67,94.8H61.828V74.736a1,1,0,0,0-1-1H15.725a1,1,0,1,0,0,1.992H59.836V94.8h-2.3V79.378a1,1,0,0,0-1-1H11.46a1,1,0,0,0-1,1V94.8h-2.3V75.732h2.9a1,1,0,0,0,0-1.992h-3.9a1,1,0,0,0-1,1V94.8H1a1,1,0,0,0-1,1v4.293a1,1,0,0,0,1,1H6.172v20.068a1,1,0,0,0,1,1H60.832a1,1,0,0,0,1-1V101.089H67a1,1,0,0,0,1-1V95.8a1,1,0,0,0-1-1ZM12.456,80.374H55.544V94.8h-2.7V84.53a1,1,0,1,0-1.992,0V94.8H47.742V84.53a1,1,0,0,0-1.992,0V94.8H42.643V84.53a1,1,0,0,0-1.992,0V94.8H37.545V84.53a1,1,0,0,0-1.992,0V94.8H32.447V84.53a1,1,0,0,0-1.992,0V94.8H27.349V84.53a1,1,0,0,0-1.992,0V94.8H22.25V84.53a1,1,0,0,0-1.992,0V94.8H17.153V84.53a1,1,0,0,0-1.992,0V94.8h-2.7Zm47.38,39.787H8.164V101.089h2.3v15.426a1,1,0,0,0,1,1H48.24a1,1,0,1,0,0-1.992H12.456v-14.43h2.7v10.274a1,1,0,0,0,1.992,0V101.089h3.105v3.566a1,1,0,0,0,1.992,0v-3.566h3.106v3.566a1,1,0,0,0,1.992,0v-3.566h3.106v3.566a1,1,0,1,0,1.992,0v-3.566h3.105v3.566a1,1,0,0,0,1.992,0v-3.566h3.106v3.566a1,1,0,0,0,1.992,0v-3.566H45.75v3.566a1,1,0,0,0,1.992,0v-3.566h3.105v10.274a1,1,0,1,0,1.992,0V101.089h2.7v14.43H52.9a1,1,0,0,0,0,1.992H56.54a1,1,0,0,0,1-1V101.089h2.3ZM66.008,99.1H1.992V96.8H66.008Z" transform="translate(0 -67.569)"/>
      </g>
    </g>
    <rect id="Rectángulo_36801" data-name="Rectángulo 36801" width="86" height="86" transform="translate(580 2361)" fill="none"/>
  </g>
</svg>
