<svg xmlns="http://www.w3.org/2000/svg" width="132.096" height="132.322" viewBox="0 0 132.096 132.322">
  <g id="revisar" transform="translate(-17.33 -17.75)">
    <g id="Grupo_86054" data-name="Grupo 86054" transform="translate(19.807 20.177)">
      <path id="Trazado_120858" data-name="Trazado 120858" d="M73.58,73.484a30.682,30.682,0,0,0,36.5,48.57c.014,0,.028,0,.028-.014v16.3a8.48,8.48,0,0,1-8.491,8.491H27.571a8.491,8.491,0,0,1-8.491-8.491V27.956a8.491,8.491,0,0,1,8.491-8.491H82.977l27.13,27.13V68.318A30.71,30.71,0,0,0,73.58,73.484Z" transform="translate(-19.08 -19.465)" fill="#eecf52"/>
      <path id="Trazado_120859" data-name="Trazado 120859" d="M91.364,46.6H72.73A8.491,8.491,0,0,1,64.239,38.1V19.47Z" transform="translate(-0.329 -19.463)" fill="#13b770"/>
      <path id="Trazado_120860" data-name="Trazado 120860" d="M108.8,96.77a30.71,30.71,0,0,1-12.043,12.058c0,.014-.014.014-.028.014A30.682,30.682,0,1,1,108.8,96.77Z" transform="translate(-5.727 -6.253)" fill="#13b770"/>
      <path id="Trazado_120861" data-name="Trazado 120861" d="M117.02,117.072a8.524,8.524,0,0,1-12.072,0L83.408,95.539,83.38,95.5c.014,0,.028,0,.028-.014A30.71,30.71,0,0,0,95.452,83.425l21.568,21.568a8.524,8.524,0,0,1,0,12.079Z" transform="translate(7.618 7.092)" fill="#fff"/>
      <g id="Grupo_86053" data-name="Grupo 86053" transform="translate(15.808 17.174)">
        <g id="Grupo_86052" data-name="Grupo 86052">
          <path id="Trazado_120862" data-name="Trazado 120862" d="M63.956,46.907H32.727a2.477,2.477,0,0,0,0,4.953H63.956a2.477,2.477,0,1,0,0-4.953Z" transform="translate(-30.25 -25.244)" fill="#fff8cd"/>
          <path id="Trazado_120863" data-name="Trazado 120863" d="M32.727,67.168H47.289a2.477,2.477,0,1,0,0-4.953H32.727a2.477,2.477,0,0,0,0,4.953Z" transform="translate(-30.25 -18.888)" fill="#fff8cd"/>
          <path id="Trazado_120864" data-name="Trazado 120864" d="M32.727,36.553H59.962a2.477,2.477,0,1,0,0-4.953H32.727a2.477,2.477,0,1,0,0,4.953Z" transform="translate(-30.25 -31.6)" fill="#fff8cd"/>
          <path id="Trazado_120865" data-name="Trazado 120865" d="M32.727,82.477H47.289a2.477,2.477,0,1,0,0-4.953H32.727a2.477,2.477,0,1,0,0,4.953Z" transform="translate(-30.25 -12.532)" fill="#fff8cd"/>
          <path id="Trazado_120866" data-name="Trazado 120866" d="M59.962,92.833H32.727a2.477,2.477,0,0,0,0,4.953H59.962a2.477,2.477,0,1,0,0-4.953Z" transform="translate(-30.25 -6.175)" fill="#fff8cd"/>
        </g>
        <path id="Trazado_120867" data-name="Trazado 120867" d="M77.66,61.725l4.989,10.11L93.8,73.456l-8.072,7.869,1.906,11.111L77.66,87.19l-9.979,5.245,1.906-11.111-8.072-7.869,11.156-1.62Z" transform="translate(-17.268 -19.092)" fill="#fff8cd"/>
      </g>
    </g>
    <g id="Grupo_86055" data-name="Grupo 86055" transform="translate(17.33 17.75)">
      <path id="Trazado_120868" data-name="Trazado 120868" d="M19.807,87.057a2.477,2.477,0,0,0,2.477-2.477V77.547a2.477,2.477,0,1,0-4.953,0V84.58a2.477,2.477,0,0,0,2.477,2.477Z" transform="translate(-17.33 6.05)" fill="#262626"/>
      <path id="Trazado_120869" data-name="Trazado 120869" d="M146.2,130.561l-20.31-20.31A33.041,33.041,0,0,0,113.31,67.679V47.356a2.387,2.387,0,0,0-.03-.3,2.516,2.516,0,0,0-.061-.324,2.406,2.406,0,0,0-.142-.415,2.32,2.32,0,0,0-.117-.218,2.406,2.406,0,0,0-.306-.413c-.021-.023-.033-.052-.055-.075L85.468,18.483c-.013-.013-.028-.018-.041-.031a2.469,2.469,0,0,0-.488-.359c-.044-.025-.088-.048-.133-.071a2.455,2.455,0,0,0-1.1-.272H28.3A10.981,10.981,0,0,0,17.33,28.718V88.454a2.477,2.477,0,0,0,4.953,0V28.718A6.022,6.022,0,0,1,28.3,22.7H81.24V38.868A10.981,10.981,0,0,0,92.207,49.836h16.149V65.2a33.116,33.116,0,1,0,0,61.5v12.4a6.02,6.02,0,0,1-6.015,6.015H28.3a6.022,6.022,0,0,1-6.015-6.015V121.287a2.477,2.477,0,0,0-4.953,0V139.1A10.981,10.981,0,0,0,28.3,150.072h74.044A10.981,10.981,0,0,0,113.31,139.1V128.833l17.312,17.3a10.947,10.947,0,0,0,7.792,3.23h.011a11.013,11.013,0,0,0,7.771-18.8Zm-60-91.693V26.219l18.667,18.664H92.207a6.02,6.02,0,0,1-6.015-6.015ZM76.058,115.886A28.207,28.207,0,1,1,109.7,120.6c-.028.013-.055.028-.083.042a28.357,28.357,0,0,1-33.553-4.754Zm66.631,26.756a5.988,5.988,0,0,1-4.268,1.776h-.007a6.027,6.027,0,0,1-4.291-1.78l-19.374-19.37a32.178,32.178,0,0,0,8.576-8.573l19.369,19.369a6.047,6.047,0,0,1,0,8.572Z" transform="translate(-17.33 -17.75)" fill="#262626"/>
      <path id="Trazado_120870" data-name="Trazado 120870" d="M32.727,51.894H63.956a2.477,2.477,0,1,0,0-4.953H32.727a2.477,2.477,0,0,0,0,4.953Z" transform="translate(-11.965 -5.63)" fill="#262626"/>
      <path id="Trazado_120871" data-name="Trazado 120871" d="M32.727,67.2H47.289a2.477,2.477,0,1,0,0-4.953H32.727a2.477,2.477,0,0,0,0,4.953Z" transform="translate(-11.965 0.727)" fill="#262626"/>
      <path id="Trazado_120872" data-name="Trazado 120872" d="M32.727,36.586H59.962a2.477,2.477,0,1,0,0-4.953H32.727a2.477,2.477,0,1,0,0,4.953Z" transform="translate(-11.965 -11.986)" fill="#262626"/>
      <path id="Trazado_120873" data-name="Trazado 120873" d="M32.727,82.512H47.289a2.477,2.477,0,1,0,0-4.953H32.727a2.477,2.477,0,0,0,0,4.953Z" transform="translate(-11.965 7.083)" fill="#262626"/>
      <path id="Trazado_120874" data-name="Trazado 120874" d="M32.727,97.82H59.962a2.477,2.477,0,1,0,0-4.953H32.727a2.477,2.477,0,1,0,0,4.953Z" transform="translate(-11.965 13.439)" fill="#262626"/>
      <path id="Trazado_120875" data-name="Trazado 120875" d="M89.12,82.952l7.141-6.963a2.478,2.478,0,0,0-1.373-4.224L85.02,70.328l-4.413-8.943a2.478,2.478,0,0,0-4.442,0l-4.413,8.943-9.867,1.434a2.477,2.477,0,0,0-1.373,4.224l7.141,6.96-1.687,9.827a2.477,2.477,0,0,0,3.593,2.611l8.827-4.64,8.825,4.64a2.477,2.477,0,0,0,3.6-2.605Zm-4.387-2.639a2.481,2.481,0,0,0-.708,2.192l1.057,6.166-5.543-2.917a2.478,2.478,0,0,0-2.305,0L71.7,88.671,72.76,82.5a2.477,2.477,0,0,0-.708-2.192l-4.479-4.365,6.19-.9a2.477,2.477,0,0,0,1.865-1.354l2.768-5.61,2.768,5.61a2.477,2.477,0,0,0,1.864,1.354l6.19.9Z" transform="translate(0.289 -0.205)" fill="#262626"/>
    </g>
  </g>
</svg>
