<svg xmlns="http://www.w3.org/2000/svg" xmlns:xlink="http://www.w3.org/1999/xlink" width="365.714" height="248.813" viewBox="0 0 365.714 248.813">
  <defs>
    <clipPath id="clip-path">
      <rect id="Rectángulo_36581" data-name="Rectángulo 36581" width="365.714" height="248.813" fill="none"/>
    </clipPath>
  </defs>
  <g id="Grupo_85750" data-name="Grupo 85750" transform="translate(-32)">
    <g id="Enmascarar_grupo_85749" data-name="Enmascarar grupo 85749" transform="translate(32)" clip-path="url(#clip-path)">
      <path id="Trazado_119612" data-name="Trazado 119612" d="M183.129,177.465s2.28,20.895,4.831,22.571C192.52,203.045,245.3,210,245.3,210l-1.728,13.732s-72.293,6.5-75.364,2.884c-5.33-6.267-14.7-36.5-14.7-36.5Z" transform="translate(-27.007 7.292)" fill="#e06a58"/>
      <path id="Trazado_119613" data-name="Trazado 119613" d="M148.48,126.348l5.841-14.023s15.845,7.444,21.072,16.637c5.591,9.828,12.431,62.08,12.431,62.08s-27.974,6.444-33.117,3.706-6.226-68.4-6.226-68.4" transform="translate(-27.214 4.615)" fill="#082c80"/>
      <path id="Trazado_119614" data-name="Trazado 119614" d="M108.056,63.375c-4.091-1.5-8.422-2.811-12.805-2.478S86.391,63.552,84.9,67.4c-1.062,2.728-.573,5.945-2.249,8.4-1.6,2.353-4.789,3.331-7.767,3.529s-6-.187-8.964.2c-9.162,1.218-15.7,11.171-12.691,19.323,1.2,3.248,3.654,6.351,3.092,9.734-.593,3.623-4.393,6.007-5.955,9.37-2.072,4.477.406,9.9,4.5,12.951s9.411,4.2,14.575,4.966c7.111,1.062,14.45,1.562,21.478.062s13.742-5.205,17.376-10.994c1.614-2.561,2.592-5.455,4.466-7.86,3.873-4.966,10.734-6.892,16.137-10.411,5.9-3.862,10.234-11.379,6.757-17.261C132.3,83.759,123.579,82.5,120.081,76.93c-1.447-2.3-1.791-5.039-2.728-7.548-.958-2.519-3.248-3.79-9.3-6.007" transform="translate(-31.276 2.5)" fill="#0a2240"/>
      <path id="Trazado_119615" data-name="Trazado 119615" d="M129.9,132.333c1.031,1.187,2.249,2.488,3.935,2.6,1.78.125,3.269-1.135,4.414-2.353a44.808,44.808,0,0,0,11.4-21.863c-1.468-.833-2.884-1.635-4.164-2.384a6.323,6.323,0,0,1-2.592-2.853,5.48,5.48,0,0,1-.385-2.686,76.773,76.773,0,0,1,4.321-20.135c-13.055-2.946-25.371-6.444-32.451-12.358-.864,3.644-1.884,10.775-4.06,17.844-2.322,7.485-5.945,14.888-12.087,18.073a129.529,129.529,0,0,1,31.67,26.111" transform="translate(-29.279 2.889)" fill="#f9a07b"/>
      <path id="Trazado_119616" data-name="Trazado 119616" d="M142.03,102.807a5.462,5.462,0,0,0,.385,2.686c-7.725,9.37-25-2.873-32.576-17.334,2.176-7.069,3.2-14.2,4.06-17.844,7.069,5.913,19.4,9.422,32.451,12.358a76.685,76.685,0,0,0-4.321,20.135" transform="translate(-28.802 2.889)" fill="#e06a58"/>
      <path id="Trazado_119617" data-name="Trazado 119617" d="M165.253,214.816c-1.707,11.306,10.494,23.477,10.8,29.515-25.913,0-80.2,1.582-107.836-2.176C66.954,235.179,80.6,219.49,80.6,204c0-2.051-.083-4.3-.25-6.715-.437-6.913-1.458-15.137-2.592-23.57-3.082-22.623-7.184-46.818-4.154-51.836C79.54,112.1,93.418,105.46,100.3,102.607c2.363-.979,3.9-1.51,4.019-1.572,8.631,14.721,26.194,27.277,32.826,26.714,1.843-.146,7.308-2.051,10.921-20.239,1.405.8,2.811,1.541,4.206,2.259,6.861,3.571,13.295,6.517,15.148,11.108,4.893,12.087,9.693,42.56,8.631,53.4-1.072,10.931-5.466,19.281-8.547,30.254-.718,2.571-1.374,5.3-1.905,8.235-.135.656-.239,1.343-.344,2.051" transform="translate(-30.515 4.151)" fill="#05339e"/>
      <path id="Trazado_119618" data-name="Trazado 119618" d="M176.049,241.915c-25.913,0-80.2,1.582-107.836-2.176-1.26-6.975,12.389-22.665,12.389-38.156,0-2.051-.083-4.3-.25-6.715-.437-6.913-1.458-15.137-2.592-23.57,4.9,5.174,12.056-16.689,15.221-10.286,17.126,34.564,30.629,43.653,54.1,43.653a90.094,90.094,0,0,0,20.426-2.551c-.718,2.571-1.374,5.3-1.905,8.235q-.187,1-.344,2.061c-1.707,11.285,10.494,23.456,10.8,29.5" transform="translate(-30.515 6.567)" fill="#05339e"/>
      <path id="Trazado_119619" data-name="Trazado 119619" d="M151,109.77c-1.114,8.089-4.414,18.989-14.013,21.863-12.972,3.883-31.743-20.353-37.958-29.026,2.363-.979,3.9-1.51,4.019-1.572,8.631,14.721,26.194,27.277,32.826,26.714,1.843-.146,7.308-2.051,10.921-20.239,1.405.791,2.811,1.53,4.206,2.259" transform="translate(-29.246 4.151)" fill="#fce172"/>
      <path id="Trazado_119620" data-name="Trazado 119620" d="M154.074,226.995l-.094,9.026,161.369.958.333-10.234Z" transform="translate(-26.988 9.317)" fill="#325f73"/>
      <path id="Trazado_119621" data-name="Trazado 119621" d="M383.268,149.809l-3.592-3.644-117.539-.77L203.17,230.671l3.082,2.478Z" transform="translate(-24.967 5.974)" fill="#325f73"/>
      <path id="Trazado_119622" data-name="Trazado 119622" d="M264.285,148.425l-58.155,84.6,111.084.552,65.932-83.891Z" transform="translate(-24.845 6.099)" fill="#0b2d50"/>
      <path id="Trazado_119623" data-name="Trazado 119623" d="M289.46,187.875c7.141,0,12.93,2.894,12.93,6.465s-5.789,6.465-12.93,6.465-12.93-2.894-12.93-6.465,5.789-6.465,12.93-6.465" transform="translate(-21.952 7.72)" fill="#3c738c"/>
      <path id="Trazado_119624" data-name="Trazado 119624" d="M156.38,68.828c1.832-9.83,8.572-16.819,15.056-15.611s10.255,10.157,8.422,19.987-8.572,16.819-15.056,15.61-10.254-10.156-8.422-19.986" transform="translate(-26.908 2.181)" fill="#56c4f9"/>
      <path id="Trazado_119625" data-name="Trazado 119625" d="M179.967,44.185c-1.208,8.558-5.028,17.99-10.6,28.411-1.957-8.537-3.207-18.937-4.935-29.338-1.759-10.421-4-20.843-7.881-29.359A50.967,50.967,0,0,0,153.7,8.548a19,19,0,0,1,6.85.614,22.951,22.951,0,0,1,9.37,5.112,32.853,32.853,0,0,1,9.13,14.919,33.48,33.48,0,0,1,.916,14.992" transform="translate(-26.999 0.348)" fill="#0b2d50"/>
      <path id="Trazado_119626" data-name="Trazado 119626" d="M175.552,53.2c-.062,1.687-.177,3.4-.333,5.112-2.374,27.693-14,46.693-31.795,46.693-25.121,0-41.4-28.172-41.4-55.771,0-27.224,16.678-46.932,36.2-44.652,11.254,1.291,19.479,5.028,25.319,10.5A34.509,34.509,0,0,1,172.1,28.142a57.078,57.078,0,0,1,3.446,18.8c0,.021.021.042.021.062.083,2.02.062,4.081-.01,6.194" transform="translate(-29.123 0.181)" fill="#f9a07b"/>
      <path id="Trazado_119627" data-name="Trazado 119627" d="M175.1,52.406a27.832,27.832,0,0,0-3.384-7.631,79.054,79.054,0,0,1-49.212,7.9c-3.186,2.655-6.3,5.268-9.432,7.881.062-12.6.239-21.124,5.153-27.224,4.612-5.726,12.306-7.881,19.593-8.818a90.63,90.63,0,0,1,24.726.156,25.022,25.022,0,0,1,9.11,2.7,57.078,57.078,0,0,1,3.446,18.8c0,.021.021.042.021.062.073,2,.052,4.06-.021,6.174" transform="translate(-28.669 0.976)" fill="#e06a58"/>
      <path id="Trazado_119628" data-name="Trazado 119628" d="M179.469,36.328a46.409,46.409,0,0,1-12.618,7.288c-13.8,5.57-31.743,7.413-45.725,6.736-6.871,15.1-9.651,20.509-11.41,33.679-6.715-6.3-12.181-17.834-13.8-26.9a61.531,61.531,0,0,1,1.072-27.4A40.981,40.981,0,0,1,117.889,4.586a39.292,39.292,0,0,1,4.5-2.082c8.86-3.425,18.844-3.113,27.932-.333a33.267,33.267,0,0,1,12.639,7.35c7.09,6.4,11.473,15.075,14.3,21.571.9,1.988,1.614,3.79,2.207,5.237" transform="translate(-29.417 0)" fill="#0b2d50"/>
      <path id="Trazado_119629" data-name="Trazado 119629" d="M181.475,44.533a42.386,42.386,0,0,0-2.634-8.8,30.311,30.311,0,0,0-2.478-4.654,25.519,25.519,0,0,0-13.295-10.838,48.922,48.922,0,0,0-5-5.986A38.563,38.563,0,0,0,136.552,2.91,40.883,40.883,0,0,0,117,4.576a39.293,39.293,0,0,1,4.5-2.082c8.86-3.425,18.844-3.113,27.932-.333a33.267,33.267,0,0,1,12.639,7.35,22.951,22.951,0,0,1,9.37,5.112,32.853,32.853,0,0,1,9.13,14.919,33.632,33.632,0,0,1,.906,14.992" transform="translate(-28.507 0)" fill="#225570"/>
      <path id="Trazado_119630" data-name="Trazado 119630" d="M127.78,59.193c4.643-2.655,9.463-3.852,16.22-1.385" transform="translate(-28.064 2.32)" fill="none" stroke="#0b2d50" stroke-linecap="round" stroke-miterlimit="10" stroke-width="2"/>
      <path id="Trazado_119631" data-name="Trazado 119631" d="M158.32,59c3.977-2.967,9.87-3.269,12.941,0" transform="translate(-26.81 2.328)" fill="none" stroke="#0b2d50" stroke-linecap="round" stroke-miterlimit="10" stroke-width="2"/>
      <path id="Trazado_119632" data-name="Trazado 119632" d="M153.742,73.445c.406,2.1.187,6.757-.812,8.849" transform="translate(-27.031 3.018)" fill="none" stroke="#cc454e" stroke-linecap="round" stroke-miterlimit="10" stroke-width="2"/>
      <path id="Trazado_119633" data-name="Trazado 119633" d="M138.716,69c1.058,0,1.916,1.351,1.916,3.019s-.858,3.019-1.916,3.019-1.916-1.351-1.916-3.019S137.658,69,138.716,69" transform="translate(-27.694 2.835)" fill="#262d40"/>
      <path id="Trazado_119634" data-name="Trazado 119634" d="M162.766,67.655c1.058,0,1.916,1.351,1.916,3.019s-.858,3.019-1.916,3.019-1.916-1.351-1.916-3.019.858-3.019,1.916-3.019" transform="translate(-26.706 2.78)" fill="#262d40"/>
      <path id="Trazado_119635" data-name="Trazado 119635" d="M152.044,86.057a14.712,14.712,0,0,1-1.093,1.718,11.889,11.889,0,0,1-5.653,4.4h-.01a7.382,7.382,0,0,1-3.633.239c-3.914-.7-4.945-4.31-5.133-7.09a14.874,14.874,0,0,1-.031-1.5,14.188,14.188,0,0,1,.146-1.874c6.236,3.436,15.408,4.1,15.408,4.1" transform="translate(-27.707 3.367)" fill="#cc454e"/>
      <path id="Trazado_119636" data-name="Trazado 119636" d="M152.044,86.057a14.712,14.712,0,0,1-1.093,1.718c-3.186-.042-9.7-1.676-14.461-3.946a14.188,14.188,0,0,1,.146-1.874c6.236,3.436,15.408,4.1,15.408,4.1" transform="translate(-27.707 3.367)" fill="#fff"/>
      <path id="Trazado_119637" data-name="Trazado 119637" d="M145.286,92.035a7.382,7.382,0,0,1-3.633.239c-3.914-.7-4.945-4.31-5.133-7.09a10.66,10.66,0,0,1,8.766,6.85" transform="translate(-27.705 3.5)" fill="#e8729b"/>
      <path id="Trazado_119638" data-name="Trazado 119638" d="M109.353,56.564a71.968,71.968,0,0,1,5.185-25.881C121.315,14.493,135.13,7.57,148.529,7.1a36.509,36.509,0,0,1,26.256,10.265S169.528,8.09,159.158,5.425c-6.809-1.749-17.084-2.03-25.33,1.322-8.5,3.446-19.083,13.014-22.914,23.123s-5.684,25.85-5.684,25.85Z" transform="translate(-28.991 0.171)" fill="#3d86e0"/>
      <path id="Trazado_119639" data-name="Trazado 119639" d="M105.565,50.523c6.914-.718,13.4,7.192,14.491,17.668s-3.632,19.553-10.546,20.271-13.4-7.192-14.491-17.668,3.632-19.553,10.546-20.271" transform="translate(-29.417 2.074)" fill="#56c4f9"/>
      <path id="Trazado_119640" data-name="Trazado 119640" d="M102.017,56.417c4.463-.67,9.039,5.151,10.218,13s-1.481,14.762-5.946,15.432-9.038-5.15-10.218-13,1.483-14.762,5.946-15.432" transform="translate(-29.379 2.316)" fill="#3d86e0"/>
      <path id="Trazado_119641" data-name="Trazado 119641" d="M147.185,93.385c3.7,0,6.7,1.869,6.7,4.175s-3,4.175-6.7,4.175-6.7-1.869-6.7-4.175,3-4.175,6.7-4.175" transform="translate(-27.543 3.837)" fill="#3a92c9"/>
      <path id="Trazado_119642" data-name="Trazado 119642" d="M114.57,83.985s9.849,12.66,26.975,13.961" transform="translate(-28.607 3.451)" fill="none" stroke="#3a92c9" stroke-linecap="round" stroke-miterlimit="10" stroke-width="2"/>
      <path id="Trazado_119643" data-name="Trazado 119643" d="M157.507,205.5l-.645,16.647s-60.206,18.042-70.149,12.337c-4.851-2.79-9.38-18.136-12.764-33.117C70.41,185.623,68.14,170.3,68.14,170.3l35.293-6.913s.021,21.519,1.218,33.96c.427,4.633,1.041,8.006,1.864,8.558,3.113,2.051,50.993-.406,50.993-.406" transform="translate(-30.515 6.713)" fill="#f9a07b"/>
      <path id="Trazado_119644" data-name="Trazado 119644" d="M104.651,197.325c-6.413,2.082-18.792,5.3-30.7,4.029-3.54-15.741-5.809-31.066-5.809-31.066l35.293-6.913c0-.01.021,21.509,1.218,33.95" transform="translate(-30.515 6.713)" fill="#e06a58"/>
      <path id="Trazado_119645" data-name="Trazado 119645" d="M152.452,204.32c8.953-1.916,24.112-6.517,30.4-8.1,4.466-1.124,16.1,4.893,19.166,10.567,1.343,2.478,2.613,16.512-2.041,15.065-2.332-.729-1.947-6.746-2.676-9.2-.593-2-2.488-3.935-5.372-5.6,1.926,4.8,1.853,8.985,1.645,14.169a7.347,7.347,0,0,1-.666,3.331,2.391,2.391,0,0,1-2.811,1.26c-1.062-.437-1.426-1.759-1.666-2.915a94.778,94.778,0,0,1-1.988-12.514c.083,4.445-.01,8.9-.292,13.336-.208,3.394-1.895,5.257-3.967,4.664-.927-.26-1.3-1.114-1.7-2.238-.625,2.176-2.186,4.581-4.206,3.665-1.229-.552-1.988-4.987-1.77-9.547-3.873,2.4-8.245,3.425-13.284,3.654-4.518.208-9.141-.635-11.858-3.706a79.871,79.871,0,0,1,3.082-15.887" transform="translate(-27.177 8.057)" fill="#f9a07b"/>
      <path id="Trazado_119646" data-name="Trazado 119646" d="M179.387,224.719a31.832,31.832,0,0,0-.927-10.734" transform="translate(-25.982 8.793)" fill="none" stroke="#cc454e" stroke-linecap="round" stroke-miterlimit="10" stroke-width="1"/>
      <path id="Trazado_119647" data-name="Trazado 119647" d="M99.677,130.712c-2.561-7.215-11.941-21.977-11.941-21.977s-14.315,5.955-19.4,16.064c-8.6,17.116-4.227,66.255-4.227,66.255,11.587,4.852,34.845,4.924,44.746,3.529,0,0-4.05-49.452-9.182-63.871" transform="translate(-30.726 4.468)" fill="#05339e"/>
      <path id="Trazado_119648" data-name="Trazado 119648" d="M99.98,132.745a318.31,318.31,0,0,1,6.663,53.189" transform="translate(-29.207 5.454)" fill="none" stroke="#4564ad" stroke-linecap="round" stroke-miterlimit="10" stroke-width="1"/>
    </g>
  </g>
</svg>
