<svg xmlns="http://www.w3.org/2000/svg" width="396" height="458.724" viewBox="0 0 396 458.724">
  <g id="Grupo_86070" data-name="Grupo 86070" transform="translate(-1022 -8561)">
    <rect id="Rectángulo_4912" data-name="Rectángulo 4912" width="396" height="407.507" rx="21" transform="translate(1022 8612.217)" fill="#79dfef"/>
    <circle id="Elipse_4736" data-name="Elipse 4736" cx="51" cy="51" r="51" transform="translate(1169 8561)" fill="#eecf52"/>
    <path id="Trazado_120884" data-name="Trazado 120884" d="M-6.363-28h5.038q3.6,0,5.333-1.8A6.593,6.593,0,0,0,5.741-34.58a5.83,5.83,0,0,0-1.718-4.482A6.656,6.656,0,0,0-.7-40.665a6.977,6.977,0,0,0-4.547,1.489A4.76,4.76,0,0,0-7.083-35.3h-9.455a11.627,11.627,0,0,1,2.012-6.69A13.407,13.407,0,0,1-8.9-46.619,18.78,18.78,0,0,1-.932-48.287q7.557,0,11.843,3.615A12.334,12.334,0,0,1,15.2-34.71a10.023,10.023,0,0,1-2,6.02,12.965,12.965,0,0,1-5.234,4.22,11.835,11.835,0,0,1,6,4.318,11.714,11.714,0,0,1,1.979,6.8A12.538,12.538,0,0,1,11.319-3.173Q6.69.654-.932.654-8.064.654-12.6-3.108a12.287,12.287,0,0,1-4.531-9.945h9.455A5.478,5.478,0,0,0-5.66-8.669,7.414,7.414,0,0,0-.7-6.968,7.449,7.449,0,0,0,4.58-8.751a6.155,6.155,0,0,0,1.914-4.727q0-7.132-7.852-7.132H-6.363Z" transform="translate(1221 8635)" fill="#fff"/>
  </g>
</svg>
