<svg xmlns="http://www.w3.org/2000/svg" width="466.826" height="277.34" viewBox="0 0 466.826 277.34">
  <g id="Grupo_86067" data-name="Grupo 86067" transform="translate(-848.174 -9472)">
    <rect id="BG" width="466.826" height="277.34" transform="translate(848.174 9472)" fill="#fff" opacity="0.949"/>
    <g id="Grupo_82415" data-name="Grupo 82415" transform="translate(-87 7591)">
      <rect id="Rectángulo_34965" data-name="Rectángulo 34965" width="210" height="190" transform="translate(1125 1921)" fill="#eecf52"/>
      <g id="documento" transform="translate(1176 1947.501)">
        <path id="Trazado_119694" data-name="Trazado 119694" d="M365.948,138H355.5l-3.5-3.5.052-94.5,3.448.621,26.25,4.628Z" transform="translate(-262.501 -18.75)" fill="#79dfef"/>
        <path id="Trazado_119695" data-name="Trazado 119695" d="M397.2,213.7H392v-3.5h3.721l12.871-75.543,3.45.588-13.119,77A1.75,1.75,0,0,1,397.2,213.7Z" transform="translate(-293.751 -92.7)"/>
        <path id="Trazado_119696" data-name="Trazado 119696" d="M411.553,57.164l-3.45-.588L409.9,46.042l-19.286-3.4.608-3.447,21,3.7a1.75,1.75,0,0,1,1.422,2.017Z" transform="translate(-292.666 -18.12)"/>
        <g id="Grupo_85759" data-name="Grupo 85759" transform="translate(16 16)">
          <path id="Trazado_119697" data-name="Trazado 119697" d="M24,24H99.249V125.5H24Z" transform="translate(-22.25 -22.25)" fill="#13b770"/>
          <rect id="Rectángulo_36587" data-name="Rectángulo 36587" width="18.096" height="17.309" rx="8.654" transform="translate(10.228 52.714)" fill="#fcfeff"/>
          <rect id="Rectángulo_36588" data-name="Rectángulo 36588" width="18.096" height="17.309" rx="8.654" transform="translate(10.228 78.677)" fill="#fcfeff"/>
          <path id="Trazado_119698" data-name="Trazado 119698" d="M93,121H17.75a1.75,1.75,0,0,1-1.75-1.75V93h3.5v24.5H91.249v-98H19.5v70H16V17.75A1.75,1.75,0,0,1,17.75,16H93a1.75,1.75,0,0,1,1.75,1.75v101.5A1.75,1.75,0,0,1,93,121Z" transform="translate(-16 -16)"/>
          <g id="Grupo_85758" data-name="Grupo 85758" transform="translate(8.75 50.75)">
            <g id="Grupo_85756" data-name="Grupo 85756">
              <path id="Trazado_119699" data-name="Trazado 119699" d="M88.83,265.932a1.75,1.75,0,0,1-1.238-.513l-5.25-5.25,2.475-2.475,3.914,3.914L98,250.793l2.657,2.278-10.5,12.25a1.75,1.75,0,0,1-1.262.61Z" transform="translate(-76.581 -250.182)"/>
              <path id="Trazado_119700" data-name="Trazado 119700" d="M70.875,269h-8.75A6.132,6.132,0,0,1,56,262.875v-8.75A6.132,6.132,0,0,1,62.125,248H70v3.5H62.125a2.628,2.628,0,0,0-2.625,2.625v8.75a2.628,2.628,0,0,0,2.625,2.625h8.75a2.628,2.628,0,0,0,2.625-2.625V262H77v.875A6.132,6.132,0,0,1,70.875,269Z" transform="translate(-56 -248)"/>
            </g>
            <g id="Grupo_85757" data-name="Grupo 85757" transform="translate(0 26.25)">
              <path id="Trazado_119701" data-name="Trazado 119701" d="M88.83,385.932a1.75,1.75,0,0,1-1.238-.513l-5.25-5.25,2.475-2.475,3.914,3.914L98,370.793l2.657,2.278-10.5,12.25a1.75,1.75,0,0,1-1.262.61Z" transform="translate(-76.581 -370.182)"/>
              <path id="Trazado_119702" data-name="Trazado 119702" d="M70.875,389h-8.75A6.132,6.132,0,0,1,56,382.875v-8.75A6.132,6.132,0,0,1,62.125,368H70v3.5H62.125a2.628,2.628,0,0,0-2.625,2.625v8.75a2.628,2.628,0,0,0,2.625,2.625h8.75a2.628,2.628,0,0,0,2.625-2.625V382H77v.875A6.132,6.132,0,0,1,70.875,389Z" transform="translate(-56 -368)"/>
            </g>
            <path id="Trazado_119703" data-name="Trazado 119703" d="M184,368h26.25v3.5H184Z" transform="translate(-156 -341.75)"/>
            <path id="Trazado_119704" data-name="Trazado 119704" d="M184,408h8.75v3.5H184Z" transform="translate(-156 -373)"/>
          </g>
          <path id="Trazado_119705" data-name="Trazado 119705" d="M240,408h14v3.5H240Z" transform="translate(-191 -322.251)"/>
          <path id="Trazado_119706" data-name="Trazado 119706" d="M184,248h26.25v3.5H184Z" transform="translate(-147.25 -197.25)"/>
          <path id="Trazado_119707" data-name="Trazado 119707" d="M184,288h8.75v3.5H184Z" transform="translate(-147.25 -228.5)"/>
          <path id="Trazado_119708" data-name="Trazado 119708" d="M240,288h14v3.5H240Z" transform="translate(-191 -228.5)"/>
          <path id="Trazado_119709" data-name="Trazado 119709" d="M139.927,88.2a26.9,26.9,0,0,1-10.616-16.867L128,63.013,143.728,56l15.728,7.013-1.325,8.392a26.892,26.892,0,0,1-10.755,16.966l-3.635,2.642Z" transform="translate(-103.5 -47.25)" fill="#fcfeff"/>
          <path id="Trazado_119710" data-name="Trazado 119710" d="M137.494,86.513a1.746,1.746,0,0,1-1.038-.341l-3.815-2.81a28.644,28.644,0,0,1-11.3-17.963c0-.014,0-.027-.007-.041l-1.311-8.324a1.75,1.75,0,0,1,1.016-1.871l15.728-7.013a1.75,1.75,0,0,1,1.425,0l15.728,7.013a1.75,1.75,0,0,1,1.016,1.871l-1.325,8.392c0,.014,0,.027-.007.041a28.636,28.636,0,0,1-11.447,18.069l-3.635,2.642a1.747,1.747,0,0,1-1.029.334Zm-12.706-21.72a25.159,25.159,0,0,0,9.929,15.75l2.785,2.051,2.6-1.889a25.151,25.151,0,0,0,10.058-15.844l1.112-7.047L137.48,51.666l-13.791,6.149Z" transform="translate(-97.252 -41)"/>
          <path id="Trazado_119711" data-name="Trazado 119711" d="M168.64,111.888a1.744,1.744,0,0,1-1.237-.513l-5.25-5.25,2.475-2.476,4.013,4.012L177.9,98.4l2.475,2.475-10.5,10.5a1.745,1.745,0,0,1-1.237.514Z" transform="translate(-130.182 -80.375)"/>
          <path id="Trazado_119712" data-name="Trazado 119712" d="M56,48H66.5v3.5H56Z" transform="translate(-47.25 -41)"/>
          <path id="Trazado_119713" data-name="Trazado 119713" d="M56,80h7v3.5H56Z" transform="translate(-47.25 -66)"/>
          <path id="Trazado_119714" data-name="Trazado 119714" d="M296,48h3.5v3.5H296Z" transform="translate(-234.75 -41)"/>
          <path id="Trazado_119715" data-name="Trazado 119715" d="M328,48h3.5v3.5H328Z" transform="translate(-259.751 -41)"/>
        </g>
      </g>
    </g>
  </g>
</svg>
