<svg xmlns="http://www.w3.org/2000/svg" width="295" height="180" viewBox="0 0 295 180">
  <g id="Grupo_86066" data-name="Grupo 86066" transform="translate(-1020 -8233)">
    <rect id="Rectángulo_36572" data-name="Rectángulo 36572" width="295" height="180" transform="translate(1020 8233)" fill="#e5fff4"/>
    <g id="quejar" transform="translate(1125 8261.575)">
      <g id="Grupo_85720" data-name="Grupo 85720" transform="translate(69.895 1.8)">
        <path id="Trazado_119533" data-name="Trazado 119533" d="M337.611,7.5H296.152a4.847,4.847,0,0,0-4.848,4.847V61.062a4.847,4.847,0,0,0,4.848,4.847h9.223v7.756l9.938-7.76h22.3a4.847,4.847,0,0,0,4.847-4.847V12.347A4.847,4.847,0,0,0,337.611,7.5Z" transform="translate(-291.305 -7.5)" fill="#f4fbff"/>
      </g>
      <g id="Grupo_85721" data-name="Grupo 85721" transform="translate(111.839 1.8)">
        <path id="Trazado_119534" data-name="Trazado 119534" d="M470.477,7.5h-4.363a4.847,4.847,0,0,1,4.848,4.847V61.058a4.847,4.847,0,0,1-4.848,4.847h4.363a4.847,4.847,0,0,0,4.847-4.847V12.347A4.847,4.847,0,0,0,470.477,7.5Z" transform="translate(-466.114 -7.5)" fill="#dfeaef"/>
      </g>
      <g id="Grupo_85735" data-name="Grupo 85735" transform="translate(1.8 1.8)">
        <g id="Grupo_85722" data-name="Grupo 85722" transform="translate(0 72.767)">
          <path id="Trazado_119535" data-name="Trazado 119535" d="M57.187,310.771l20.126,5.367a16.966,16.966,0,0,1,12.595,16.394v24.723H7.5V332.532a16.967,16.967,0,0,1,12.595-16.394l20.126-5.367Z" transform="translate(-7.5 -310.771)" fill="#13b770"/>
        </g>
        <g id="Grupo_85723" data-name="Grupo 85723" transform="translate(41.204 72.767)">
          <path id="Trazado_119536" data-name="Trazado 119536" d="M179.228,319.2l9.453,7.756,2.8-15.181-3.77-1.005Z" transform="translate(-179.228 -310.771)" fill="#a0aab7"/>
        </g>
        <g id="Grupo_85724" data-name="Grupo 85724" transform="translate(28.951 72.767)">
          <path id="Trazado_119537" data-name="Trazado 119537" d="M140.413,319.2l-9.453,7.756-2.8-15.181,3.77-1.005Z" transform="translate(-128.16 -310.771)" fill="#a0aab7"/>
        </g>
        <g id="Grupo_85725" data-name="Grupo 85725" transform="translate(70.854 78.451)">
          <path id="Trazado_119538" data-name="Trazado 119538" d="M302.8,334.461a16.944,16.944,0,0,1,4.041,10.987V375.26h7.514V350.537A16.964,16.964,0,0,0,302.8,334.461Z" transform="translate(-302.8 -334.461)" fill="#66b49d"/>
        </g>
        <g id="Grupo_85726" data-name="Grupo 85726" transform="translate(32.721 59.867)">
          <path id="Trazado_119539" data-name="Trazado 119539" d="M152.355,278.339l-8.483-8.43v-12.9h16.966v12.9Z" transform="translate(-143.872 -257.01)" fill="#f1d0a5"/>
        </g>
        <g id="Grupo_85727" data-name="Grupo 85727" transform="translate(32.721 59.867)">
          <path id="Trazado_119540" data-name="Trazado 119540" d="M143.872,262.528a24.235,24.235,0,0,0,16.967,0V257.01H143.872v5.518Z" transform="translate(-143.872 -257.01)" fill="#f1b986"/>
        </g>
        <g id="Grupo_85730" data-name="Grupo 85730" transform="translate(21.814 23.026)">
          <g id="Grupo_85728" data-name="Grupo 85728" transform="translate(0 0)">
            <path id="Trazado_119541" data-name="Trazado 119541" d="M98.415,103.465V123.12a19.39,19.39,0,1,0,38.78,0V103.465Z" transform="translate(-98.415 -103.465)" fill="#f1d0a5"/>
          </g>
          <g id="Grupo_85729" data-name="Grupo 85729" transform="translate(31.213 0)">
            <path id="Trazado_119542" data-name="Trazado 119542" d="M236.07,123.12V103.465h-4.605v24.723a19.294,19.294,0,0,1-2.962,10.3A19.354,19.354,0,0,0,236.07,123.12Z" transform="translate(-228.503 -103.465)" fill="#f1b986"/>
          </g>
        </g>
        <g id="Grupo_85731" data-name="Grupo 85731" transform="translate(15.512)">
          <path id="Trazado_119543" data-name="Trazado 119543" d="M123.534,33.192V44.341h-6.3L113.84,40.1a4.847,4.847,0,0,0-3.785-1.819h-3.9a4.849,4.849,0,0,1-3.428-1.42L97.842,31.98,92.96,36.862a4.848,4.848,0,0,1-3.428,1.42h-3.9A4.848,4.848,0,0,0,81.844,40.1l-3.392,4.24h-6.3V33.192a25.692,25.692,0,0,1,51.384,0Z" transform="translate(-72.15 -7.5)" fill="#eecf52"/>
        </g>
        <g id="Grupo_85732" data-name="Grupo 85732" transform="translate(57.619 5.928)">
          <path id="Trazado_119544" data-name="Trazado 119544" d="M247.642,32.208a25.578,25.578,0,0,1,2.975,12.008V63.121h6.3V51.972a25.637,25.637,0,0,0-9.277-19.764Z" transform="translate(-247.642 -32.208)" fill="#ecbe6b"/>
        </g>
        <g id="Grupo_85733" data-name="Grupo 85733" transform="translate(60.594 30.297)">
          <path id="Trazado_119545" data-name="Trazado 119545" d="M262.744,145.4h-2.7V133.77h2.7a4.8,4.8,0,0,1,4.8,4.8v2.037A4.8,4.8,0,0,1,262.744,145.4Z" transform="translate(-260.041 -133.77)" fill="#fcd0a3"/>
        </g>
        <g id="Grupo_85734" data-name="Grupo 85734" transform="translate(14.312 30.297)">
          <path id="Trazado_119546" data-name="Trazado 119546" d="M71.949,145.4h2.7V133.77h-2.7a4.8,4.8,0,0,0-4.8,4.8v2.037A4.8,4.8,0,0,0,71.949,145.4Z" transform="translate(-67.15 -133.77)" fill="#fcd0a3"/>
        </g>
      </g>
      <g id="Grupo_85737" data-name="Grupo 85737" transform="translate(80.33 9.071)">
        <g id="Grupo_85736" data-name="Grupo 85736">
          <circle id="Elipse_4818" data-name="Elipse 4818" cx="14.543" cy="14.543" r="14.543" fill="#ff8686"/>
        </g>
      </g>
      <g id="Grupo_85738" data-name="Grupo 85738" transform="translate(0)">
        <path id="Trazado_119547" data-name="Trazado 119547" d="M121.049,17.815a1.8,1.8,0,0,0,1.8-1.8V6.647A6.655,6.655,0,0,0,116.2,0H74.743A6.655,6.655,0,0,0,68.1,6.647v9.616A27.491,27.491,0,0,0,15.512,27.492v5.414a1.819,1.819,0,0,0,.01.189,6.559,6.559,0,0,0-1.21,3.8v2.036a6.606,6.606,0,0,0,6.6,6.6h.93A21.213,21.213,0,0,0,32.721,63V73.183l-18.79,5.011A18.788,18.788,0,0,0,0,96.327v3.58a1.8,1.8,0,1,0,3.6,0v-3.58A15.185,15.185,0,0,1,14.858,81.672l14.476-3.86,2.447,13.267a1.8,1.8,0,0,0,2.911,1.065L43,85.324l8.311,6.819a1.8,1.8,0,0,0,2.911-1.065l2.447-13.266,14.476,3.86A15.185,15.185,0,0,1,82.409,96.327v3.58a1.8,1.8,0,0,0,3.6,0v-3.58A18.789,18.789,0,0,0,72.077,78.195l-18.79-5.011V63A21.214,21.214,0,0,0,64.168,45.531H65.1a6.556,6.556,0,0,0,3-.724V55.362a6.655,6.655,0,0,0,6.647,6.647h7.423v5.956a1.8,1.8,0,0,0,2.907,1.418L94.523,62H116.2a6.655,6.655,0,0,0,6.647-6.647V24.418a1.8,1.8,0,1,0-3.6,0v30.94a3.051,3.051,0,0,1-3.048,3.048H93.9a1.8,1.8,0,0,0-1.108.381l-7.03,5.49V60.209a1.8,1.8,0,0,0-1.8-1.8H74.743A3.051,3.051,0,0,1,71.7,55.362V6.647A3.051,3.051,0,0,1,74.743,3.6H116.2a3.051,3.051,0,0,1,3.048,3.048v9.369a1.8,1.8,0,0,0,1.8,1.8ZM43,3.6A23.919,23.919,0,0,1,66.9,27.492v3.057a6.573,6.573,0,0,0-1.8-.251h-2.7a1.8,1.8,0,0,0-1.8,1.8v1.414l-.187-.234a6.614,6.614,0,0,0-5.191-2.495h-3.9a3.026,3.026,0,0,1-2.155-.893l-4.882-4.882a1.8,1.8,0,0,0-2.545,0l-4.882,4.882a3.028,3.028,0,0,1-2.155.893h-3.9a6.706,6.706,0,0,0-1.489.167,6.612,6.612,0,0,0-3.7,2.328l-.187.234V32.1a1.8,1.8,0,0,0-1.8-1.8h-2.7a6.582,6.582,0,0,0-1.8.251V27.492A23.92,23.92,0,0,1,43,3.6ZM17.911,38.932V36.9a3,3,0,0,1,3-3h.9v8.035h-.9A3,3,0,0,1,17.911,38.932Zm14.911,37.95,1.163-.31,6.337,6.3-5.555,4.558ZM51.24,87.426l-5.555-4.558,6.337-6.3,1.163.31ZM49.687,73.818,43,80.459,36.32,73.818V64.589a21.2,21.2,0,0,0,13.367,0ZM60.594,44.48a17.591,17.591,0,1,1-35.181,0V39.272l3-3.747a3.034,3.034,0,0,1,2.38-1.144h3.9a6.605,6.605,0,0,0,4.7-1.947L43,28.825l3.609,3.609a6.6,6.6,0,0,0,4.7,1.947h3.9a3.032,3.032,0,0,1,2.38,1.144l3,3.747Zm4.5-2.549h-.9V33.9h.9a3,3,0,0,1,3,3v2.036A3,3,0,0,1,65.1,41.931Z" transform="translate(0)"/>
        <path id="Trazado_119548" data-name="Trazado 119548" d="M84.208,443.979a1.8,1.8,0,0,0-1.8,1.8V456.7H70.01v-7.9a1.8,1.8,0,0,0-3.6,0v7.9H19.6v-7.9a1.8,1.8,0,0,0-3.6,0v7.9H3.6V445.786a1.8,1.8,0,1,0-3.6,0V458.5a1.8,1.8,0,0,0,1.8,1.8H84.208a1.8,1.8,0,0,0,1.8-1.8V445.779A1.8,1.8,0,0,0,84.208,443.979Z" transform="translate(0 -337.451)"/>
        <path id="Trazado_119549" data-name="Trazado 119549" d="M222.939,460.193a1.8,1.8,0,1,0,0-3.6h-7.995a1.8,1.8,0,0,0,0,3.6Z" transform="translate(-162.003 -347.039)"/>
        <path id="Trazado_119550" data-name="Trazado 119550" d="M339.705,184.589a1.8,1.8,0,0,0-1.8-1.8h-22a1.8,1.8,0,1,0,0,3.6h22A1.8,1.8,0,0,0,339.705,184.589Z" transform="translate(-238.742 -138.931)"/>
        <path id="Trazado_119551" data-name="Trazado 119551" d="M445.461,182.789H438.19a1.8,1.8,0,1,0,0,3.6h7.271a1.8,1.8,0,1,0,0-3.6Z" transform="translate(-331.683 -138.931)"/>
        <path id="Trazado_119552" data-name="Trazado 119552" d="M372.979,216.652H395.9a1.8,1.8,0,1,0,0-3.6H372.979a1.8,1.8,0,1,0,0,3.6Z" transform="translate(-282.119 -161.933)"/>
        <path id="Trazado_119553" data-name="Trazado 119553" d="M315.909,213.053a1.8,1.8,0,1,0,0,3.6h6.072a1.8,1.8,0,1,0,0-3.6Z" transform="translate(-238.742 -161.933)"/>
        <path id="Trazado_119554" data-name="Trazado 119554" d="M375.8,105.524a1.8,1.8,0,1,0,2.547-2.543,10.027,10.027,0,0,0-14.2,0,1.8,1.8,0,0,0,2.547,2.543,6.428,6.428,0,0,1,9.1,0Z" transform="translate(-276.38 -76.034)"/>
        <path id="Trazado_119555" data-name="Trazado 119555" d="M359.978,46.647a16.342,16.342,0,1,0-16.342,16.342A16.361,16.361,0,0,0,359.978,46.647Zm-29.085,0A12.743,12.743,0,1,1,343.636,59.39,12.758,12.758,0,0,1,330.893,46.647Z" transform="translate(-248.763 -23.034)"/>
        <path id="Trazado_119556" data-name="Trazado 119556" d="M367.125,75.653a2.423,2.423,0,0,0,2.133-1.149,1.2,1.2,0,0,0-.523-1.7l-2.164-1.042a1.213,1.213,0,0,0-1.677.709,2.423,2.423,0,0,0-.12.859A2.449,2.449,0,0,0,367.125,75.653Z" transform="translate(-277.249 -54.452)"/>
        <path id="Trazado_119557" data-name="Trazado 119557" d="M408.928,75.653a2.449,2.449,0,0,0,2.351-2.323,2.42,2.42,0,0,0-.12-.859,1.213,1.213,0,0,0-1.677-.709L407.318,72.8a1.2,1.2,0,0,0-.523,1.7,2.422,2.422,0,0,0,2.133,1.149Z" transform="translate(-309.059 -54.452)"/>
      </g>
    </g>
  </g>
</svg>
