<svg id="Grupo_85471" data-name="Grupo 85471" xmlns="http://www.w3.org/2000/svg" xmlns:xlink="http://www.w3.org/1999/xlink" width="680.739" height="404.118" viewBox="0 0 680.739 404.118">
  <defs>
    <clipPath id="clip-path">
      <rect id="Rectángulo_36469" data-name="Rectángulo 36469" width="680.739" height="404.118" fill="none"/>
    </clipPath>
    <clipPath id="clip-path-4">
      <rect id="Rectángulo_36462" data-name="Rectángulo 36462" width="22.586" height="30.497" transform="translate(191.8 349.725)" fill="none"/>
    </clipPath>
    <clipPath id="clip-path-5">
      <rect id="Rectángulo_36463" data-name="Rectángulo 36463" width="48.791" height="21.056" transform="translate(164.094 321.889)" fill="none"/>
    </clipPath>
    <clipPath id="clip-path-6">
      <rect id="Rectángulo_36465" data-name="Rectángulo 36465" width="74.129" height="64.197" transform="translate(258.568 337.723)" fill="none"/>
    </clipPath>
  </defs>
  <g id="Grupo_85470" data-name="Grupo 85470" clip-path="url(#clip-path)">
    <g id="Grupo_85451" data-name="Grupo 85451">
      <g id="Grupo_85450" data-name="Grupo 85450" clip-path="url(#clip-path)">
        <path id="Trazado_119095" data-name="Trazado 119095" d="M629.451,206.4H568.936a7.572,7.572,0,0,1-7.572-7.572v-83.76a7.572,7.572,0,0,1,7.571-7.572h38.379l29.709,30.62v60.713a7.572,7.572,0,0,1-7.572,7.572" fill="#ebebeb"/>
        <path id="Trazado_119096" data-name="Trazado 119096" d="M607.314,107.5V131.07a7.043,7.043,0,0,0,7.042,7.043l22.666,0Z" fill="#f5f5f5"/>
        <path id="Trazado_119097" data-name="Trazado 119097" d="M607.623,133.138s-.3,5.717,6.211,7.6a7.292,7.292,0,0,0,.745.168c2.959.529,22.443,3.995,22.443,3.547v-6.334H614.355s-5.659-.194-6.732-4.978" fill="#e0e0e0"/>
        <path id="Trazado_119098" data-name="Trazado 119098" d="M629.451,206.4c0-.036.454.009,1.308-.154a7.581,7.581,0,0,0,3.433-1.6,7.482,7.482,0,0,0,2.71-5.34c.039-2.442-.006-5.276-.005-8.44-.022-12.683-.053-30.828-.092-52.749l.062.151-29.732-30.6.179.076-22.146.008-11.584,0h-2.939a19.225,19.225,0,0,0-2.907.106,7.316,7.316,0,0,0-4.748,2.962,7.207,7.207,0,0,0-1.339,3.722c-.054,1.342-.015,2.745-.027,4.108q0,4.113,0,8.17,0,8.112,0,15.974c-.005,10.472-.01,20.573-.015,30.2q-.006,7.217-.011,14.062,0,3.418-.006,6.736,0,1.659,0,3.29a17.375,17.375,0,0,0,.14,3.185,7.378,7.378,0,0,0,3.426,4.867,7.3,7.3,0,0,0,2.792.986,28.049,28.049,0,0,0,2.978.079l11.422.017,34.471.083,9.371.049,2.438.025c.549.009.83.027.83.027s-.281.018-.83.027l-2.438.026-9.371.048-34.471.083-11.422.017a27.976,27.976,0,0,1-3.033-.075,7.718,7.718,0,0,1-2.952-1.034,7.806,7.806,0,0,1-3.635-5.141,17.709,17.709,0,0,1-.154-3.269q0-1.632,0-3.29,0-3.316-.006-6.736-.006-6.839-.011-14.062c-.005-9.623-.01-19.724-.015-30.2q0-7.855,0-15.974,0-4.056,0-8.17c.012-1.379-.028-2.729.027-4.144a7.743,7.743,0,0,1,1.435-3.989,7.836,7.836,0,0,1,5.088-3.172,19.655,19.655,0,0,1,2.991-.114h14.523c7.623,0,15.031,0,22.146.009h.106l.073.076c10.689,11.032,20.705,21.372,29.686,30.642l.061.064v.088c-.038,21.921-.07,40.066-.092,52.749-.02,3.169.006,5.986-.053,8.452a7.61,7.61,0,0,1-2.82,5.43,7.509,7.509,0,0,1-3.505,1.565,5.675,5.675,0,0,1-.985.088c-.222.006-.334,0-.334,0" fill="#e0e0e0"/>
        <path id="Trazado_119099" data-name="Trazado 119099" d="M637.022,138.116a2.5,2.5,0,0,1-.582.052l-1.67.049-6.14.082-9.106.054-5.384,0a7.306,7.306,0,0,1-6.749-5.094,8.454,8.454,0,0,1-.333-2.891c.006-1.863.011-3.662.016-5.378.021-3.411.039-6.493.055-9.107.035-2.539.063-4.619.083-6.14.02-.678.036-1.23.049-1.669a2.444,2.444,0,0,1,.053-.582,2.494,2.494,0,0,1,.052.582c.013.439.029.991.049,1.669.021,1.521.048,3.6.083,6.14.016,2.614.035,5.7.056,9.107,0,1.716.01,3.515.015,5.378a7.016,7.016,0,0,0,1.7,5.171,6.793,6.793,0,0,0,4.888,2.3l5.369.026,9.106.058,6.14.083,1.67.049a2.513,2.513,0,0,1,.582.053" fill="#e0e0e0"/>
        <path id="Trazado_119100" data-name="Trazado 119100" d="M606.171,128.532c0,.144-7.148.261-15.963.261s-15.965-.117-15.965-.261,7.146-.26,15.965-.26,15.963.116,15.963.26" fill="#e0e0e0"/>
        <path id="Trazado_119101" data-name="Trazado 119101" d="M621.319,140.291c0,.144-10.539.26-23.537.26s-23.539-.116-23.539-.26,10.537-.26,23.539-.26,23.537.116,23.537.26" fill="#e0e0e0"/>
        <path id="Trazado_119102" data-name="Trazado 119102" d="M621.319,152.051c0,.144-10.539.26-23.537.26s-23.539-.116-23.539-.26,10.537-.26,23.539-.26,23.537.116,23.537.26" fill="#e0e0e0"/>
        <path id="Trazado_119103" data-name="Trazado 119103" d="M621.319,163.811c0,.144-10.539.26-23.537.26s-23.539-.116-23.539-.26,10.537-.26,23.539-.26,23.537.116,23.537.26" fill="#e0e0e0"/>
        <path id="Trazado_119104" data-name="Trazado 119104" d="M621.319,175.57c0,.144-10.539.26-23.537.26s-23.539-.116-23.539-.26,10.537-.26,23.539-.26,23.537.116,23.537.26" fill="#e0e0e0"/>
        <path id="Trazado_119105" data-name="Trazado 119105" d="M621.319,190.074c0,.144-10.539.26-23.537.26s-23.539-.116-23.539-.26,10.537-.26,23.539-.26,23.537.116,23.537.26" fill="#e0e0e0"/>
        <path id="Trazado_119106" data-name="Trazado 119106" d="M594.972,190.074H552.016a4.221,4.221,0,0,1-4.222-4.221V171.2a4.222,4.222,0,0,1,4.222-4.222h42.956a4.221,4.221,0,0,1,4.221,4.221v14.652a4.221,4.221,0,0,1-4.221,4.222" fill="#e0e0e0"/>
        <path id="Trazado_119107" data-name="Trazado 119107" d="M553.749,174.511h3.964c2.854,0,4.812,1.72,4.812,4.363s-1.958,4.363-4.812,4.363h-3.964Zm3.864,7.068a2.71,2.71,0,1,0,0-5.41h-1.845v5.41Z" fill="#fff"/>
        <path id="Trazado_119108" data-name="Trazado 119108" d="M563.495,178.874a4.782,4.782,0,1,1,4.775,4.513,4.516,4.516,0,0,1-4.775-4.513m7.505,0a2.731,2.731,0,1,0-2.73,2.793,2.662,2.662,0,0,0,2.73-2.793" fill="#fff"/>
        <path id="Trazado_119109" data-name="Trazado 119109" d="M574.015,178.874a4.8,4.8,0,0,1,8.327-2.967l-1.3,1.2a2.807,2.807,0,0,0-2.194-1.022,2.793,2.793,0,1,0,0,5.585,2.783,2.783,0,0,0,2.194-1.035l1.3,1.2a4.8,4.8,0,0,1-8.327-2.954" fill="#fff"/>
        <path id="Trazado_119110" data-name="Trazado 119110" d="M589.023,183.237l-2.107-3.029-2.069,3.029h-2.319l3.229-4.439-3.067-4.288h2.294l2.007,2.831,1.97-2.831h2.181l-3.041,4.214,3.253,4.513Z" fill="#fff"/>
        <path id="Trazado_119111" data-name="Trazado 119111" d="M557.621,314.553,511.8,394.7,421.134,396a5.486,5.486,0,0,0-5.4,5.187l92.2.26,3.466-.118,115.444.228,23.328-40.233,29.8-42.711a4.214,4.214,0,0,0-3.473-6.626l-115.236.44a4.213,4.213,0,0,0-3.643,2.122" fill="#13b770"/>
        <path id="Trazado_119112" data-name="Trazado 119112" d="M679.989,315.028a2.007,2.007,0,0,1-.552.058l-1.622.057-6.233.108-22.925.181-75.635.168h-5.506a4.54,4.54,0,0,0-4.2,1.982q-2.607,4.7-5.133,9.254L548.453,344.4c-6.214,11.166-11.815,21.228-16.536,29.712-4.709,8.373-8.535,15.178-11.235,19.981l-3.1,5.4-.833,1.391a2,2,0,0,1-.317.454,1.982,1.982,0,0,1,.216-.512c.2-.386.437-.862.734-1.447l2.917-5.51c2.625-4.845,6.343-11.711,10.919-20.159,4.66-8.518,10.188-18.62,16.323-29.831l9.674-17.6,5.159-9.331a5.7,5.7,0,0,1,5.147-2.5h5.506l75.635.168,22.925.182,6.233.107,1.622.056a2.023,2.023,0,0,1,.552.059" fill="#e0e0e0"/>
        <path id="Trazado_119113" data-name="Trazado 119113" d="M598.75,355.316c-2.039,2.261-2.087,5.541-.108,7.327s5.238,1.4,7.278-.86,2.087-5.541.107-7.327-5.238-1.4-7.277.86" fill="#fff"/>
        <path id="Trazado_119114" data-name="Trazado 119114" d="M15.3,316.063v47.928h-8v5.2h8V401.27h149.58V372.082H153.8v-6.358h11.08v-9.536h4.924v-4.335H163.96v-35.79Z" fill="#f5f5f5"/>
        <path id="Trazado_119115" data-name="Trazado 119115" d="M125.161,316.2v84.533h39.722V371.548H153.8v-5.824l11.08.2v-9.536l5.02.006-.1-4.928-5.847-.144V316.063Z" fill="#e0e0e0"/>
        <path id="Trazado_119116" data-name="Trazado 119116" d="M127.991,368.5c0,.294-27.067.531-60.448.531S7.089,368.8,7.089,368.5s27.062-.531,60.454-.531,60.448.238,60.448.531" fill="#e0e0e0"/>
        <path id="Trazado_119117" data-name="Trazado 119117" d="M127.991,363.635c0,.294-27.067.531-60.448.531s-60.454-.237-60.454-.531,27.062-.531,60.454-.531,60.448.238,60.448.531" fill="#e0e0e0"/>
        <path id="Trazado_119118" data-name="Trazado 119118" d="M135.756,350.533c0,.294-27.067.531-60.448.531s-60.454-.237-60.454-.531S41.915,350,75.308,350s60.448.238,60.448.531" fill="#e0e0e0"/>
        <path id="Trazado_119119" data-name="Trazado 119119" d="M136.5,386.237c0,.294-27.067.531-60.448.531s-60.454-.237-60.454-.531,27.062-.531,60.454-.531,60.448.238,60.448.531" fill="#e0e0e0"/>
        <path id="Trazado_119120" data-name="Trazado 119120" d="M514.444,112.05H455.328a7.4,7.4,0,0,1-7.4-7.4V22.83a7.4,7.4,0,0,1,7.4-7.4h37.491l29.022,29.912v59.309a7.4,7.4,0,0,1-7.4,7.4" fill="#ebebeb"/>
        <path id="Trazado_119121" data-name="Trazado 119121" d="M492.819,15.433V38.462a6.88,6.88,0,0,0,6.879,6.88l22.143,0Z" fill="#f5f5f5"/>
        <path id="Trazado_119122" data-name="Trazado 119122" d="M493.121,40.482s-.29,5.585,6.067,7.421a6.982,6.982,0,0,0,.729.164c2.89.517,21.924,3.9,21.924,3.466V45.344H499.7s-5.528-.19-6.576-4.863" fill="#e0e0e0"/>
        <path id="Trazado_119123" data-name="Trazado 119123" d="M514.444,112.05c0-.035.444.009,1.277-.152a7.39,7.39,0,0,0,3.353-1.563,7.309,7.309,0,0,0,2.647-5.216c.037-2.385-.007-5.154-.005-8.245-.023-12.39-.054-30.115-.093-51.529l.062.151L492.64,15.606l.179.076-21.634.008-11.316,0H457a18.821,18.821,0,0,0-2.837.1,7.141,7.141,0,0,0-4.636,2.89,7.044,7.044,0,0,0-1.306,3.634c-.052,1.31-.015,2.681-.027,4.012q0,4.018,0,7.981,0,7.925,0,15.6c-.005,10.23-.01,20.1-.015,29.5q0,7.05-.011,13.736,0,3.34-.006,6.581,0,1.62,0,3.214a16.92,16.92,0,0,0,.136,3.11,7.193,7.193,0,0,0,6.07,5.714,27.262,27.262,0,0,0,2.908.077l11.159.017,33.673.083,9.155.049,2.381.025c.536.009.811.027.811.027s-.275.018-.811.027l-2.381.026-9.155.048-33.673.083-11.159.017a27.455,27.455,0,0,1-2.963-.073,7.615,7.615,0,0,1-6.439-6.036,17.343,17.343,0,0,1-.151-3.194q0-1.594,0-3.214,0-3.24-.006-6.581-.006-6.68-.011-13.736c0-9.4-.01-19.269-.016-29.5q0-7.672,0-15.6,0-3.963,0-7.981c.012-1.347-.027-2.666.027-4.049a7.562,7.562,0,0,1,1.4-3.9,7.659,7.659,0,0,1,4.974-3.1A19.4,19.4,0,0,1,457,15.172h2.872l11.316,0,21.634.008h.106l.074.076,29,29.934.061.064v.088c-.038,21.414-.07,39.139-.092,51.529-.02,3.1.005,5.847-.053,8.257a7.439,7.439,0,0,1-2.755,5.306,7.331,7.331,0,0,1-3.425,1.527,5.492,5.492,0,0,1-.963.087c-.216,0-.326,0-.326,0" fill="#e0e0e0"/>
        <path id="Trazado_119124" data-name="Trazado 119124" d="M521.841,45.344a2.32,2.32,0,0,1-.569.052l-1.631.049-6,.082-8.9.054-5.26,0a7.148,7.148,0,0,1-6.6-4.98,8.273,8.273,0,0,1-.325-2.826c.006-1.82.011-3.577.016-5.254.02-3.331.039-6.341.055-8.9.035-2.478.063-4.509.083-6,.02-.661.036-1.2.049-1.63a2.342,2.342,0,0,1,.053-.569,2.454,2.454,0,0,1,.052.569c.013.43.029.969.049,1.63.02,1.489.048,3.52.083,6,.016,2.555.035,5.565.055,8.9.005,1.677.01,3.434.016,5.254a6.838,6.838,0,0,0,1.658,5.047,6.622,6.622,0,0,0,4.769,2.249l5.246.027,8.9.057,6,.083,1.631.05a2.385,2.385,0,0,1,.569.052" fill="#e0e0e0"/>
        <path id="Trazado_119125" data-name="Trazado 119125" d="M491.7,35.982c0,.144-6.983.26-15.594.26s-15.6-.116-15.6-.26,6.981-.26,15.6-.26,15.594.116,15.594.26" fill="#e0e0e0"/>
        <path id="Trazado_119126" data-name="Trazado 119126" d="M506.5,47.469c0,.144-10.3.26-22.993.26s-22.995-.116-22.995-.26,10.294-.26,22.995-.26,22.993.116,22.993.26" fill="#e0e0e0"/>
        <path id="Trazado_119127" data-name="Trazado 119127" d="M506.5,58.957c0,.144-10.3.26-22.993.26s-22.995-.116-22.995-.26,10.294-.26,22.995-.26,22.993.116,22.993.26" fill="#e0e0e0"/>
        <path id="Trazado_119128" data-name="Trazado 119128" d="M506.5,70.445c0,.144-10.3.26-22.993.26s-22.995-.116-22.995-.26,10.294-.26,22.995-.26,22.993.116,22.993.26" fill="#e0e0e0"/>
        <path id="Trazado_119129" data-name="Trazado 119129" d="M506.5,81.933c0,.144-10.3.26-22.993.26s-22.995-.116-22.995-.26,10.294-.26,22.995-.26,22.993.116,22.993.26" fill="#e0e0e0"/>
        <path id="Trazado_119130" data-name="Trazado 119130" d="M506.5,96.1c0,.144-10.3.26-22.993.26s-22.995-.116-22.995-.26,10.294-.26,22.995-.26,22.993.116,22.993.26" fill="#e0e0e0"/>
        <path id="Trazado_119131" data-name="Trazado 119131" d="M480.665,96.1H438.9a4.221,4.221,0,0,1-4.221-4.221V77.762A4.221,4.221,0,0,1,438.9,73.54h41.768a4.221,4.221,0,0,1,4.221,4.221V91.879a4.221,4.221,0,0,1-4.221,4.222" fill="#e0e0e0"/>
        <path id="Trazado_119132" data-name="Trazado 119132" d="M454.306,83.992c0,1.9-1.424,3.081-3.7,3.081h-1.717v2.35h-1.973V80.9h3.69c2.277,0,3.7,1.181,3.7,3.093m-2,0c0-.937-.609-1.485-1.815-1.485h-1.607v2.958h1.607c1.206,0,1.815-.548,1.815-1.473" fill="#fff"/>
        <path id="Trazado_119133" data-name="Trazado 119133" d="M455.706,80.9h3.873c2.788,0,4.7,1.68,4.7,4.262s-1.912,4.262-4.7,4.262h-3.873Zm3.775,6.9a2.647,2.647,0,1,0,0-5.285h-1.8V87.8Z" fill="#fff"/>
        <path id="Trazado_119134" data-name="Trazado 119134" d="M467.736,82.482v2.253h3.945v1.583h-3.945v3.1h-1.973V80.9h6.442v1.583Z" fill="#fff"/>
        <rect id="Rectángulo_36450" data-name="Rectángulo 36450" width="31.937" height="55.041" transform="translate(215.862 21.154)" fill="#ebebeb"/>
        <rect id="Rectángulo_36451" data-name="Rectángulo 36451" width="25.22" height="68.71" transform="translate(126.77 8.361)" fill="#ebebeb"/>
        <path id="Trazado_119135" data-name="Trazado 119135" d="M126.478,13.325c0-.212,5.767-.383,12.879-.383s12.88.171,12.88.383-5.766.383-12.88.383-12.879-.172-12.879-.383" fill="#fafafa"/>
        <path id="Trazado_119136" data-name="Trazado 119136" d="M127.874,16.583c0-.211,5.454-.383,12.181-.383s12.181.172,12.181.383-5.453.383-12.181.383-12.181-.171-12.181-.383" fill="#fafafa"/>
        <path id="Trazado_119137" data-name="Trazado 119137" d="M138.659,63.523c-.212,0-.383-9.1-.383-20.326s.171-20.33.383-20.33.383,9.1.383,20.33-.171,20.326-.383,20.326" fill="#fafafa"/>
        <path id="Trazado_119138" data-name="Trazado 119138" d="M126.77,69.808c0-.212,5.528-.383,12.345-.383s12.346.171,12.346.383-5.526.383-12.346.383-12.345-.172-12.345-.383" fill="#fafafa"/>
        <path id="Trazado_119139" data-name="Trazado 119139" d="M126.77,72.757c0-.213,5.667-.383,12.655-.383s12.657.17,12.657.383-5.666.382-12.657.382-12.655-.17-12.655-.382" fill="#fafafa"/>
        <rect id="Rectángulo_36452" data-name="Rectángulo 36452" width="20.26" height="76.141" transform="translate(151.973 0.93)" fill="#e0e0e0"/>
        <path id="Trazado_119140" data-name="Trazado 119140" d="M151.846,35.9a19.619,19.619,0,0,1,3.134,2.17l7.31,5.545,7.3,5.562a19.479,19.479,0,0,1,2.929,2.44,18.2,18.2,0,0,1-3.248-2c-1.944-1.324-4.585-3.217-7.444-5.39s-5.388-4.212-7.183-5.731a18.149,18.149,0,0,1-2.8-2.594" fill="#fafafa"/>
        <path id="Trazado_119141" data-name="Trazado 119141" d="M151.757,23.979c.137-.161,4.779,3.591,10.367,8.379s10.007,8.8,9.869,8.962-4.779-3.591-10.368-8.38-10.006-8.8-9.868-8.961" fill="#fafafa"/>
        <rect id="Rectángulo_36453" data-name="Rectángulo 36453" width="9.69" height="72.535" transform="translate(63.926 4.591)" fill="#ebebeb"/>
        <path id="Trazado_119142" data-name="Trazado 119142" d="M64.328,14.473c0,.252,2.033.456,4.539.456s4.541-.2,4.541-.456-2.033-.456-4.541-.456-4.539.2-4.539.456" fill="#fafafa"/>
        <path id="Trazado_119143" data-name="Trazado 119143" d="M64.13,12.894c0,.252,2.033.456,4.54.456s4.54-.2,4.54-.456-2.033-.456-4.54-.456-4.54.2-4.54.456" fill="#fafafa"/>
        <path id="Trazado_119144" data-name="Trazado 119144" d="M64.328,71.517c0,.252,2.033.456,4.539.456s4.541-.2,4.541-.456-2.033-.456-4.541-.456-4.539.2-4.539.456" fill="#fafafa"/>
        <path id="Trazado_119145" data-name="Trazado 119145" d="M64.13,69.938c0,.252,2.033.456,4.54.456s4.54-.2,4.54-.456-2.033-.456-4.54-.456-4.54.2-4.54.456" fill="#fafafa"/>
        <path id="Trazado_119146" data-name="Trazado 119146" d="M69.065,60.464c.252,0,.456-8.308.456-18.553s-.2-18.555-.456-18.555-.456,8.3-.456,18.555.2,18.553.456,18.553" fill="#fafafa"/>
        <rect id="Rectángulo_36454" data-name="Rectángulo 36454" width="19.38" height="72.535" transform="translate(107.35 4.126)" fill="#e0e0e0"/>
        <path id="Trazado_119147" data-name="Trazado 119147" d="M121.279,77.591a1.629,1.629,0,0,0,.226-.394c.138-.266.325-.67.553-1.208a21.083,21.083,0,0,0,1.407-4.918,12.812,12.812,0,0,0-1.133-7.98A10.622,10.622,0,0,0,118.9,59.3a7.978,7.978,0,0,0-5.583-1.319,5.88,5.88,0,0,0-2.886,1.333,3.817,3.817,0,0,0-1.389,3.059,4.4,4.4,0,0,0,1.658,3.075,6.018,6.018,0,0,0,3.305,1.4,8.8,8.8,0,0,0,6.869-2.5,11.04,11.04,0,0,0,3.407-6.97,18.513,18.513,0,0,0-1-8.092,14.929,14.929,0,0,0-4.751-7.07,7.8,7.8,0,0,0-4.185-1.648,5.432,5.432,0,0,0-4.353,1.544,3.536,3.536,0,0,0-1,2.27,4.152,4.152,0,0,0,.668,2.371,6.29,6.29,0,0,0,3.91,2.669,9.127,9.127,0,0,0,8.537-2.86,14.27,14.27,0,0,0,3.324-8.166,20.1,20.1,0,0,0-.834-8.466,11.693,11.693,0,0,0-5.006-6.44,8.578,8.578,0,0,0-7.7-.807,4.048,4.048,0,0,0-2.5,2.959,4.679,4.679,0,0,0,.882,3.654,6.052,6.052,0,0,0,6.529,1.728,11.288,11.288,0,0,0,5.15-3.657,16.46,16.46,0,0,0,3.865-9.946,15.945,15.945,0,0,0-1.791-7.882,15.782,15.782,0,0,0-3.046-4.109,11.729,11.729,0,0,0-1.008-.868,1.612,1.612,0,0,0-.375-.256A18.431,18.431,0,0,1,123.7,9.7a15.79,15.79,0,0,1,1.6,7.7,16,16,0,0,1-3.845,9.549,10.667,10.667,0,0,1-4.86,3.4,5.343,5.343,0,0,1-5.725-1.509,3.917,3.917,0,0,1-.72-3.049,3.247,3.247,0,0,1,2.059-2.373,7.777,7.777,0,0,1,6.945.793,10.853,10.853,0,0,1,4.615,6,19.306,19.306,0,0,1,.769,8.087,13.394,13.394,0,0,1-3.107,7.651,8.236,8.236,0,0,1-7.66,2.582,5.391,5.391,0,0,1-3.342-2.261,2.778,2.778,0,0,1,.215-3.537,4.543,4.543,0,0,1,3.632-1.267,6.887,6.887,0,0,1,3.706,1.461,14.1,14.1,0,0,1,4.466,6.638,17.717,17.717,0,0,1,.994,7.711,10.225,10.225,0,0,1-3.12,6.483,8.032,8.032,0,0,1-6.239,2.336c-2.132-.177-4.21-1.8-4.342-3.762a3.128,3.128,0,0,1,1.134-2.518,5.249,5.249,0,0,1,2.546-1.2,7.393,7.393,0,0,1,5.159,1.17,10.12,10.12,0,0,1,3.3,3.549,12.567,12.567,0,0,1,1.228,7.686,23.053,23.053,0,0,1-1.227,4.9c-.4,1.091-.642,1.653-.607,1.669" fill="#fafafa"/>
        <rect id="Rectángulo_36455" data-name="Rectángulo 36455" width="33.624" height="66.057" transform="translate(73.461 10.634)" fill="#fafafa"/>
        <path id="Trazado_119148" data-name="Trazado 119148" d="M74.615,21.61c0,.252,7.286.456,16.273.456s16.275-.2,16.275-.456-7.285-.456-16.275-.456-16.273.2-16.273.456" fill="#e0e0e0"/>
        <path id="Trazado_119149" data-name="Trazado 119149" d="M74.2,26.617c0,.252,7.193.457,16.065.457s16.065-.2,16.065-.457-7.191-.456-16.065-.456-16.065.2-16.065.456" fill="#e0e0e0"/>
        <path id="Trazado_119150" data-name="Trazado 119150" d="M73.118,69.224c0,.252,7.575.456,16.917.456s16.919-.2,16.919-.456-7.573-.456-16.919-.456-16.917.2-16.917.456" fill="#e0e0e0"/>
        <path id="Trazado_119151" data-name="Trazado 119151" d="M73.572,63.338c0,.252,7.38.457,16.482.457s16.483-.2,16.483-.457-7.379-.456-16.483-.456-16.482.2-16.482.456" fill="#e0e0e0"/>
        <rect id="Rectángulo_36456" data-name="Rectángulo 36456" width="19.38" height="72.534" transform="translate(172.217 3.661)" fill="#ebebeb"/>
        <path id="Trazado_119152" data-name="Trazado 119152" d="M186.145,77.126a1.629,1.629,0,0,0,.226-.394c.138-.265.325-.67.552-1.208a20.985,20.985,0,0,0,1.407-4.918,12.812,12.812,0,0,0-1.132-7.98,10.622,10.622,0,0,0-3.435-3.79,7.979,7.979,0,0,0-5.583-1.319,5.88,5.88,0,0,0-2.886,1.333,3.814,3.814,0,0,0-1.389,3.059,4.391,4.391,0,0,0,1.658,3.074,6.005,6.005,0,0,0,3.3,1.4,8.8,8.8,0,0,0,6.869-2.5,11.04,11.04,0,0,0,3.407-6.97,18.528,18.528,0,0,0-1-8.092,14.933,14.933,0,0,0-4.752-7.07,7.776,7.776,0,0,0-4.184-1.648,5.431,5.431,0,0,0-4.354,1.545,3.53,3.53,0,0,0-1,2.269,4.144,4.144,0,0,0,.668,2.371,6.29,6.29,0,0,0,3.91,2.669,9.128,9.128,0,0,0,8.537-2.86,14.277,14.277,0,0,0,3.324-8.166,20.115,20.115,0,0,0-.834-8.466,11.7,11.7,0,0,0-5.006-6.44,8.578,8.578,0,0,0-7.7-.807,4.048,4.048,0,0,0-2.5,2.959,4.679,4.679,0,0,0,.882,3.654,6.052,6.052,0,0,0,6.529,1.728,11.289,11.289,0,0,0,5.151-3.657,16.458,16.458,0,0,0,3.863-9.947,16.048,16.048,0,0,0-4.836-11.99,11.913,11.913,0,0,0-1.008-.868,1.637,1.637,0,0,0-.375-.256,18.431,18.431,0,0,1,4.112,5.393,15.79,15.79,0,0,1,1.6,7.7,16,16,0,0,1-3.845,9.549,10.667,10.667,0,0,1-4.86,3.4,5.344,5.344,0,0,1-5.726-1.509,3.921,3.921,0,0,1-.719-3.049,3.247,3.247,0,0,1,2.059-2.373,7.777,7.777,0,0,1,6.945.793,10.853,10.853,0,0,1,4.615,6,19.306,19.306,0,0,1,.769,8.087,13.407,13.407,0,0,1-3.107,7.651,8.238,8.238,0,0,1-7.66,2.582A5.391,5.391,0,0,1,175.3,45.81a2.779,2.779,0,0,1,.215-3.538,4.546,4.546,0,0,1,3.632-1.266,6.887,6.887,0,0,1,3.706,1.461,14.092,14.092,0,0,1,4.466,6.638,17.732,17.732,0,0,1,.994,7.711,10.225,10.225,0,0,1-3.12,6.483,8.033,8.033,0,0,1-6.239,2.336c-2.132-.177-4.21-1.8-4.342-3.762a3.123,3.123,0,0,1,1.134-2.518,5.244,5.244,0,0,1,2.546-1.2,7.4,7.4,0,0,1,5.158,1.169,10.125,10.125,0,0,1,3.305,3.55,12.566,12.566,0,0,1,1.227,7.686,23,23,0,0,1-1.226,4.9c-.4,1.091-.642,1.653-.607,1.669" fill="#fafafa"/>
        <rect id="Rectángulo_36457" data-name="Rectángulo 36457" width="26.93" height="76.195" transform="translate(36.996)" fill="#e0e0e0"/>
        <rect id="Rectángulo_36458" data-name="Rectángulo 36458" width="25.187" height="67.834" transform="translate(191.597 8.361)" fill="#e0e0e0"/>
        <path id="Trazado_119153" data-name="Trazado 119153" d="M217.417,42.191a21.107,21.107,0,0,0,4,2.847,13.961,13.961,0,0,0,5.066,1.406,13.081,13.081,0,0,0,6.288-1.094c2.125-.908,4.075-2.073,6.048-2.755a9.517,9.517,0,0,1,5.49-.5,5.863,5.863,0,0,1,3.181,1.929,2.315,2.315,0,0,1,.623,1.212c-.064.033-.253-.419-.846-1.014a5.956,5.956,0,0,0-3.078-1.6,9.3,9.3,0,0,0-5.129.636c-1.878.686-3.79,1.854-5.99,2.8a13.353,13.353,0,0,1-6.649,1.091,13.691,13.691,0,0,1-5.255-1.629,11.586,11.586,0,0,1-2.936-2.249,3.632,3.632,0,0,1-.818-1.078" fill="#fafafa"/>
        <path id="Trazado_119154" data-name="Trazado 119154" d="M216.85,48.9a21.053,21.053,0,0,0,4,2.847,13.961,13.961,0,0,0,5.066,1.406,13.079,13.079,0,0,0,6.288-1.093c2.125-.909,4.075-2.074,6.048-2.756a9.508,9.508,0,0,1,5.49-.5,5.857,5.857,0,0,1,3.181,1.928,2.315,2.315,0,0,1,.623,1.212c-.064.033-.253-.419-.846-1.014a5.963,5.963,0,0,0-3.078-1.6,9.311,9.311,0,0,0-5.129.636c-1.878.687-3.79,1.854-5.99,2.8a13.363,13.363,0,0,1-6.649,1.09,13.691,13.691,0,0,1-5.255-1.629,11.563,11.563,0,0,1-2.936-2.249,3.617,3.617,0,0,1-.818-1.078" fill="#fafafa"/>
        <path id="Trazado_119155" data-name="Trazado 119155" d="M217.267,27.178c0-.211,6.935-.383,15.488-.383s15.489.172,15.489.383-6.934.383-15.489.383-15.488-.171-15.488-.383" fill="#fafafa"/>
        <path id="Trazado_119156" data-name="Trazado 119156" d="M205.857,19.291a3.653,3.653,0,0,0-2.191-.184,2.648,2.648,0,0,0-1.7,1.413,2.437,2.437,0,0,0,3.127,3.008,2.648,2.648,0,0,0,1.346-1.757,3.661,3.661,0,0,0-.269-2.183c.026-.027.249.093.483.469a2.747,2.747,0,0,1,.317,1.817,3.1,3.1,0,0,1-1.566,2.287,3.092,3.092,0,0,1-4.083-3.928,3.1,3.1,0,0,1,2.225-1.653,2.745,2.745,0,0,1,1.827.247c.385.219.514.437.488.464" fill="#fafafa"/>
        <path id="Trazado_119157" data-name="Trazado 119157" d="M204.228,69.4c-.212,0-.383-9.509-.383-21.236s.171-21.237.383-21.237.383,9.506.383,21.237S204.44,69.4,204.228,69.4" fill="#fafafa"/>
        <rect id="Rectángulo_36459" data-name="Rectángulo 36459" width="260.68" height="14.88" transform="translate(13.432 75.808)" fill="#ebebeb"/>
        <rect id="Rectángulo_36460" data-name="Rectángulo 36460" width="22.76" height="14.88" transform="translate(251.352 75.808)" fill="#e0e0e0"/>
      </g>
    </g>
    <g id="Grupo_85465" data-name="Grupo 85465">
      <g id="Grupo_85464" data-name="Grupo 85464" clip-path="url(#clip-path)">
        <path id="Trazado_119158" data-name="Trazado 119158" d="M287.224,74.67l-1.272,102.412c-.217,17.415,3.024,43.042,30.575,42.129,23.844-2.6,30.169-25.167,30.355-41.42.087-7.709.177-14.138.238-14.93,0,0,26.1-2.128,28.3-27.909,1.065-12.458,1.168-38.3.991-61.674a48.194,48.194,0,0,0-44.7-47.674l-2.489-.182c-26.961-.393-42.356,22.286-42,49.248" fill="#ffbe9d"/>
        <path id="Trazado_119159" data-name="Trazado 119159" d="M347.119,162.861s-16.335-.234-32.872-12.386c0,0,6.82,19.446,32.737,19Z" fill="#eb996e"/>
        <path id="Trazado_119160" data-name="Trazado 119160" d="M332.339,83.842c-.513.522-3.49-1.875-7.809-1.991-4.314-.18-7.544,2-8,1.447-.224-.247.31-1.2,1.719-2.189a10.81,10.81,0,0,1,6.421-1.821,10.426,10.426,0,0,1,6.2,2.254c1.3,1.084,1.723,2.068,1.472,2.3" fill="#263238"/>
        <path id="Trazado_119161" data-name="Trazado 119161" d="M331.428,92.776a3.5,3.5,0,0,1-3.618,3.271,3.343,3.343,0,0,1-3.363-3.4,3.5,3.5,0,0,1,3.615-3.274,3.346,3.346,0,0,1,3.366,3.408" fill="#263238"/>
        <path id="Trazado_119162" data-name="Trazado 119162" d="M343.158,113.888c0-.227,2.494-.473,6.525-.692,1.02-.03,1.993-.161,2.214-.84.292-.714-.052-1.837-.457-3.051q-1.16-3.778-2.431-7.929c-3.357-11.281-5.708-20.527-5.252-20.659s3.546,8.907,6.9,20.188q1.206,4.17,2.3,7.966c.3,1.179.862,2.532.235,4.013a2.548,2.548,0,0,1-1.773,1.358,6.911,6.911,0,0,1-1.738.114c-4.035-.078-6.53-.241-6.528-.468" fill="#263238"/>
        <path id="Trazado_119163" data-name="Trazado 119163" d="M330.5,67.6c-.417.958-3.875.237-8.016.449-4.144.125-7.544,1.126-8.024.205-.212-.44.432-1.323,1.84-2.178a13.062,13.062,0,0,1,6.062-1.705,12.926,12.926,0,0,1,6.158,1.208c1.46.738,2.162,1.565,1.98,2.021" fill="#263238"/>
        <path id="Trazado_119164" data-name="Trazado 119164" d="M371.522,75.607c-.453.781-3.824-.086-7.908-.212-4.085-.2-7.475.4-7.906-.419-.189-.389.485-1.09,1.908-1.71a14.266,14.266,0,0,1,6.042-1,14.729,14.729,0,0,1,6.006,1.479c1.4.733,2.058,1.487,1.858,1.86" fill="#263238"/>
        <path id="Trazado_119165" data-name="Trazado 119165" d="M287.936,93.93c-.426-.222-17.347-6.538-18.072,11.143s17.177,14.763,17.229,14.257.843-25.4.843-25.4" fill="#ffbe9d"/>
        <path id="Trazado_119166" data-name="Trazado 119166" d="M281.966,112.409c-.076-.06-.317.2-.847.42a3.081,3.081,0,0,1-2.3-.047c-1.84-.762-3.291-3.792-3.247-6.982a10.2,10.2,0,0,1,1.043-4.375,3.562,3.562,0,0,1,2.415-2.27,1.57,1.57,0,0,1,1.783.919c.217.5.09.852.182.887.048.046.392-.281.279-1.017a1.962,1.962,0,0,0-.65-1.137,2.326,2.326,0,0,0-1.685-.519,4.33,4.33,0,0,0-3.33,2.609,10.466,10.466,0,0,0-1.27,4.885c-.033,3.568,1.655,6.976,4.181,7.82a3.3,3.3,0,0,0,2.836-.352c.565-.415.675-.807.615-.841" fill="#eb996e"/>
        <path id="Trazado_119167" data-name="Trazado 119167" d="M338.986,126.131c.193-.447-3.271-1.484-5.706-4.734a19.815,19.815,0,0,1-2.447-4.618c-.516-1.283-.907-2.089-1.1-2.03s-.135.925.149,2.322a13.056,13.056,0,0,0,2.275,5.172,10.57,10.57,0,0,0,4.517,3.458c1.35.547,2.264.581,2.31.43" fill="#263238"/>
        <path id="Trazado_119168" data-name="Trazado 119168" d="M410.65,50.135a4.177,4.177,0,0,0-1.961-2.439c-2.018-1.191-4.344-1.033-6.591-1.069a37.233,37.233,0,0,1-19.388-5.893A86.726,86.726,0,0,0,373.688,29.8c-7.815-8.058-14.245-13.542-20.9-16.219-8.6-3.463-22.991-4.867-31.961-2.514S303.8,20.7,302.558,29.888c-5.031-4.253-12.583-4.217-18.71-1.754l-.154-.067c-6.823,2.432-10.7,9.641-12.713,16.6s-2.872,14.4-6.557,20.636c-.77,1.3-1.685,2.866-1.013,4.223a2.878,2.878,0,0,0,3.013,1.312A8.433,8.433,0,0,0,269.6,69.4l-2.283,5.467a16.128,16.128,0,0,0,7.422-.5c1.45,6.508,3.178,13.939,4.854,18.349,2.853-.008,5.463.2,7.222,1.777,2.39,2.149,3.459,6.192,7.43,4.657,2.021-.781,3.865-5.021,4.542-7.08a100.614,100.614,0,0,0,4.357-42.591,32.334,32.334,0,0,1,9.986-7.208l-.3.275c7.2-2.5,15.355-4.964,22.191-1.582,5.3,2.624,8.42,8.126,12.385,12.517A40.477,40.477,0,0,0,376.25,66.812c.381,7.259-.228,17.52.153,24.779l6.106-11.629.006.058c.5-.851.913-1.709,1.313-2.569l.137-.261v-.032a45.03,45.03,0,0,1,2.042-4.13l.069.062c3.934,3.47,9.729-1.836,6.627-6.066a10.227,10.227,0,0,0-2.193-2.2,7.176,7.176,0,0,0,6.835,1.772,5.63,5.63,0,0,0,3.982-5.567,4.787,4.787,0,0,0-2.854-3.84,16.175,16.175,0,0,0,9.2-2.027c1.816-1.036,3.6-2.74,2.981-5.024" fill="#263238"/>
        <path id="Trazado_119169" data-name="Trazado 119169" d="M310.674,32.849a22.18,22.18,0,0,0-2.587,2.366,18.491,18.491,0,0,0-3.958,8.562,32.452,32.452,0,0,0-.659,6.554c-.011,2.375.18,4.918.362,7.6a67.991,67.991,0,0,1,.193,8.457,29.781,29.781,0,0,1-.581,4.461,9.3,9.3,0,0,1-1.82,4.328,3.89,3.89,0,0,1-3.639,1.223,5.79,5.79,0,0,1-3.275-1.849c-1.66-1.937-2.073-4.394-2.486-6.558l.542.065a21.585,21.585,0,0,1-3.138,5.4,7.677,7.677,0,0,1-5.017,2.732,4.959,4.959,0,0,1-2.659-.465,4.3,4.3,0,0,1-1.806-1.78,4.42,4.42,0,0,1-.548-2.286,3.212,3.212,0,0,1,.828-2.006l.274.244a16.636,16.636,0,0,1-5.54,4.157,14.853,14.853,0,0,1-1.717.666,2.857,2.857,0,0,1-.615.153,3.118,3.118,0,0,1,.582-.248c.383-.158.953-.387,1.664-.749a17.128,17.128,0,0,0,5.347-4.217l.274.244a3.305,3.305,0,0,0-.171,3.832,3.869,3.869,0,0,0,1.633,1.575,4.5,4.5,0,0,0,2.41.392,7.2,7.2,0,0,0,4.657-2.6,21.276,21.276,0,0,0,3.021-5.287l.371-.827.171.893c.413,2.162.853,4.52,2.366,6.265a5.21,5.21,0,0,0,2.931,1.655,3.284,3.284,0,0,0,3.094-1.036,8.806,8.806,0,0,0,1.68-4.049,29.566,29.566,0,0,0,.578-4.37,69.012,69.012,0,0,0-.159-8.387c-.166-2.679-.34-5.233-.307-7.639a32.337,32.337,0,0,1,.742-6.639,18.242,18.242,0,0,1,4.2-8.629,10.458,10.458,0,0,1,2.761-2.209" fill="#455a64"/>
        <path id="Trazado_119170" data-name="Trazado 119170" d="M390.454,57.942c.006.008-.064.068-.207.176-.174.128-.386.282-.644.47a8.643,8.643,0,0,1-1.093.7,13.648,13.648,0,0,1-1.569.825A22.86,22.86,0,0,1,375.9,62.1a29.22,29.22,0,0,1-15.565-5.747c-5.152-3.705-9.673-9.163-13.371-15.412-1.876-3.123-3.4-6.324-5.09-9.281a34.186,34.186,0,0,0-5.763-7.851,17.6,17.6,0,0,0-7.431-4.51,12.615,12.615,0,0,0-3.918-.451,13.871,13.871,0,0,0-3.588.689,14.926,14.926,0,0,0-8.287,7.012,17.986,17.986,0,0,0-1.332,3.867.925.925,0,0,1,.021-.271c.033-.213.074-.473.122-.789a12.942,12.942,0,0,1,.979-2.912,14.69,14.69,0,0,1,2.887-3.915,15.1,15.1,0,0,1,5.471-3.395,14.192,14.192,0,0,1,3.7-.751,13.056,13.056,0,0,1,4.077.434A18.036,18.036,0,0,1,336.5,23.41a34.457,34.457,0,0,1,5.889,7.958c1.706,2.978,3.236,6.171,5.095,9.265,3.67,6.2,8.126,11.6,13.18,15.27a29.04,29.04,0,0,0,15.265,5.772A23.228,23.228,0,0,0,386.845,59.9a36.38,36.38,0,0,0,3.609-1.959" fill="#455a64"/>
        <path id="Trazado_119171" data-name="Trazado 119171" d="M392.8,46.61a4.03,4.03,0,0,1-.925.644,19.937,19.937,0,0,1-2.738,1.391,26.674,26.674,0,0,1-4.337,1.424,28.077,28.077,0,0,1-11.127.356,26.737,26.737,0,0,1-4.418-1.143,19.984,19.984,0,0,1-2.822-1.213,4.048,4.048,0,0,1-.964-.583c.05-.1,1.474.63,3.919,1.391a30.554,30.554,0,0,0,4.373,1,30.119,30.119,0,0,0,10.917-.35,30.409,30.409,0,0,0,4.3-1.278c2.392-.915,3.767-1.737,3.823-1.639" fill="#455a64"/>
        <path id="Trazado_119172" data-name="Trazado 119172" d="M371.716,85.469c-.513.522-3.489-1.875-7.809-1.991-4.313-.18-7.545,2-8,1.447-.224-.247.31-1.2,1.718-2.189a10.819,10.819,0,0,1,6.421-1.822,10.436,10.436,0,0,1,6.2,2.255c1.3,1.084,1.722,2.067,1.471,2.3" fill="#263238"/>
        <path id="Trazado_119173" data-name="Trazado 119173" d="M367.313,94.031a3.5,3.5,0,0,1-3.619,3.271,3.342,3.342,0,0,1-3.362-3.4,3.5,3.5,0,0,1,3.615-3.274,3.346,3.346,0,0,1,3.366,3.408" fill="#263238"/>
        <path id="Trazado_119174" data-name="Trazado 119174" d="M528.418,188.318c0-7.492-7.159-7.492-7.159-7.492-2.727-3.582-5.795-2.28-5.795-2.28l-11.59,7.818c-1.7,2.931-12.953,14.006-12.953,14.006-3.068-2.28-3.068-6.84-6.745-12.378s-12-4.886-12-4.886,6.477,14.658,7.159,23.778-4.979,34.559-4.979,34.559l32.767,9.209s2.068-13.956,5.74-15.082c4.419-1.356,6.878-7.876,6.878-7.876,4.777-9.677,14.476-23.741,15.84-30.907s-7.159-8.469-7.159-8.469" fill="#ffbe9d"/>
        <path id="Trazado_119175" data-name="Trazado 119175" d="M284.746,172.12c20.871,13.115,41.9,18.049,63.207,9.556l32.023,8.179,31.506,210.493-184.724,1.6,9.1-48.889,22.9-175.656Z" fill="#05339e"/>
        <path id="Trazado_119176" data-name="Trazado 119176" d="M379.977,189.855s24.906,10.342,34.412,28.459,24.784,68.969,24.784,68.969L467.316,235.6l52.231,13.352s-38.878,107.237-48.638,117C460.223,376.64,431.1,387.417,416.844,379.1s-17.16-39.888-17.16-39.888Z" fill="#05339e"/>
        <path id="Trazado_119177" data-name="Trazado 119177" d="M381.694,277.9c-.144,0-.26-9.349-.26-20.88s.116-20.882.26-20.882.26,9.348.26,20.882-.116,20.88-.26,20.88" fill="#263238"/>
        <path id="Trazado_119178" data-name="Trazado 119178" d="M391.444,201.883a31.1,31.1,0,0,1-1.215,3.448c-.784,2.114-1.825,5.048-2.843,8.331s-1.814,6.295-2.361,8.482a31.068,31.068,0,0,1-.946,3.531,3.616,3.616,0,0,1,.1-.981c.094-.625.26-1.525.49-2.633.457-2.214,1.2-5.253,2.222-8.553s2.125-6.226,3-8.312c.437-1.043.808-1.879,1.084-2.449a3.61,3.61,0,0,1,.474-.864" fill="#263238"/>
        <path id="Trazado_119179" data-name="Trazado 119179" d="M255.381,256.231l5.779-79.313s-43.48,4.034-57.868,34.709c-12.125,25.85-45.594,103.624-49.177,114.264-10.512,31.22,5.91,74.143,73.612,71.657l7.718-42.444Z" fill="#05339e"/>
        <path id="Trazado_119180" data-name="Trazado 119180" d="M206.7,363.952a5.086,5.086,0,0,1,.354-.761l1.1-2.135c1-1.888,2.414-4.542,4.147-7.8l1.386-2.582a7.643,7.643,0,0,1,1.988-2.555,5.406,5.406,0,0,1,3.344-.962,15.22,15.22,0,0,1,3.6.584,36.969,36.969,0,0,1,7.276,2.752,19.288,19.288,0,0,1,3.493,2.225l.4.35a1.307,1.307,0,0,1,.342.537,4.522,4.522,0,0,1,.22,1.093,17.016,17.016,0,0,1,.047,2.153c-.1,2.867-.462,5.63-.818,8.3s-.774,5.222-1.181,7.656c-.818,4.868-1.637,9.236-2.339,12.9l-1.7,8.671q-.291,1.48-.464,2.356a6.7,6.7,0,0,1-.175.821,4.1,4.1,0,0,1,.071-.837c.072-.546.2-1.347.369-2.376.372-2.106.894-5.066,1.536-8.7.655-3.672,1.436-8.045,2.227-12.912.394-2.433.79-4.99,1.149-7.647s.7-5.416.8-8.241a16.594,16.594,0,0,0-.045-2.086,4.032,4.032,0,0,0-.188-.962.775.775,0,0,0-.207-.338l-.383-.334a18.9,18.9,0,0,0-3.394-2.17A37,37,0,0,0,222.5,348.2a14.863,14.863,0,0,0-3.488-.59,4.977,4.977,0,0,0-3.081.851,7.287,7.287,0,0,0-1.894,2.4q-.736,1.335-1.413,2.563l-4.293,7.724q-.747,1.311-1.19,2.088a5.033,5.033,0,0,1-.446.711" fill="#263238"/>
        <path id="Trazado_119181" data-name="Trazado 119181" d="M175.255,326.275a1.888,1.888,0,0,1,.511-.016l1.46.056c1.266.062,3.1.169,5.358.379a69.574,69.574,0,0,1,7.9,1.149,40.41,40.41,0,0,1,9.287,3.077,36.431,36.431,0,0,1,8.17,5.391,21.826,21.826,0,0,1,4.96,6.267,13.888,13.888,0,0,1,1.5,5.173,9.187,9.187,0,0,1,.028,1.466,1.852,1.852,0,0,1-.042.508c-.057,0-.037-.706-.188-1.952a14.564,14.564,0,0,0-1.629-5.026,22.1,22.1,0,0,0-4.951-6.078,37.072,37.072,0,0,0-8.079-5.28,41.451,41.451,0,0,0-9.16-3.077,76.82,76.82,0,0,0-7.833-1.252c-2.248-.255-4.074-.419-5.335-.543l-1.452-.154a1.881,1.881,0,0,1-.5-.088" fill="#263238"/>
        <path id="Trazado_119182" data-name="Trazado 119182" d="M221.777,322.27a18.809,18.809,0,0,1-1.081,3.121c-.745,1.9-1.854,4.488-3.127,7.323l-3.263,7.253a23.131,23.131,0,0,1-1.421,2.979,18.742,18.742,0,0,1,1.081-3.121c.745-1.9,1.854-4.489,3.128-7.324,1.242-2.761,2.365-5.258,3.263-7.253a23,23,0,0,1,1.42-2.978" fill="#263238"/>
        <path id="Trazado_119183" data-name="Trazado 119183" d="M245.839,259.847c-.144,0-.26-5.027-.26-11.227s.116-11.229.26-11.229.26,5.026.26,11.229-.116,11.227-.26,11.227" fill="#263238"/>
        <g id="Grupo_85454" data-name="Grupo 85454" opacity="0.3">
          <g id="Grupo_85453" data-name="Grupo 85453">
            <g id="Grupo_85452" data-name="Grupo 85452" clip-path="url(#clip-path-4)">
              <path id="Trazado_119184" data-name="Trazado 119184" d="M214.386,349.725c-11.438,3.99-19.17,14.369-22.293,26.073-.327,1.227-.546,2.677.275,3.646a2.879,2.879,0,0,0,3.591.294,8.4,8.4,0,0,0,2.546-2.933c5.511-8.819,10.89-16.987,15.881-27.08"/>
            </g>
          </g>
        </g>
        <g id="Grupo_85457" data-name="Grupo 85457" opacity="0.3">
          <g id="Grupo_85456" data-name="Grupo 85456">
            <g id="Grupo_85455" data-name="Grupo 85455" clip-path="url(#clip-path-5)">
              <path id="Trazado_119185" data-name="Trazado 119185" d="M200.2,327.1c-5.98-3.325-12.859-4.751-19.689-5.164a29.9,29.9,0,0,0-7.959.7c-3.569.75-7.675,2.554-8.455,5.118,8.21-2.571,20.294-.877,28.7.959a30.831,30.831,0,0,1,20.093,14.237A28.66,28.66,0,0,0,200.2,327.1"/>
            </g>
          </g>
        </g>
        <path id="Trazado_119186" data-name="Trazado 119186" d="M239.442,226.073a6.456,6.456,0,0,1-.4-1.252c-.214-.814-.563-1.983-1.035-3.41a55.051,55.051,0,0,0-11.816-20.081c-1.018-1.106-1.87-1.978-2.478-2.56a6.406,6.406,0,0,1-.9-.956,6.349,6.349,0,0,1,1.038.807c.652.538,1.549,1.375,2.609,2.456a49.579,49.579,0,0,1,11.9,20.223c.43,1.451.726,2.641.88,3.474a6.348,6.348,0,0,1,.2,1.3" fill="#263238"/>
        <path id="Trazado_119187" data-name="Trazado 119187" d="M255.412,401.92l-48.45-116.894c-2.211-5.334.563-9.658,6.195-9.658H222.9c3.978,0,6.688-2.191,6.944-5.612l.323-4.3c.258-3.42,2.973-5.611,6.955-5.611h46.318a16.211,16.211,0,0,1,10.725,4.745l3.76,3.643a16.2,16.2,0,0,0,10.717,4.745H367.64c5.633,0,11.941,4.324,14.089,9.659l48.03,119.281Z" fill="#d8cfaa"/>
        <path id="Trazado_119189" data-name="Trazado 119189" d="M247.4,362.221l-18.273-70.649c-1.2-4.652,1.844-9.319,6.084-9.319H378.442a6.533,6.533,0,0,1,6.1,5.262l26.6,106.338c1.168,4.669-.7,7.47-4.944,7.416l-144.108.045a6.536,6.536,0,0,1-6.019-5.22Z" fill="#e0e0e0"/>
        <path id="Trazado_119190" data-name="Trazado 119190" d="M257.3,398.723l-7.784-111.257a6.823,6.823,0,0,1,6.806-7.3h148.4V398.723Z" fill="#ebebeb"/>
        <path id="Trazado_119191" data-name="Trazado 119191" d="M255.642,401.269l17.655-114.7a8.218,8.218,0,0,1,8.069-6.406H431.49a8.115,8.115,0,0,1,7.579,11.305L406.653,396.436Z" fill="#fafafa"/>
        <path id="Trazado_119192" data-name="Trazado 119192" d="M255.412,401.869l36.409-107.422a10.779,10.779,0,0,1,10.126-7.468H456.711c4.988,0,8.5,5.105,6.912,10.035L429.759,401.92Z" fill="#eecf52"/>
        <g id="Grupo_85463" data-name="Grupo 85463" opacity="0.3">
          <g id="Grupo_85462" data-name="Grupo 85462">
            <g id="Grupo_85461" data-name="Grupo 85461" clip-path="url(#clip-path-6)">
              <path id="Trazado_119193" data-name="Trazado 119193" d="M330.24,383.884s-5.843.267-8.537.451a79.529,79.529,0,0,1-37.605-6.671c-3.641-1.623-7.493-3.913-8.594-7.744-1.234-4.292,1.545-8.758,4.933-11.666s7.508-4.979,10.45-8.338,4.334-8.8,1.436-12.192l-.8.586c-2.094,5.3-7.924,7.864-12.752,10.9a45,45,0,0,0-18.9,24.7c-1.7,5.561-2.153,12.048,1.219,16.786,2.393,3.361,6.309,5.272,10.177,6.707,11.708,4.342,24.223,4.5,36.71,4.518,3.945,0,16.054-.162,16.054-.162,3.807-1.036,5.063-3.017,7.355-6.229,2.1-2.949,1.644-9.334-1.146-11.645"/>
            </g>
          </g>
        </g>
        <path id="Trazado_119194" data-name="Trazado 119194" d="M330.24,383.884l-40.365-6.069L274.2,368.8a7.072,7.072,0,0,1-3.6-5.693c0-.044-.005-.089-.006-.133a7.154,7.154,0,0,1,4.435-6.831c4.972-2.1,12.848-4.882,16.207-10.766,4.827-8.457,0-10.211,0-10.211l-33.708,13.474-23.861,16.24-4.8,27.08,33.293,10.873s37.1,2.091,47.336.943,10.237-5.917,10.237-5.917c1.9-.594,5.744-3.969,5.742-7.114,4.968-4.66,4.765-6.859,4.765-6.859" fill="#ffbe9d"/>
        <path id="Trazado_119195" data-name="Trazado 119195" d="M278.611,395.539a7.988,7.988,0,0,1,1.663.318c1.055.256,2.589.6,4.49.974a94.9,94.9,0,0,0,30.126,1.176c1.925-.23,3.481-.449,4.553-.622a8.064,8.064,0,0,1,1.682-.188,7.857,7.857,0,0,1-1.633.45c-1.06.255-2.61.548-4.537.841a82,82,0,0,1-30.293-1.182c-1.9-.442-3.421-.855-4.458-1.191a8.059,8.059,0,0,1-1.593-.576" fill="#eb996e"/>
        <path id="Trazado_119196" data-name="Trazado 119196" d="M282.3,389.3a8.351,8.351,0,0,1,1.688.322c1.071.26,2.63.6,4.562.969a98.008,98.008,0,0,0,15.258,1.687,103.58,103.58,0,0,0,15.342-.7c1.953-.236,3.533-.46,4.621-.636a8.32,8.32,0,0,1,1.707-.193,8.245,8.245,0,0,1-1.658.455c-1.076.258-2.649.557-4.6.855a86.82,86.82,0,0,1-15.428.909,82.913,82.913,0,0,1-15.336-1.9c-1.93-.435-3.479-.847-4.532-1.187a8.165,8.165,0,0,1-1.619-.58" fill="#eb996e"/>
        <path id="Trazado_119197" data-name="Trazado 119197" d="M520.364,239.995l-71.72,14.165a9.145,9.145,0,0,1-10.745-7.2L418.292,147.69a9.147,9.147,0,0,1,7.2-10.746l45.485-8.984,42.376,29.335,14.211,71.954a9.147,9.147,0,0,1-7.2,10.746" fill="#ebebeb"/>
        <path id="Trazado_119198" data-name="Trazado 119198" d="M470.978,127.96,476.5,155.9a8.508,8.508,0,0,0,9.994,6.7l26.864-5.3Z" fill="#f5f5f5"/>
        <path id="Trazado_119199" data-name="Trazado 119199" d="M477.347,158.278s.985,6.846,9.139,7.55a8.864,8.864,0,0,0,.922.024c3.632-.065,27.534-.519,27.429-1.049-.113-.574-1.483-7.507-1.483-7.507l-26.863,5.3s-6.753,1.1-9.144-4.323" fill="#e0e0e0"/>
        <path id="Trazado_119200" data-name="Trazado 119200" d="M520.364,239.995s.129-.044.387-.114a7.8,7.8,0,0,0,1.129-.369,9.078,9.078,0,0,0,5.674-9.673c-.525-2.906-1.239-6.253-1.976-10-2.989-15.021-7.268-36.521-12.437-62.5l.089.136-42.394-29.308.19.039L444.781,133.4l-13.728,2.714-3.484.688a23.376,23.376,0,0,0-3.428.809,8.891,8.891,0,0,0-4.965,4.65,8.773,8.773,0,0,0-.72,4.754c.253,1.61.626,3.259.931,4.878q.962,4.875,1.911,9.683,1.9,9.615,3.735,18.932c2.446,12.412,4.806,24.384,7.054,35.79q1.683,8.555,3.281,16.667.8,4.053,1.57,7.985.387,1.965.767,3.9a21.028,21.028,0,0,0,.914,3.751,8.96,8.96,0,0,0,5.227,4.989,8.866,8.866,0,0,0,3.557.517,34.111,34.111,0,0,0,3.553-.605l13.54-2.657,40.869-7.988,11.116-2.146,2.894-.545c.652-.12.989-.168.989-.168s-.33.083-.979.22l-2.883.6-11.1,2.242-40.836,8.15-13.535,2.69a33.942,33.942,0,0,1-3.6.62,9.278,9.278,0,0,1-3.724-.533,9.386,9.386,0,0,1-5.484-5.218,21.3,21.3,0,0,1-.945-3.83l-.774-3.9q-.779-3.93-1.583-7.982-1.605-8.1-3.3-16.663c-2.257-11.4-4.627-23.374-7.083-35.784q-1.84-9.309-3.743-18.931-.949-4.806-1.914-9.682c-.307-1.636-.672-3.232-.936-4.914a9.292,9.292,0,0,1,.762-5.034,9.411,9.411,0,0,1,5.257-4.922,23.746,23.746,0,0,1,3.509-.832l3.484-.688,13.73-2.71,26.247-5.176.1-.02.087.06,42.358,29.362.072.05.017.086c5.095,25.991,9.311,47.5,12.257,62.534.72,3.76,1.412,7.093,1.921,10.027a9.182,9.182,0,0,1-2.061,7.084,9.077,9.077,0,0,1-3.78,2.677,6.792,6.792,0,0,1-1.145.338c-.261.06-.395.082-.395.082" fill="#263238"/>
        <path id="Trazado_119201" data-name="Trazado 119201" d="M513.354,157.295a3.559,3.559,0,0,1-.68.188l-1.969.438-7.261,1.517-10.782,2.185-6.379,1.261a8.78,8.78,0,0,1-9.135-4.431,10.152,10.152,0,0,1-1.066-3.332l-1.244-6.377c-.779-4.053-1.482-7.711-2.077-10.8-.564-3.035-1.024-5.511-1.356-7.293-.141-.821-.255-1.481-.342-1.987a3.535,3.535,0,0,1-.085-.7,3.464,3.464,0,0,1,.187.679c.112.5.258,1.155.439,1.969.371,1.774.887,4.239,1.518,7.26.627,3.087,1.367,6.738,2.187,10.783.406,2.032.832,4.163,1.274,6.371a9.648,9.648,0,0,0,1.02,3.183,8.288,8.288,0,0,0,8.6,4.176l6.371-1.229,10.8-2.075,7.293-1.355,1.988-.342a3.536,3.536,0,0,1,.7-.085" fill="#263238"/>
        <path id="Trazado_119202" data-name="Trazado 119202" d="M474.547,153.158c.028.141-8.421,1.929-18.868,3.992s-18.943,3.623-18.971,3.482,8.419-1.928,18.87-3.993,18.941-3.622,18.969-3.481" fill="#263238"/>
        <path id="Trazado_119203" data-name="Trazado 119203" d="M495.252,163.549c.028.141-12.44,2.723-27.844,5.765s-27.92,5.4-27.948,5.255,12.437-2.722,27.847-5.766,27.917-5.395,27.945-5.254" fill="#263238"/>
        <path id="Trazado_119204" data-name="Trazado 119204" d="M498.005,177.486c.028.141-12.44,2.723-27.844,5.765s-27.92,5.4-27.948,5.255,12.437-2.722,27.847-5.766,27.917-5.4,27.945-5.254" fill="#263238"/>
        <path id="Trazado_119205" data-name="Trazado 119205" d="M444.965,202.443c-.028-.141,12.44-2.723,27.844-5.765s27.92-5.4,27.948-5.255-12.437,2.722-27.847,5.766-27.917,5.4-27.945,5.254" fill="#263238"/>
        <path id="Trazado_119206" data-name="Trazado 119206" d="M503.51,205.36c.028.141-12.44,2.723-27.844,5.765s-27.92,5.4-27.948,5.255,12.437-2.722,27.847-5.766,27.917-5.4,27.945-5.254" fill="#263238"/>
        <path id="Trazado_119207" data-name="Trazado 119207" d="M506.263,219.3c.028.141-12.44,2.723-27.844,5.765s-27.92,5.4-27.948,5.255,12.437-2.722,27.847-5.766,27.917-5.395,27.945-5.254" fill="#263238"/>
        <path id="Trazado_119208" data-name="Trazado 119208" d="M476.541,228.546l-52.633,10.395a4.221,4.221,0,0,1-4.959-3.323l-3.77-19.088a4.222,4.222,0,0,1,3.323-4.96l52.633-10.4a4.22,4.22,0,0,1,4.959,3.324l3.771,19.087a4.223,4.223,0,0,1-3.324,4.96" fill="#13b770"/>
        <path id="Trazado_119209" data-name="Trazado 119209" d="M431.049,218.345l4.7-.927c3.385-.669,6.106.912,6.724,4.043s-1.3,5.63-4.681,6.3l-4.7.928Zm6.235,7.473a3.274,3.274,0,1,0-1.267-6.412l-2.186.432,1.267,6.412Z" fill="#fff"/>
        <path id="Trazado_119210" data-name="Trazado 119210" d="M443.621,221.235a5.778,5.778,0,1,1,6.716,4.23,5.456,5.456,0,0,1-6.716-4.23m8.895-1.757a3.3,3.3,0,1,0-2.582,3.948,3.217,3.217,0,0,0,2.582-3.948" fill="#fff"/>
        <path id="Trazado_119211" data-name="Trazado 119211" d="M456.089,218.772a5.806,5.806,0,0,1,9.176-5.466l-1.257,1.722a3.392,3.392,0,0,0-2.84-.7,3.374,3.374,0,1,0,1.308,6.619,3.363,3.363,0,0,0,2.358-1.739l1.818,1.114a5.8,5.8,0,0,1-10.563-1.553" fill="#fff"/>
        <path id="Trazado_119212" data-name="Trazado 119212" d="M509.083,166.124s5.3-6.706,9.376-2.956,2.9,5.679-.976,11.607c0,0,8.658-.455,5.882,8.439,0,0,8.628-.954,7.8,6.323,0,0,6.515,6.375,3.127,10.485s-15.676,11.527-18.78,10.251-3.128-5.671-3.128-5.671-3.692-1.663-4.711-3.608.731-4.672.731-4.672-3.113-3.18-3.884-4.067.422-5.013.422-5.013l4.969-4.822s-6.842,2.974-8.268,1.84-3.033-2.115-1.507-4.184,6.954-6.7,6.954-6.7Z" fill="#ffbe9d"/>
        <path id="Trazado_119213" data-name="Trazado 119213" d="M513.074,205.109a23.593,23.593,0,0,1,2.242-2.723,26.194,26.194,0,0,1,6.321-5.79,60.989,60.989,0,0,0,7.1-4.567,33.507,33.507,0,0,0,2.422-2.492,6.315,6.315,0,0,1-2.033,2.926c-1.584,1.58-4.25,3.115-7.053,4.831a31.793,31.793,0,0,0-6.332,5.486,11.132,11.132,0,0,1-2.671,2.329" fill="#eb996e"/>
        <path id="Trazado_119214" data-name="Trazado 119214" d="M508.281,197.6c-.161-.161,3.019-3.6,7.1-7.669,2.05-2.005,3.807-3.955,5.32-5.148a6.4,6.4,0,0,1,2.663-1.573c.059.111-.933.714-2.279,2.012-1.369,1.264-3.05,3.264-5.122,5.293-4.082,4.074-7.522,7.246-7.683,7.085" fill="#eb996e"/>
        <path id="Trazado_119215" data-name="Trazado 119215" d="M509.909,182.42c-.163-.206,1.8-1.765,3.981-3.842,2.218-2.063,3.3-4.267,3.509-4.186.235.052-.608,2.611-2.932,4.776-2.268,2.157-4.442,3.4-4.558,3.252" fill="#eb996e"/>
        <path id="Trazado_119216" data-name="Trazado 119216" d="M509.085,166.1a2.184,2.184,0,0,1-.088.5c-.089.37-.2.835-.341,1.413-.336,1.3-.8,3.1-1.393,5.393l-.013.051-.044.038c-1,.879-2.122,1.889-3.336,3.031a29.551,29.551,0,0,0-3.693,3.946,2.065,2.065,0,0,0-.376,1.254,1.983,1.983,0,0,0,.667,1.169,13.4,13.4,0,0,0,1.219,1.007,1.842,1.842,0,0,0,1.379.273,26.486,26.486,0,0,0,6.712-2.081l1.6-.662-1.236,1.208c-1.565,1.528-3.229,3.155-4.952,4.839l.075-.106a6.317,6.317,0,0,0-.255,5.033,14.048,14.048,0,0,0,3.919,3.994l.336.253-.271.32c-1.081,1.277-1.847,3.3-.433,4.543a18.391,18.391,0,0,0,4.692,3.21l-.582.323.008-.1s0-.045,0-.027v.007c.1.12-.231-.287.237.352,1.116-.527.323-.217.567-.3v.006l-.008.189,0,.4a7.691,7.691,0,0,0,.075.815,6.358,6.358,0,0,0,.43,1.568,4.149,4.149,0,0,0,.879,1.317,2.458,2.458,0,0,0,1.284.737,7.808,7.808,0,0,0,3.273-.645,29.093,29.093,0,0,0,3.251-1.461,53.56,53.56,0,0,0,5.784-3.5,33.71,33.71,0,0,0,5.06-4.152,4.1,4.1,0,0,0,1.314-2.6,6.332,6.332,0,0,0-.533-2.914,16.567,16.567,0,0,0-3.4-4.948l-.123-.129.009-.191a6.231,6.231,0,0,0-.293-2.844,4.221,4.221,0,0,0-1.743-2.061,9.323,9.323,0,0,0-5.339-1.022l-.5.032.119-.491c.131-.541.286-1.074.4-1.606a9,9,0,0,0,.124-1.591,4.419,4.419,0,0,0-.893-2.816c-1.224-1.549-3.364-2.02-5.154-2.017h-.58l.31-.471a48.134,48.134,0,0,0,2.788-4.548,6.683,6.683,0,0,0,.709-2.252,3.693,3.693,0,0,0-.444-2.1,9.359,9.359,0,0,0-2.722-2.958,4,4,0,0,0-3.238-.331,10.838,10.838,0,0,0-4.027,2.521c-.409.372-.7.68-.9.882a1.963,1.963,0,0,1-.312.3,1.394,1.394,0,0,1,.245-.358,11.926,11.926,0,0,1,.845-.948,13.168,13.168,0,0,1,1.552-1.369,8.246,8.246,0,0,1,2.5-1.35,4.349,4.349,0,0,1,3.544.3l.829.606.75.717a8.575,8.575,0,0,1,1.359,1.761,4.18,4.18,0,0,1,.533,2.367,7.153,7.153,0,0,1-.729,2.449,47.731,47.731,0,0,1-2.774,4.643l-.27-.469a9.046,9.046,0,0,1,3.017.43,5.579,5.579,0,0,1,2.691,1.784,5.091,5.091,0,0,1,1.059,3.208,9.645,9.645,0,0,1-.123,1.727c-.113.566-.27,1.127-.407,1.7l-.378-.459a9.97,9.97,0,0,1,5.806,1.093,4.978,4.978,0,0,1,2.061,2.417,6.984,6.984,0,0,1,.354,3.21l-.113-.32a17.246,17.246,0,0,1,3.6,5.2,7.1,7.1,0,0,1,.6,3.295,5.108,5.108,0,0,1-.481,1.692,7.39,7.39,0,0,1-1.041,1.388,34.289,34.289,0,0,1-5.184,4.273,53.98,53.98,0,0,1-5.874,3.557,29.874,29.874,0,0,1-3.344,1.5,8.418,8.418,0,0,1-3.678.684,4.086,4.086,0,0,1-2.793-2.544,7.11,7.11,0,0,1-.484-1.773,8.276,8.276,0,0,1-.082-.9l0-.455.012-.239.005-.047,0-.013c.243-.089-.549.218.569-.31.469.635.135.23.238.353v.034l-.005.08-.01.116-.055.6-.528-.281a19.007,19.007,0,0,1-4.92-3.4,3.856,3.856,0,0,1-.842-1.349,3.186,3.186,0,0,1-.068-1.6,6.138,6.138,0,0,1,1.351-2.646l.065.572a14.6,14.6,0,0,1-4.137-4.285,5.26,5.26,0,0,1-.457-2.936,9.312,9.312,0,0,1,.729-2.739l.025-.057.051-.05,4.986-4.8.365.545a26.662,26.662,0,0,1-6.933,2.07,2.435,2.435,0,0,1-1.786-.414,13.938,13.938,0,0,1-1.26-1.068,2.527,2.527,0,0,1-.81-1.516,2.579,2.579,0,0,1,.474-1.587,28.923,28.923,0,0,1,3.837-3.993c1.24-1.127,2.383-2.115,3.408-2.976l-.057.089q1-3.428,1.568-5.374c.175-.564.315-1.017.427-1.379a1.863,1.863,0,0,1,.173-.454" fill="#eb996e"/>
      </g>
    </g>
    <g id="Grupo_85467" data-name="Grupo 85467">
      <g id="Grupo_85466" data-name="Grupo 85466" clip-path="url(#clip-path)">
        <path id="Trazado_119217" data-name="Trazado 119217" d="M144.889,220.045h-61.7a7.72,7.72,0,0,1-7.72-7.721v-85.4a7.72,7.72,0,0,1,7.72-7.721h39.132l30.291,31.221v61.9a7.72,7.72,0,0,1-7.72,7.721" fill="#ebebeb"/>
        <path id="Trazado_119218" data-name="Trazado 119218" d="M122.318,119.2v24.036a7.18,7.18,0,0,0,7.18,7.181l23.111,0Z" fill="#f5f5f5"/>
        <path id="Trazado_119219" data-name="Trazado 119219" d="M122.634,145.345s-.3,5.83,6.333,7.746a7.3,7.3,0,0,0,.759.171c3.018.54,22.884,4.074,22.884,3.617V150.42H129.5s-5.77-.2-6.864-5.075" fill="#e0e0e0"/>
        <path id="Trazado_119220" data-name="Trazado 119220" d="M144.889,220.045c0-.036.463.01,1.334-.157a7.738,7.738,0,0,0,3.5-1.631,7.633,7.633,0,0,0,2.764-5.447c.04-2.49-.006-5.379,0-8.6-.022-12.931-.054-31.433-.092-53.785l.061.152-30.314-31.2.179.076-22.581.008-11.811,0h-3a19.843,19.843,0,0,0-2.964.109,7.466,7.466,0,0,0-4.846,3.022,7.368,7.368,0,0,0-1.366,3.8c-.054,1.369-.015,2.8-.027,4.189q0,4.192,0,8.33,0,8.271,0,16.287c0,10.678-.011,20.977-.015,30.789q-.006,7.359-.011,14.338,0,3.486-.007,6.869l0,3.354a17.806,17.806,0,0,0,.142,3.249,7.521,7.521,0,0,0,6.344,5.971,28.629,28.629,0,0,0,3.037.08l11.647.017,35.147.083,9.555.048,2.485.026c.56.009.847.027.847.027s-.287.018-.847.027l-2.485.025-9.555.049-35.147.083-11.647.017a28.567,28.567,0,0,1-3.092-.077,7.858,7.858,0,0,1-3.008-1.054,7.95,7.95,0,0,1-3.7-5.238,18.053,18.053,0,0,1-.158-3.333l0-3.354q0-3.383-.006-6.869-.006-6.972-.011-14.338c0-9.812-.01-20.111-.015-30.789q0-8.009,0-16.287,0-4.136,0-8.33c.012-1.406-.029-2.783.028-4.226a7.874,7.874,0,0,1,1.462-4.064,7.979,7.979,0,0,1,5.184-3.232,20.03,20.03,0,0,1,3.049-.116h3l11.811,0,22.581.008h.106l.073.076,30.268,31.244.062.063v.088c-.038,22.352-.07,40.854-.092,53.785-.021,3.231.006,6.1-.054,8.618a7.762,7.762,0,0,1-2.874,5.536,7.665,7.665,0,0,1-3.573,1.6,5.767,5.767,0,0,1-1,.091c-.226.006-.34,0-.34,0" fill="#263238"/>
        <path id="Trazado_119221" data-name="Trazado 119221" d="M152.61,150.42a2.517,2.517,0,0,1-.594.052l-1.7.049-6.26.082-9.285.054-5.49,0a7.448,7.448,0,0,1-6.877-5.191,8.575,8.575,0,0,1-.338-2.946c0-1.9.01-3.734.015-5.484.021-3.478.039-6.621.055-9.285.035-2.591.063-4.713.083-6.261.02-.692.036-1.256.049-1.7a2.538,2.538,0,0,1,.053-.593,2.584,2.584,0,0,1,.052.593c.013.446.029,1.01.049,1.7.02,1.548.048,3.67.083,6.261.016,2.664.035,5.807.056,9.285,0,1.75.009,3.584.015,5.484a8.13,8.13,0,0,0,.322,2.79,6.96,6.96,0,0,0,6.4,4.837l5.475.026,9.285.058,6.26.083,1.7.049a2.542,2.542,0,0,1,.594.053" fill="#263238"/>
        <path id="Trazado_119222" data-name="Trazado 119222" d="M121.152,140.648c0,.144-7.288.26-16.277.26s-16.278-.116-16.278-.26,7.287-.26,16.278-.26,16.277.116,16.277.26" fill="#263238"/>
        <path id="Trazado_119223" data-name="Trazado 119223" d="M136.6,152.638c0,.144-10.746.26-24,.26s-24-.116-24-.26,10.744-.26,24-.26,24,.116,24,.26" fill="#263238"/>
        <path id="Trazado_119224" data-name="Trazado 119224" d="M136.6,164.629c0,.144-10.746.26-24,.26s-24-.116-24-.26,10.744-.26,24-.26,24,.116,24,.26" fill="#263238"/>
        <path id="Trazado_119225" data-name="Trazado 119225" d="M136.6,176.619c0,.144-10.746.26-24,.26s-24-.116-24-.26,10.744-.26,24-.26,24,.116,24,.26" fill="#263238"/>
        <path id="Trazado_119226" data-name="Trazado 119226" d="M136.6,188.61c0,.144-10.746.26-24,.26s-24-.116-24-.26,10.744-.26,24-.26,24,.116,24,.26" fill="#263238"/>
        <path id="Trazado_119227" data-name="Trazado 119227" d="M136.6,200.6c0,.144-10.746.26-24,.26s-24-.116-24-.26,10.744-.26,24-.26,24,.116,24,.26" fill="#263238"/>
        <path id="Trazado_119228" data-name="Trazado 119228" d="M109.816,203.4H65.851a4.221,4.221,0,0,1-4.222-4.221V184.071a4.221,4.221,0,0,1,4.222-4.221h43.965a4.221,4.221,0,0,1,4.221,4.221v15.1a4.222,4.222,0,0,1-4.222,4.222" fill="#13b770"/>
        <path id="Trazado_119229" data-name="Trazado 119229" d="M82.149,190.746c0,1.982-1.487,3.215-3.864,3.215H76.493v2.453H74.434v-8.9h3.851c2.377,0,3.864,1.234,3.864,3.229m-2.085,0c0-.979-.635-1.551-1.894-1.551H76.493v3.089H78.17c1.259,0,1.894-.572,1.894-1.538" fill="#fff"/>
        <path id="Trazado_119230" data-name="Trazado 119230" d="M83.61,187.518h4.042c2.911,0,4.906,1.753,4.906,4.449s-1.995,4.447-4.906,4.447H83.61Zm3.94,7.206a2.763,2.763,0,1,0,0-5.516H85.669v5.516Z" fill="#fff"/>
        <path id="Trazado_119231" data-name="Trazado 119231" d="M96.166,189.169v2.352h4.118v1.652H96.166v3.241H94.107v-8.9h6.724v1.652Z" fill="#fff"/>
        <path id="Trazado_119232" data-name="Trazado 119232" d="M105.588,360.774H44.544a7.637,7.637,0,0,1-7.638-7.638V268.643a7.637,7.637,0,0,1,7.637-7.638H83.258l29.968,30.887v61.244a7.638,7.638,0,0,1-7.638,7.638" fill="#ebebeb"/>
        <path id="Trazado_119233" data-name="Trazado 119233" d="M83.257,261v23.78a7.1,7.1,0,0,0,7.1,7.1l22.866,0Z" fill="#f5f5f5"/>
        <path id="Trazado_119234" data-name="Trazado 119234" d="M83.57,286.871s-.3,5.767,6.265,7.663a7.118,7.118,0,0,0,.752.17c2.985.534,22.639,4.03,22.639,3.578v-6.39H90.361s-5.709-.2-6.791-5.021" fill="#e0e0e0"/>
        <path id="Trazado_119235" data-name="Trazado 119235" d="M105.588,360.774c0-.036.458.01,1.319-.156A7.645,7.645,0,0,0,110.371,359a7.547,7.547,0,0,0,2.734-5.387c.039-2.464-.006-5.323,0-8.514-.022-12.793-.054-31.1-.092-53.211l.061.152L83.079,261.178l.179.076-22.34.008-11.685,0H46.268a19.548,19.548,0,0,0-2.932.107,7.384,7.384,0,0,0-4.792,2.989,7.28,7.28,0,0,0-1.351,3.756c-.054,1.354-.015,2.769-.027,4.143q0,4.15,0,8.242,0,8.184,0,16.113c-.005,10.564-.011,20.754-.015,30.461q-.006,7.279-.011,14.184,0,3.45-.007,6.8,0,1.672,0,3.319a17.509,17.509,0,0,0,.141,3.213,7.433,7.433,0,0,0,6.274,5.9,28.274,28.274,0,0,0,3,.08l11.522.017,34.772.083,9.454.048,2.458.026c.554.009.838.027.838.027s-.284.018-.838.027l-2.458.025-9.454.049-34.772.083-11.522.017a28.461,28.461,0,0,1-3.059-.076,7.769,7.769,0,0,1-2.977-1.043,7.868,7.868,0,0,1-3.666-5.184,17.925,17.925,0,0,1-.156-3.3q0-1.647,0-3.319,0-3.346-.006-6.8-.006-6.9-.011-14.184c-.005-9.707-.01-19.9-.015-30.461q0-7.923,0-16.113,0-4.092,0-8.242c.012-1.39-.029-2.753.027-4.18a7.812,7.812,0,0,1,1.447-4.022,7.9,7.9,0,0,1,5.131-3.2,19.736,19.736,0,0,1,3.017-.114h2.965l11.685,0,22.34.008h.106l.073.076c10.783,11.13,20.886,21.558,29.945,30.91l.062.063v.088c-.038,22.114-.069,40.418-.092,53.211-.02,3.2.006,6.038-.053,8.526a7.68,7.68,0,0,1-2.844,5.477,7.574,7.574,0,0,1-3.535,1.578,5.721,5.721,0,0,1-.994.09c-.224.006-.337,0-.337,0" fill="#263238"/>
        <path id="Trazado_119236" data-name="Trazado 119236" d="M113.226,291.892a2.462,2.462,0,0,1-.587.052l-1.684.049-6.194.082-9.186.054-5.431,0A7.37,7.37,0,0,1,83.338,287,8.524,8.524,0,0,1,83,284.08c.005-1.879.01-3.694.015-5.425.021-3.441.04-6.55.056-9.187.034-2.562.062-4.66.082-6.193.02-.684.037-1.242.049-1.684a2.488,2.488,0,0,1,.053-.587,2.533,2.533,0,0,1,.052.587c.013.442.029,1,.049,1.684.021,1.533.049,3.631.083,6.193.016,2.637.035,5.746.056,9.187,0,1.731.01,3.546.015,5.425a8.033,8.033,0,0,0,.319,2.76,6.882,6.882,0,0,0,6.327,4.783l5.416.026,9.186.058,6.194.083,1.684.05a2.532,2.532,0,0,1,.587.052" fill="#263238"/>
        <path id="Trazado_119237" data-name="Trazado 119237" d="M82.1,282.224c0,.144-7.21.26-16.1.26s-16.1-.116-16.1-.26,7.209-.26,16.1-.26,16.1.116,16.1.26" fill="#263238"/>
        <path id="Trazado_119238" data-name="Trazado 119238" d="M97.385,294.086c0,.144-10.631.26-23.743.26s-23.745-.116-23.745-.26,10.629-.26,23.745-.26,23.743.116,23.743.26" fill="#263238"/>
        <path id="Trazado_119239" data-name="Trazado 119239" d="M97.385,305.949c0,.144-10.631.26-23.743.26s-23.745-.116-23.745-.26,10.629-.26,23.745-.26,23.743.116,23.743.26" fill="#263238"/>
        <path id="Trazado_119240" data-name="Trazado 119240" d="M97.385,317.812c0,.144-10.631.26-23.743.26s-23.745-.116-23.745-.26,10.629-.26,23.745-.26,23.743.116,23.743.26" fill="#263238"/>
        <path id="Trazado_119241" data-name="Trazado 119241" d="M97.385,329.674c0,.144-10.631.26-23.743.26s-23.745-.116-23.745-.26,10.629-.26,23.745-.26,23.743.116,23.743.26" fill="#263238"/>
        <path id="Trazado_119242" data-name="Trazado 119242" d="M97.385,341.536c0,.144-10.631.26-23.743.26s-23.745-.116-23.745-.26,10.629-.26,23.745-.26,23.743.116,23.743.26" fill="#263238"/>
        <path id="Trazado_119243" data-name="Trazado 119243" d="M70.844,344.3H27.438a4.221,4.221,0,0,1-4.221-4.222V325.23a4.221,4.221,0,0,1,4.221-4.222H70.844a4.221,4.221,0,0,1,4.221,4.222v14.853a4.221,4.221,0,0,1-4.221,4.222" fill="#13b770"/>
        <path id="Trazado_119244" data-name="Trazado 119244" d="M43.514,331.792c0,1.961-1.472,3.181-3.823,3.181H37.918V337.4H35.881v-8.8h3.81c2.351,0,3.823,1.218,3.823,3.193m-2.063,0c0-.969-.628-1.534-1.873-1.534h-1.66v3.055h1.66c1.245,0,1.873-.566,1.873-1.521" fill="#fff"/>
        <path id="Trazado_119245" data-name="Trazado 119245" d="M52.59,331.792c0,1.961-1.47,3.181-3.822,3.181H47V337.4H44.959v-8.8h3.809c2.352,0,3.822,1.218,3.822,3.193m-2.061,0c0-.969-.629-1.534-1.874-1.534H47v3.055h1.659c1.245,0,1.874-.566,1.874-1.521" fill="#fff"/>
        <path id="Trazado_119246" data-name="Trazado 119246" d="M55.621,330.258H52.805V328.6h7.67v1.659H57.658V337.4H55.621Z" fill="#fff"/>
        <path id="Trazado_119247" data-name="Trazado 119247" d="M225.618,119.406H164.963a7.589,7.589,0,0,1-7.589-7.589V27.862a7.589,7.589,0,0,1,7.589-7.589H203.43l29.777,30.691v60.853a7.589,7.589,0,0,1-7.589,7.589" fill="#ebebeb"/>
        <path id="Trazado_119248" data-name="Trazado 119248" d="M203.43,20.273V43.9a7.059,7.059,0,0,0,7.058,7.059l22.719,0Z" fill="#f5f5f5"/>
        <path id="Trazado_119249" data-name="Trazado 119249" d="M203.74,45.975s-.3,5.731,6.225,7.615a7.329,7.329,0,0,0,.747.168c2.966.53,22.495,4,22.495,3.556v-6.35H210.488s-5.673-.194-6.748-4.989" fill="#e0e0e0"/>
        <path id="Trazado_119250" data-name="Trazado 119250" d="M225.618,119.407c0-.036.455.009,1.311-.155a7.6,7.6,0,0,0,3.441-1.6,7.5,7.5,0,0,0,2.717-5.353c.038-2.447-.006-5.288-.005-8.459-.022-12.712-.054-30.9-.092-52.871l.061.151-29.8-30.669.179.076-22.2.008-11.611,0h-2.946a19.434,19.434,0,0,0-2.913.107A7.333,7.333,0,0,0,159,23.609a7.227,7.227,0,0,0-1.342,3.732c-.054,1.345-.015,2.751-.027,4.117q0,4.122,0,8.189,0,8.13,0,16.01c-.005,10.5-.01,20.621-.015,30.267q-.006,7.233-.011,14.094,0,3.426-.007,6.752l0,3.3a17.375,17.375,0,0,0,.14,3.193,7.385,7.385,0,0,0,6.233,5.867,28.159,28.159,0,0,0,2.984.079l11.449.017,34.55.083,9.394.049,2.443.025c.55.009.832.027.832.027s-.282.018-.832.027l-2.443.025-9.394.049-34.55.083-11.449.017a28.352,28.352,0,0,1-3.039-.075,7.733,7.733,0,0,1-2.959-1.037,7.821,7.821,0,0,1-3.643-5.152,17.708,17.708,0,0,1-.155-3.277q0-1.635,0-3.3,0-3.325-.006-6.752-.006-6.854-.011-14.094c-.005-9.646-.01-19.771-.015-30.267q0-7.872,0-16.01,0-4.066,0-8.189c.012-1.382-.028-2.736.027-4.154a7.753,7.753,0,0,1,1.438-4,7.856,7.856,0,0,1,5.1-3.18,19.743,19.743,0,0,1,3-.113h2.946l11.611,0,22.2.008h.106l.074.076,29.753,30.713.062.064v.088c-.038,21.972-.07,40.159-.092,52.871-.02,3.176.005,6-.054,8.471a7.626,7.626,0,0,1-2.826,5.443,7.524,7.524,0,0,1-3.513,1.568,5.618,5.618,0,0,1-.987.089c-.223.006-.335,0-.335,0" fill="#263238"/>
        <path id="Trazado_119251" data-name="Trazado 119251" d="M233.207,50.964a2.5,2.5,0,0,1-.583.052l-1.674.049-6.154.082-9.127.054-5.4,0a7.326,7.326,0,0,1-6.764-5.106,8.439,8.439,0,0,1-.333-2.9c0-1.868.01-3.67.015-5.391.021-3.419.04-6.508.056-9.128.034-2.545.062-4.63.083-6.154.02-.679.036-1.233.049-1.672a2.509,2.509,0,0,1,.052-.584,2.438,2.438,0,0,1,.052.584c.013.439.029.993.049,1.672.021,1.524.049,3.609.083,6.154.016,2.62.035,5.709.056,9.128.005,1.721.01,3.523.015,5.391A8,8,0,0,0,204,45.944a6.84,6.84,0,0,0,6.285,4.751l5.382.026,9.127.058,6.154.083,1.674.05a2.5,2.5,0,0,1,.583.052" fill="#263238"/>
        <path id="Trazado_119252" data-name="Trazado 119252" d="M202.284,41.357c0,.144-7.164.26-16,.26s-16-.116-16-.26,7.163-.26,16-.26,16,.116,16,.26" fill="#263238"/>
        <path id="Trazado_119253" data-name="Trazado 119253" d="M217.467,53.144c0,.144-10.563.26-23.591.26s-23.593-.116-23.593-.26,10.561-.26,23.593-.26,23.591.116,23.591.26" fill="#263238"/>
        <path id="Trazado_119254" data-name="Trazado 119254" d="M217.467,64.931c0,.144-10.563.26-23.591.26s-23.593-.116-23.593-.26,10.561-.26,23.593-.26,23.591.116,23.591.26" fill="#263238"/>
        <path id="Trazado_119255" data-name="Trazado 119255" d="M217.467,76.718c0,.144-10.563.26-23.591.26s-23.594-.116-23.594-.26,10.561-.26,23.594-.26,23.591.116,23.591.26" fill="#263238"/>
        <path id="Trazado_119256" data-name="Trazado 119256" d="M217.467,88.5c0,.144-10.563.26-23.591.26s-23.594-.116-23.594-.26,10.561-.26,23.594-.26,23.591.116,23.591.26" fill="#263238"/>
        <path id="Trazado_119257" data-name="Trazado 119257" d="M217.467,100.292c0,.144-10.564.26-23.591.26s-23.594-.116-23.594-.26,10.561-.26,23.594-.26,23.591.116,23.591.26" fill="#263238"/>
        <path id="Trazado_119258" data-name="Trazado 119258" d="M191.069,103.042H147.994a4.221,4.221,0,0,1-4.222-4.221V84.115a4.221,4.221,0,0,1,4.222-4.221h43.075a4.222,4.222,0,0,1,4.222,4.221V98.821a4.222,4.222,0,0,1-4.222,4.221" fill="#13b770"/>
        <path id="Trazado_119259" data-name="Trazado 119259" d="M161.877,96.169l-2.112-3.037-2.074,3.037h-2.325L158.6,91.72l-3.074-4.3h2.3l2.012,2.837,1.975-2.837H164l-3.05,4.224,3.262,4.524Z" fill="#fff"/>
        <path id="Trazado_119260" data-name="Trazado 119260" d="M165.011,87.421h2.024v7.1h4.387v1.649h-6.411Z" fill="#fff"/>
        <path id="Trazado_119261" data-name="Trazado 119261" d="M171.819,95.307l.687-1.524a5.147,5.147,0,0,0,2.887.912c1.2,0,1.687-.4,1.687-.938,0-1.637-5.086-.512-5.086-3.761,0-1.487,1.2-2.725,3.686-2.725a5.871,5.871,0,0,1,3.037.775l-.625,1.537a4.941,4.941,0,0,0-2.424-.687c-1.2,0-1.662.45-1.662,1,0,1.612,5.086.5,5.086,3.711,0,1.463-1.212,2.712-3.711,2.712a6.231,6.231,0,0,1-3.562-1.012" fill="#fff"/>
        <path id="Trazado_119262" data-name="Trazado 119262" d="M600.8,372.627H539.175a7.71,7.71,0,0,1-7.71-7.71V279.625a7.71,7.71,0,0,1,7.71-7.711h39.08l30.252,31.18v61.823a7.71,7.71,0,0,1-7.71,7.71" fill="#ebebeb"/>
        <path id="Trazado_119263" data-name="Trazado 119263" d="M578.256,271.914v24.005a7.171,7.171,0,0,0,7.17,7.171l23.082,0Z" fill="#f5f5f5"/>
        <path id="Trazado_119264" data-name="Trazado 119264" d="M578.571,298.025s-.3,5.822,6.324,7.736a7.3,7.3,0,0,0,.759.171c3.014.539,22.854,4.068,22.854,3.612v-6.45H585.426s-5.763-.2-6.855-5.069" fill="#e0e0e0"/>
        <path id="Trazado_119265" data-name="Trazado 119265" d="M600.8,372.627c0-.036.462.01,1.332-.157a7.708,7.708,0,0,0,3.5-1.629,7.62,7.62,0,0,0,2.761-5.439c.039-2.487-.006-5.373,0-8.6-.022-12.913-.054-31.391-.092-53.713l.061.151-30.275-31.157.179.075-22.55.008-11.8,0h-2.993a19.667,19.667,0,0,0-2.96.109,7.457,7.457,0,0,0-4.839,3.017,7.361,7.361,0,0,0-1.364,3.793c-.054,1.367-.015,2.8-.027,4.183q0,4.188,0,8.32,0,8.26,0,16.265c0,10.664-.01,20.95-.015,30.749q-.006,7.349-.011,14.319,0,3.482-.006,6.86,0,1.688,0,3.35a17.754,17.754,0,0,0,.142,3.244,7.514,7.514,0,0,0,6.336,5.963,28.535,28.535,0,0,0,3.032.08l11.632.017,35.1.083,9.543.048,2.481.026c.56.009.846.027.846.027s-.286.018-.846.027l-2.481.025-9.543.049-35.1.083-11.632.017a28.725,28.725,0,0,1-3.087-.076A7.859,7.859,0,0,1,535.1,371.7a7.944,7.944,0,0,1-3.7-5.232,17.916,17.916,0,0,1-.157-3.328q0-1.662,0-3.35,0-3.378-.006-6.86-.006-6.963-.011-14.319c-.005-9.8-.01-20.085-.015-30.749q0-8,0-16.265,0-4.131,0-8.32c.012-1.4-.029-2.779.028-4.219a7.876,7.876,0,0,1,1.46-4.06,7.978,7.978,0,0,1,5.177-3.228,20.108,20.108,0,0,1,3.045-.115h2.993l11.8,0,22.55.008h.106l.074.076,30.228,31.2.062.064v.088c-.038,22.322-.069,40.8-.091,53.713-.021,3.228.006,6.1-.054,8.607a7.752,7.752,0,0,1-2.87,5.529,7.643,7.643,0,0,1-3.569,1.593,5.752,5.752,0,0,1-1,.091c-.226.006-.34,0-.34,0" fill="#263238"/>
        <path id="Trazado_119266" data-name="Trazado 119266" d="M608.507,303.094a2.537,2.537,0,0,1-.593.053l-1.7.048-6.252.082-9.273.054-5.483,0a7.439,7.439,0,0,1-6.868-5.184,8.6,8.6,0,0,1-.338-2.942c.006-1.9.011-3.73.015-5.477.021-3.474.04-6.613.056-9.274.035-2.587.063-4.705.083-6.251.02-.692.036-1.255.049-1.7a2.58,2.58,0,0,1,.052-.593,2.536,2.536,0,0,1,.053.593c.013.445.029,1.008.049,1.7.02,1.546.048,3.664.082,6.251.017,2.661.035,5.8.056,9.274.005,1.747.01,3.579.016,5.477a8.09,8.09,0,0,0,.322,2.786,6.948,6.948,0,0,0,6.388,4.83l5.468.026,9.273.058,6.252.083,1.7.05a2.583,2.583,0,0,1,.593.052" fill="#263238"/>
        <path id="Trazado_119267" data-name="Trazado 119267" d="M577.092,293.334c0,.144-7.279.26-16.255.26s-16.257-.116-16.257-.26,7.277-.26,16.257-.26,16.255.116,16.255.26" fill="#263238"/>
        <path id="Trazado_119268" data-name="Trazado 119268" d="M592.517,305.309c0,.144-10.732.26-23.967.26s-23.97-.116-23.97-.26,10.73-.26,23.97-.26,23.967.116,23.967.26" fill="#263238"/>
        <path id="Trazado_119269" data-name="Trazado 119269" d="M592.517,317.283c0,.144-10.732.26-23.967.26s-23.97-.116-23.97-.26,10.73-.26,23.97-.26,23.967.116,23.967.26" fill="#263238"/>
        <path id="Trazado_119270" data-name="Trazado 119270" d="M592.517,329.258c0,.144-10.732.26-23.967.26s-23.97-.116-23.97-.26,10.73-.26,23.97-.26,23.967.116,23.967.26" fill="#263238"/>
        <path id="Trazado_119271" data-name="Trazado 119271" d="M592.517,341.233c0,.144-10.732.26-23.967.26s-23.97-.116-23.97-.26,10.73-.26,23.97-.26,23.967.116,23.967.26" fill="#263238"/>
        <path id="Trazado_119272" data-name="Trazado 119272" d="M592.517,356c0,.144-10.732.26-23.967.26s-23.97-.116-23.97-.26,10.73-.26,23.97-.26,23.967.116,23.967.26" fill="#263238"/>
        <path id="Trazado_119273" data-name="Trazado 119273" d="M565.765,356h-43.9a4.221,4.221,0,0,1-4.222-4.221V336.706a4.221,4.221,0,0,1,4.222-4.221h43.9a4.221,4.221,0,0,1,4.221,4.221V351.78A4.221,4.221,0,0,1,565.765,356" fill="#13b770"/>
        <path id="Trazado_119274" data-name="Trazado 119274" d="M523.711,340.153h4.037c2.907,0,4.9,1.752,4.9,4.443s-1.993,4.444-4.9,4.444h-4.037Zm3.935,7.2a2.76,2.76,0,1,0,0-5.51h-1.879v5.51Z" fill="#fff"/>
        <path id="Trazado_119275" data-name="Trazado 119275" d="M533.635,344.6a4.87,4.87,0,1,1,4.863,4.6,4.6,4.6,0,0,1-4.863-4.6m7.643,0a2.781,2.781,0,1,0-2.78,2.844,2.711,2.711,0,0,0,2.78-2.844" fill="#fff"/>
        <path id="Trazado_119276" data-name="Trazado 119276" d="M544.348,344.6a4.893,4.893,0,0,1,8.48-3.021l-1.32,1.218a2.862,2.862,0,0,0-2.234-1.041,2.844,2.844,0,0,0,0,5.688,2.834,2.834,0,0,0,2.234-1.054l1.32,1.219a4.885,4.885,0,0,1-8.48-3.009" fill="#fff"/>
        <path id="Trazado_119277" data-name="Trazado 119277" d="M559.631,349.04l-2.146-3.085-2.107,3.085h-2.361l3.288-4.52-3.123-4.367h2.336l2.044,2.882,2-2.882h2.222l-3.1,4.291,3.314,4.6Z" fill="#fff"/>
      </g>
    </g>
    <g id="Grupo_85469" data-name="Grupo 85469">
      <g id="Grupo_85468" data-name="Grupo 85468" clip-path="url(#clip-path)">
        <path id="Trazado_119278" data-name="Trazado 119278" d="M667.723,401.92c0,.144-149.487.26-333.846.26C149.455,402.18,0,402.064,0,401.92s149.455-.26,333.877-.26c184.359,0,333.846.116,333.846.26" fill="#263238"/>
      </g>
    </g>
  </g>
</svg>
