<svg id="Page-1" xmlns="http://www.w3.org/2000/svg" width="92.484" height="92.48" viewBox="0 0 92.484 92.48">
  <g id="_050---Check-Documents" data-name="050---Check-Documents" transform="translate(0)">
    <path id="Shape" d="M68.858,4.084V34.327A24.675,24.675,0,0,0,40.62,73.962a24.324,24.324,0,0,0,8.852,5.691H4.084A3.094,3.094,0,0,1,1,76.569V22.591L22.591,1H65.773A3.094,3.094,0,0,1,68.858,4.084Z" transform="translate(0.542 0.542)" fill="#eecf52"/>
    <path id="Shape-2" data-name="Shape" d="M44.627,1H40a3.094,3.094,0,0,1,3.084,3.084v28.56a24.567,24.567,0,0,1,4.627,1.683V4.084A3.094,3.094,0,0,0,44.627,1Z" transform="translate(21.689 0.542)" fill="#fec108"/>
    <path id="Shape-3" data-name="Shape" d="M77.7,60.405H9.084A3.094,3.094,0,0,1,6,57.321V52.694H46.761A24.686,24.686,0,0,0,68.028,50.72Z" transform="translate(3.253 27.501)" fill="#79dfef"/>
    <path id="Shape-4" data-name="Shape" d="M52.711,9.084V37.507c-.339-.386-.694-.771-1.064-1.141A24.367,24.367,0,0,0,45,31.616V6h4.627A3.094,3.094,0,0,1,52.711,9.084Z" transform="translate(24.4 3.253)" fill="#ff9801"/>
    <path id="Shape-5" data-name="Shape" d="M49.627,6H45a3.094,3.094,0,0,1,3.084,3.084V33.422a24.315,24.315,0,0,1,3.563,2.944c.37.37.725.756,1.064,1.141V9.084A3.094,3.094,0,0,0,49.627,6Z" transform="translate(24.4 3.253)" fill="#79dfef"/>
    <path id="Shape-6" data-name="Shape" d="M22.591,1V19.507a3.094,3.094,0,0,1-3.084,3.084H1Z" transform="translate(0.542 0.542)" fill="#ffeb3a"/>
    <path id="Shape-7" data-name="Shape" d="M66.615,60.22a24.675,24.675,0,1,1,4.011-20.5A24.675,24.675,0,0,1,66.615,60.22Z" transform="translate(11.93 11.385)" fill="#13b770"/>
    <path id="Shape-8" data-name="Shape" d="M57.331,29.372A24.541,24.541,0,0,0,36.48,21.121,24.4,24.4,0,0,1,52.7,29.372a24.675,24.675,0,0,1-16.07,40.839,24.634,24.634,0,0,0,20.7-40.839Z" transform="translate(19.78 11.389)" fill="#90ac00"/>
    <path id="Shape-9" data-name="Shape" d="M64.5,64.381a4.935,4.935,0,0,1-6.955,0c-2.344-2.344-.318-.308-11.32-11.335a24.9,24.9,0,0,0,7.264-6.616l11.011,11A4.935,4.935,0,0,1,64.5,64.381Z" transform="translate(25.061 25.175)" fill="#dee4f0"/>
    <path id="Shape-10" data-name="Shape" d="M35.307,55l-8.269-8.269a1.542,1.542,0,0,1,0-2.181l2.181-2.181a1.542,1.542,0,0,1,2.181,0l5.244,5.244L57.233,29.96a1.542,1.542,0,0,1,2.175.168l2,2.343a1.542,1.542,0,0,1-.167,2.175L37.4,55.085a1.542,1.542,0,0,1-2.1-.08Z" transform="translate(14.415 16.044)" fill="#f5f5f5"/>
    <g id="Grupo_85867" data-name="Grupo 85867">
      <path id="Shape-11" data-name="Shape" d="M4.627,81.737H7.711v3.084a4.627,4.627,0,0,0,4.627,4.627h59.9a1.542,1.542,0,0,0,0-3.084h-59.9A1.542,1.542,0,0,1,10.8,84.822V81.737H38.216a1.542,1.542,0,1,0,0-3.084H4.627a1.542,1.542,0,0,1-1.542-1.542V24.675H20.049a4.627,4.627,0,0,0,4.627-4.627V3.084h41.64a1.542,1.542,0,0,1,1.542,1.542V28.161a1.542,1.542,0,1,0,3.084,0V10.8h3.084a1.542,1.542,0,0,1,1.542,1.542V32.371a1.542,1.542,0,1,0,3.084,0V12.338a4.627,4.627,0,0,0-4.627-4.627H70.942V4.627A4.627,4.627,0,0,0,66.315,0H23.133a1.542,1.542,0,0,0-1.09.452L.452,22.043A1.542,1.542,0,0,0,0,23.133V77.111a4.627,4.627,0,0,0,4.627,4.627ZM20.049,21.591H5.265L21.591,5.265V20.049A1.542,1.542,0,0,1,20.049,21.591Z" transform="translate(0)"/>
      <path id="Shape-12" data-name="Shape" d="M5.542,42A1.542,1.542,0,0,0,4,43.542v7.711A1.542,1.542,0,0,0,5.542,52.8h7.711a1.542,1.542,0,1,0,0-3.084H7.084V43.542A1.542,1.542,0,0,0,5.542,42Z" transform="translate(2.169 22.773)"/>
      <path id="Shape-13" data-name="Shape" d="M44.253,14.8A1.542,1.542,0,0,0,45.8,13.253V5.542A1.542,1.542,0,0,0,44.253,4H36.542a1.542,1.542,0,0,0,0,3.084h6.169v6.169A1.542,1.542,0,0,0,44.253,14.8Z" transform="translate(18.978 2.169)"/>
      <path id="Shape-14" data-name="Shape" d="M47.218,72.436a26.063,26.063,0,0,0,12.427-3.125l10.487,10.5a6.462,6.462,0,0,0,9.133-9.142L69.159,60.573A26.218,26.218,0,1,0,47.218,72.436Zm29.857.407a3.376,3.376,0,1,1-4.769,4.781l-9.984-10a26.612,26.612,0,0,0,3.435-2.867c.54-.541,1.043-1.11,1.53-1.687ZM30.861,29.861a23.133,23.133,0,1,1-6.777,16.357,23.133,23.133,0,0,1,6.777-16.357Z" transform="translate(11.387 10.844)"/>
      <path id="Shape-15" data-name="Shape" d="M34.759,56.638a3.1,3.1,0,0,0,4.187.154L62.792,36.358a3.084,3.084,0,0,0,.336-4.348l-2-2.346a3.084,3.084,0,0,0-4.346-.333L37.262,46.054l-4.23-4.229a3.084,3.084,0,0,0-4.361,0L26.49,44.006a3.084,3.084,0,0,0,0,4.361l8.268,8.269ZM30.851,44.006l5.244,5.244a1.542,1.542,0,0,0,2.094.08L58.777,31.673l2,2.343L36.938,54.456,28.67,46.187Z" transform="translate(13.873 15.502)"/>
      <path id="Shape-16" data-name="Shape" d="M6.542,23.084H34.3A1.542,1.542,0,1,0,34.3,20H6.542a1.542,1.542,0,1,0,0,3.084Z" transform="translate(2.711 10.844)"/>
      <path id="Shape-17" data-name="Shape" d="M32.744,25.542A1.542,1.542,0,0,0,31.2,24H6.542a1.542,1.542,0,1,0,0,3.084H31.2A1.542,1.542,0,0,0,32.744,25.542Z" transform="translate(2.711 13.013)"/>
      <path id="Shape-18" data-name="Shape" d="M29.151,29.542A1.542,1.542,0,0,0,27.609,28H6.542a1.542,1.542,0,1,0,0,3.084H27.609A1.542,1.542,0,0,0,29.151,29.542Z" transform="translate(2.711 15.182)"/>
      <path id="Shape-19" data-name="Shape" d="M27.208,33.542A1.542,1.542,0,0,0,25.666,32H6.542a1.542,1.542,0,1,0,0,3.084H25.666A1.542,1.542,0,0,0,27.208,33.542Z" transform="translate(2.711 17.351)"/>
      <path id="Shape-20" data-name="Shape" d="M26.591,37.542A1.542,1.542,0,0,0,25.049,36H6.542a1.542,1.542,0,1,0,0,3.084H25.049A1.542,1.542,0,0,0,26.591,37.542Z" transform="translate(2.711 19.52)"/>
    </g>
  </g>
</svg>
