<svg xmlns="http://www.w3.org/2000/svg" width="295" height="229" viewBox="0 0 295 229">
  <g id="Grupo_86066" data-name="Grupo 86066" transform="translate(-1020 -3095)">
    <rect id="Rectángulo_36552" data-name="Rectángulo 36552" width="295" height="229" transform="translate(1020 3095)" fill="#13b770"/>
    <g id="scanner" transform="translate(1078.87 3104.509)">
      <g id="Grupo_85684" data-name="Grupo 85684" transform="translate(27.972 34.328)">
        <g id="Grupo_85663" data-name="Grupo 85663" transform="translate(6.916 85.006)">
          <path id="Trazado_119417" data-name="Trazado 119417" d="M153.2,341.378H56.4v-6.5a2.285,2.285,0,0,1,2.285-2.285h92.23a2.285,2.285,0,0,1,2.285,2.285v6.5Z" transform="translate(-56.398 -332.595)" fill="#e9edf4"/>
        </g>
        <g id="Grupo_85664" data-name="Grupo 85664" transform="translate(0 93.789)">
          <path id="Trazado_119418" data-name="Trazado 119418" d="M154.133,386.083H40.214a7.717,7.717,0,0,1-7.717-7.717V365.828a2.881,2.881,0,0,1,2.881-2.881H161.85v15.418A7.717,7.717,0,0,1,154.133,386.083Z" transform="translate(-32.497 -362.947)" fill="#eecf52"/>
        </g>
        <g id="Grupo_85665" data-name="Grupo 85665" transform="translate(10.038 116.925)">
          <path id="Trazado_119419" data-name="Trazado 119419" d="M173.57,451.655H70.078a2.892,2.892,0,0,1-2.892-2.892V442.9H176.463v5.865A2.892,2.892,0,0,1,173.57,451.655Z" transform="translate(-67.186 -442.897)" fill="#79dfef"/>
        </g>
        <g id="Grupo_85666" data-name="Grupo 85666" transform="translate(0.007 93.783)" opacity="0.41">
          <path id="Trazado_119420" data-name="Trazado 119420" d="M48.442,386.069v8.756h-3a2.892,2.892,0,0,1-2.892-2.892v-5.864H40.232a7.71,7.71,0,0,1-7.71-7.71V365.807a2.881,2.881,0,0,1,2.881-2.881h3.015V378.36a7.71,7.71,0,0,0,7.71,7.71h2.314Z" transform="translate(-32.522 -362.926)" fill="#fff"/>
        </g>
        <g id="Grupo_85667" data-name="Grupo 85667" transform="translate(113.433 93.782)" opacity="0.1">
          <path id="Trazado_119421" data-name="Trazado 119421" d="M440.407,362.924v15.419a7.724,7.724,0,0,1-7.724,7.724h-2.3v5.864a2.892,2.892,0,0,1-2.892,2.892h-3v-8.756H426.8a7.71,7.71,0,0,0,7.71-7.71V362.924h5.9Z" transform="translate(-424.487 -362.924)"/>
        </g>
        <g id="Grupo_85668" data-name="Grupo 85668" transform="translate(33.047 0)">
          <path id="Trazado_119422" data-name="Trazado 119422" d="M226.739,121.128,147.4,44.97a2.292,2.292,0,0,1-.067-3.24,9.394,9.394,0,0,1,13.282-.276L243,121.128H226.739Z" transform="translate(-146.699 -38.84)" fill="#eecf52"/>
        </g>
        <g id="Grupo_85669" data-name="Grupo 85669" transform="translate(113.087 82.288)">
          <path id="Trazado_119423" data-name="Trazado 119423" d="M423.294,323.2H439.56v11.5H423.294Z" transform="translate(-423.294 -323.204)" fill="#da785a"/>
        </g>
        <g id="Grupo_85670" data-name="Grupo 85670" transform="translate(123.334 82.288)" opacity="0.1">
          <path id="Trazado_119424" data-name="Trazado 119424" d="M458.7,323.2h6.019v11.5H458.7Z" transform="translate(-458.702 -323.204)"/>
        </g>
        <g id="Grupo_85671" data-name="Grupo 85671" transform="translate(97.814 85.012)" opacity="0.1">
          <path id="Trazado_119425" data-name="Trazado 119425" d="M376.411,334.9v6.486h-5.9v-8.771h3.611A2.285,2.285,0,0,1,376.411,334.9Z" transform="translate(-370.515 -332.615)"/>
        </g>
        <g id="Grupo_85672" data-name="Grupo 85672" transform="translate(7.09 85.012)" opacity="0.41">
          <path id="Trazado_119426" data-name="Trazado 119426" d="M62.894,332.615v8.771H57V334.9a2.285,2.285,0,0,1,2.285-2.285Z" transform="translate(-56.997 -332.615)" fill="#fff"/>
        </g>
        <g id="Grupo_85677" data-name="Grupo 85677" transform="translate(16.001 60.684)">
          <g id="Grupo_85674" data-name="Grupo 85674" transform="translate(0 0.001)">
            <g id="Grupo_85673" data-name="Grupo 85673">
              <path id="Trazado_119427" data-name="Trazado 119427" d="M96.347,265.684a1.843,1.843,0,0,1-1.65-1.021l-6.705-13.451a1.843,1.843,0,0,1,3.3-1.644l6.705,13.451A1.853,1.853,0,0,1,96.347,265.684Z" transform="translate(-87.792 -248.549)" fill="#da785a"/>
            </g>
          </g>
          <g id="Grupo_85676" data-name="Grupo 85676" transform="translate(37.15 0)">
            <g id="Grupo_85675" data-name="Grupo 85675">
              <path id="Trazado_119428" data-name="Trazado 119428" d="M218.017,265.683a1.853,1.853,0,0,1-1.647-2.665l6.705-13.451a1.843,1.843,0,0,1,3.3,1.644l-6.705,13.451A1.844,1.844,0,0,1,218.017,265.683Z" transform="translate(-216.171 -248.547)" fill="#da785a"/>
            </g>
          </g>
        </g>
        <g id="Grupo_85679" data-name="Grupo 85679" transform="translate(37.934 55.093)">
          <g id="Grupo_85678" data-name="Grupo 85678">
            <path id="Trazado_119429" data-name="Trazado 119429" d="M165.429,247.775a1.843,1.843,0,0,1-1.843-1.843V231.068a1.843,1.843,0,0,1,3.685,0v14.865A1.843,1.843,0,0,1,165.429,247.775Z" transform="translate(-163.586 -229.225)" fill="#da785a"/>
          </g>
        </g>
        <g id="Grupo_85683" data-name="Grupo 85683" transform="translate(15.865 102.157)">
          <g id="Grupo_85680" data-name="Grupo 85680">
            <path id="Trazado_119430" data-name="Trazado 119430" d="M90.521,391.864a3.2,3.2,0,1,0,3.2,3.2A3.2,3.2,0,0,0,90.521,391.864Z" transform="translate(-87.321 -391.864)" fill="#da785a"/>
          </g>
          <g id="Grupo_85681" data-name="Grupo 85681" transform="translate(13.034)">
            <path id="Trazado_119431" data-name="Trazado 119431" d="M135.562,391.864a3.2,3.2,0,1,0,3.2,3.2A3.2,3.2,0,0,0,135.562,391.864Z" transform="translate(-132.362 -391.864)" fill="#da785a"/>
          </g>
          <g id="Grupo_85682" data-name="Grupo 85682" transform="translate(26.068)">
            <path id="Trazado_119432" data-name="Trazado 119432" d="M180.606,391.864a3.2,3.2,0,1,0,3.2,3.2A3.2,3.2,0,0,0,180.606,391.864Z" transform="translate(-177.406 -391.864)" fill="#da785a"/>
          </g>
        </g>
      </g>
      <g id="Grupo_85685" data-name="Grupo 85685" transform="translate(26.13 32.491)">
        <path id="Trazado_119433" data-name="Trazado 119433" d="M90.522,391.863a3.2,3.2,0,1,0,3.2,3.2A3.2,3.2,0,0,0,90.522,391.863Z" transform="translate(-69.614 -287.869)" fill="#004565"/>
        <path id="Trazado_119434" data-name="Trazado 119434" d="M135.563,391.863a3.2,3.2,0,1,0,3.2,3.2A3.2,3.2,0,0,0,135.563,391.863Z" transform="translate(-101.622 -287.869)" fill="#004565"/>
        <path id="Trazado_119435" data-name="Trazado 119435" d="M180.605,391.863a3.2,3.2,0,1,0,3.2,3.2A3.2,3.2,0,0,0,180.605,391.863Z" transform="translate(-133.63 -287.869)" fill="#004565"/>
        <path id="Trazado_119436" data-name="Trazado 119436" d="M159.164,116.54a1.844,1.844,0,0,0-.558-1.248L76.215,35.613a11.251,11.251,0,0,0-15.887.331L58.742,37.6a1.842,1.842,0,0,0,.054,2.6L76.144,56.855A1.843,1.843,0,0,0,78.7,54.2L62.677,38.819a7.59,7.59,0,0,1,10.982-.552l79.111,76.507H141.8L83.418,58.729a1.843,1.843,0,1,0-2.552,2.659L139.218,117.4v8.873h-5.686v-6.941a1.842,1.842,0,0,0-1.842-1.842h-96.8a1.842,1.842,0,0,0-1.842,1.842v6.941H27.972a1.842,1.842,0,0,0-1.842,1.842v15.418a9.6,9.6,0,0,0,10.038,9.56v4.023a4.74,4.74,0,0,0,4.735,4.735H144.395a4.74,4.74,0,0,0,4.735-4.735V153.1a9.6,9.6,0,0,0,10.038-9.56c-.008-6.63.011-20.447,0-27Zm-3.681,27a5.882,5.882,0,0,1-5.875,5.875H128.735a1.843,1.843,0,0,0,0,3.685h16.71v4.023a1.051,1.051,0,0,1-1.05,1.05H40.9a1.051,1.051,0,0,1-1.05-1.05V153.1H120.7a1.843,1.843,0,0,0,0-3.685H35.69a5.882,5.882,0,0,1-5.875-5.875V129.96H45.381a1.842,1.842,0,1,0,0-3.685H36.731v-5.1h93.114v5.1H52.709a1.842,1.842,0,0,0,0,3.685H155.483v13.576Zm0-17.261H142.9v-7.816h12.581Z" transform="translate(-26.13 -32.491)" fill="#004565"/>
        <path id="Trazado_119437" data-name="Trazado 119437" d="M94.7,264.663a1.843,1.843,0,0,0,3.3-1.644l-6.705-13.451a1.843,1.843,0,0,0-3.3,1.644Z" transform="translate(-69.948 -186.027)" fill="#004565"/>
        <path id="Trazado_119438" data-name="Trazado 119438" d="M218.019,265.682a1.843,1.843,0,0,0,1.651-1.021l6.705-13.451a1.843,1.843,0,0,0-3.3-1.644l-6.705,13.451A1.854,1.854,0,0,0,218.019,265.682Z" transform="translate(-161.179 -186.025)" fill="#004565"/>
        <path id="Trazado_119439" data-name="Trazado 119439" d="M167.272,245.968V231.1a1.843,1.843,0,0,0-3.685,0v14.864A1.843,1.843,0,0,0,167.272,245.968Z" transform="translate(-123.81 -172.331)" fill="#004565"/>
      </g>
    </g>
  </g>
</svg>
