<svg xmlns="http://www.w3.org/2000/svg" xmlns:xlink="http://www.w3.org/1999/xlink" width="585.38" height="425.982" viewBox="0 0 585.38 425.982">
  <defs>
    <clipPath id="clip-path">
      <path id="Trazado_120008" data-name="Trazado 120008" d="M168.515,252.873v29.289a41.852,41.852,0,0,1-9.359,26.329L155.3,313.26H269.843l-3.858-4.769a41.852,41.852,0,0,1-9.359-26.329V252.873Z" transform="translate(-155.299 -252.873)" fill="none"/>
    </clipPath>
    <clipPath id="clip-path-2">
      <rect id="Rectángulo_36623" data-name="Rectángulo 36623" width="98.931" height="49.8" fill="#13b770"/>
    </clipPath>
  </defs>
  <g id="Grupo_85857" data-name="Grupo 85857" transform="translate(-508.268 -3803.449)">
    <g id="Grupo_85839" data-name="Grupo 85839" transform="translate(739.21 4054.736)">
      <g id="Grupo_85838" data-name="Grupo 85838" clip-path="url(#clip-path)">
        <path id="Trazado_120005" data-name="Trazado 120005" d="M160.5,302.673H259.43a41.7,41.7,0,0,1-5.411-20.51v-29.29H165.908v29.29a41.7,41.7,0,0,1-5.411,20.51" transform="translate(-152.691 -252.873)" fill="#c6ff00"/>
        <g id="Grupo_85837" data-name="Grupo 85837" transform="translate(7.806 0)">
          <g id="Grupo_85836" data-name="Grupo 85836">
            <g id="Grupo_85835" data-name="Grupo 85835" clip-path="url(#clip-path-2)">
              <path id="Trazado_120006" data-name="Trazado 120006" d="M160.5,302.673H259.43a41.7,41.7,0,0,1-5.411-20.51v-29.29H165.908v29.29a41.7,41.7,0,0,1-5.411,20.51" transform="translate(-160.497 -252.873)" fill="#13b770"/>
            </g>
          </g>
        </g>
        <path id="Trazado_120007" data-name="Trazado 120007" d="M160.5,282.112H259.43a41.7,41.7,0,0,1-5.411-20.512V232.312H165.908V261.6a41.7,41.7,0,0,1-5.411,20.512" transform="translate(-152.691 -263.188)" fill="#263238"/>
      </g>
    </g>
    <g id="Grupo_85841" data-name="Grupo 85841" transform="translate(506 3675)">
      <g id="Grupo_85856" data-name="Grupo 85856">
        <path id="Trazado_120009" data-name="Trazado 120009" d="M256.627,282.162V252.873H168.514v29.289a41.843,41.843,0,0,1-9.357,26.328L155.3,313.26H269.844l-3.858-4.771A41.845,41.845,0,0,1,256.627,282.162Z" transform="translate(77.911 126.863)" fill="none" stroke="#263238" stroke-linecap="round" stroke-linejoin="round" stroke-width="1"/>
        <path id="Trazado_120010" data-name="Trazado 120010" d="M416.913,345.892H88.269a12.742,12.742,0,0,1-12.742-12.74V98.609a12.741,12.741,0,0,1,12.742-12.74H416.913a12.74,12.74,0,0,1,12.74,12.74V333.152a12.741,12.741,0,0,1-12.74,12.74" transform="translate(37.891 43.079)" fill="#263238"/>
        <path id="Rectángulo_36624" data-name="Rectángulo 36624" d="M8.484,0H345.641a8.485,8.485,0,0,1,8.485,8.485V251.539a8.484,8.484,0,0,1-8.484,8.484H8.484A8.484,8.484,0,0,1,0,251.539V8.484A8.484,8.484,0,0,1,8.484,0Z" transform="translate(113.418 128.949)" fill="none" stroke="#263238" stroke-linecap="round" stroke-linejoin="round" stroke-width="1"/>
        <path id="Trazado_120011" data-name="Trazado 120011" d="M416.913,272.526H88.269a12.742,12.742,0,0,1-12.742-12.74V232.108H429.653v27.678a12.74,12.74,0,0,1-12.74,12.74" transform="translate(37.891 116.445)" fill="#fff"/>
        <rect id="Rectángulo_36625" data-name="Rectángulo 36625" width="318.5" height="183.706" transform="translate(131.232 145.124)" fill="#fff"/>
        <rect id="Rectángulo_36626" data-name="Rectángulo 36626" width="318.5" height="183.706" transform="translate(131.232 145.124)" fill="none" stroke="#263238" stroke-linecap="round" stroke-linejoin="round" stroke-width="1"/>
        <path id="Trazado_120013" data-name="Trazado 120013" d="M202.15,251.96a6.532,6.532,0,1,0-6.531,6.394,6.464,6.464,0,0,0,6.531-6.394" transform="translate(94.863 123.197)" fill="#263238"/>
        <ellipse id="Elipse_4824" data-name="Elipse 4824" cx="6.531" cy="6.394" rx="6.531" ry="6.394" transform="translate(283.951 368.762)" fill="none" stroke="#263238" stroke-linecap="round" stroke-linejoin="round" stroke-width="1"/>
        <rect id="Rectángulo_36627" data-name="Rectángulo 36627" width="114.57" height="5.23" transform="translate(233.209 440.123)" fill="#fff"/>
        <rect id="Rectángulo_36628" data-name="Rectángulo 36628" width="114.57" height="5.23" transform="translate(233.209 440.123)" fill="none" stroke="#263238" stroke-linecap="round" stroke-linejoin="round" stroke-width="1"/>
        <path id="Trazado_120014" data-name="Trazado 120014" d="M228.789,90.3c-16.02,14.936-57.027,30.01-104.837,61.994,0,0,2.987,108.082,104.837,167.162Z" transform="translate(62.185 45.302)" fill="#13b770"/>
        <path id="Trazado_120015" data-name="Trazado 120015" d="M228.789,90.3c-16.02,14.936-57.027,30.01-104.837,61.994,0,0,2.987,108.082,104.837,167.162Z" transform="translate(62.185 45.302)" fill="none" stroke="#263238" stroke-linecap="round" stroke-linejoin="round" stroke-width="1"/>
        <path id="Trazado_120016" data-name="Trazado 120016" d="M193.765,90.3c16.02,14.936,57.028,30.01,104.837,61.994,0,0-2.987,108.082-104.837,167.162Z" transform="translate(97.209 45.302)" fill="#263238"/>
        <path id="Trazado_120017" data-name="Trazado 120017" d="M193.765,90.3c16.02,14.936,57.028,30.01,104.837,61.994,0,0-2.987,108.082-104.837,167.162Z" transform="translate(97.209 45.302)" fill="none" stroke="#263238" stroke-linecap="round" stroke-linejoin="round" stroke-width="1"/>
        <path id="Trazado_120018" data-name="Trazado 120018" d="M226.22,96.427c-19.337,13.424-52.844,26.213-97.147,55.852,0,0,2.768,100.156,97.147,154.9,94.381-54.745,97.149-154.9,97.149-154.9-44.3-29.639-77.661-42.429-97.149-55.852" transform="translate(64.754 48.376)" fill="#263238"/>
        <path id="Trazado_120019" data-name="Trazado 120019" d="M226.22,96.427c-19.337,13.424-52.844,26.213-97.147,55.852,0,0,2.768,100.156,97.147,154.9,94.381-54.745,97.149-154.9,97.149-154.9C279.064,122.64,245.707,109.851,226.22,96.427Z" transform="translate(64.754 48.376)" fill="none" stroke="#263238" stroke-linecap="round" stroke-linejoin="round" stroke-width="1"/>
        <path id="Trazado_120020" data-name="Trazado 120020" d="M290.913,152.279c-44.3-29.639-77.661-42.429-97.149-55.852V307.18c94.381-54.744,97.149-154.9,97.149-154.9" transform="translate(97.209 48.376)" fill="#13b770"/>
        <path id="Trazado_120021" data-name="Trazado 120021" d="M290.913,152.279c-44.3-29.639-77.661-42.429-97.149-55.852V307.18C288.145,252.436,290.913,152.279,290.913,152.279Z" transform="translate(97.209 48.376)" fill="none" stroke="#263238" stroke-linecap="round" stroke-linejoin="round" stroke-width="1"/>
        <rect id="Rectángulo_36629" data-name="Rectángulo 36629" width="356.314" height="23.064" transform="translate(112.325 253.674)" fill="#263238"/>
        <rect id="Rectángulo_36630" data-name="Rectángulo 36630" width="356.314" height="23.064" transform="translate(112.325 253.674)" fill="none" stroke="#263238" stroke-linecap="round" stroke-linejoin="round" stroke-width="1"/>
        <path id="Trazado_120022" data-name="Trazado 120022" d="M81.07,172.144a2.39,2.39,0,1,1-2.391-2.34,2.365,2.365,0,0,1,2.391,2.34" transform="translate(38.274 85.188)" fill="#fff"/>
        <path id="Trazado_120023" data-name="Trazado 120023" d="M76.965,173.067a1.923,1.923,0,0,0,1.377.578,1.9,1.9,0,0,0,1.919-1.879,1.826,1.826,0,0,0-.482-1.21,29.676,29.676,0,0,0-2.814,2.511" transform="translate(38.612 85.565)" fill="#263238"/>
        <path id="Trazado_120024" data-name="Trazado 120024" d="M87.3,172.144a2.39,2.39,0,1,1-2.391-2.34,2.365,2.365,0,0,1,2.391,2.34" transform="translate(41.4 85.188)" fill="#fff"/>
        <path id="Trazado_120025" data-name="Trazado 120025" d="M83.2,173.067a1.923,1.923,0,0,0,1.377.578,1.9,1.9,0,0,0,1.919-1.879,1.826,1.826,0,0,0-.482-1.21,29.674,29.674,0,0,0-2.814,2.511" transform="translate(41.739 85.565)" fill="#263238"/>
        <path id="Trazado_120026" data-name="Trazado 120026" d="M93.535,172.144a2.39,2.39,0,1,1-2.392-2.34,2.366,2.366,0,0,1,2.392,2.34" transform="translate(44.527 85.188)" fill="#fff"/>
        <path id="Trazado_120027" data-name="Trazado 120027" d="M89.429,173.067a1.923,1.923,0,0,0,1.377.578,1.9,1.9,0,0,0,1.919-1.879,1.826,1.826,0,0,0-.482-1.21,29.674,29.674,0,0,0-2.814,2.511" transform="translate(44.865 85.565)" fill="#263238"/>
        <path id="Trazado_120028" data-name="Trazado 120028" d="M99.767,172.144a2.39,2.39,0,1,1-2.391-2.34,2.365,2.365,0,0,1,2.391,2.34" transform="translate(47.654 85.188)" fill="#fff"/>
        <path id="Trazado_120029" data-name="Trazado 120029" d="M95.661,173.067a1.922,1.922,0,0,0,1.377.578,1.9,1.9,0,0,0,1.919-1.879,1.826,1.826,0,0,0-.482-1.21,29.672,29.672,0,0,0-2.814,2.511" transform="translate(47.992 85.565)" fill="#263238"/>
        <path id="Trazado_120030" data-name="Trazado 120030" d="M106,172.144a2.39,2.39,0,1,1-2.391-2.34,2.365,2.365,0,0,1,2.391,2.34" transform="translate(50.78 85.188)" fill="#fff"/>
        <path id="Trazado_120031" data-name="Trazado 120031" d="M101.894,173.067a1.923,1.923,0,0,0,1.377.578,1.9,1.9,0,0,0,1.919-1.879,1.826,1.826,0,0,0-.482-1.21,29.674,29.674,0,0,0-2.814,2.511" transform="translate(51.119 85.565)" fill="#263238"/>
        <path id="Trazado_120032" data-name="Trazado 120032" d="M112.231,172.144a2.39,2.39,0,1,1-2.391-2.34,2.365,2.365,0,0,1,2.391,2.34" transform="translate(53.907 85.188)" fill="#fff"/>
        <path id="Trazado_120033" data-name="Trazado 120033" d="M108.126,173.067a1.923,1.923,0,0,0,1.377.578,1.9,1.9,0,0,0,1.919-1.879,1.826,1.826,0,0,0-.482-1.21,29.672,29.672,0,0,0-2.814,2.511" transform="translate(54.245 85.565)" fill="#263238"/>
        <path id="Trazado_120034" data-name="Trazado 120034" d="M118.463,172.144a2.39,2.39,0,1,1-2.391-2.34,2.365,2.365,0,0,1,2.391,2.34" transform="translate(57.033 85.188)" fill="#fff"/>
        <path id="Trazado_120035" data-name="Trazado 120035" d="M114.358,173.067a1.923,1.923,0,0,0,1.377.578,1.9,1.9,0,0,0,1.919-1.879,1.826,1.826,0,0,0-.482-1.21,29.674,29.674,0,0,0-2.814,2.511" transform="translate(57.372 85.565)" fill="#263238"/>
        <path id="Trazado_120036" data-name="Trazado 120036" d="M124.695,172.144a2.39,2.39,0,1,1-2.391-2.34,2.365,2.365,0,0,1,2.391,2.34" transform="translate(60.16 85.188)" fill="#fff"/>
        <path id="Trazado_120037" data-name="Trazado 120037" d="M120.59,173.067a1.923,1.923,0,0,0,1.377.578,1.9,1.9,0,0,0,1.919-1.879,1.826,1.826,0,0,0-.482-1.21,29.676,29.676,0,0,0-2.814,2.511" transform="translate(60.498 85.565)" fill="#263238"/>
        <path id="Trazado_120038" data-name="Trazado 120038" d="M130.927,172.144a2.39,2.39,0,1,1-2.391-2.34,2.365,2.365,0,0,1,2.391,2.34" transform="translate(63.286 85.188)" fill="#fff"/>
        <path id="Trazado_120039" data-name="Trazado 120039" d="M126.822,173.067a1.923,1.923,0,0,0,1.377.578,1.9,1.9,0,0,0,1.919-1.879,1.826,1.826,0,0,0-.482-1.21,29.674,29.674,0,0,0-2.814,2.511" transform="translate(63.625 85.565)" fill="#263238"/>
        <path id="Trazado_120040" data-name="Trazado 120040" d="M137.159,172.144a2.39,2.39,0,1,1-2.391-2.34,2.365,2.365,0,0,1,2.391,2.34" transform="translate(66.413 85.188)" fill="#fff"/>
        <path id="Trazado_120041" data-name="Trazado 120041" d="M133.054,173.067a1.922,1.922,0,0,0,1.377.578,1.9,1.9,0,0,0,1.919-1.879,1.826,1.826,0,0,0-.482-1.21,29.672,29.672,0,0,0-2.814,2.511" transform="translate(66.751 85.565)" fill="#263238"/>
        <path id="Trazado_120042" data-name="Trazado 120042" d="M143.391,172.144A2.39,2.39,0,1,1,141,169.8a2.364,2.364,0,0,1,2.389,2.34" transform="translate(69.539 85.188)" fill="#fff"/>
        <path id="Trazado_120043" data-name="Trazado 120043" d="M139.286,173.067a1.923,1.923,0,0,0,1.377.578,1.9,1.9,0,0,0,1.919-1.879,1.826,1.826,0,0,0-.482-1.21,29.672,29.672,0,0,0-2.814,2.511" transform="translate(69.878 85.565)" fill="#263238"/>
        <path id="Trazado_120044" data-name="Trazado 120044" d="M149.624,172.144a2.39,2.39,0,1,1-2.389-2.34,2.365,2.365,0,0,1,2.389,2.34" transform="translate(72.666 85.188)" fill="#fff"/>
        <path id="Trazado_120045" data-name="Trazado 120045" d="M145.518,173.067a1.922,1.922,0,0,0,1.377.578,1.9,1.9,0,0,0,1.919-1.879,1.826,1.826,0,0,0-.482-1.21,29.675,29.675,0,0,0-2.814,2.511" transform="translate(73.004 85.565)" fill="#263238"/>
        <path id="Trazado_120046" data-name="Trazado 120046" d="M155.856,172.144a2.39,2.39,0,1,1-2.391-2.34,2.365,2.365,0,0,1,2.391,2.34" transform="translate(75.793 85.188)" fill="#fff"/>
        <path id="Trazado_120047" data-name="Trazado 120047" d="M151.751,173.067a1.928,1.928,0,0,0,1.377.578,1.9,1.9,0,0,0,1.919-1.879,1.832,1.832,0,0,0-.481-1.21,29.514,29.514,0,0,0-2.816,2.511" transform="translate(76.131 85.565)" fill="#263238"/>
        <path id="Trazado_120048" data-name="Trazado 120048" d="M162.088,172.144a2.39,2.39,0,1,1-2.391-2.34,2.365,2.365,0,0,1,2.391,2.34" transform="translate(78.919 85.188)" fill="#fff"/>
        <path id="Trazado_120049" data-name="Trazado 120049" d="M157.983,173.067a1.923,1.923,0,0,0,1.377.578,1.9,1.9,0,0,0,1.919-1.879,1.826,1.826,0,0,0-.482-1.21,29.679,29.679,0,0,0-2.814,2.511" transform="translate(79.258 85.565)" fill="#263238"/>
        <path id="Trazado_120050" data-name="Trazado 120050" d="M81.07,182.063a2.39,2.39,0,1,1-2.391-2.34,2.365,2.365,0,0,1,2.391,2.34" transform="translate(38.274 90.164)" fill="#fff"/>
        <path id="Trazado_120051" data-name="Trazado 120051" d="M76.965,182.986a1.923,1.923,0,0,0,1.377.578,1.9,1.9,0,0,0,1.919-1.879,1.826,1.826,0,0,0-.482-1.21,29.667,29.667,0,0,0-2.814,2.511" transform="translate(38.612 90.542)" fill="#263238"/>
        <path id="Trazado_120052" data-name="Trazado 120052" d="M87.3,182.063a2.39,2.39,0,1,1-2.391-2.34,2.365,2.365,0,0,1,2.391,2.34" transform="translate(41.4 90.164)" fill="#fff"/>
        <path id="Trazado_120053" data-name="Trazado 120053" d="M83.2,182.986a1.923,1.923,0,0,0,1.377.578,1.9,1.9,0,0,0,1.919-1.879,1.826,1.826,0,0,0-.482-1.21,29.665,29.665,0,0,0-2.814,2.511" transform="translate(41.739 90.542)" fill="#263238"/>
        <path id="Trazado_120054" data-name="Trazado 120054" d="M93.535,182.063a2.39,2.39,0,1,1-2.392-2.34,2.366,2.366,0,0,1,2.392,2.34" transform="translate(44.527 90.164)" fill="#fff"/>
        <path id="Trazado_120055" data-name="Trazado 120055" d="M89.429,182.986a1.923,1.923,0,0,0,1.377.578,1.9,1.9,0,0,0,1.919-1.879,1.826,1.826,0,0,0-.482-1.21,29.665,29.665,0,0,0-2.814,2.511" transform="translate(44.865 90.542)" fill="#263238"/>
        <path id="Trazado_120056" data-name="Trazado 120056" d="M99.767,182.063a2.39,2.39,0,1,1-2.391-2.34,2.365,2.365,0,0,1,2.391,2.34" transform="translate(47.654 90.164)" fill="#fff"/>
        <path id="Trazado_120057" data-name="Trazado 120057" d="M95.661,182.986a1.923,1.923,0,0,0,1.377.578,1.9,1.9,0,0,0,1.919-1.879,1.826,1.826,0,0,0-.482-1.21,29.663,29.663,0,0,0-2.814,2.511" transform="translate(47.992 90.542)" fill="#263238"/>
        <path id="Trazado_120058" data-name="Trazado 120058" d="M106,182.063a2.39,2.39,0,1,1-2.391-2.34,2.365,2.365,0,0,1,2.391,2.34" transform="translate(50.78 90.164)" fill="#fff"/>
        <path id="Trazado_120059" data-name="Trazado 120059" d="M101.894,182.986a1.923,1.923,0,0,0,1.377.578,1.9,1.9,0,0,0,1.919-1.879,1.826,1.826,0,0,0-.482-1.21,29.665,29.665,0,0,0-2.814,2.511" transform="translate(51.119 90.542)" fill="#263238"/>
        <path id="Trazado_120060" data-name="Trazado 120060" d="M112.231,182.063a2.39,2.39,0,1,1-2.391-2.34,2.365,2.365,0,0,1,2.391,2.34" transform="translate(53.907 90.164)" fill="#fff"/>
        <path id="Trazado_120061" data-name="Trazado 120061" d="M108.126,182.986a1.923,1.923,0,0,0,1.377.578,1.9,1.9,0,0,0,1.919-1.879,1.826,1.826,0,0,0-.482-1.21,29.663,29.663,0,0,0-2.814,2.511" transform="translate(54.245 90.542)" fill="#263238"/>
        <path id="Trazado_120062" data-name="Trazado 120062" d="M118.463,182.063a2.39,2.39,0,1,1-2.391-2.34,2.365,2.365,0,0,1,2.391,2.34" transform="translate(57.033 90.164)" fill="#fff"/>
        <path id="Trazado_120063" data-name="Trazado 120063" d="M114.358,182.986a1.923,1.923,0,0,0,1.377.578,1.9,1.9,0,0,0,1.919-1.879,1.826,1.826,0,0,0-.482-1.21,29.665,29.665,0,0,0-2.814,2.511" transform="translate(57.372 90.542)" fill="#263238"/>
        <path id="Trazado_120064" data-name="Trazado 120064" d="M124.695,182.063a2.39,2.39,0,1,1-2.391-2.34,2.365,2.365,0,0,1,2.391,2.34" transform="translate(60.16 90.164)" fill="#fff"/>
        <path id="Trazado_120065" data-name="Trazado 120065" d="M120.59,182.986a1.923,1.923,0,0,0,1.377.578,1.9,1.9,0,0,0,1.919-1.879,1.826,1.826,0,0,0-.482-1.21,29.667,29.667,0,0,0-2.814,2.511" transform="translate(60.498 90.542)" fill="#263238"/>
        <path id="Trazado_120066" data-name="Trazado 120066" d="M130.927,182.063a2.39,2.39,0,1,1-2.391-2.34,2.365,2.365,0,0,1,2.391,2.34" transform="translate(63.286 90.164)" fill="#fff"/>
        <path id="Trazado_120067" data-name="Trazado 120067" d="M126.822,182.986a1.923,1.923,0,0,0,1.377.578,1.9,1.9,0,0,0,1.919-1.879,1.826,1.826,0,0,0-.482-1.21,29.665,29.665,0,0,0-2.814,2.511" transform="translate(63.625 90.542)" fill="#263238"/>
        <path id="Trazado_120068" data-name="Trazado 120068" d="M137.159,182.063a2.39,2.39,0,1,1-2.391-2.34,2.365,2.365,0,0,1,2.391,2.34" transform="translate(66.413 90.164)" fill="#fff"/>
        <path id="Trazado_120069" data-name="Trazado 120069" d="M133.054,182.986a1.922,1.922,0,0,0,1.377.578,1.9,1.9,0,0,0,1.919-1.879,1.826,1.826,0,0,0-.482-1.21,29.663,29.663,0,0,0-2.814,2.511" transform="translate(66.751 90.542)" fill="#263238"/>
        <path id="Trazado_120070" data-name="Trazado 120070" d="M143.391,182.063a2.39,2.39,0,1,1-2.389-2.34,2.364,2.364,0,0,1,2.389,2.34" transform="translate(69.539 90.164)" fill="#fff"/>
        <path id="Trazado_120071" data-name="Trazado 120071" d="M139.286,182.986a1.923,1.923,0,0,0,1.377.578,1.9,1.9,0,0,0,1.919-1.879,1.826,1.826,0,0,0-.482-1.21,29.664,29.664,0,0,0-2.814,2.511" transform="translate(69.878 90.542)" fill="#263238"/>
        <path id="Trazado_120072" data-name="Trazado 120072" d="M149.624,182.063a2.39,2.39,0,1,1-2.389-2.34,2.365,2.365,0,0,1,2.389,2.34" transform="translate(72.666 90.164)" fill="#fff"/>
        <path id="Trazado_120073" data-name="Trazado 120073" d="M145.518,182.986a1.923,1.923,0,0,0,1.377.578,1.9,1.9,0,0,0,1.919-1.879,1.826,1.826,0,0,0-.482-1.21,29.667,29.667,0,0,0-2.814,2.511" transform="translate(73.004 90.542)" fill="#263238"/>
        <path id="Trazado_120074" data-name="Trazado 120074" d="M155.856,182.063a2.39,2.39,0,1,1-2.391-2.34,2.365,2.365,0,0,1,2.391,2.34" transform="translate(75.793 90.164)" fill="#fff"/>
        <path id="Trazado_120075" data-name="Trazado 120075" d="M151.751,182.986a1.928,1.928,0,0,0,1.377.578,1.9,1.9,0,0,0,1.919-1.879,1.832,1.832,0,0,0-.481-1.21,29.505,29.505,0,0,0-2.816,2.511" transform="translate(76.131 90.542)" fill="#263238"/>
        <path id="Trazado_120076" data-name="Trazado 120076" d="M162.088,182.063a2.39,2.39,0,1,1-2.391-2.34,2.365,2.365,0,0,1,2.391,2.34" transform="translate(78.919 90.164)" fill="#fff"/>
        <path id="Trazado_120077" data-name="Trazado 120077" d="M157.983,182.986a1.923,1.923,0,0,0,1.377.578,1.9,1.9,0,0,0,1.919-1.879,1.826,1.826,0,0,0-.482-1.21,29.671,29.671,0,0,0-2.814,2.511" transform="translate(79.258 90.542)" fill="#263238"/>
        <path id="Trazado_120078" data-name="Trazado 120078" d="M231.141,172.144a2.39,2.39,0,1,1-2.389-2.34,2.364,2.364,0,0,1,2.389,2.34" transform="translate(113.562 85.188)" fill="#fff"/>
        <path id="Trazado_120079" data-name="Trazado 120079" d="M227.036,173.067a1.923,1.923,0,0,0,1.377.578,1.9,1.9,0,0,0,1.919-1.879,1.826,1.826,0,0,0-.482-1.21,29.676,29.676,0,0,0-2.814,2.511" transform="translate(113.901 85.565)" fill="#263238"/>
        <path id="Trazado_120080" data-name="Trazado 120080" d="M237.374,172.144a2.39,2.39,0,1,1-2.389-2.34,2.365,2.365,0,0,1,2.389,2.34" transform="translate(116.689 85.188)" fill="#fff"/>
        <path id="Trazado_120081" data-name="Trazado 120081" d="M233.268,173.067a1.923,1.923,0,0,0,1.377.578,1.9,1.9,0,0,0,1.919-1.879,1.826,1.826,0,0,0-.482-1.21,29.679,29.679,0,0,0-2.814,2.511" transform="translate(117.027 85.565)" fill="#263238"/>
        <path id="Trazado_120082" data-name="Trazado 120082" d="M243.606,172.144a2.39,2.39,0,1,1-2.391-2.34,2.365,2.365,0,0,1,2.391,2.34" transform="translate(119.816 85.188)" fill="#fff"/>
        <path id="Trazado_120083" data-name="Trazado 120083" d="M239.5,173.067a1.922,1.922,0,0,0,3.3-1.3,1.832,1.832,0,0,0-.481-1.21,29.518,29.518,0,0,0-2.816,2.511" transform="translate(120.154 85.565)" fill="#263238"/>
        <path id="Trazado_120084" data-name="Trazado 120084" d="M249.838,172.144a2.39,2.39,0,1,1-2.391-2.34,2.365,2.365,0,0,1,2.391,2.34" transform="translate(122.942 85.188)" fill="#fff"/>
        <path id="Trazado_120085" data-name="Trazado 120085" d="M245.733,173.067a1.923,1.923,0,0,0,1.377.578,1.9,1.9,0,0,0,1.919-1.879,1.826,1.826,0,0,0-.482-1.21,29.679,29.679,0,0,0-2.814,2.511" transform="translate(123.281 85.565)" fill="#263238"/>
        <path id="Trazado_120086" data-name="Trazado 120086" d="M256.07,172.144a2.39,2.39,0,1,1-2.389-2.34,2.365,2.365,0,0,1,2.389,2.34" transform="translate(126.069 85.188)" fill="#fff"/>
        <path id="Trazado_120087" data-name="Trazado 120087" d="M251.965,173.067a1.922,1.922,0,0,0,1.376.578,1.9,1.9,0,0,0,1.921-1.879,1.826,1.826,0,0,0-.482-1.21,29.672,29.672,0,0,0-2.814,2.511" transform="translate(126.407 85.565)" fill="#263238"/>
        <path id="Trazado_120088" data-name="Trazado 120088" d="M262.3,172.144a2.39,2.39,0,1,1-2.389-2.34,2.364,2.364,0,0,1,2.389,2.34" transform="translate(129.195 85.188)" fill="#fff"/>
        <path id="Trazado_120089" data-name="Trazado 120089" d="M258.2,173.067a1.923,1.923,0,0,0,1.377.578,1.9,1.9,0,0,0,1.919-1.879,1.826,1.826,0,0,0-.482-1.21,29.672,29.672,0,0,0-2.814,2.511" transform="translate(129.534 85.565)" fill="#263238"/>
        <path id="Trazado_120090" data-name="Trazado 120090" d="M268.534,172.144a2.39,2.39,0,1,1-2.391-2.34,2.365,2.365,0,0,1,2.391,2.34" transform="translate(132.322 85.188)" fill="#fff"/>
        <path id="Trazado_120091" data-name="Trazado 120091" d="M264.429,173.067a1.923,1.923,0,0,0,1.377.578,1.9,1.9,0,0,0,1.919-1.879,1.826,1.826,0,0,0-.482-1.21,29.665,29.665,0,0,0-2.814,2.511" transform="translate(132.66 85.565)" fill="#263238"/>
        <path id="Trazado_120092" data-name="Trazado 120092" d="M274.766,172.144a2.39,2.39,0,1,1-2.391-2.34,2.365,2.365,0,0,1,2.391,2.34" transform="translate(135.448 85.188)" fill="#fff"/>
        <path id="Trazado_120093" data-name="Trazado 120093" d="M270.661,173.067a1.922,1.922,0,0,0,1.377.578,1.9,1.9,0,0,0,1.919-1.879,1.826,1.826,0,0,0-.482-1.21,29.679,29.679,0,0,0-2.814,2.511" transform="translate(135.787 85.565)" fill="#263238"/>
        <path id="Trazado_120094" data-name="Trazado 120094" d="M281,172.144a2.39,2.39,0,1,1-2.391-2.34,2.365,2.365,0,0,1,2.391,2.34" transform="translate(138.575 85.188)" fill="#fff"/>
        <path id="Trazado_120095" data-name="Trazado 120095" d="M276.893,173.067a1.923,1.923,0,0,0,1.377.578,1.9,1.9,0,0,0,1.919-1.879,1.826,1.826,0,0,0-.482-1.21,29.679,29.679,0,0,0-2.814,2.511" transform="translate(138.913 85.565)" fill="#263238"/>
        <path id="Trazado_120096" data-name="Trazado 120096" d="M287.231,172.144a2.39,2.39,0,1,1-2.389-2.34,2.364,2.364,0,0,1,2.389,2.34" transform="translate(141.702 85.188)" fill="#fff"/>
        <path id="Trazado_120097" data-name="Trazado 120097" d="M283.125,173.067a1.923,1.923,0,0,0,1.377.578,1.9,1.9,0,0,0,1.919-1.879,1.826,1.826,0,0,0-.482-1.21,29.683,29.683,0,0,0-2.814,2.511" transform="translate(142.04 85.565)" fill="#263238"/>
        <path id="Trazado_120098" data-name="Trazado 120098" d="M293.463,172.144a2.39,2.39,0,1,1-2.391-2.34,2.365,2.365,0,0,1,2.391,2.34" transform="translate(144.828 85.188)" fill="#fff"/>
        <path id="Trazado_120099" data-name="Trazado 120099" d="M289.358,173.067a1.922,1.922,0,0,0,1.377.578,1.9,1.9,0,0,0,1.919-1.879,1.833,1.833,0,0,0-.482-1.21,29.664,29.664,0,0,0-2.814,2.511" transform="translate(145.167 85.565)" fill="#263238"/>
        <path id="Trazado_120100" data-name="Trazado 120100" d="M299.695,172.144a2.39,2.39,0,1,1-2.391-2.34,2.365,2.365,0,0,1,2.391,2.34" transform="translate(147.955 85.188)" fill="#fff"/>
        <path id="Trazado_120101" data-name="Trazado 120101" d="M295.59,173.067a1.923,1.923,0,0,0,1.377.578,1.9,1.9,0,0,0,1.919-1.879,1.826,1.826,0,0,0-.482-1.21,29.683,29.683,0,0,0-2.814,2.511" transform="translate(148.293 85.565)" fill="#263238"/>
        <path id="Trazado_120102" data-name="Trazado 120102" d="M305.927,172.144a2.39,2.39,0,1,1-2.391-2.34,2.365,2.365,0,0,1,2.391,2.34" transform="translate(151.081 85.188)" fill="#fff"/>
        <path id="Trazado_120103" data-name="Trazado 120103" d="M301.822,173.067a1.928,1.928,0,0,0,1.377.578,1.9,1.9,0,0,0,1.919-1.879,1.832,1.832,0,0,0-.481-1.21,29.521,29.521,0,0,0-2.816,2.511" transform="translate(151.42 85.565)" fill="#263238"/>
        <path id="Trazado_120104" data-name="Trazado 120104" d="M312.159,172.144a2.39,2.39,0,1,1-2.389-2.34,2.365,2.365,0,0,1,2.389,2.34" transform="translate(154.208 85.188)" fill="#fff"/>
        <path id="Trazado_120105" data-name="Trazado 120105" d="M308.054,173.067a1.923,1.923,0,0,0,1.377.578,1.9,1.9,0,0,0,1.919-1.879,1.826,1.826,0,0,0-.482-1.21,29.672,29.672,0,0,0-2.814,2.511" transform="translate(154.546 85.565)" fill="#263238"/>
        <path id="Trazado_120106" data-name="Trazado 120106" d="M231.141,182.063a2.39,2.39,0,1,1-2.389-2.34,2.364,2.364,0,0,1,2.389,2.34" transform="translate(113.562 90.164)" fill="#fff"/>
        <path id="Trazado_120107" data-name="Trazado 120107" d="M227.036,182.986a1.923,1.923,0,0,0,1.377.578,1.9,1.9,0,0,0,1.919-1.879,1.826,1.826,0,0,0-.482-1.21,29.668,29.668,0,0,0-2.814,2.511" transform="translate(113.901 90.542)" fill="#263238"/>
        <path id="Trazado_120108" data-name="Trazado 120108" d="M237.374,182.063a2.39,2.39,0,1,1-2.389-2.34,2.365,2.365,0,0,1,2.389,2.34" transform="translate(116.689 90.164)" fill="#fff"/>
        <path id="Trazado_120109" data-name="Trazado 120109" d="M233.268,182.986a1.923,1.923,0,0,0,1.377.578,1.9,1.9,0,0,0,1.919-1.879,1.826,1.826,0,0,0-.482-1.21,29.671,29.671,0,0,0-2.814,2.511" transform="translate(117.027 90.542)" fill="#263238"/>
        <path id="Trazado_120110" data-name="Trazado 120110" d="M243.606,182.063a2.39,2.39,0,1,1-2.391-2.34,2.365,2.365,0,0,1,2.391,2.34" transform="translate(119.816 90.164)" fill="#fff"/>
        <path id="Trazado_120111" data-name="Trazado 120111" d="M239.5,182.986a1.922,1.922,0,0,0,3.3-1.3,1.832,1.832,0,0,0-.481-1.21,29.509,29.509,0,0,0-2.816,2.511" transform="translate(120.154 90.542)" fill="#263238"/>
        <path id="Trazado_120112" data-name="Trazado 120112" d="M249.838,182.063a2.39,2.39,0,1,1-2.391-2.34,2.365,2.365,0,0,1,2.391,2.34" transform="translate(122.942 90.164)" fill="#fff"/>
        <path id="Trazado_120113" data-name="Trazado 120113" d="M245.733,182.986a1.923,1.923,0,0,0,1.377.578,1.9,1.9,0,0,0,1.919-1.879,1.826,1.826,0,0,0-.482-1.21,29.671,29.671,0,0,0-2.814,2.511" transform="translate(123.281 90.542)" fill="#263238"/>
        <path id="Trazado_120114" data-name="Trazado 120114" d="M256.07,182.063a2.39,2.39,0,1,1-2.389-2.34,2.365,2.365,0,0,1,2.389,2.34" transform="translate(126.069 90.164)" fill="#fff"/>
        <path id="Trazado_120115" data-name="Trazado 120115" d="M251.965,182.986a1.922,1.922,0,0,0,1.376.578,1.9,1.9,0,0,0,1.921-1.879,1.826,1.826,0,0,0-.482-1.21,29.663,29.663,0,0,0-2.814,2.511" transform="translate(126.407 90.542)" fill="#263238"/>
        <path id="Trazado_120116" data-name="Trazado 120116" d="M262.3,182.063a2.39,2.39,0,1,1-2.389-2.34,2.364,2.364,0,0,1,2.389,2.34" transform="translate(129.195 90.164)" fill="#fff"/>
        <path id="Trazado_120117" data-name="Trazado 120117" d="M258.2,182.986a1.923,1.923,0,0,0,1.377.578,1.9,1.9,0,0,0,1.919-1.879,1.826,1.826,0,0,0-.482-1.21,29.663,29.663,0,0,0-2.814,2.511" transform="translate(129.534 90.542)" fill="#263238"/>
        <path id="Trazado_120118" data-name="Trazado 120118" d="M268.534,182.063a2.39,2.39,0,1,1-2.391-2.34,2.365,2.365,0,0,1,2.391,2.34" transform="translate(132.322 90.164)" fill="#fff"/>
        <path id="Trazado_120119" data-name="Trazado 120119" d="M264.429,182.986a1.923,1.923,0,0,0,1.377.578,1.9,1.9,0,0,0,1.919-1.879,1.826,1.826,0,0,0-.482-1.21,29.657,29.657,0,0,0-2.814,2.511" transform="translate(132.66 90.542)" fill="#263238"/>
        <path id="Trazado_120120" data-name="Trazado 120120" d="M274.766,182.063a2.39,2.39,0,1,1-2.391-2.34,2.365,2.365,0,0,1,2.391,2.34" transform="translate(135.448 90.164)" fill="#fff"/>
        <path id="Trazado_120121" data-name="Trazado 120121" d="M270.661,182.986a1.923,1.923,0,0,0,1.377.578,1.9,1.9,0,0,0,1.919-1.879,1.826,1.826,0,0,0-.482-1.21,29.671,29.671,0,0,0-2.814,2.511" transform="translate(135.787 90.542)" fill="#263238"/>
        <path id="Trazado_120122" data-name="Trazado 120122" d="M281,182.063a2.39,2.39,0,1,1-2.391-2.34,2.365,2.365,0,0,1,2.391,2.34" transform="translate(138.575 90.164)" fill="#fff"/>
        <path id="Trazado_120123" data-name="Trazado 120123" d="M276.893,182.986a1.923,1.923,0,0,0,1.377.578,1.9,1.9,0,0,0,1.919-1.879,1.826,1.826,0,0,0-.482-1.21,29.671,29.671,0,0,0-2.814,2.511" transform="translate(138.913 90.542)" fill="#263238"/>
        <path id="Trazado_120124" data-name="Trazado 120124" d="M287.231,182.063a2.39,2.39,0,1,1-2.389-2.34,2.364,2.364,0,0,1,2.389,2.34" transform="translate(141.702 90.164)" fill="#fff"/>
        <path id="Trazado_120125" data-name="Trazado 120125" d="M283.125,182.986a1.923,1.923,0,0,0,1.377.578,1.9,1.9,0,0,0,1.919-1.879,1.826,1.826,0,0,0-.482-1.21,29.675,29.675,0,0,0-2.814,2.511" transform="translate(142.04 90.542)" fill="#263238"/>
        <path id="Trazado_120126" data-name="Trazado 120126" d="M293.463,182.063a2.39,2.39,0,1,1-2.391-2.34,2.365,2.365,0,0,1,2.391,2.34" transform="translate(144.828 90.164)" fill="#fff"/>
        <path id="Trazado_120127" data-name="Trazado 120127" d="M289.358,182.986a1.923,1.923,0,0,0,1.377.578,1.9,1.9,0,0,0,1.919-1.879,1.833,1.833,0,0,0-.482-1.21,29.656,29.656,0,0,0-2.814,2.511" transform="translate(145.167 90.542)" fill="#263238"/>
        <path id="Trazado_120128" data-name="Trazado 120128" d="M299.695,182.063a2.39,2.39,0,1,1-2.391-2.34,2.365,2.365,0,0,1,2.391,2.34" transform="translate(147.955 90.164)" fill="#fff"/>
        <path id="Trazado_120129" data-name="Trazado 120129" d="M295.59,182.986a1.923,1.923,0,0,0,1.377.578,1.9,1.9,0,0,0,1.919-1.879,1.826,1.826,0,0,0-.482-1.21,29.675,29.675,0,0,0-2.814,2.511" transform="translate(148.293 90.542)" fill="#263238"/>
        <path id="Trazado_120130" data-name="Trazado 120130" d="M305.927,182.063a2.39,2.39,0,1,1-2.391-2.34,2.365,2.365,0,0,1,2.391,2.34" transform="translate(151.081 90.164)" fill="#fff"/>
        <path id="Trazado_120131" data-name="Trazado 120131" d="M301.822,182.986a1.928,1.928,0,0,0,1.377.578,1.9,1.9,0,0,0,1.919-1.879,1.832,1.832,0,0,0-.481-1.21,29.513,29.513,0,0,0-2.816,2.511" transform="translate(151.42 90.542)" fill="#263238"/>
        <path id="Trazado_120132" data-name="Trazado 120132" d="M312.159,182.063a2.39,2.39,0,1,1-2.389-2.34,2.365,2.365,0,0,1,2.389,2.34" transform="translate(154.208 90.164)" fill="#fff"/>
        <path id="Trazado_120133" data-name="Trazado 120133" d="M308.054,182.986a1.923,1.923,0,0,0,1.377.578,1.9,1.9,0,0,0,1.919-1.879,1.826,1.826,0,0,0-.482-1.21,29.664,29.664,0,0,0-2.814,2.511" transform="translate(154.546 90.542)" fill="#263238"/>
        <path id="Trazado_120134" data-name="Trazado 120134" d="M244.47,190.605h-72.4a5.954,5.954,0,0,1-6.016-5.89V151.327c0-22.791,18.938-41.332,42.217-41.332s42.218,18.541,42.218,41.332v33.388a5.953,5.953,0,0,1-6.016,5.89m-66.387-11.781h60.369v-27.5c0-16.295-13.541-29.552-30.185-29.552s-30.184,13.257-30.184,29.552Z" transform="translate(83.305 55.183)" fill="#fff"/>
        <path id="Trazado_120135" data-name="Trazado 120135" d="M244.47,190.605h-72.4a5.954,5.954,0,0,1-6.016-5.89V151.327c0-22.791,18.938-41.332,42.217-41.332s42.218,18.541,42.218,41.332v33.388A5.953,5.953,0,0,1,244.47,190.605Zm-66.387-11.781h60.369v-27.5c0-16.295-13.541-29.552-30.185-29.552s-30.184,13.257-30.184,29.552Z" transform="translate(83.305 55.183)" fill="none" stroke="#263238" stroke-linecap="round" stroke-linejoin="round" stroke-width="1"/>
        <rect id="Rectángulo_36631" data-name="Rectángulo 36631" width="92.181" height="76.254" transform="translate(244.883 229.696)" fill="#13b770"/>
        <rect id="Rectángulo_36632" data-name="Rectángulo 36632" width="92.181" height="76.254" transform="translate(244.883 229.696)" fill="none" stroke="#263238" stroke-linecap="round" stroke-linejoin="round" stroke-width="1"/>
        <path id="Trazado_120136" data-name="Trazado 120136" d="M206.854,177.329a10.038,10.038,0,0,0-20.072,0,9.8,9.8,0,0,0,5.269,8.648L190.367,203.3h12.9l-1.685-17.319a9.8,9.8,0,0,0,5.269-8.648" transform="translate(93.706 84.034)" fill="#263238"/>
        <path id="Trazado_120137" data-name="Trazado 120137" d="M206.854,177.329a10.038,10.038,0,0,0-20.072,0,9.8,9.8,0,0,0,5.269,8.648L190.367,203.3h12.9l-1.685-17.319A9.8,9.8,0,0,0,206.854,177.329Z" transform="translate(93.706 84.034)" fill="none" stroke="#263238" stroke-linecap="round" stroke-linejoin="round" stroke-width="1"/>
      </g>
    </g>
    <path id="Trazado_120140" data-name="Trazado 120140" d="M35.461,358.425s-17.3,9.729-17.3,14.415,10.675,1.8,17.669-1.442,12.515-5.765,12.515-12.252-12.883-.721-12.883-.721" transform="translate(515.11 3853.632)" fill="#13b770"/>
    <path id="Trazado_120141" data-name="Trazado 120141" d="M35.461,358.425s-17.3,9.729-17.3,14.415,10.675,1.8,17.669-1.442,12.515-5.765,12.515-12.252S35.461,358.425,35.461,358.425Z" transform="translate(515.11 3853.632)" fill="none" stroke="#263238" stroke-miterlimit="10" stroke-width="1"/>
    <path id="Trazado_120142" data-name="Trazado 120142" d="M89.137,358.425s17.3,9.729,17.3,14.415-10.675,1.8-17.669-1.442-12.515-5.765-12.515-12.252,12.883-.721,12.883-.721" transform="translate(544.255 3853.632)" fill="#13b770"/>
    <path id="Trazado_120143" data-name="Trazado 120143" d="M89.137,358.425s17.3,9.729,17.3,14.415-10.675,1.8-17.669-1.442-12.515-5.765-12.515-12.252S89.137,358.425,89.137,358.425Z" transform="translate(544.255 3853.632)" fill="none" stroke="#263238" stroke-miterlimit="10" stroke-width="1"/>
    <path id="Trazado_120144" data-name="Trazado 120144" d="M36.8,251.565,29.436,412.651s3.313,2.883,7.361,2.162a9.61,9.61,0,0,0,5.89-3.244l25.03-131.536h5.154l26.5,134.059a12.255,12.255,0,0,0,5.154,1.442c2.577,0,6.625-3.244,6.625-3.244l-8.467-160.725Z" transform="translate(520.768 3801.207)" fill="#263238"/>
    <path id="Trazado_120145" data-name="Trazado 120145" d="M36.8,251.565,29.436,412.651s3.313,2.883,7.361,2.162a9.61,9.61,0,0,0,5.89-3.244l25.03-131.536h5.154l26.5,134.059a12.255,12.255,0,0,0,5.154,1.442c2.577,0,6.625-3.244,6.625-3.244l-8.467-160.725Z" transform="translate(520.768 3801.207)" fill="none" stroke="#263238" stroke-miterlimit="10" stroke-width="1"/>
    <path id="Trazado_120146" data-name="Trazado 120146" d="M62.687,186.772l-33.5,13.694,8.834,77.84h64.048l11.779-80.723L77.411,186.051Z" transform="translate(520.645 3768.339)" fill="#13b770"/>
    <path id="Trazado_120147" data-name="Trazado 120147" d="M62.687,186.772l-33.5,13.694,8.834,77.84h64.048l11.779-80.723L77.411,186.051Z" transform="translate(520.645 3768.339)" fill="none" stroke="#263238" stroke-miterlimit="10" stroke-width="1"/>
    <rect id="Rectángulo_36635" data-name="Rectángulo 36635" width="65.888" height="7.568" transform="translate(557.566 4045.203)" fill="#263238"/>
    <rect id="Rectángulo_36636" data-name="Rectángulo 36636" width="65.888" height="7.568" transform="translate(557.566 4045.203)" fill="none" stroke="#263238" stroke-miterlimit="10" stroke-width="1"/>
    <path id="Trazado_120148" data-name="Trazado 120148" d="M37.435,250.605,26.024,255.29a36.444,36.444,0,0,0,.737,9.729c1.1,4.325,2.575,13.694,3.681,15.5s6.625,5.406,7.361,4.325,4.418-32.794,4.418-32.794Z" transform="translate(519.026 3800.725)" fill="#263238"/>
    <path id="Trazado_120149" data-name="Trazado 120149" d="M37.435,250.605,26.024,255.29a36.444,36.444,0,0,0,.737,9.729c1.1,4.325,2.575,13.694,3.681,15.5s6.625,5.406,7.361,4.325,4.418-32.794,4.418-32.794Z" transform="translate(519.026 3800.725)" fill="none" stroke="#263238" stroke-miterlimit="10" stroke-width="1"/>
    <path id="Trazado_120150" data-name="Trazado 120150" d="M50.745,175.428v13.137l9.585,9.947,9.776-10.135V175.24Z" transform="translate(531.458 3762.916)" fill="#fff"/>
    <path id="Trazado_120151" data-name="Trazado 120151" d="M50.745,175.428v13.137l9.585,9.947,9.776-10.135V175.24Z" transform="translate(531.458 3762.916)" fill="none" stroke="#263238" stroke-miterlimit="10" stroke-width="1"/>
    <path id="Trazado_120152" data-name="Trazado 120152" d="M47.381,168.01s-1.725-3.94-2.876-1.5.192,6.193,1.918,7.695a6.194,6.194,0,0,0,4.409,1.126l-.96-5.63Z" transform="translate(528.112 3758.135)" fill="#fff"/>
    <path id="Trazado_120153" data-name="Trazado 120153" d="M47.381,168.01s-1.725-3.94-2.876-1.5.192,6.193,1.918,7.695a6.194,6.194,0,0,0,4.409,1.126l-.96-5.63Z" transform="translate(528.112 3758.135)" fill="none" stroke="#263238" stroke-miterlimit="10" stroke-width="1"/>
    <path id="Trazado_120154" data-name="Trazado 120154" d="M68.237,168.01s1.725-3.94,2.876-1.5-.192,6.193-1.918,7.695a6.194,6.194,0,0,1-4.409,1.126l.96-5.63Z" transform="translate(538.502 3758.135)" fill="#fff"/>
    <path id="Trazado_120155" data-name="Trazado 120155" d="M68.237,168.01s1.725-3.94,2.876-1.5-.192,6.193-1.918,7.695a6.194,6.194,0,0,1-4.409,1.126l.96-5.63Z" transform="translate(538.502 3758.135)" fill="none" stroke="#263238" stroke-miterlimit="10" stroke-width="1"/>
    <path id="Trazado_120156" data-name="Trazado 120156" d="M51.137,151.685s-8.051,3.377-8.051,9.009,1.15,12.01,3.066,14.451,3.451,4.128,3.451,4.128l.383-8.07,5.559-9.57s9.2,5.818,13.8,5.818a46.868,46.868,0,0,0,7.668-.563l1.725,9.57,2.491-6.944v-6.381s4.6-4.316,3.642-7.132S68.388,144.366,58.8,146.619s-7.668,5.067-7.668,5.067" transform="translate(527.616 3748.374)" fill="#263238"/>
    <path id="Trazado_120157" data-name="Trazado 120157" d="M51.137,151.685s-8.051,3.377-8.051,9.009,1.15,12.01,3.066,14.451,3.451,4.128,3.451,4.128l.383-8.07,5.559-9.57s9.2,5.818,13.8,5.818a46.868,46.868,0,0,0,7.668-.563l1.725,9.57,2.491-6.944v-6.381s4.6-4.316,3.642-7.132S68.388,144.366,58.8,146.619,51.137,151.685,51.137,151.685Z" transform="translate(527.616 3748.374)" fill="none" stroke="#263238" stroke-miterlimit="10" stroke-width="1"/>
    <path id="Trazado_120158" data-name="Trazado 120158" d="M45.894,167.07s2.3,14.075,4.217,17.828,7.86,10.323,9.2,11.261,6.325.188,8.241.188,7.477-11.261,8.435-13.324,1.533-19.705,1.533-19.705L75.8,160.126s-8.243,2.065-14.76-.563-9.2-6.193-9.2-6.193-.575,6.381-2.876,10.135-3.066,3.565-3.066,3.565" transform="translate(529.024 3751.943)" fill="#fff"/>
    <path id="Trazado_120159" data-name="Trazado 120159" d="M45.894,167.07s2.3,14.075,4.217,17.828,7.86,10.323,9.2,11.261,6.325.188,8.241.188,7.477-11.261,8.435-13.324,1.533-19.705,1.533-19.705L75.8,160.126s-8.243,2.065-14.76-.563-9.2-6.193-9.2-6.193-.575,6.381-2.876,10.135S45.894,167.07,45.894,167.07Z" transform="translate(529.024 3751.943)" fill="none" stroke="#263238" stroke-miterlimit="10" stroke-width="1"/>
    <path id="Trazado_120160" data-name="Trazado 120160" d="M60.4,164.12a16.492,16.492,0,0,0-7.475-1.877,14.07,14.07,0,0,0-6.517,1.314s0,6.381,2.108,8.821,8.243,1.689,9.967-.375S60.4,164.12,60.4,164.12" transform="translate(529.281 3756.395)" fill="#263238"/>
    <path id="Trazado_120161" data-name="Trazado 120161" d="M60.4,164.12a16.492,16.492,0,0,0-7.475-1.877,14.07,14.07,0,0,0-6.517,1.314s0,6.381,2.108,8.821,8.243,1.689,9.967-.375S60.4,164.12,60.4,164.12Z" transform="translate(529.281 3756.395)" fill="none" stroke="#263238" stroke-miterlimit="10" stroke-width="1"/>
    <path id="Trazado_120162" data-name="Trazado 120162" d="M57.51,164.12a16.492,16.492,0,0,1,7.475-1.877,14.07,14.07,0,0,1,6.517,1.314s0,6.381-2.108,8.821-8.243,1.689-9.967-.375-1.918-7.882-1.918-7.882" transform="translate(534.852 3756.395)" fill="#263238"/>
    <path id="Trazado_120163" data-name="Trazado 120163" d="M57.51,164.12a16.492,16.492,0,0,1,7.475-1.877,14.07,14.07,0,0,1,6.517,1.314s0,6.381-2.108,8.821-8.243,1.689-9.967-.375S57.51,164.12,57.51,164.12Z" transform="translate(534.852 3756.395)" fill="none" stroke="#263238" stroke-miterlimit="10" stroke-width="1"/>
    <line id="Línea_162" data-name="Línea 162" x2="2.684" transform="translate(589.679 3920.515)" fill="#fff"/>
    <line id="Línea_163" data-name="Línea 163" x2="2.684" transform="translate(589.679 3920.515)" fill="none" stroke="#263238" stroke-miterlimit="10" stroke-width="1"/>
    <path id="Trazado_120164" data-name="Trazado 120164" d="M54.809,195.593l4.049,6.487-6.625,55.857,8.1,11.893,6.993-12.975-5.522-55.5,4.786-7.568-7-3.054Z" transform="translate(532.204 3770.689)" fill="#263238"/>
    <path id="Trazado_120165" data-name="Trazado 120165" d="M54.809,195.593l4.049,6.487-6.625,55.857,8.1,11.893,6.993-12.975-5.522-55.5,4.786-7.568-7-3.054Z" transform="translate(532.204 3770.689)" fill="none" stroke="#263238" stroke-miterlimit="10" stroke-width="1"/>
    <path id="Trazado_120166" data-name="Trazado 120166" d="M62.123,194.06l-5.367,9.2L47.17,190.5l5.367-6.382Z" transform="translate(529.665 3767.367)" fill="#13b770"/>
    <path id="Trazado_120167" data-name="Trazado 120167" d="M62.123,194.06l-5.367,9.2L47.17,190.5l5.367-6.382Z" transform="translate(529.665 3767.367)" fill="none" stroke="#263238" stroke-miterlimit="10" stroke-width="1"/>
    <path id="Trazado_120168" data-name="Trazado 120168" d="M57.127,194.123l6.517,10.135,7.86-14.451-4.6-5.819Z" transform="translate(534.66 3767.304)" fill="#13b770"/>
    <path id="Trazado_120169" data-name="Trazado 120169" d="M57.127,194.123l6.517,10.135,7.86-14.451-4.6-5.819Z" transform="translate(534.66 3767.304)" fill="none" stroke="#263238" stroke-miterlimit="10" stroke-width="1"/>
    <path id="Trazado_120170" data-name="Trazado 120170" d="M42.84,195.65l-40.858,53.7,36.072,25.946,5.154-9.009L32.166,245.021l15.09-13.694Z" transform="translate(506.995 3773.155)" fill="#13b770"/>
    <path id="Trazado_120171" data-name="Trazado 120171" d="M42.84,195.65l-40.858,53.7,36.072,25.946,5.154-9.009L32.166,245.021l15.09-13.694Z" transform="translate(506.995 3773.155)" fill="none" stroke="#263238" stroke-miterlimit="10" stroke-width="1"/>
    <path id="Trazado_120172" data-name="Trazado 120172" d="M31.158,242.806l12.147-.36,9.2,8.288a4.509,4.509,0,0,1-1.1,2.883c-1.105,1.081-4.05.36-4.05.36s-2.207,5.406-6.258,5.406S26,251.815,26,251.815Z" transform="translate(519.046 3796.632)" fill="#fff"/>
    <path id="Trazado_120173" data-name="Trazado 120173" d="M31.158,242.806l12.147-.36,9.2,8.288a4.509,4.509,0,0,1-1.1,2.883c-1.105,1.081-4.05.36-4.05.36s-2.207,5.406-6.258,5.406S26,251.815,26,251.815Z" transform="translate(519.046 3796.632)" fill="none" stroke="#263238" stroke-miterlimit="10" stroke-width="1"/>
    <line id="Línea_164" data-name="Línea 164" x1="6.258" y2="11.171" transform="translate(541.001 4033.312)" fill="none" stroke="#263238" stroke-linecap="round" stroke-linejoin="round" stroke-width="1"/>
    <line id="Línea_165" data-name="Línea 165" x1="4.786" y1="12.252" transform="translate(534.375 4005.924)" fill="none" stroke="#263238" stroke-linecap="round" stroke-linejoin="round" stroke-width="1"/>
    <path id="Trazado_120174" data-name="Trazado 120174" d="M87.659,193.73l41.226,56.579L92.813,276.256l-5.154-9.009L98.7,245.985,81.4,231.93Z" transform="translate(546.838 3772.191)" fill="#13b770"/>
    <path id="Trazado_120175" data-name="Trazado 120175" d="M87.659,193.73l41.226,56.579L92.813,276.256l-5.154-9.009L98.7,245.985,81.4,231.93Z" transform="translate(546.838 3772.191)" fill="none" stroke="#263238" stroke-miterlimit="10" stroke-width="1"/>
    <path id="Trazado_120176" data-name="Trazado 120176" d="M92.7,242.806l-12.147-.36-9.2,8.288a4.509,4.509,0,0,0,1.1,2.883c1.105,1.081,4.05.36,4.05.36s2.207,5.406,6.258,5.406,15.092-7.569,15.092-7.569Z" transform="translate(541.796 3796.632)" fill="#fff"/>
    <path id="Trazado_120177" data-name="Trazado 120177" d="M92.7,242.806l-12.147-.36-9.2,8.288a4.509,4.509,0,0,0,1.1,2.883c1.105,1.081,4.05.36,4.05.36s2.207,5.406,6.258,5.406,15.092-7.569,15.092-7.569Z" transform="translate(541.796 3796.632)" fill="none" stroke="#263238" stroke-miterlimit="10" stroke-width="1"/>
    <line id="Línea_166" data-name="Línea 166" x2="6.258" y2="11.171" transform="translate(637.441 4033.312)" fill="none" stroke="#263238" stroke-linecap="round" stroke-linejoin="round" stroke-width="1"/>
    <line id="Línea_167" data-name="Línea 167" y1="12.252" x2="4.786" transform="translate(645.539 4005.924)" fill="none" stroke="#263238" stroke-linecap="round" stroke-linejoin="round" stroke-width="1"/>
    <path id="Trazado_120178" data-name="Trazado 120178" d="M56.016,205.249H33.439v7.689l11.288,4.323,11.288-4.8Z" transform="translate(522.776 3777.971)" fill="#79dfef"/>
    <path id="Trazado_120179" data-name="Trazado 120179" d="M56.016,205.249H33.439v7.689l11.288,4.323,11.288-4.8Z" transform="translate(522.776 3777.971)" fill="none" stroke="#263238" stroke-miterlimit="10" stroke-width="1"/>
    <path id="Trazado_120180" data-name="Trazado 120180" d="M86.084,205.249H63.507v7.689L74.8,217.261l11.288-4.8Z" transform="translate(537.861 3777.971)" fill="#79dfef"/>
    <path id="Trazado_120181" data-name="Trazado 120181" d="M86.084,205.249H63.507v7.689L74.8,217.261l11.288-4.8Z" transform="translate(537.861 3777.971)" fill="none" stroke="#263238" stroke-miterlimit="10" stroke-width="1"/>
    <path id="Trazado_120184" data-name="Trazado 120184" d="M313.3,358.425S296,368.155,296,372.84s10.676,1.8,17.669-1.442,12.515-5.765,12.515-12.252-12.883-.721-12.883-.721" transform="translate(654.498 3853.632)" fill="#13b770"/>
    <path id="Trazado_120185" data-name="Trazado 120185" d="M313.3,358.425S296,368.155,296,372.84s10.676,1.8,17.669-1.442,12.515-5.765,12.515-12.252S313.3,358.425,313.3,358.425Z" transform="translate(654.498 3853.632)" fill="none" stroke="#263238" stroke-miterlimit="10" stroke-width="1"/>
    <path id="Trazado_120186" data-name="Trazado 120186" d="M366.975,358.425s17.3,9.729,17.3,14.415-10.675,1.8-17.669-1.442-12.515-5.765-12.515-12.252,12.883-.721,12.883-.721" transform="translate(683.643 3853.632)" fill="#13b770"/>
    <path id="Trazado_120187" data-name="Trazado 120187" d="M366.975,358.425s17.3,9.729,17.3,14.415-10.675,1.8-17.669-1.442-12.515-5.765-12.515-12.252S366.975,358.425,366.975,358.425Z" transform="translate(683.643 3853.632)" fill="none" stroke="#263238" stroke-miterlimit="10" stroke-width="1"/>
    <path id="Trazado_120188" data-name="Trazado 120188" d="M314.635,251.565l-7.361,161.086s3.313,2.883,7.361,2.162a9.61,9.61,0,0,0,5.89-3.244l25.03-131.536h5.154l26.5,134.059a12.255,12.255,0,0,0,5.154,1.442c2.577,0,6.625-3.244,6.625-3.244l-8.465-160.725Z" transform="translate(660.155 3801.207)" fill="#263238"/>
    <path id="Trazado_120189" data-name="Trazado 120189" d="M314.635,251.565l-7.361,161.086s3.313,2.883,7.361,2.162a9.61,9.61,0,0,0,5.89-3.244l25.03-131.536h5.154l26.5,134.059a12.255,12.255,0,0,0,5.154,1.442c2.577,0,6.625-3.244,6.625-3.244l-8.465-160.725Z" transform="translate(660.155 3801.207)" fill="none" stroke="#263238" stroke-miterlimit="10" stroke-width="1"/>
    <path id="Trazado_120190" data-name="Trazado 120190" d="M340.525,186.772l-33.5,13.694,8.834,77.84h64.048l11.779-80.723-36.441-11.531Z" transform="translate(660.032 3768.339)" fill="#13b770"/>
    <path id="Trazado_120191" data-name="Trazado 120191" d="M340.525,186.772l-33.5,13.694,8.834,77.84h64.048l11.779-80.723-36.441-11.531Z" transform="translate(660.032 3768.339)" fill="none" stroke="#263238" stroke-miterlimit="10" stroke-width="1"/>
    <path id="Trazado_120192" data-name="Trazado 120192" d="M332.647,195.593l4.049,6.487-6.625,55.857,8.1,11.893,6.993-12.975-5.522-55.5,4.786-7.568-7-3.054Z" transform="translate(671.591 3770.689)" fill="#263238"/>
    <path id="Trazado_120193" data-name="Trazado 120193" d="M332.647,195.593l4.049,6.487-6.625,55.857,8.1,11.893,6.993-12.975-5.522-55.5,4.786-7.568-7-3.054Z" transform="translate(671.591 3770.689)" fill="none" stroke="#263238" stroke-miterlimit="10" stroke-width="1"/>
    <path id="Trazado_120194" data-name="Trazado 120194" d="M339.961,194.06l-5.367,9.2L325.008,190.5l5.367-6.382Z" transform="translate(669.052 3767.367)" fill="#13b770"/>
    <path id="Trazado_120195" data-name="Trazado 120195" d="M339.961,194.06l-5.367,9.2L325.008,190.5l5.367-6.382Z" transform="translate(669.052 3767.367)" fill="none" stroke="#263238" stroke-miterlimit="10" stroke-width="1"/>
    <path id="Trazado_120196" data-name="Trazado 120196" d="M334.965,194.123l6.517,10.135,7.86-14.451-4.6-5.819Z" transform="translate(674.047 3767.304)" fill="#13b770"/>
    <path id="Trazado_120197" data-name="Trazado 120197" d="M334.965,194.123l6.517,10.135,7.86-14.451-4.6-5.819Z" transform="translate(674.047 3767.304)" fill="none" stroke="#263238" stroke-miterlimit="10" stroke-width="1"/>
    <path id="Trazado_120198" data-name="Trazado 120198" d="M333.854,205.249H311.278v7.689l11.288,4.323,11.288-4.8Z" transform="translate(662.164 3777.971)" fill="#79dfef"/>
    <path id="Trazado_120199" data-name="Trazado 120199" d="M333.854,205.249H311.278v7.689l11.288,4.323,11.288-4.8Z" transform="translate(662.164 3777.971)" fill="none" stroke="#263238" stroke-miterlimit="10" stroke-width="1"/>
    <path id="Trazado_120200" data-name="Trazado 120200" d="M363.922,205.249H341.346v7.689l11.288,4.323,11.288-4.8Z" transform="translate(677.248 3777.971)" fill="#79dfef"/>
    <path id="Trazado_120201" data-name="Trazado 120201" d="M363.922,205.249H341.346v7.689l11.288,4.323,11.288-4.8Z" transform="translate(677.248 3777.971)" fill="none" stroke="#263238" stroke-miterlimit="10" stroke-width="1"/>
    <rect id="Rectángulo_36639" data-name="Rectángulo 36639" width="65.889" height="7.568" transform="translate(974.79 4045.203)" fill="#263238"/>
    <rect id="Rectángulo_36640" data-name="Rectángulo 36640" width="65.889" height="7.568" transform="translate(974.79 4045.203)" fill="none" stroke="#263238" stroke-miterlimit="10" stroke-width="1"/>
    <path id="Trazado_120202" data-name="Trazado 120202" d="M315.273,250.605l-11.411,4.685a36.442,36.442,0,0,0,.737,9.729c1.1,4.325,2.575,13.694,3.681,15.5s6.625,5.406,7.361,4.325,4.416-32.794,4.416-32.794Z" transform="translate(658.414 3800.725)" fill="#263238"/>
    <path id="Trazado_120203" data-name="Trazado 120203" d="M315.273,250.605l-11.411,4.685a36.442,36.442,0,0,0,.737,9.729c1.1,4.325,2.575,13.694,3.681,15.5s6.625,5.406,7.361,4.325,4.416-32.794,4.416-32.794Z" transform="translate(658.414 3800.725)" fill="none" stroke="#263238" stroke-miterlimit="10" stroke-width="1"/>
    <path id="Trazado_120204" data-name="Trazado 120204" d="M328.583,175.428v13.137l9.585,9.947,9.776-10.135V175.24Z" transform="translate(670.845 3762.916)" fill="#fff"/>
    <path id="Trazado_120205" data-name="Trazado 120205" d="M328.583,175.428v13.137l9.585,9.947,9.776-10.135V175.24Z" transform="translate(670.845 3762.916)" fill="none" stroke="#263238" stroke-miterlimit="10" stroke-width="1"/>
    <path id="Trazado_120206" data-name="Trazado 120206" d="M325.219,168.01s-1.725-3.94-2.876-1.5.192,6.193,1.918,7.695a6.194,6.194,0,0,0,4.409,1.126l-.96-5.63Z" transform="translate(667.5 3758.135)" fill="#fff"/>
    <path id="Trazado_120207" data-name="Trazado 120207" d="M325.219,168.01s-1.725-3.94-2.876-1.5.192,6.193,1.918,7.695a6.194,6.194,0,0,0,4.409,1.126l-.96-5.63Z" transform="translate(667.5 3758.135)" fill="none" stroke="#263238" stroke-miterlimit="10" stroke-width="1"/>
    <path id="Trazado_120208" data-name="Trazado 120208" d="M346.075,168.01s1.725-3.94,2.876-1.5-.192,6.193-1.918,7.695a6.194,6.194,0,0,1-4.409,1.126l.96-5.63Z" transform="translate(677.89 3758.135)" fill="#fff"/>
    <path id="Trazado_120209" data-name="Trazado 120209" d="M346.075,168.01s1.725-3.94,2.876-1.5-.192,6.193-1.918,7.695a6.194,6.194,0,0,1-4.409,1.126l.96-5.63Z" transform="translate(677.89 3758.135)" fill="none" stroke="#263238" stroke-miterlimit="10" stroke-width="1"/>
    <path id="Trazado_120210" data-name="Trazado 120210" d="M328.975,151.685s-8.051,3.377-8.051,9.009,1.15,12.01,3.066,14.451,3.451,4.128,3.451,4.128l.383-8.07,5.559-9.57s9.2,5.818,13.8,5.818a46.869,46.869,0,0,0,7.668-.563l1.725,9.57,2.491-6.944v-6.381s4.6-4.316,3.642-7.132-16.484-11.635-26.069-9.383-7.668,5.067-7.668,5.067" transform="translate(667.003 3748.374)" fill="#263238"/>
    <path id="Trazado_120211" data-name="Trazado 120211" d="M328.975,151.685s-8.051,3.377-8.051,9.009,1.15,12.01,3.066,14.451,3.451,4.128,3.451,4.128l.383-8.07,5.559-9.57s9.2,5.818,13.8,5.818a46.869,46.869,0,0,0,7.668-.563l1.725,9.57,2.491-6.944v-6.381s4.6-4.316,3.642-7.132-16.484-11.635-26.069-9.383S328.975,151.685,328.975,151.685Z" transform="translate(667.003 3748.374)" fill="none" stroke="#263238" stroke-miterlimit="10" stroke-width="1"/>
    <path id="Trazado_120212" data-name="Trazado 120212" d="M323.732,167.07s2.3,14.075,4.217,17.828,7.86,10.323,9.2,11.261,6.325.188,8.243.188,7.475-11.261,8.433-13.324,1.533-19.705,1.533-19.705l-1.725-3.191s-8.241,2.065-14.76-.563-9.2-6.193-9.2-6.193-.575,6.381-2.876,10.135-3.066,3.565-3.066,3.565" transform="translate(668.412 3751.943)" fill="#fff"/>
    <path id="Trazado_120213" data-name="Trazado 120213" d="M323.732,167.07s2.3,14.075,4.217,17.828,7.86,10.323,9.2,11.261,6.325.188,8.243.188,7.475-11.261,8.433-13.324,1.533-19.705,1.533-19.705l-1.725-3.191s-8.241,2.065-14.76-.563-9.2-6.193-9.2-6.193-.575,6.381-2.876,10.135S323.732,167.07,323.732,167.07Z" transform="translate(668.412 3751.943)" fill="none" stroke="#263238" stroke-miterlimit="10" stroke-width="1"/>
    <path id="Trazado_120214" data-name="Trazado 120214" d="M338.236,164.12a16.492,16.492,0,0,0-7.475-1.877,14.069,14.069,0,0,0-6.517,1.314s0,6.381,2.108,8.821,8.243,1.689,9.968-.375,1.916-7.882,1.916-7.882" transform="translate(668.668 3756.395)" fill="#263238"/>
    <path id="Trazado_120215" data-name="Trazado 120215" d="M338.236,164.12a16.492,16.492,0,0,0-7.475-1.877,14.069,14.069,0,0,0-6.517,1.314s0,6.381,2.108,8.821,8.243,1.689,9.968-.375S338.236,164.12,338.236,164.12Z" transform="translate(668.668 3756.395)" fill="none" stroke="#263238" stroke-miterlimit="10" stroke-width="1"/>
    <path id="Trazado_120216" data-name="Trazado 120216" d="M335.348,164.12a16.492,16.492,0,0,1,7.475-1.877,14.07,14.07,0,0,1,6.517,1.314s0,6.381-2.108,8.821-8.243,1.689-9.968-.375-1.916-7.882-1.916-7.882" transform="translate(674.239 3756.395)" fill="#263238"/>
    <path id="Trazado_120217" data-name="Trazado 120217" d="M335.348,164.12a16.492,16.492,0,0,1,7.475-1.877,14.07,14.07,0,0,1,6.517,1.314s0,6.381-2.108,8.821-8.243,1.689-9.968-.375S335.348,164.12,335.348,164.12Z" transform="translate(674.239 3756.395)" fill="none" stroke="#263238" stroke-miterlimit="10" stroke-width="1"/>
    <line id="Línea_168" data-name="Línea 168" x2="2.683" transform="translate(1006.904 3920.515)" fill="#fff"/>
    <line id="Línea_169" data-name="Línea 169" x2="2.683" transform="translate(1006.904 3920.515)" fill="none" stroke="#263238" stroke-miterlimit="10" stroke-width="1"/>
    <path id="Trazado_120218" data-name="Trazado 120218" d="M309,242.806l12.147-.36,9.2,8.288a4.509,4.509,0,0,1-1.1,2.883c-1.105,1.081-4.05.36-4.05.36s-2.207,5.406-6.258,5.406-15.092-7.569-15.092-7.569Z" transform="translate(658.433 3796.632)" fill="#fff"/>
    <path id="Trazado_120219" data-name="Trazado 120219" d="M309,242.806l12.147-.36,9.2,8.288a4.509,4.509,0,0,1-1.1,2.883c-1.105,1.081-4.05.36-4.05.36s-2.207,5.406-6.258,5.406-15.092-7.569-15.092-7.569Z" transform="translate(658.433 3796.632)" fill="none" stroke="#263238" stroke-miterlimit="10" stroke-width="1"/>
    <path id="Trazado_120220" data-name="Trazado 120220" d="M320.679,195.65l-40.858,53.7,36.073,25.946,5.152-9.009L310,245.021l15.09-13.694Z" transform="translate(646.382 3773.155)" fill="#13b770"/>
    <path id="Trazado_120221" data-name="Trazado 120221" d="M320.679,195.65l-40.858,53.7,36.073,25.946,5.152-9.009L310,245.021l15.09-13.694Z" transform="translate(646.382 3773.155)" fill="none" stroke="#263238" stroke-miterlimit="10" stroke-width="1"/>
    <line id="Línea_170" data-name="Línea 170" x1="6.258" y2="11.171" transform="translate(958.227 4033.312)" fill="none" stroke="#263238" stroke-linecap="round" stroke-linejoin="round" stroke-width="1"/>
    <line id="Línea_171" data-name="Línea 171" x1="4.784" y1="12.252" transform="translate(951.602 4005.924)" fill="none" stroke="#263238" stroke-linecap="round" stroke-linejoin="round" stroke-width="1"/>
    <path id="Trazado_120222" data-name="Trazado 120222" d="M370.538,242.806l-12.147-.36-9.2,8.288a4.509,4.509,0,0,0,1.1,2.883c1.105,1.081,4.05.36,4.05.36s2.207,5.406,6.258,5.406,15.092-7.569,15.092-7.569Z" transform="translate(681.183 3796.632)" fill="#fff"/>
    <path id="Trazado_120223" data-name="Trazado 120223" d="M370.538,242.806l-12.147-.36-9.2,8.288a4.509,4.509,0,0,0,1.1,2.883c1.105,1.081,4.05.36,4.05.36s2.207,5.406,6.258,5.406,15.092-7.569,15.092-7.569Z" transform="translate(681.183 3796.632)" fill="none" stroke="#263238" stroke-miterlimit="10" stroke-width="1"/>
    <path id="Trazado_120224" data-name="Trazado 120224" d="M365.5,193.73l41.226,56.579-36.072,25.946-5.154-9.009,11.043-21.262-17.3-14.054Z" transform="translate(686.225 3772.191)" fill="#13b770"/>
    <path id="Trazado_120225" data-name="Trazado 120225" d="M365.5,193.73l41.226,56.579-36.072,25.946-5.154-9.009,11.043-21.262-17.3-14.054Z" transform="translate(686.225 3772.191)" fill="none" stroke="#263238" stroke-miterlimit="10" stroke-width="1"/>
    <line id="Línea_172" data-name="Línea 172" x2="6.258" y2="11.171" transform="translate(1054.667 4033.312)" fill="none" stroke="#263238" stroke-linecap="round" stroke-linejoin="round" stroke-width="1"/>
    <line id="Línea_173" data-name="Línea 173" y1="12.252" x2="4.784" transform="translate(1062.765 4005.924)" fill="none" stroke="#263238" stroke-linecap="round" stroke-linejoin="round" stroke-width="1"/>
  </g>
</svg>
