<svg xmlns="http://www.w3.org/2000/svg" xmlns:xlink="http://www.w3.org/1999/xlink" width="610" height="422.958" viewBox="0 0 610 422.958">
  <defs>
    <clipPath id="clip-path">
      <rect id="Rectángulo_36563" data-name="Rectángulo 36563" width="223.932" height="422.957" fill="none"/>
    </clipPath>
    <clipPath id="clip-path-2">
      <rect id="Rectángulo_36556" data-name="Rectángulo 36556" width="505" height="399.806" fill="none"/>
    </clipPath>
    <clipPath id="clip-path-4">
      <rect id="Rectángulo_36554" data-name="Rectángulo 36554" width="13.416" height="63.878" fill="none"/>
    </clipPath>
  </defs>
  <g id="Grupo_85696" data-name="Grupo 85696" transform="translate(-180 -3473.178)">
    <g id="Grupo_85695" data-name="Grupo 85695" transform="translate(566.067 3473.178)">
      <path id="Trazado_119485" data-name="Trazado 119485" d="M0,0H145.719V422.956H0Z" transform="translate(78.214 0.001)" fill="#cef7e5"/>
      <rect id="Rectángulo_36558" data-name="Rectángulo 36558" width="159.542" height="422.956" transform="translate(0 0.001)" fill="#fff"/>
      <g id="Grupo_85694" data-name="Grupo 85694">
        <g id="Grupo_85693" data-name="Grupo 85693" clip-path="url(#clip-path)">
          <path id="Trazado_119477" data-name="Trazado 119477" d="M40.03,231.048H82.651a3.042,3.042,0,0,0,3.042-3.042v-2.53H36.99v2.531a3.04,3.04,0,0,0,3.04,3.04" transform="translate(15.292 93.213)" fill="#e0e0e0"/>
          <path id="Trazado_119478" data-name="Trazado 119478" d="M5.075,225.548s-.023.506-.034,1.526q-.013,1.573-.035,4.536c-.018,4.027-.047,9.909-.081,17.451-.041,15.194-.1,37.05-.168,63.811v.318h.319l142.18.088h.482v-.407c-.011-30.9-.021-60.375-.031-87.194V225.3h-.376l-102.575.09-29.28.075-7.757.038-1.986.021c-.442.007-.657.021-.657.021s.245.016.7.023l2.028.024,7.832.054L45,225.777l102.326.277-.376-.376c-.01,26.819-.02,56.292-.031,87.194l.407-.407h-.075l-142.18.089.318.318c-.071-26.678-.127-48.466-.168-63.615-.034-7.572-.062-13.478-.081-17.522q-.023-3-.035-4.6c-.011-1.042-.034-1.593-.034-1.593" transform="translate(1.966 93.141)" fill="#e0e0e0"/>
          <rect id="Rectángulo_36559" data-name="Rectángulo 36559" width="42.336" height="11.437" transform="translate(54.194 340.02)" fill="#e0e0e0"/>
          <path id="Trazado_119479" data-name="Trazado 119479" d="M41.4,159.041H84.018A3.042,3.042,0,0,0,87.06,156v-2.53h-48.7V156a3.04,3.04,0,0,0,3.04,3.04" transform="translate(15.857 63.445)" fill="#e0e0e0"/>
          <path id="Trazado_119480" data-name="Trazado 119480" d="M5.355,153.541s-.023.506-.034,1.526q-.013,1.571-.035,4.536c-.018,4.027-.047,9.909-.081,17.45-.041,15.2-.1,37.051-.168,63.812v.318h.319l142.18.089h.482v-.407c-.011-30.9-.021-60.375-.031-87.194v-.377h-.376c-41.8.038-77.4.069-102.575.09l-29.28.076L8,153.5l-1.986.021c-.442.007-.657.021-.657.021s.245.016.7.023l2.028.024,7.832.054,29.366.129,102.326.277-.376-.376c-.01,26.819-.02,56.292-.031,87.194l.407-.407h-.075l-142.18.089.318.318c-.071-26.678-.127-48.466-.168-63.615-.034-7.572-.062-13.478-.081-17.522q-.023-3-.035-4.6c-.011-1.042-.034-1.593-.034-1.593" transform="translate(2.082 63.373)" fill="#e0e0e0"/>
          <rect id="Rectángulo_36560" data-name="Rectángulo 36560" width="42.336" height="11.437" transform="translate(57.397 237.571)" fill="#e0e0e0"/>
          <path id="Trazado_119481" data-name="Trazado 119481" d="M40.084,13.731H82.7a3.041,3.041,0,0,0,3.042-3.04V8.159h-48.7V10.69a3.041,3.041,0,0,0,3.042,3.04" transform="translate(15.313 3.373)" fill="#e0e0e0"/>
          <path id="Trazado_119482" data-name="Trazado 119482" d="M5.128,8.232s-.023.506-.034,1.525q-.013,1.573-.035,4.537c-.018,4.027-.047,9.909-.081,17.45-.041,15.2-.1,37.051-.168,63.812v.318h.319l142.18.088h.482v-.407c-.011-30.9-.021-60.375-.031-87.194V7.985h-.376L44.808,8.075l-29.28.076L7.771,8.19l-1.986.02c-.442.008-.657.023-.657.023s.245.016.7.023l2.028.024,7.832.054,29.366.129,102.326.277-.376-.376c-.01,26.819-.02,56.292-.031,87.194l.407-.407h-.075l-142.18.089.318.318c-.071-26.678-.127-48.467-.168-63.615C5.244,24.371,5.216,18.464,5.2,14.42q-.023-3-.035-4.595c-.011-1.042-.034-1.593-.034-1.593" transform="translate(1.988 3.301)" fill="#e0e0e0"/>
          <rect id="Rectángulo_36561" data-name="Rectángulo 36561" width="42.336" height="11.437" transform="translate(56.299 30.132)" fill="#e0e0e0"/>
          <path id="Trazado_119483" data-name="Trazado 119483" d="M40.084,86.348H82.7a3.041,3.041,0,0,0,3.042-3.04V80.776h-48.7v2.53a3.042,3.042,0,0,0,3.042,3.042" transform="translate(15.313 33.393)" fill="#e0e0e0"/>
          <path id="Trazado_119484" data-name="Trazado 119484" d="M5.128,80.848s-.023.506-.034,1.525q-.013,1.573-.035,4.537c-.018,4.027-.047,9.909-.081,17.45-.041,15.2-.1,37.051-.168,63.812v.318h.319c38.553.023,88.189.054,142.18.088h.482v-.407c-.011-30.9-.021-60.375-.031-87.194V80.6h-.376l-102.575.089-29.28.075c-3.371.018-5.972.031-7.757.04l-1.986.02c-.442.007-.657.023-.657.023s.245.016.7.023l2.028.024,7.832.054,29.366.129,102.326.277-.376-.376c-.01,26.819-.02,56.292-.031,87.194l.407-.407h-.075l-142.18.089.318.318c-.071-26.678-.127-48.467-.168-63.615C5.244,96.985,5.216,91.08,5.2,87.036q-.023-3-.035-4.595c-.011-1.042-.034-1.593-.034-1.593" transform="translate(1.988 33.321)" fill="#e0e0e0"/>
          <rect id="Rectángulo_36562" data-name="Rectángulo 36562" width="42.336" height="11.437" transform="translate(56.299 132.768)" fill="#e0e0e0"/>
        </g>
      </g>
    </g>
    <g id="Grupo_85692" data-name="Grupo 85692" transform="translate(180 3496.328)">
      <g id="Grupo_85691" data-name="Grupo 85691" clip-path="url(#clip-path-2)">
        <g id="Grupo_85690" data-name="Grupo 85690">
          <g id="Grupo_85689" data-name="Grupo 85689" clip-path="url(#clip-path-2)">
            <path id="Trazado_119440" data-name="Trazado 119440" d="M261.234,121.616c12.591-1.089,25.382-2.176,37.891-.668s24.924,5.987,31.7,13.823c5.709,6.6,6.825,14.705,7.793,22.481q4.144,33.3,8.289,66.609c.7,5.658,1.378,11.516-1.151,16.888-5.529,11.738-25.888,17.278-42.105,13.611a49.948,49.948,0,0,1-33.745-26.106c-5.784-11.672-6.522-24.307-7.2-36.711q-1.846-33.745-3.69-67.491l1.641-1.067" transform="translate(88.517 41.079)" fill="#263238"/>
            <path id="Trazado_119441" data-name="Trazado 119441" d="M0,207.04l3.908,13.738L376.752,329.052,505,244.417V232.874Z" transform="translate(0 70.754)" fill="#263238"/>
            <path id="Trazado_119442" data-name="Trazado 119442" d="M133.752,160.744,505,248.694,376.753,332.38,0,222.86Z" transform="translate(0 54.933)" fill="#79dfef"/>
            <path id="Trazado_119443" data-name="Trazado 119443" d="M296.911,226.219,225.9,260.539l-130.178-35.5,63.906-34.912Z" transform="translate(32.713 64.973)" fill="#e5fff4"/>
            <path id="Trazado_119444" data-name="Trazado 119444" d="M189.788,219.147l18.853,6.227,17.453-9.49-29.049-9.318-16.966,8.792Z" transform="translate(61.54 70.592)" fill="#455a64"/>
            <path id="Trazado_119445" data-name="Trazado 119445" d="M83.376,144.7c.592,2.367,16.568,95.859,16.568,95.859l130.18,35.5-17.16-100Z" transform="translate(28.493 49.449)" fill="#eecf52"/>
            <path id="Trazado_119446" data-name="Trazado 119446" d="M185.689,201.454c.191-.032,2.466,12.3,5.081,27.546s4.583,27.634,4.393,27.667-2.465-12.3-5.081-27.549-4.583-27.632-4.393-27.664" transform="translate(63.453 68.845)" fill="#455a64"/>
            <path id="Trazado_119447" data-name="Trazado 119447" d="M144.063,193.171c1.583,4.09.015,8.509-3.506,9.873s-7.657-.845-9.242-4.935-.013-8.509,3.506-9.873,7.659.845,9.242,4.935" transform="translate(44.665 64.19)" fill="#05339e"/>
            <path id="Trazado_119448" data-name="Trazado 119448" d="M179.958,181.415c5.794-6.69,9.164-52.383,9.164-52.383l42.967,4.836s-6.177,66.835-25.8,74.854l-19.627,8.02" transform="translate(61.499 44.095)" fill="#ffbe9d"/>
            <path id="Trazado_119449" data-name="Trazado 119449" d="M289.118,178.738s19.007,21.284,17.861,39.019l-33.715-7.987,13-31.032" transform="translate(93.385 61.082)" fill="#9bffd4"/>
            <path id="Trazado_119450" data-name="Trazado 119450" d="M345.993,153.875c-.823-37.28-15.557-55.528-16.163-57.9a58.127,58.127,0,0,0-42.887-18.864l-40.024.649a93.2,93.2,0,0,0-29.64,8.621l-.988.287.008.205c-11.314,5.914-23.474,15.123-25.4,30.645l-4.836,30.224,27.822,1.326c-2.828,10.119-5.956,11.42-2.7,21.41l10.6,17.584c0,14.029-.943,5.536-5.249,35.941l107.508,25.47c6.232-6.145,1.488-22.789-15.155-53.091-2.488-4.528,10.409-50.148,10.409-50.148l24.06,8.426" transform="translate(63.586 26.346)" fill="#13b770"/>
            <path id="Trazado_119451" data-name="Trazado 119451" d="M214.026,122.178a12.71,12.71,0,0,1-.969,1.9c-.659,1.2-1.634,2.926-2.768,5.092-2.209,4.3-5.28,10.543-5.575,17.99a22.631,22.631,0,0,0,1.846,10.129,32.762,32.762,0,0,0,4.55,7.185c1.532,1.9,2.879,3.352,3.792,4.371a12.833,12.833,0,0,1,1.381,1.625,11.971,11.971,0,0,1-1.577-1.437c-.974-.963-2.382-2.37-3.977-4.245a31.513,31.513,0,0,1-4.757-7.236,22.783,22.783,0,0,1-1.956-10.416,33.469,33.469,0,0,1,2.166-10.377,57.594,57.594,0,0,1,3.672-7.824c1.2-2.145,2.238-3.836,2.969-5a12.279,12.279,0,0,1,1.2-1.762" transform="translate(69.713 41.753)" fill="#263238"/>
            <path id="Trazado_119452" data-name="Trazado 119452" d="M341.116,111.727a1.733,1.733,0,0,1-.307.272c-.215.166-.521.433-.957.738a16.719,16.719,0,0,1-4.173,2.025c-3.831,1.31-9.936,1.543-16.868-.549-3.464-1.021-7.117-2.521-11.059-4.014-3.937-1.461-8.224-3-12.926-3.345a41.9,41.9,0,0,0-14.629,1.484,148.961,148.961,0,0,0-15.088,5.18,117.848,117.848,0,0,1-15.241,4.986,40.262,40.262,0,0,1-14.915.867,54.757,54.757,0,0,1-12.9-4.076c-3.89-1.653-7.473-3.274-10.873-4.382a36.422,36.422,0,0,0-9.428-1.838,23.194,23.194,0,0,0-7.2.726,19.259,19.259,0,0,0-5.583,2.645,1.747,1.747,0,0,1,.314-.264c.217-.162.534-.416.974-.714a17.107,17.107,0,0,1,4.22-1.928,22.97,22.97,0,0,1,7.29-.855,36.351,36.351,0,0,1,9.564,1.758c3.446,1.091,7.056,2.693,10.946,4.319a54.7,54.7,0,0,0,12.771,3.974,39.828,39.828,0,0,0,14.664-.9,118.686,118.686,0,0,0,15.147-4.972,147.518,147.518,0,0,1,15.163-5.19,42.317,42.317,0,0,1,14.862-1.461,47.183,47.183,0,0,1,13.071,3.444c3.946,1.522,7.573,3.042,11,4.083,6.839,2.127,12.847,1.971,16.644.761a18.926,18.926,0,0,0,5.519-2.775" transform="translate(64.579 36.242)" fill="#263238"/>
            <path id="Trazado_119453" data-name="Trazado 119453" d="M300.163,162.095a4.609,4.609,0,0,1-.865.331c-.644.208-1.483.476-2.525.809a67.586,67.586,0,0,1-9.5,2.274,34.983,34.983,0,0,1-6.76.4,32.521,32.521,0,0,1-7.66-1.348c-5.274-1.542-10.616-4.343-16.451-6.561a60.452,60.452,0,0,0-8.748-2.509,64.293,64.293,0,0,0-8.414-1.063,60.118,60.118,0,0,0-14.315.978,58.975,58.975,0,0,0-9.351,2.581c-1.092.36-1.9.745-2.47.946a4.522,4.522,0,0,1-.878.3,4.712,4.712,0,0,1,.821-.428c.554-.244,1.347-.67,2.429-1.072a53.335,53.335,0,0,1,9.352-2.812,58.732,58.732,0,0,1,14.444-1.136,63.473,63.473,0,0,1,8.516,1.036,59.879,59.879,0,0,1,8.86,2.525c5.9,2.243,11.2,5.049,16.391,6.6a32.468,32.468,0,0,0,7.5,1.387,35.387,35.387,0,0,0,6.66-.307,77.788,77.788,0,0,0,9.493-2.045l2.56-.683a4.67,4.67,0,0,1,.906-.2" transform="translate(72.527 52.535)" fill="#263238"/>
            <path id="Trazado_119454" data-name="Trazado 119454" d="M252.558,191.5a7.889,7.889,0,0,1-1.79-.192,41.369,41.369,0,0,1-4.774-1.131c-4-1.1-9.262-3.38-15.266-5.156-6.007-1.752-11.814-1.905-15.765-.859a23.818,23.818,0,0,0-6.062,2.6c-.015-.019.1-.127.342-.318a9.538,9.538,0,0,1,1.085-.784,16.411,16.411,0,0,1,4.508-1.979c4.023-1.2,9.987-1.118,16.083.664,6.081,1.8,11.288,4.143,15.221,5.356,1.955.635,3.562,1.073,4.683,1.336a10.287,10.287,0,0,1,1.735.459" transform="translate(71.389 62.499)" fill="#263238"/>
            <g id="Grupo_85688" data-name="Grupo 85688" transform="translate(365.066 171.995)" opacity="0.1">
              <g id="Grupo_85687" data-name="Grupo 85687">
                <g id="Grupo_85686" data-name="Grupo 85686" clip-path="url(#clip-path-4)">
                  <path id="Trazado_119455" data-name="Trazado 119455" d="M280.581,128.188s-17.523,38.622-2.243,63.878l7.162-2.674-6-10.466a11.565,11.565,0,0,1-.2-4.852c.886-5.5,2.588-14.475,4.866-23.53Z" transform="translate(-272.084 -128.188)"/>
                </g>
              </g>
            </g>
            <path id="Trazado_119456" data-name="Trazado 119456" d="M256.614,31.213c8.635,7.533,12.49,19.4,12.773,30.855s-.731,24.456-.456,36.413l17.518-.345c11.586.345,24.7-.871,35.788-1.728a10.771,10.771,0,0,0,5.305-1.359c2.549-1.729,3.121-5.179,3.468-8.241.546-4.818,1.081-9.792-.306-14.438s-5.215-8.921-10.052-9.265c-1.7-.121-3.493.231-5.076-.409a6.383,6.383,0,0,1-3.413-4.679c-.445-1.956-.378-3.994-.676-5.979a16.746,16.746,0,0,0-10.959-13.091c-3.592-1.213-7.928-1.381-10.29-4.347-2.87-3.605-.989-8.823-.837-13.431a17.134,17.134,0,0,0-9.188-15.493,17.135,17.135,0,0,0-17.922,1.811" transform="translate(87.695 1.349)" fill="#263238"/>
            <path id="Trazado_119457" data-name="Trazado 119457" d="M256.714,123.114h0a20.518,20.518,0,0,1-20.5-19.646c-.376-8.822-.684-17.194-.684-17.194S218.7,84.711,217.467,68.059s-.707-55.1-.707-55.1a58.032,58.032,0,0,1,58.653,3.725L278,18.432l-.767,84.35a20.519,20.519,0,0,1-20.518,20.333" transform="translate(74.037 2.3)" fill="#ffbe9d"/>
            <path id="Trazado_119458" data-name="Trazado 119458" d="M223.292,35.967a2.424,2.424,0,1,0-3.429.044,2.422,2.422,0,0,0,3.429-.044" transform="translate(74.886 10.884)" fill="#263238"/>
            <path id="Trazado_119459" data-name="Trazado 119459" d="M217.823,31.789c.278.272,1.837-1.088,4.13-1.24,2.293-.187,4.035.93,4.271.62.117-.14-.176-.643-.937-1.151a5.666,5.666,0,0,0-6.706.5c-.679.615-.894,1.157-.758,1.276" transform="translate(74.426 9.961)" fill="#263238"/>
            <path id="Trazado_119460" data-name="Trazado 119460" d="M237.866,32.291a2.424,2.424,0,1,0,3.379.588,2.426,2.426,0,0,0-3.379-.588" transform="translate(80.936 10.884)" fill="#263238"/>
            <path id="Trazado_119461" data-name="Trazado 119461" d="M236.486,32.171c.279.272,1.838-1.088,4.131-1.24,2.293-.187,4.035.93,4.271.62.115-.14-.177-.643-.938-1.151a5.666,5.666,0,0,0-6.706.5c-.678.615-.892,1.155-.758,1.276" transform="translate(80.804 10.091)" fill="#263238"/>
            <path id="Trazado_119462" data-name="Trazado 119462" d="M231.953,49.893c0-.181-1.433-.38-3.761-.557-.6-.028-1.084-.136-1.147-.456a3.272,3.272,0,0,1,.325-1.746l1.527-4.777c2.1-6.8,3.518-12.4,3.173-12.5s-2.325,5.317-4.424,12.116c-.492,1.66-.963,3.243-1.429,4.807a3.847,3.847,0,0,0-.174,2.516,1.577,1.577,0,0,0,1.094.895,3.856,3.856,0,0,0,1.033.071c2.333-.06,3.78-.186,3.784-.368" transform="translate(77.193 10.202)" fill="#263238"/>
            <path id="Trazado_119463" data-name="Trazado 119463" d="M238.9,46.408c2.3-1.573-6.369,3.9-11.055,3.965,0,0,2.944,4.118,7.641,2.064,4.876-2.133,3.413-6.028,3.413-6.028" transform="translate(77.863 15.763)" fill="#fff"/>
            <path id="Trazado_119464" data-name="Trazado 119464" d="M230.689,67.75a38.829,38.829,0,0,0,21.346-7.515s-4.4,12.31-21.118,11.835Z" transform="translate(78.836 20.585)" fill="#eb996e"/>
            <path id="Trazado_119465" data-name="Trazado 119465" d="M266.959,54.727c-6.034,4.856-13.322-7.71-16.557-15.592s-4.236-16.6-4.705-25.19c-.154-2.816-.178-5.9,1.457-8.118,1.727-2.339,2.323.369,4.381-1.665,3.554-3.514.176-3.529,3.729-3.1,6.079.738,19.328,11.271,20.441,17.643s.212,12.926-.69,19.336q-.616,4.392-1.234,8.783a14.352,14.352,0,0,1-1.735,5.935c-1.122,1.713-3.3,2.83-5.087,1.967" transform="translate(83.941 0.298)" fill="#263238"/>
            <path id="Trazado_119466" data-name="Trazado 119466" d="M261.7,31.441a2.514,2.514,0,0,1,2.406-2.521c3.109-.087,8.2,1.147,8.673,9.729.683,12.259-11.11,9.2-11.15,8.851-.032-.275.039-11.295.071-16.059" transform="translate(89.408 9.882)" fill="#ffbe9d"/>
            <path id="Trazado_119467" data-name="Trazado 119467" d="M263.647,41.68c.051-.043.221.138.592.283a2.14,2.14,0,0,0,1.6-.056c1.269-.547,2.245-2.665,2.182-4.877a7.044,7.044,0,0,0-.769-3.024,2.468,2.468,0,0,0-1.7-1.55,1.088,1.088,0,0,0-1.228.655c-.145.353-.054.593-.118.617-.032.032-.274-.191-.2-.7a1.37,1.37,0,0,1,.44-.794,1.624,1.624,0,0,1,1.163-.378,3.007,3.007,0,0,1,2.337,1.778,7.239,7.239,0,0,1,.93,3.376c.06,2.474-1.076,4.856-2.82,5.468a2.294,2.294,0,0,1-1.971-.216c-.4-.282-.476-.553-.435-.577" transform="translate(90.095 10.884)" fill="#eb996e"/>
            <path id="Trazado_119468" data-name="Trazado 119468" d="M258.141,6.271A39.266,39.266,0,0,1,234.807,31.2c-.945.356-2.1.648-2.891.024-1.022-.8-.627-2.49.227-3.47s2.056-1.669,2.682-2.807l-6.239,3.533a10.032,10.032,0,0,1-3.223,1.355,3.4,3.4,0,0,1-3.2-1.006,2.089,2.089,0,0,1,.429-3.048c-1.407,2.306-5.028,2.526-7.1.789a7.337,7.337,0,0,1-1.952-7.427,15.089,15.089,0,0,1,4.377-6.7C226.552,4.041,239.087,1,251.1.174a38.716,38.716,0,0,1,11.1.482c3.625.812,9.229.514,15.763,7.672" transform="translate(72.881 0)" fill="#263238"/>
            <path id="Trazado_119469" data-name="Trazado 119469" d="M227.3,26.81c-.133.381-2.328-.1-5.026-.031-2.7.038-4.873.612-5.022.236-.162-.33,2-1.582,4.993-1.633,2.995-.072,5.2,1.091,5.056,1.428" transform="translate(74.239 8.673)" fill="#263238"/>
            <path id="Trazado_119470" data-name="Trazado 119470" d="M245.474,27.065c-.137.377-2.25-.086-4.854-.207-2.606-.148-4.755.1-4.852-.294-.109-.354,2.074-1.257,4.923-1.1,2.849.138,4.927,1.26,4.783,1.6" transform="translate(80.57 8.695)" fill="#263238"/>
            <path id="Trazado_119471" data-name="Trazado 119471" d="M268.765,26.459c-.193-.111.466-1.332.935-3.434a14.891,14.891,0,0,0-.444-8.173,14.886,14.886,0,0,0-4.865-6.583c-1.7-1.322-2.984-1.842-2.908-2.052.04-.154,1.487.036,3.468,1.238a13.5,13.5,0,0,1,5.7,15.837c-.762,2.19-1.755,3.258-1.885,3.165" transform="translate(89.358 2.109)" fill="#455a64"/>
            <path id="Trazado_119472" data-name="Trazado 119472" d="M295.576,128.188l9.545,59.475-76.914,28.721,12.442,25.658L321.6,216.756a27.472,27.472,0,0,0,18.847-31.083l-10.335-57.485Z" transform="translate(77.987 43.807)" fill="#ffbe9d"/>
            <path id="Trazado_119473" data-name="Trazado 119473" d="M242.128,195.414s-14.318-4.563-21.182-6.314c-2.675-.682-14.133,5.363-22.046,10.388,0,0-10.9,6.46-10.017,8.452.97,2.191,4.99,1.743,11.4-1.271,0,0-2.235,6.493,2.153,6.353,0,0-2.178,7.017,1.936,7.743s5.081-8.228,8.712-8.712,11.131-.967,11.131-.967,6.247,10.346,11.087,11.072,19.265-.912,19.265-.912Z" transform="translate(64.531 64.605)" fill="#ffbe9d"/>
            <path id="Trazado_119474" data-name="Trazado 119474" d="M209.821,195.914c.1.164-2.331,1.884-5.435,3.841s-5.706,3.413-5.81,3.251,2.331-1.884,5.437-3.841,5.705-3.415,5.808-3.251" transform="translate(67.86 66.947)" fill="#eb996e"/>
            <path id="Trazado_119475" data-name="Trazado 119475" d="M211.306,198.888c.081.176-2.873,1.711-6.6,3.43s-6.809,2.971-6.89,2.8,2.874-1.711,6.6-3.431,6.809-2.969,6.888-2.795" transform="translate(67.602 67.962)" fill="#eb996e"/>
            <path id="Trazado_119476" data-name="Trazado 119476" d="M208.579,206.114c.027.192-2.029.631-4.59.982s-4.66.48-4.687.288,2.029-.631,4.591-.981,4.659-.48,4.685-.29" transform="translate(68.109 70.407)" fill="#eb996e"/>
          </g>
        </g>
      </g>
    </g>
  </g>
</svg>
