<svg id="revisar" xmlns="http://www.w3.org/2000/svg" width="93.34" height="93.5" viewBox="0 0 93.34 93.5">
  <g id="Grupo_85700" data-name="Grupo 85700" transform="translate(1.75 1.715)">
    <path id="Trazado_119486" data-name="Trazado 119486" d="M57.59,57.635a21.68,21.68,0,0,0,25.79,34.32c.01,0,.02,0,.02-.01v11.52a5.992,5.992,0,0,1-6,6H25.08a6,6,0,0,1-6-6v-78a6,6,0,0,1,6-6H64.23L83.4,38.635v15.35a21.7,21.7,0,0,0-25.81,3.65Z" transform="translate(-19.08 -19.465)" fill="#eecf52"/>
    <path id="Trazado_119487" data-name="Trazado 119487" d="M83.406,38.637H70.239a6,6,0,0,1-6-6V19.47Z" transform="translate(-19.08 -19.465)" fill="#13b770"/>
    <path id="Trazado_119488" data-name="Trazado 119488" d="M91.91,83.425a21.7,21.7,0,0,1-8.51,8.52c0,.01-.01.01-.02.01a21.68,21.68,0,1,1,8.53-8.53Z" transform="translate(-19.08 -19.465)" fill="#79dfef"/>
    <path id="Trazado_119489" data-name="Trazado 119489" d="M107.15,107.2a6.023,6.023,0,0,1-8.53,0L83.4,91.985l-.02-.03c.01,0,.02,0,.02-.01a21.7,21.7,0,0,0,8.51-8.52l15.24,15.24a6.023,6.023,0,0,1,0,8.535Z" transform="translate(-19.08 -19.465)" fill="#13b770"/>
    <g id="Grupo_85699" data-name="Grupo 85699" transform="translate(11.17 12.135)">
      <g id="Grupo_85698" data-name="Grupo 85698">
        <path id="Trazado_119490" data-name="Trazado 119490" d="M54.067,46.907H32a1.75,1.75,0,0,0,0,3.5H54.067a1.75,1.75,0,1,0,0-3.5Z" transform="translate(-30.25 -31.6)" fill="#fff8cd"/>
        <path id="Trazado_119491" data-name="Trazado 119491" d="M32,65.715H42.29a1.75,1.75,0,1,0,0-3.5H32a1.75,1.75,0,0,0,0,3.5Z" transform="translate(-30.25 -31.6)" fill="#fff8cd"/>
        <path id="Trazado_119492" data-name="Trazado 119492" d="M32,35.1H51.245a1.75,1.75,0,1,0,0-3.5H32a1.75,1.75,0,0,0,0,3.5Z" transform="translate(-30.25 -31.6)" fill="#fff8cd"/>
        <path id="Trazado_119493" data-name="Trazado 119493" d="M32,81.024H42.29a1.75,1.75,0,1,0,0-3.5H32a1.75,1.75,0,0,0,0,3.5Z" transform="translate(-30.25 -31.6)" fill="#fff8cd"/>
        <path id="Trazado_119494" data-name="Trazado 119494" d="M51.245,92.833H32a1.75,1.75,0,0,0,0,3.5H51.245a1.75,1.75,0,1,0,0-3.5Z" transform="translate(-30.25 -31.6)" fill="#fff8cd"/>
      </g>
      <path id="Trazado_119495" data-name="Trazado 119495" d="M72.923,61.725l3.525,7.144,7.883,1.145-5.7,5.56,1.347,7.851-7.051-3.706-7.051,3.706,1.347-7.851-5.7-5.56L69.4,68.869Z" transform="translate(-30.25 -31.6)" fill="#fff8cd"/>
    </g>
  </g>
  <g id="Grupo_85701" data-name="Grupo 85701">
    <path id="Trazado_119496" data-name="Trazado 119496" d="M19.08,83.54a1.75,1.75,0,0,0,1.75-1.75V76.82a1.75,1.75,0,1,0-3.5,0v4.97a1.75,1.75,0,0,0,1.75,1.75Z" transform="translate(-17.33 -17.75)"/>
    <path id="Trazado_119497" data-name="Trazado 119497" d="M108.388,97.463,94.037,83.112A23.347,23.347,0,0,0,85.15,53.03V38.67a1.686,1.686,0,0,0-.021-.214,1.777,1.777,0,0,0-.043-.229,1.7,1.7,0,0,0-.1-.293,1.639,1.639,0,0,0-.083-.154,1.7,1.7,0,0,0-.216-.292c-.015-.016-.023-.037-.039-.053L65.477,18.268c-.009-.009-.02-.013-.029-.022a1.744,1.744,0,0,0-.345-.254c-.031-.018-.062-.034-.094-.05a1.735,1.735,0,0,0-.779-.192H25.08a7.759,7.759,0,0,0-7.75,7.75V67.71a1.75,1.75,0,0,0,3.5,0V25.5a4.255,4.255,0,0,1,4.25-4.25H62.489V32.672a7.759,7.759,0,0,0,7.75,7.75H81.65V51.279a23.4,23.4,0,1,0,0,43.457V103.5a4.254,4.254,0,0,1-4.25,4.25H25.08a4.255,4.255,0,0,1-4.25-4.25V90.91a1.75,1.75,0,0,0-3.5,0V103.5a7.759,7.759,0,0,0,7.75,7.75H77.4a7.759,7.759,0,0,0,7.75-7.75V96.242l12.233,12.226a7.735,7.735,0,0,0,5.506,2.282h.008a7.782,7.782,0,0,0,5.491-13.287Zm-42.4-64.791V23.734l13.19,13.188H70.239a4.254,4.254,0,0,1-4.25-4.25Zm-7.16,54.422A19.932,19.932,0,1,1,82.6,90.423c-.02.009-.039.02-.059.03a20.037,20.037,0,0,1-23.709-3.359ZM105.91,106a4.231,4.231,0,0,1-3.016,1.255h0A4.259,4.259,0,0,1,99.857,106L86.167,92.31a22.737,22.737,0,0,0,6.06-6.058l13.686,13.686a4.273,4.273,0,0,1,0,6.057Z" transform="translate(-17.33 -17.75)"/>
    <path id="Trazado_119498" data-name="Trazado 119498" d="M32,50.441H54.067a1.75,1.75,0,1,0,0-3.5H32a1.75,1.75,0,0,0,0,3.5Z" transform="translate(-17.33 -17.75)"/>
    <path id="Trazado_119499" data-name="Trazado 119499" d="M32,65.75H42.29a1.75,1.75,0,1,0,0-3.5H32a1.75,1.75,0,0,0,0,3.5Z" transform="translate(-17.33 -17.75)"/>
    <path id="Trazado_119500" data-name="Trazado 119500" d="M32,35.133H51.245a1.75,1.75,0,0,0,0-3.5H32a1.75,1.75,0,1,0,0,3.5Z" transform="translate(-17.33 -17.75)"/>
    <path id="Trazado_119501" data-name="Trazado 119501" d="M32,81.059H42.29a1.75,1.75,0,1,0,0-3.5H32a1.75,1.75,0,0,0,0,3.5Z" transform="translate(-17.33 -17.75)"/>
    <path id="Trazado_119502" data-name="Trazado 119502" d="M32,96.367H51.245a1.75,1.75,0,0,0,0-3.5H32a1.75,1.75,0,0,0,0,3.5Z" transform="translate(-17.33 -17.75)"/>
    <path id="Trazado_119503" data-name="Trazado 119503" d="M80.507,76.22l5.046-4.92a1.751,1.751,0,0,0-.97-2.985L77.61,67.3l-3.118-6.319a1.751,1.751,0,0,0-3.139,0L68.235,67.3l-6.972,1.013a1.75,1.75,0,0,0-.97,2.985l5.046,4.918L64.147,83.16a1.75,1.75,0,0,0,2.539,1.845l6.237-3.279,6.236,3.279A1.75,1.75,0,0,0,81.7,83.164Zm-3.1-1.865a1.753,1.753,0,0,0-.5,1.549l.747,4.357L73.737,78.2a1.751,1.751,0,0,0-1.629,0L68.2,80.261l.747-4.357a1.75,1.75,0,0,0-.5-1.549l-3.165-3.084,4.374-.636a1.75,1.75,0,0,0,1.318-.957l1.956-3.964,1.956,3.964a1.75,1.75,0,0,0,1.317.957l4.374.636Z" transform="translate(-17.33 -17.75)"/>
  </g>
</svg>
