<svg xmlns="http://www.w3.org/2000/svg" width="295" height="180" viewBox="0 0 295 180">
  <g id="Grupo_86066" data-name="Grupo 86066" transform="translate(-1020 -7232)">
    <rect id="Rectángulo_36568" data-name="Rectángulo 36568" width="295" height="180" transform="translate(1020 7232)" fill="#e5fff4"/>
    <g id="conversacion" transform="translate(1105 7259.04)">
      <path id="Trazado_119521" data-name="Trazado 119521" d="M73.56,184H23.817A13.817,13.817,0,0,0,10,197.817v35.465A13.817,13.817,0,0,0,23.817,247.1H38.781l-.207.018,10.115,10.115L48.7,247.1H73.56a13.817,13.817,0,0,0,13.817-13.817V197.817A13.817,13.817,0,0,0,73.56,184Z" transform="translate(-7.697 -141.627)" fill="#79dfef"/>
      <path id="Trazado_119522" data-name="Trazado 119522" d="M40.992,251.838a2.3,2.3,0,0,1-1.629-.675l-9.458-9.458H16.12A16.139,16.139,0,0,1,0,225.585V190.12A16.139,16.139,0,0,1,16.12,174H39.38a2.3,2.3,0,1,1,0,4.606H16.12A11.528,11.528,0,0,0,4.606,190.12v35.465A11.528,11.528,0,0,0,16.12,237.1H31.084a2.3,2.3,0,0,1,2.112,1.384l5.5,5.5,0-4.579a2.3,2.3,0,0,1,2.3-2.3H65.863a11.528,11.528,0,0,0,11.515-11.515V209.7a2.3,2.3,0,1,1,4.606,0v15.89a16.139,16.139,0,0,1-16.12,16.12H43.3l-.006,7.831a2.3,2.3,0,0,1-2.3,2.3Z" transform="translate(0 -133.929)"/>
      <path id="Trazado_119523" data-name="Trazado 119523" d="M243,10h-5.828A31.169,31.169,0,0,0,206,41.169h0a31.169,31.169,0,0,0,31.169,31.169H243a31.161,31.161,0,0,0,9.167-1.371l9.566,9.561V66.081a31.12,31.12,0,0,0,12.436-24.912h0A31.169,31.169,0,0,0,243,10Z" transform="translate(-158.56 -7.697)" fill="#eecf52"/>
      <path id="Trazado_119524" data-name="Trazado 119524" d="M254.034,75.133a2.3,2.3,0,0,1-1.628-.674l-8.61-8.605a33.536,33.536,0,0,1-8.5,1.089h-5.828a33.472,33.472,0,0,1,0-66.943H235.3a33.51,33.51,0,0,1,33.472,33.472,33.111,33.111,0,0,1-3.637,15.188,33.792,33.792,0,0,1-8.8,10.847V72.83a2.3,2.3,0,0,1-2.3,2.3Zm-9.567-14.167a2.3,2.3,0,0,1,1.628.674l5.635,5.632V58.384a2.3,2.3,0,0,1,.917-1.84A28.866,28.866,0,0,0,235.3,4.606h-5.828a28.866,28.866,0,0,0,0,57.732H235.3a28.873,28.873,0,0,0,8.49-1.269A2.3,2.3,0,0,1,244.467,60.967Z" transform="translate(-150.863 0)"/>
      <path id="Trazado_119525" data-name="Trazado 119525" d="M324.212,96.941a2.3,2.3,0,0,1-2.3-2.3V89.1a4.358,4.358,0,0,1,3.433-4.272,5.145,5.145,0,1,0-6.275-5.02,2.3,2.3,0,1,1-4.606,0,9.785,9.785,0,0,1,3.1-7.128,9.675,9.675,0,0,1,7.338-2.6,9.751,9.751,0,0,1,1.617,19.2v5.349A2.3,2.3,0,0,1,324.212,96.941Z" transform="translate(-242.044 -53.928)"/>
      <path id="Trazado_119526" data-name="Trazado 119526" d="M349.1,210.936a2.3,2.3,0,1,1,1.628-.672A2.318,2.318,0,0,1,349.1,210.936Z" transform="translate(-266.935 -158.814)"/>
      <path id="Trazado_119527" data-name="Trazado 119527" d="M104.894,314.606H56.3a2.3,2.3,0,1,1,0-4.606h48.591a2.3,2.3,0,1,1,0,4.606Z" transform="translate(-41.564 -238.61)"/>
      <path id="Trazado_119528" data-name="Trazado 119528" d="M267.3,370.606a2.3,2.3,0,1,1,1.628-.675A2.32,2.32,0,0,1,267.3,370.606Z" transform="translate(-203.973 -281.714)"/>
      <path id="Trazado_119529" data-name="Trazado 119529" d="M95.836,370.606H56.3a2.3,2.3,0,1,1,0-4.606H95.836a2.3,2.3,0,1,1,0,4.606Z" transform="translate(-41.564 -281.714)"/>
      <path id="Trazado_119530" data-name="Trazado 119530" d="M89.925,258.606H56.3a2.3,2.3,0,0,1,0-4.606H89.925a2.3,2.3,0,0,1,0,4.606Z" transform="translate(-41.564 -195.506)"/>
    </g>
  </g>
</svg>
