<svg id="Grupo_86067" data-name="Grupo 86067" xmlns="http://www.w3.org/2000/svg" xmlns:xlink="http://www.w3.org/1999/xlink" width="573.006" height="382.691" viewBox="0 0 573.006 382.691">
  <defs>
    <clipPath id="clip-path">
      <rect id="Rectángulo_35041" data-name="Rectángulo 35041" width="573.006" height="382.691" fill="none"/>
    </clipPath>
    <clipPath id="clip-path-2">
      <path id="Trazado_115978" data-name="Trazado 115978" d="M20,95.23a71.85,71.85,0,0,0,143.7,0c0-39.682-32.168-85.8-71.85-85.8S20,55.548,20,95.23" fill="none"/>
    </clipPath>
  </defs>
  <g id="Grupo_82609" data-name="Grupo 82609">
    <g id="Grupo_82608" data-name="Grupo 82608" clip-path="url(#clip-path)">
      <path id="Trazado_115851" data-name="Trazado 115851" d="M320.313,296.734c-5.684,6.749-10.835,17.939-14.032,19.716s-8.588,2.393-13.682,18.79,20.624,14.152,20.624,14.152,11-6.315,15.438-21.575l11.012-9.769Z" fill="#f6a397"/>
      <path id="Trazado_115852" data-name="Trazado 115852" d="M300.418,347.594A41.239,41.239,0,0,0,315.8,337.426c7.088-7.486,8-20.8,8-20.8l3.4,6.343,6.789-7.257,3.273-.317,2.413,2.657-11.013,9.769c-4.44,15.259-15.437,21.575-15.437,21.575a40.883,40.883,0,0,1-13.088-1.171c.155-.388.282-.627.282-.627" fill="#d65863"/>
      <path id="Trazado_115853" data-name="Trazado 115853" d="M358.871,238c-7.878,5.759-12.578,9.938-16.495,17.772s-28.465,35.98-30.032,38.489,13.8,29.147,26.092,35.675c0,0,18.564-21.414,29.27-29.509s7.051-36.821,2.09-46.483A75.435,75.435,0,0,0,358.871,238" fill="#5470d3"/>
      <path id="Trazado_115854" data-name="Trazado 115854" d="M358.584,289.835V273.846s2.084-.835,3.71,4.562a14.815,14.815,0,0,1,.309,6.383l11.952-8.989c.495,10.063-1.121,20.3-6.849,24.629-10.706,8.1-29.27,29.509-29.27,29.509-3.172-1.684-6.547-4.711-9.784-8.312,7.558-7.526,21.9-22.055,29.932-31.793" fill="#314ec6"/>
      <path id="Trazado_115855" data-name="Trazado 115855" d="M282.216,343.077c-2.044.638-3.554,1.615-3.554,4.19s.444,6.661,1.421,8.259,6.021,2.557,6.021,2.557-.337-10.638-1.4-12.592a4.974,4.974,0,0,0-2.485-2.414" fill="#f6a397"/>
      <path id="Trazado_115856" data-name="Trazado 115856" d="M280.082,355.526a7.114,7.114,0,0,1-.7-1.861,3.442,3.442,0,0,0,2.8,1.226l3.831,1.194c.058,1.2.084,2,.084,2s-5.045-.958-6.022-2.557" fill="#d65863"/>
      <path id="Trazado_115857" data-name="Trazado 115857" d="M287.1,339.185c-2.487.266-4.973,2.131-4.973,4.707s-.888,9.769,0,10.923,5.239,4.441,6.749,4.707,4.074-.177,3.724-.977-5.5-19.36-5.5-19.36" fill="#f6a397"/>
      <path id="Trazado_115858" data-name="Trazado 115858" d="M281.748,352.882c1.886,2.128,6.707,1.937,6.707,1.937a19.231,19.231,0,0,1,2.38,2.99c.158.439,1.025,1.017,1.144,1.464a6.8,6.8,0,0,1-3.1.249c-1.48-.261-5.683-3.42-6.685-4.632l-.442-2v-.005" fill="#d65863"/>
      <path id="Trazado_115859" data-name="Trazado 115859" d="M296.416,334.936c-7.63.43-9.051,1.14-9.317,4.249s-.089,12.167.888,14.476,1.51,4.351,2.753,5.6a4.865,4.865,0,0,0,3.1,1.248s4.179-6.133,4.357-11.284-1.784-14.284-1.784-14.284" fill="#f6a397"/>
      <path id="Trazado_115860" data-name="Trazado 115860" d="M292.027,355.4a46.294,46.294,0,0,0,1.354-11.417c.041-2.653,2.5,11.2,1.4,15-.547.943-.94,1.521-.94,1.521a4.858,4.858,0,0,1-3.1-1.248c-1.244-1.243-1.777-3.286-2.753-5.6a4.433,4.433,0,0,1-.181-.535c.5,1.295,2.08,2.145,4.221,2.276" fill="#d65863"/>
      <path id="Trazado_115861" data-name="Trazado 115861" d="M313.12,350.552c-.48,4.244-6.039,5.773-6.661,7.9s-.177,4.085-1.243,4.618-5.506-1.954-5.329-4.8a5.529,5.529,0,0,1-3.73,2.841c-2.575.444-3.2-1.437-2.753-4.271a36.127,36.127,0,0,0,.267-7.718c-.089-3.375-.888-6.483.621-10.213s3.553-7.016,7.638-6.394,6.572,5.772,8.792,7.548,2.931,5.773,2.4,10.48" fill="#f6a397"/>
      <path id="Trazado_115862" data-name="Trazado 115862" d="M299.887,358.279c.249-5.4.531-9.814.531-10.685s-.282-6.6,1.754-6.947c.31-.053,4.788,2.786,4.875,4.7s0,5.353-1.393,6.332-5.767,6.6-5.767,6.6" fill="#d65863"/>
      <path id="Trazado_115863" data-name="Trazado 115863" d="M484.959,249.509c-8.1-10.272-10.881-11.316-19.237-16.191s-40.042-17.235-46.571-18.8-32.859,10.707-41.5,14.624-19.633,7.771-21.507,11.589c-6.27,12.779,6.148,30.89,6.214,68.843.034,19.877,4.564,64.577,4.564,64.577s99.495.186,100.888-1.9,4.874-73.468,6.615-88.092,10.533-34.645,10.533-34.645" fill="#05339e"/>
      <path id="Trazado_115864" data-name="Trazado 115864" d="M356.511,260.738a49.417,49.417,0,0,1-1.561-7.306,48.888,48.888,0,0,1-.572-7.448,48.869,48.869,0,0,1,1.561,7.305,49.412,49.412,0,0,1,.572,7.449" fill="#314ec6"/>
      <path id="Trazado_115865" data-name="Trazado 115865" d="M393.717,245.787c-3.844-1.436-12.952,1.061-14.617,1.641s.98-6.537,1.959-7.419,2.546-2.933,5.549-2.005,5.528,4.367,5.963,5.5a16.085,16.085,0,0,0,1.146,2.285" fill="#314ec6"/>
      <path id="Trazado_115866" data-name="Trazado 115866" d="M425.747,251.729c-1.371-.065-9.368-3.743-11.283-4.657s-10.591-1.341-16.416.287c0,0,11.214-7.577,17.743-7.512s9.009,2.416,9.532,4.505a43.347,43.347,0,0,1,.424,7.377" fill="#314ec6"/>
      <path id="Trazado_115867" data-name="Trazado 115867" d="M382.976,358.144c1.068-1.045,66.045,1.045,67.351-5.745s2.2-19.138,2.2-19.138c-7.822,4.178-19.178,2.439-19.178,2.439,7.573-2.473,18.541-14.9,19.063-18.555,1.609-11.263-4.408-42.314-4.408-42.314l4.408-8.87,5.158-2.873a71.609,71.609,0,0,1,18.144,13.831,70.353,70.353,0,0,0-1.291,7.235c-1.642,13.787-4.83,78.012-6.357,87.066-20.125.742-56.608,2.078-81.02,2.916-11.828.028-20.127.013-20.127.013s-.153-5.879-.508-14.311c6.81-.4,15.9-1.046,16.561-1.694" fill="#314ec6"/>
      <path id="Trazado_115868" data-name="Trazado 115868" d="M396.171,247.681c7.011-.845,18.28-6.92,22.719-4.831s5.484,7.442,6.4,8.356,4.831-3.656,4.831-14.885.345-22.727-7.923-24.29-29.681,6.533-33.99,9.8a20.341,20.341,0,0,0-7.312,9.748c-1.175,3.178-4.309,15.974-2.872,16.1s5.484-8.226,8.487-8.487,7.763,8.716,9.662,8.487" fill="#5470d3"/>
      <path id="Trazado_115869" data-name="Trazado 115869" d="M392.182,237.627c-1.788-4.243-3.746-7.965-3.681-10.9s.718-4.961,3.983-5.875,4.635.848,4.831,5.288-5.133,11.49-5.133,11.49" fill="#314ec6"/>
      <path id="Trazado_115870" data-name="Trazado 115870" d="M417.778,229.716c6.825-6.191,7.6-13.111,6.957-14.547s-3.46-2.481-3.46-2.481-1.11,4.5-.457,5.615-3.04,11.413-3.04,11.413" fill="#314ec6"/>
      <path id="Trazado_115871" data-name="Trazado 115871" d="M406.914,244.682a34.864,34.864,0,0,1,5.167-1.81,18.188,18.188,0,0,1,5.5-.654,4.941,4.941,0,0,1,2.779.937,27.836,27.836,0,0,1,1.928,2.042,20.889,20.889,0,0,1,2.888,4.738,2.382,2.382,0,0,0,.571.848c.014,0,.008.028.149-.061a2.038,2.038,0,0,0,.381-.381,14.6,14.6,0,0,0,1.332-2.256,18.53,18.53,0,0,0,1.613-5.059,44.988,44.988,0,0,0,.662-5.374c.156-1.807.208-3.623.232-5.444a46.511,46.511,0,0,1-.137,10.945,17.628,17.628,0,0,1-1.521,5.35,14.32,14.32,0,0,1-1.417,2.446,2.981,2.981,0,0,1-.582.579,1.34,1.34,0,0,1-.485.224,1.032,1.032,0,0,1-.642-.072,1.75,1.75,0,0,1-.683-.651,6.485,6.485,0,0,1-.365-.643,20.45,20.45,0,0,0-2.723-4.584c-.55-.668-1.194-1.406-1.76-1.974a4.477,4.477,0,0,0-2.3-.845,17.819,17.819,0,0,0-5.319.367,44.057,44.057,0,0,0-5.274,1.332" fill="#314ec6"/>
      <path id="Trazado_115872" data-name="Trazado 115872" d="M390.838,242.34a23.1,23.1,0,0,0-2.33-1.894,7.419,7.419,0,0,0-1.248-.728,2.8,2.8,0,0,0-.619-.172,1.39,1.39,0,0,0-.246.023,1.222,1.222,0,0,0-.225.117,13.771,13.771,0,0,0-4.107,4.1c-.566.788-1.06,1.689-1.728,2.507a7.166,7.166,0,0,1-1.139,1.146,1.8,1.8,0,0,1-.894.4.874.874,0,0,1-.654-.206,1.092,1.092,0,0,1-.306-.484,4.063,4.063,0,0,1-.077-1.656,14.72,14.72,0,0,1,.272-1.516,27.2,27.2,0,0,1,.882-2.909c-.136,1-.316,1.993-.4,2.99-.056.495-.094.991-.1,1.478a3.783,3.783,0,0,0,.151,1.333.306.306,0,0,0,.1.142c.025,0,0,.008.05-.007a1.154,1.154,0,0,0,.44-.258,6.282,6.282,0,0,0,.933-1.04c.589-.759,1.061-1.635,1.653-2.493a16.379,16.379,0,0,1,2-2.375,11.442,11.442,0,0,1,2.529-1.818,1.978,1.978,0,0,1,.464-.182,1.922,1.922,0,0,1,.5-.005,2.972,2.972,0,0,1,.81.3,7.547,7.547,0,0,1,1.266.934,16.025,16.025,0,0,1,2.027,2.275" fill="#314ec6"/>
      <path id="Trazado_115873" data-name="Trazado 115873" d="M391.224,212.121c.016,2.759.125,5.51.412,8.255.7,6.732.014,15.612.546,17.251.594,1.828,4.12,8.357,4.12,8.357s6.267-2.873,8.879-6.007,6.006-3.292,10.576-7.913,7.677-11.961,6.659-18.07c-.131-.784-.933-8.6-1.11-16.7s-8.683-14.246-16.778-14.246-12.942,12.013-13.2,20.108c-.1,3.322-.123,6.441-.109,8.965" fill="#f6a397"/>
      <path id="Trazado_115874" data-name="Trazado 115874" d="M421.306,197.294c.177,8.1.979,15.916,1.11,16.7a16.57,16.57,0,0,1-.162,5.9c-1.791.331-24.847.887-30.82-1.894-.137-1.956-.2-3.916-.21-5.88-.014-2.524,0-5.643.109-8.965a30.507,30.507,0,0,1,2.7-11.191L413,185.243c4.655,2.484,8.2,6.863,8.309,12.051" fill="#d65863"/>
      <path id="Trazado_115875" data-name="Trazado 115875" d="M377.022,163.586c-12.25,0-16.834,9.409-16.834,16.461,0,6.329,2.029,16.462,16.834,16.462,7.4,0,12.414-7.37,12.414-16.462s-5.011-16.461-12.414-16.461" fill="#eecf52"/>
      <path id="Trazado_115876" data-name="Trazado 115876" d="M376.481,167.617c-9.25,0-12.712,7.1-12.712,12.43,0,4.78,1.532,12.431,12.712,12.431,5.59,0,9.374-5.565,9.374-12.431s-3.784-12.43-9.374-12.43" fill="#372d5b"/>
      <path id="Trazado_115877" data-name="Trazado 115877" d="M361.567,169.142c.724,4.292,2.848,5.933,3.8,11.719s-1.582,14.2,2.193,21.518,9.877,16.952,13.4,17.359,31.767-4.363,41.3-23.312c2.734-5.439,8.58-26.768,3.578-39.791s-13.139-24.958-31.945-25.319-36.157,15.078-32.322,37.826" fill="#f6a397"/>
      <path id="Trazado_115878" data-name="Trazado 115878" d="M377.3,192.6a3.313,3.313,0,0,0,2.6-1.019,2.66,2.66,0,0,0,.487-2.046,6.058,6.058,0,0,1-5.083,1.1c-.223,1.35.818,1.934,1.993,1.961" fill="#d65863"/>
      <path id="Trazado_115879" data-name="Trazado 115879" d="M410.563,169.142a12.6,12.6,0,0,0-3.7-7.041s-7.187-2.984-12.748-3.526a73.3,73.3,0,0,1-11.256-2.17s1.763,4.464,4.747,6.368c0,0-13.291-.672-17.495-4.6,0,0,.814,3.241,1.627,5.418,0,0-6.509-.671-8.543-3.248,0,0-1.628,5.674-1.628,8.8,0,0-7.82-10.7-5.831-19.2s4.7-11.754,4.7-11.754a43.175,43.175,0,0,1-8.679,0s7.232-6.329,12.657-10.488,21.7-4.339,21.7-4.339-1.266-4.34.181-11.211c0,0,6.961,10.216,14.33,13.335s6.376,2.855,14.189,4.826,15.24,6.973,18.359,11.177,6.51,8.544,8.544,9.222c0,0-4.882-.678-7.324-2.712,0,0,4.071,9.245-1.309,21.145s-18.86,8.379-21.474,5.752a5.115,5.115,0,0,1-1.047-5.752" fill="#2e2e2e"/>
      <path id="Trazado_115880" data-name="Trazado 115880" d="M411.609,174.894a5.115,5.115,0,0,1-1.047-5.752,12.733,12.733,0,0,0-2.624-5.872,79.326,79.326,0,0,0-2.315-35.675,40.71,40.71,0,0,0,6.174,1.95,66.894,66.894,0,0,1,8.164,17.718c2.365,7.876,3.511,16.385,1.3,24.307a26.568,26.568,0,0,1-2.434,5.867c-3.345-.28-6.168-1.484-7.222-2.543"/>
      <path id="Trazado_115881" data-name="Trazado 115881" d="M415.29,164.722s.93-29.744-14.666-39.238A20.339,20.339,0,0,1,419.61,136.2c6.917,12.07,6.449,22.422,6.275,28.224s-10.6.3-10.6.3" fill="#eecf52"/>
      <path id="Trazado_115882" data-name="Trazado 115882" d="M420.046,163.586c12.25,0,16.834,9.409,16.834,16.461,0,6.329-2.029,16.462-16.834,16.462-7.4,0-12.414-7.37-12.414-16.462s5.011-16.461,12.414-16.461" fill="#eecf52"/>
      <path id="Trazado_115883" data-name="Trazado 115883" d="M413.442,180.047c0-8.071,5.328-14.614,11.9-14.614s11.538,6.543,11.538,14.614-4.966,14.614-11.538,14.614-11.9-6.543-11.9-14.614" fill="#f7ebbb"/>
      <path id="Trazado_115884" data-name="Trazado 115884" d="M418.814,180.047c0-5.493,3.626-9.945,8.1-9.945s8.1,4.452,8.1,9.945-3.626,9.945-8.1,9.945-8.1-4.452-8.1-9.945" fill="#c3b682"/>
      <path id="Trazado_115885" data-name="Trazado 115885" d="M389,196.509c-3.31,1.823-14.123,2.43-14.859,2.329s.775,8.109,3.423,8.413,7.944-.405,10.151-2.532,1.285-8.21,1.285-8.21" fill="#d65863"/>
      <path id="Trazado_115886" data-name="Trazado 115886" d="M388.3,198.9c-.2-.728-.363-1.313-.517-1.882-3.642,1.244-10.811,1.769-13.021,1.823a15.175,15.175,0,0,0,.944,3.3c.07-.045-.018.106.052.06a16.111,16.111,0,0,0,12.542-3.3" fill="#fff"/>
      <path id="Trazado_115887" data-name="Trazado 115887" d="M387.537,176.883c0-1.5.739-2.712,1.65-2.712s1.65,1.214,1.65,2.712-.739,2.712-1.65,2.712-1.65-1.214-1.65-2.712" fill="#3f1751"/>
      <path id="Trazado_115888" data-name="Trazado 115888" d="M368.657,178.149c0-1.5.635-2.712,1.419-2.712s1.418,1.214,1.418,2.712-.635,2.712-1.418,2.712-1.419-1.214-1.419-2.712" fill="#3f1751"/>
      <path id="Trazado_115889" data-name="Trazado 115889" d="M396.775,166.309a17.294,17.294,0,0,0-7.453-1.987,9.6,9.6,0,0,0-3.961.388A7.28,7.28,0,0,0,382.087,167l.1.162c1.362-.147,2.487-.481,3.675-.638,1.162-.175,2.288-.6,3.5-.7a21.009,21.009,0,0,1,7.338.655Z" fill="#3f1751"/>
      <path id="Trazado_115890" data-name="Trazado 115890" d="M363.885,169.814a7.442,7.442,0,0,1,1.824-.443,15.378,15.378,0,0,1,1.837-.12,8.073,8.073,0,0,0,1.82.065,5.367,5.367,0,0,0,.924-.257,3.77,3.77,0,0,0,.986-.491l.02-.187a3.551,3.551,0,0,0-1.936-.946,4.6,4.6,0,0,0-2.021.326,9.428,9.428,0,0,0-1.919.716,6.252,6.252,0,0,0-1.651,1.189Z" fill="#3f1751"/>
      <path id="Trazado_115891" data-name="Trazado 115891" d="M382.976,364.579c.008.42-.58,1.028-2.016,1.028H335.673c-5.222,0-6.441-2.066-4.874-4.677s8.182-8.357,24.547-12.361,24.97,5.358,27.63,9.575c1.951,3.093,0,6.435,0,6.435" fill="#504984"/>
      <path id="Trazado_115892" data-name="Trazado 115892" d="M330.413,361.714c.9,3,35.456,1.434,35.456,1.434s-3.5-4.733-7.377-4.869-5.757,1.211-10.952,2.105-1.343-2.114-1.343-2.114-3.67-.813-5.165-1.971c0,0,8.56-2.529,12.15-3.116s12.731-.2,13.906,0c.831.138,5.049-2.311,10.146-1.082a22.828,22.828,0,0,1,5.742,6.043c1.951,3.093,0,6.435,0,6.435.007.42-.58,1.028-2.016,1.028H335.673c-4.686,0-6.141-1.665-5.26-3.893" fill="#372d5b"/>
      <path id="Trazado_115893" data-name="Trazado 115893" d="M478.213,336.265s-32.205,4.98-49.661,8.1c-16.536,2.959-30.814,4.243-34.862,3.46s-17.888-5.876-22.328-7.7-13.318-2.872-17.888-1.436-8.313,3-10.141,3-1.48,2.96.957,3.569a18.28,18.28,0,0,0,4.614.522s-8.269,4.527-9.749,4.962.273,3.134,2.275,2.96c0,0-1.753,1.044-1.144,2.089s4.962,1.044,4.962,1.044-5.31,2.612-.87,3.656,9.749-3.917,11.925-4.352,7.225-.174,9.662,1.654,12.883,10.271,27.159,5.223c0,0,96.9,3.926,106.558,3.926s15.5-8.54,12.4-24.992a124.9,124.9,0,0,0-9.1-28.725l-33.426,2.35Z" fill="#f6a397"/>
      <path id="Trazado_115894" data-name="Trazado 115894" d="M356.533,343.168a13.02,13.02,0,0,1,1.959-.344s-.827.143-1.959.344" fill="#d65863"/>
      <path id="Trazado_115895" data-name="Trazado 115895" d="M348.9,345.783a18.271,18.271,0,0,1-4.613-.522,2.905,2.905,0,0,1-1.553-.956c2.711,1.2,6.048.433,7.875,0,1.153-.274,3.985-.791,5.92-1.135a45.239,45.239,0,0,0-7.629,2.615" fill="#d65863"/>
      <path id="Trazado_115896" data-name="Trazado 115896" d="M349.33,349.7a5.133,5.133,0,0,1,.5-.2l-.5.2" fill="#d65863"/>
      <path id="Trazado_115897" data-name="Trazado 115897" d="M339.172,352.684c.031.028.987.87,3-.005,1.676-.729,5.743-2.4,7.159-2.978-1.782.809-6.614,3.536-7.9,4a2.8,2.8,0,0,1-2.259-1.021" fill="#d65863"/>
      <path id="Trazado_115898" data-name="Trazado 115898" d="M344.173,355.881c1.48-.435,4.57-2.307,6.463-3.2a13.022,13.022,0,0,1,4.309-1,9.142,9.142,0,0,0-2.611,1c-1.894.933-7.085,4.159-7.085,4.159a15.989,15.989,0,0,1-4.217-.54,12.4,12.4,0,0,0,3.141-.418" fill="#d65863"/>
      <path id="Trazado_115899" data-name="Trazado 115899" d="M371.723,358.013c2.742,1.7,10.837,3.917,15.668,3a7.36,7.36,0,0,0,5.876-4.961l1.349,4.352s67.2,1.915,80.867,1.3c13.51-.608,34.581-.915,37.333-9.029-.755,9.418-5.857,14.266-13.134,14.266-9.662,0-106.558-3.927-106.558-3.927-14.276,5.049-24.721-3.4-27.159-5.223-2.026-1.519-5.852-1.954-8.337-1.808,3.708-1.3,11.353.329,14.1,2.026" fill="#d65863"/>
      <path id="Trazado_115900" data-name="Trazado 115900" d="M478.213,336.265s12.59-1.711,15.115-1.972l-1.915-7.834-15.93,3.221Z" fill="#d65863"/>
      <path id="Trazado_115901" data-name="Trazado 115901" d="M511.861,314.335a3.268,3.268,0,0,1-.767,3.524c-5.852,5.714-13.533,13.5-21.434,14.693-8.618,1.306-22.981,1.828-23.764,0s-3.656-25.07-8.879-36.821-8.618-17.758-9.923-24.548,10.445-22.719,15.668-24.024,17.236-2.09,22.2,2.35,8.618,21.413,14.363,34.209c4.636,10.326,10.462,25.242,12.539,30.617" fill="#5470d3"/>
      <path id="Trazado_115902" data-name="Trazado 115902" d="M479.538,246.931c-1.6-.184-3.2-.317-4.8-.353-1.6-.064-3.2-.059-4.788.035a40.827,40.827,0,0,0-4.732.536c-.783.125-1.552.306-2.323.479a10.839,10.839,0,0,0-2.115.864,13.929,13.929,0,0,0-1.957,1.241,23.113,23.113,0,0,0-1.75,1.567,31.542,31.542,0,0,0-3.1,3.6,46.758,46.758,0,0,0-2.648,3.986c-.85,1.359-1.6,2.774-2.34,4.207a40.088,40.088,0,0,1,4.36-8.637,26.488,26.488,0,0,1,3.052-3.818,20.9,20.9,0,0,1,1.819-1.669,14.68,14.68,0,0,1,2.094-1.357,11.8,11.8,0,0,1,2.346-.926c.8-.168,1.6-.36,2.4-.464a32.227,32.227,0,0,1,4.86-.369,39.593,39.593,0,0,1,9.611,1.083" fill="#314ec6"/>
      <path id="Trazado_115903" data-name="Trazado 115903" d="M505.341,319.147c-.043-4.172-8.854-42.425-16.637-63.745,3.309,7.285,6.4,18.924,10.618,28.317,4.636,10.325,10.462,25.241,12.539,30.616a3.267,3.267,0,0,1-.767,3.524c-2.241,2.189-4.753,4.679-7.44,6.988.2-.2,1.727-1.8,1.687-5.7" fill="#314ec6"/>
      <path id="Trazado_115917" data-name="Trazado 115917" d="M302.674,357.818h-96.43a1.758,1.758,0,0,0-1.758,1.758v4.273a1.758,1.758,0,0,0,1.758,1.758h96.43Z" fill="#282142"/>
      <path id="Trazado_115918" data-name="Trazado 115918" d="M327.491,363.191v1.737a.679.679,0,0,1-.679.679H302.521a1.369,1.369,0,0,1-1.369-1.369v-5.06a1.369,1.369,0,0,1,1.523-1.36l24.213,4.7a.68.68,0,0,1,.6.675" fill="#504984"/>
      <path id="Trazado_115919" data-name="Trazado 115919" d="M134.154,193.921H314.38a8.647,8.647,0,0,1,8.136,5.718L361.931,309.1c1.648,5.646-2.481,9.875-9.119,10.59-1.018.11-5.859-2.066-13.461-5.642H178.228a8.647,8.647,0,0,1-8.136-5.718l-35.6-98.878c-6.021-3.143-9.452-4.938-9.452-4.938s-2.229-10.59,9.119-10.59" fill="#504984"/>
      <path id="Trazado_115920" data-name="Trazado 115920" d="M308.737,199.563H128.511a3.7,3.7,0,0,0-3.477,4.948l39.415,109.458a8.648,8.648,0,0,0,8.136,5.718H352.811a3.7,3.7,0,0,0,3.477-4.948L316.873,205.281a8.647,8.647,0,0,0-8.136-5.718" fill="#1a1a52"/>
      <path id="Trazado_115921" data-name="Trazado 115921" d="M268.05,319.687l-8-29.672-30.321,29.672Z" fill="#282142"/>
      <path id="Trazado_115922" data-name="Trazado 115922" d="M224.17,238c.793,4.894,3.959,6.866,7.751,6.866A5.845,5.845,0,0,0,237.9,238a8.254,8.254,0,0,0-7.751-6.866A5.869,5.869,0,0,0,224.17,238" fill="#504984"/>
      <path id="Trazado_115923" data-name="Trazado 115923" d="M308.87,301.473l-2.318-6.436h2.914l2.317,6.436Z" fill="#282142"/>
      <path id="Trazado_115924" data-name="Trazado 115924" d="M302.735,301.473l-2.318-6.436h2.914l2.317,6.436Z" fill="#282142"/>
      <path id="Trazado_115925" data-name="Trazado 115925" d="M296.6,301.473l-2.318-6.436H297.2l2.317,6.436Z" fill="#282142"/>
      <path id="Trazado_115926" data-name="Trazado 115926" d="M290.466,301.473l-2.317-6.436h2.913l2.317,6.436Z" fill="#282142"/>
      <path id="Trazado_115927" data-name="Trazado 115927" d="M203.331,301.473l-2.318-6.436h2.914l2.317,6.436Z" fill="#282142"/>
      <path id="Trazado_115928" data-name="Trazado 115928" d="M197.2,301.473l-2.318-6.436h2.914l2.317,6.436Z" fill="#282142"/>
      <path id="Trazado_115929" data-name="Trazado 115929" d="M191.062,301.473l-2.317-6.436h2.913l2.317,6.436Z" fill="#282142"/>
      <path id="Trazado_115930" data-name="Trazado 115930" d="M184.928,301.473l-2.318-6.436h2.914l2.317,6.436Z" fill="#282142"/>
      <path id="Trazado_115931" data-name="Trazado 115931" d="M207.192,355.028c1.779-5.114,23.345-74.705,23.345-74.705h27.684l1.829,9.692s-18.562,59.9-20.34,65.013q-.2.585-.386,1.173h0c-1.627,5,2.665,4.979,7.5,4.979h48.823v4.427H214.307c-9.783,0-8.894-5.464-7.115-10.578" fill="#372d5b"/>
      <path id="Trazado_115932" data-name="Trazado 115932" d="M258.221,280.324s-21.567,69.591-23.345,74.7-2.668,10.578,7.115,10.578H209.473c-9.783,0-8.894-5.464-7.115-10.578s23.345-74.7,23.345-74.7Z" fill="#47477e"/>
      <path id="Trazado_115933" data-name="Trazado 115933" d="M251.441,280.324c-2.145-.1-4.29-.148-6.435-.218s-4.289-.089-6.434-.137-4.29-.1-6.435-.1l-6.434-.04-.359,0-.111.348c-.9,2.8-1.781,5.609-2.624,8.429l-2.565,8.447c-1.651,5.649-3.305,11.3-4.814,16.992,1.982-5.547,3.819-11.139,5.659-16.73l2.671-8.414c.9-2.8,1.764-5.614,2.613-8.432l-.47.346,6.434-.04c2.145,0,4.29-.063,6.435-.1s4.29-.063,6.434-.137,4.29-.119,6.435-.218" fill="#7f74d1"/>
      <path id="Trazado_115934" data-name="Trazado 115934" d="M62.84,382.691H540.184a8.543,8.543,0,0,0,0-17.085H62.84a8.543,8.543,0,0,0,0,17.085" fill="#13b770"/>
      <path id="Trazado_115935" data-name="Trazado 115935" d="M62.84,382.691H540.184a8.542,8.542,0,0,0,8.542-8.542H54.3a8.542,8.542,0,0,0,8.542,8.542" fill="#05339e"/>
      <path id="Trazado_115936" data-name="Trazado 115936" d="M163.7,95.23a71.851,71.851,0,1,1-71.85-71.85A71.85,71.85,0,0,1,163.7,95.23" fill="#13b770"/>
    </g>
  </g>
  <g id="Grupo_82611" data-name="Grupo 82611">
    <g id="Grupo_82610" data-name="Grupo 82610" clip-path="url(#clip-path-2)">
      <path id="Trazado_115937" data-name="Trazado 115937" d="M192.881,152.569c1.365,6.857-4.982,12.95-6.969,14.093s-15.324,6.474-23.336,6.664-18.584-16.757-14.256-18.661,33.8-4,37.042-4,7.519,1.9,7.519,1.9" fill="#ffc5c7"/>
      <path id="Trazado_115938" data-name="Trazado 115938" d="M171.871,148.952c-3.5,20.566-11.8,36.561-14.393,36.847s-27.487-8.284-34.35-11.426,2.107-51.409,6.379-50.559,13.636,10.123,21.369,14.57,20.995,10.568,20.995,10.568" fill="#fff"/>
      <path id="Trazado_115939" data-name="Trazado 115939" d="M130.865,157.5c2.4,4.116,22.184,14.548,33.08,18.351-2.693,6.073-5.23,9.81-6.466,9.947-2.22.244-20.788-6-30.389-9.776a146.816,146.816,0,0,1,3.775-18.522" fill="#dcedff"/>
      <path id="Trazado_115940" data-name="Trazado 115940" d="M192.91,151.618c.2,8.159-7.153,9.331-15.951,7.236s-23.161-21.9-29.556-30.848-18.325-24.9-20.792-26.326-8.125-2.186-12.966-10.234,1.527-24.9,3.815-26.9,21.891,4.677,24.169,8.051-1.613,21.512-.923,23.8,17.375,20.947,24.66,25.517,27.4,23.8,27.544,29.706" fill="#ffc5c7"/>
      <path id="Trazado_115941" data-name="Trazado 115941" d="M127.5,78.011c-2.306-1.143-2.863-6.332-1.413-5.417s3.988.895,7.421.847a28.956,28.956,0,0,0,4.84-.344,29.9,29.9,0,0,1,.334,4.091s-8.876,1.966-11.182.823" fill="#fe8a8b"/>
      <path id="Trazado_115942" data-name="Trazado 115942" d="M112.234,79.191c1.4-2.6,2.477-4.57,2.477-4.57L128.2,87.6a84.894,84.894,0,0,1,8.2-6.116l1.187,2.116c-2.182,3.692-4.083,11.5-4.126,13.4,0,0-2.071,2.285-3.227,2.475,0,0,14.427,22.851,23.7,34.086,9.221,11.169,15.536,20.829,19.883,23.934-8.77-5.056-20.732-21.545-26.413-29.5-6.394-8.95-18.325-24.9-20.792-26.326s-8.125-2.186-12.966-10.233c-1.921-3.192-2.064-7.768-1.411-12.255" fill="#fe8a8b"/>
      <path id="Trazado_115943" data-name="Trazado 115943" d="M140.3,80.5c-.163,1.331-13.565,12.949-14.968,14.282a2.01,2.01,0,0,1-1.441,0c-3.563-3.132-19.126-31.393-19.4-32.412-.259-.952,10.072-10.673,13.227-13.274a2.784,2.784,0,0,1,2.49.29c3.184,4.715,20.307,29.394,20.1,31.114" fill="#0c0835"/>
      <path id="Trazado_115944" data-name="Trazado 115944" d="M138.864,80.5C138.7,81.826,125.3,93.444,123.9,94.777s-20.545-31.31-20.845-32.412c-.26-.952,11.243-10.515,14.4-13.116a.886.886,0,0,1,1.319.132c3.184,4.715,20.307,29.394,20.1,31.114" fill="#252384"/>
      <path id="Trazado_115945" data-name="Trazado 115945" d="M136.608,78.585c-.153,1.245-12.69,12.114-14,13.361s-19.22-29.291-19.5-30.322c-.243-.89,10.517-9.837,13.468-12.27a.83.83,0,0,1,1.235.124c2.978,4.41,19,27.5,18.8,29.107" fill="#57aff7"/>
      <path id="Trazado_115946" data-name="Trazado 115946" d="M128.57,62.656c-2.075-1.251-4.623-5.488-4.852-6.916s-.088-2.714,1.027-3,4.551,4.189,6.263,5.522,3.8,4.094,2.947,5.951-4.653,1.142-5.061.856-.324-2.414-.324-2.414" fill="#ffc5c7"/>
      <path id="Trazado_115947" data-name="Trazado 115947" d="M124.1,53.116c-.658,1.623,3.629,8.14,7.388,10.015l-1.4,1.6s-.634-.141-1.449-.333a11.31,11.31,0,0,1-.075-1.74c-2.075-1.251-4.623-5.488-4.852-6.917a3.185,3.185,0,0,1,.385-2.623" fill="#fe8a8b"/>
      <path id="Trazado_115948" data-name="Trazado 115948" d="M133.4,69.24c-3.571-1.908-6.371-1.694-8.314-2.479s-2.295-3.785-.973-4.285,9.369.786,11.443,1.714,3.066,5.2,3.066,5.2Z" fill="#ffc5c7"/>
      <path id="Trazado_115949" data-name="Trazado 115949" d="M131.832,67.014a4.561,4.561,0,0,0,2.714,0c-.058.789.687,1.183,1.526,2.305L133.4,69.24c-3.57-1.909-6.371-1.693-8.313-2.48a2.893,2.893,0,0,1-1.64-2.01c.865,1.646,6.38,1.885,8.39,2.264" fill="#fe8a8b"/>
      <path id="Trazado_115950" data-name="Trazado 115950" d="M141.628,72.6c-1.906,2.637-11.248,1.494-13.132,1.208s-3.066-1.474-2.873-2.674c.388-2.419,12.734-1.991,13.753-1.61s2.252,3.076,2.252,3.076" fill="#ffc5c7"/>
      <path id="Trazado_115951" data-name="Trazado 115951" d="M125.691,71.714c1.276,1.269,4.345,1.992,7.694,2.262a31.349,31.349,0,0,0,4.952.088,38.5,38.5,0,0,1-9.84-.258,3.106,3.106,0,0,1-2.806-2.092" fill="#fe8a8b"/>
      <path id="Trazado_115952" data-name="Trazado 115952" d="M97.9,109.534c19.831,10.092,23.085,9.7,31.6,14.28s5.983,52.749,5.443,60.175-2.593,36.942-1.462,44.94,5.54,37.7,7.492,42.274,5.676,12.282-.084,16.852-17.945,7.713-44.4,6-54.98-17.995-56.242-20.28S52.9,229.5,53.48,221.5a107.548,107.548,0,0,1,3-17.71c.842-3.713-7.575-21.137-8.92-32.276s-13.448-41.871-11.152-47.5,23.374-11.9,37.728-19.059S97.9,109.534,97.9,109.534" fill="#fff"/>
      <path id="Trazado_115953" data-name="Trazado 115953" d="M117.566,122.025a55.284,55.284,0,0,1-18.758,27.3c-10.739-2.635-21.66-7.367-30.454-14.07a127.688,127.688,0,0,0,32.023,17.485,47,47,0,0,0,17.189-30.716" fill="#dcedff"/>
      <path id="Trazado_115954" data-name="Trazado 115954" d="M113.517,116.918c-3.809-1.625-8.7-3.867-15.613-7.383,0,0-9.411-11.734-23.765-4.576-4.981,2.484-10.77,4.861-16.3,7.141a71.7,71.7,0,0,0,38.4,31.34,50.657,50.657,0,0,0,17.284-26.522" fill="#ffc5c7"/>
      <path id="Trazado_115955" data-name="Trazado 115955" d="M40.25,273.774C38.988,271.489,52.9,229.5,53.48,221.5a107.379,107.379,0,0,1,3-17.709c.841-3.714-7.576-21.137-8.921-32.277a59.85,59.85,0,0,0-1.548-7.356l8.942-6.66c5.244,14.627,8.515,40.334,13.484,46.618s17.351,8.854,17.351,8.854-12.229,2.857-17.561,1.714c0,0-5.693,22.565-5.758,33.705s.97,27.992,1.1,30.277c.049.854-.139,3.827-.4,7.218-12.813-5.072-22.217-10.823-22.929-12.113" fill="#dcedff"/>
      <path id="Trazado_115956" data-name="Trazado 115956" d="M76.391,84.666c-.2,11.919-.991,20.107-3.633,22.393,0,0,4.542,19.778,22.677,18.09,6.135-.572,5.551-10.854,2.47-15.615l1.825-14.62Z" fill="#ffc5c7"/>
      <path id="Trazado_115957" data-name="Trazado 115957" d="M74.139,104.959h0c1.552-3.655,2.089-10.78,2.252-20.293L99.73,94.915l-1.171,9.375c-4.136,1.857-24.42.669-24.42.669" fill="#fe8a8b"/>
      <path id="Trazado_115958" data-name="Trazado 115958" d="M12.12,181.066c-4.02,5.522-9.4,19.233-7.379,25.517s22.831,34.276,32.352,44.749,11.681,12.187,13.336,15.615,9.766,17.566,11.9,19.708,5.965,2.429,5.965,2.429a10.144,10.144,0,0,0,8.358,2.57s4.783,3.285,8.577,4.142c0,0,1.252,2.425,2.521,2.641s2.885-2.356.546-7.5-6.183-7.284-6.8-10.568-3.591-9.986-3.591-9.986,6.676,6.844,10.786,7.272,4.663-2,2.407-4a52.181,52.181,0,0,1-7.9-8.855,15.7,15.7,0,0,0-11.334-7.14c-5.233-.714-8.9-1.286-10.26-2.285s-8.2-10.712-12.872-21.185-8.863-23.857-20.746-35.609l5.235-9.14Z" fill="#ffc5c7"/>
      <path id="Trazado_115959" data-name="Trazado 115959" d="M85.048,295.141a22.005,22.005,0,0,0-4.924-7.566l-.812-.8c-.24-.249-.663-.563-.756-.71-.41-.522-.764-1.209-1.158-1.83-.754-1.284-1.487-2.593-2.321-3.854a31.88,31.88,0,0,0,1.529,4.3,12.882,12.882,0,0,0,1.062,2.074,8.6,8.6,0,0,0,.837.854l.764.789c1.029,1.054,2,2.163,2.985,3.267s1.887,2.273,2.794,3.479" fill="#fe8a8b"/>
      <path id="Trazado_115960" data-name="Trazado 115960" d="M76.424,290.666c-.787-1.538-1.721-2.871-2.554-4.273-.872-1.383-1.646-2.769-2.44-4.3a8.868,8.868,0,0,0,1.452,4.944,11.333,11.333,0,0,0,3.542,3.625" fill="#fe8a8b"/>
      <path id="Trazado_115961" data-name="Trazado 115961" d="M72.244,291.276a9.346,9.346,0,0,1-3.956-2.192s-3.835-.286-5.964-2.428a55.191,55.191,0,0,1-4.761-7.1c.043.053,2.437,2.653,4.156,4.8a5.809,5.809,0,0,0,5.9,2.022l-.465-2.785s2.312,6.321,5.088,7.679" fill="#fe8a8b"/>
      <path id="Trazado_115962" data-name="Trazado 115962" d="M4.652,199.6c.113,2.606.144,4.678,4.01,11.516,4.351,7.7,30.5,40.132,36.2,46.13s5.534,6.38,8.911,15.857c-1.524-2.679-2.8-5.015-3.348-6.157-1.655-3.427-3.815-5.141-13.336-15.614S6.758,212.867,4.74,206.583a15.636,15.636,0,0,1-.088-6.982" fill="#fe8a8b"/>
      <path id="Trazado_115963" data-name="Trazado 115963" d="M25.147,192.1l-2.124,3.54a12.122,12.122,0,0,1,4.959,2.941l4.145-7.034Z" fill="#fe8a8b"/>
      <path id="Trazado_115964" data-name="Trazado 115964" d="M50.206,172.742c5.461-10.736,7.647-28.17,2.718-37.346S38.692,122.917,36.41,124.018s-8.463,15.415-14.266,22.022S.494,171.182.014,172.742s11.454,14.151,33.9,23.4c2.672,1.1,16.292-23.4,16.292-23.4" fill="#fff"/>
      <path id="Trazado_115965" data-name="Trazado 115965" d="M33.557,181.066l-3.581,7.343s17.64-17.684,24.963-30.88a53.079,53.079,0,0,1-4.732,15.213s-13.62,24.5-16.293,23.4c-3.841-1.583-7.349-3.265-10.565-4.971Z" fill="#dcedff"/>
      <path id="Trazado_115966" data-name="Trazado 115966" d="M101.079,85.735c-1.213-4.914-1.187-9.939-1.48-14.964-.219-3.757-.41-7.2-3.82-9.443a12.62,12.62,0,0,0-8.549-1.593c-7.88,1-9.575,8.679-8.971,15.949.461,5.565,2.636,10.91,4.794,16.028-2.9-.128-6.855-1.646-8.585-4.058a17.186,17.186,0,0,0,4.55,8.334c-8.4-.144-16.193-5.64-20.641-13.02s-5.858-16.39-5.385-25.077c.562-10.308,3.776-20.64,10.152-28.576,12.824-15.964,37.53-17.825,52.575-4.106A37.806,37.806,0,0,1,126.52,43.1a59.526,59.526,0,0,1,.493,27.8,95.667,95.667,0,0,0-1.535,10.821c-.116,1.172-1.537,14.779-.715,14.729-5.305.322-11.4-.75-14.994-4.8,1.611,2.785,3,5.468,4.613,8.253-6.7-1.114-11.622-7.356-13.3-14.164" fill="#372d5b"/>
      <path id="Trazado_115967" data-name="Trazado 115967" d="M73.55,67.193c-2.37-1.4-5.219-2.162-7.417.067C62.9,70.546,67.5,85.827,74.478,82.113c0,0,10.111,14.14,17.532,18.138s12.708,2,15.487-.856S119.753,84.822,121.458,72.4c.608-4.427-.044-13.139.091-15,.417-5.712,2.581-10.4-1.925-14.885a26.084,26.084,0,0,0-17.275-7.5,27.893,27.893,0,0,0-21.516,9.411c-5.914,6.7-6.939,14.266-7.283,22.757" fill="#ffc5c7"/>
      <path id="Trazado_115968" data-name="Trazado 115968" d="M67.281,71.437c.6-2.8,2.992-3.351,4.768-1.4,1.821,2,2.127,8.333,1.659,9.266s-3.6.867-4.189-1.066,1.229-3.146,2.987-2.573c0,0,.492-2.821-.945-4.639s-2.935-1.121-3.3-.654a14.415,14.415,0,0,1-.978,1.066" fill="#fe8a8b"/>
      <path id="Trazado_115969" data-name="Trazado 115969" d="M86.609,59.052a24.458,24.458,0,0,1,2.145-1.769,14.97,14.97,0,0,1,2.423-1.437,7.95,7.95,0,0,1,2.685-.9,5.6,5.6,0,0,1,2.727.361l-.012.128a13.546,13.546,0,0,1-1.32.424L94,56.2c-.819.241-1.667.314-2.5.59a18.465,18.465,0,0,0-2.441,1.03c-.808.394-1.589.862-2.378,1.33Z" fill="#3f1751"/>
      <path id="Trazado_115970" data-name="Trazado 115970" d="M118.2,55.846a9.207,9.207,0,0,0-2.417-.878,13.27,13.27,0,0,0-2.554-.3c-.865-.018-1.724.159-2.578.153a24.824,24.824,0,0,1-2.671-.066l-.027-.123a6.6,6.6,0,0,1,2.66-1.085,7.992,7.992,0,0,1,2.779.1,10.958,10.958,0,0,1,2.627.713,8.276,8.276,0,0,1,2.26,1.383Z" fill="#3f1751"/>
      <path id="Trazado_115971" data-name="Trazado 115971" d="M95.09,64.073c-.032-1.208-.64-2.13-1.359-2.06s-1.275,1.108-1.244,2.316.64,2.13,1.359,2.06,1.275-1.108,1.244-2.316" fill="#3f1751"/>
      <path id="Trazado_115972" data-name="Trazado 115972" d="M114.168,62.548c-.032-1.208-.534-2.141-1.121-2.083s-1.039,1.084-1.007,2.292.534,2.141,1.121,2.083,1.039-1.084,1.007-2.292" fill="#3f1751"/>
      <path id="Trazado_115973" data-name="Trazado 115973" d="M101.064,75.816a5.4,5.4,0,0,0,5.892-.06,2.722,2.722,0,0,1-1.526,2.168,3.634,3.634,0,0,1-2.738-.148c-.833-.382-1.1-1.219-1.628-1.96" fill="#fe8a8b"/>
      <path id="Trazado_115974" data-name="Trazado 115974" d="M94.444,82.9a165.065,165.065,0,0,0,16.686-1.115c-1.231,4.036-4.461,8.023-8.971,8.025-4.06,0-6.742-3.334-7.715-6.91" fill="#c31f2a"/>
      <path id="Trazado_115975" data-name="Trazado 115975" d="M98.1,88.5a7.129,7.129,0,0,1,3.845-.037,6.163,6.163,0,0,1,5.169-.506,7.812,7.812,0,0,1-4.954,1.861A6.848,6.848,0,0,1,98.1,88.5" fill="#fb8384"/>
      <path id="Trazado_115976" data-name="Trazado 115976" d="M108.427,85.165a19.468,19.468,0,0,1-12.234-.474c-.026-.6-.071-1.2-.117-1.8,3.938-.084,10.313-.56,13.725-.941a11.411,11.411,0,0,1-1.374,3.212" fill="#fff"/>
      <path id="Trazado_115977" data-name="Trazado 115977" d="M77.535,54.046a55.611,55.611,0,0,0,18.95-4.207c1.143-2.643,1.182-4.989,1.353-7.864a22.809,22.809,0,0,1,2.771,9.757c3.785-.246,7.587-.449,11.371-.695A23.591,23.591,0,0,0,113,41.775a40.131,40.131,0,0,1,2.357,9.956c2.285-.813,5.179.372,7.565.8,2.957-6.587,2.764-18.523-3.491-23.519-6.093-4.867-16.677-6.191-24.122-5.113C79.471,26.192,67.022,39.343,68,55.728c.56,9.347,5.25,18.186,11.974,24.7a37.9,37.9,0,0,1-2.444-26.385" fill="#372d5b"/>
    </g>
  </g>
</svg>
